M48
; DRILL file KiCad 10.0.5 date 2026-09-27T19:02:31
; FORMAT={-:-/ absolute / metric / decimal}
; #@! TF.CreationDate,2026-09-27T19:02:31+05:30
; #@! TF.GenerationSoftware,Kicad,Pcbnew,10.0.5
; #@! TF.FileFunction,MixedPlating,1,4
FMAT,2
METRIC
; #@! TA.AperFunction,Plated,PTH,ViaDrill
T1C0.300
; #@! TA.AperFunction,Plated,PTH,ComponentDrill
T2C0.300
; #@! TA.AperFunction,Plated,PTH,ComponentDrill
T3C1.100
; #@! TA.AperFunction,Plated,PTH,ComponentDrill
T4C1.300
; #@! TA.AperFunction,Plated,PTH,ComponentDrill
T5C1.400
%
G90
G05
T1
X126.4Y-79.4
X128.0Y-96.72
X128.2Y-82.5
X130.2Y-84.5
X130.7Y-80.7
X130.8Y-105.32
X132.5Y-99.22
X132.6Y-107.2
X133.053Y-102.956
X133.4Y-101.52
X133.5Y-103.62
X134.3Y-97.72
X135.0Y-95.52
X135.0Y-105.02
X135.4Y-103.4
X136.1Y-95.52
X136.4Y-105.92
X136.74Y-106.66
X136.75Y-89.72
X137.2Y-93.62
X137.5Y-97.82
X137.714Y-110.82
X137.8Y-102.02
X138.02Y-103.331
X138.2Y-96.82
X138.2Y-104.92
X138.555Y-106.875
X138.676Y-110.82
X138.8Y-113.1
X139.3Y-112.22
X140.0Y-97.82
X140.429Y-103.0
X140.573Y-96.642
X141.146Y-104.401
X141.2Y-110.9
X142.7Y-97.72
X142.8Y-85.32
X143.1Y-102.52
X143.5Y-95.6
X144.395Y-101.825
X146.5Y-103.72
X147.3Y-78.1
X147.4Y-102.12
X148.0Y-73.32
X149.6Y-91.62
X149.8Y-94.62
X149.9Y-103.42
X150.8Y-72.22
X152.1Y-96.92
X152.16Y-73.28
X152.7Y-93.62
X152.85Y-84.77
X155.0Y-97.32
X155.6Y-101.02
X155.63Y-97.87
X156.499Y-103.419
X156.5Y-123.07
X156.8Y-101.52
X157.3Y-103.82
X157.5Y-109.92
X157.6Y-108.72
X157.8Y-105.22
X158.8Y-77.02
X159.5Y-104.52
X160.7Y-114.52
X161.4Y-97.8
X162.0Y-102.92
X163.8Y-99.02
X164.4Y-110.12
T2
X122.4Y-71.6
X122.4Y-72.8
X122.4Y-74.1
X122.4Y-75.2
X123.6Y-71.6
X123.6Y-72.8
X123.6Y-74.1
X123.6Y-75.2
T3
X130.15Y-112.97
X130.15Y-117.47
X136.65Y-112.97
X136.65Y-117.47
X158.45Y-112.67
X158.45Y-119.17
X162.95Y-112.67
X162.95Y-119.17
T4
X130.2Y-71.388
X135.2Y-71.388
T5
X123.5Y-92.36
X123.5Y-96.32
X123.5Y-100.28
X123.5Y-104.24
X123.5Y-108.2
X123.5Y-112.16
X123.5Y-116.12
X123.5Y-120.08
X168.7Y-92.8
X168.7Y-96.76
X168.7Y-100.72
X168.7Y-104.68
X168.7Y-108.64
X168.7Y-112.6
X168.7Y-116.56
X168.7Y-120.52
M30
