%TF.GenerationSoftware,KiCad,Pcbnew,10.0.5*%
%TF.CreationDate,2026-09-27T19:02:26+05:30*%
%TF.ProjectId,STM32 GPS Tracker,53544d33-3220-4475-9053-20547261636b,rev?*%
%TF.SameCoordinates,Original*%
%TF.FileFunction,Legend,Top*%
%TF.FilePolarity,Positive*%
%FSLAX46Y46*%
G04 Gerber Fmt 4.6, Leading zero omitted, Abs format (unit mm)*
G04 Created by KiCad (PCBNEW 10.0.5) date 2026-09-27 19:02:26*
%MOMM*%
%LPD*%
G01*
G04 APERTURE LIST*
%ADD10C,0.100000*%
%ADD11C,0.150000*%
%ADD12C,0.120000*%
%ADD13C,0.127000*%
%ADD14C,0.200000*%
G04 APERTURE END LIST*
D10*
X162527693Y-120420038D02*
X162432455Y-120372419D01*
X162432455Y-120372419D02*
X162289598Y-120372419D01*
X162289598Y-120372419D02*
X162146741Y-120420038D01*
X162146741Y-120420038D02*
X162051503Y-120515276D01*
X162051503Y-120515276D02*
X162003884Y-120610514D01*
X162003884Y-120610514D02*
X161956265Y-120800990D01*
X161956265Y-120800990D02*
X161956265Y-120943847D01*
X161956265Y-120943847D02*
X162003884Y-121134323D01*
X162003884Y-121134323D02*
X162051503Y-121229561D01*
X162051503Y-121229561D02*
X162146741Y-121324800D01*
X162146741Y-121324800D02*
X162289598Y-121372419D01*
X162289598Y-121372419D02*
X162384836Y-121372419D01*
X162384836Y-121372419D02*
X162527693Y-121324800D01*
X162527693Y-121324800D02*
X162575312Y-121277180D01*
X162575312Y-121277180D02*
X162575312Y-120943847D01*
X162575312Y-120943847D02*
X162384836Y-120943847D01*
X163003884Y-121372419D02*
X163003884Y-120372419D01*
X163003884Y-120372419D02*
X163575312Y-121372419D01*
X163575312Y-121372419D02*
X163575312Y-120372419D01*
X164051503Y-121372419D02*
X164051503Y-120372419D01*
X164051503Y-120372419D02*
X164289598Y-120372419D01*
X164289598Y-120372419D02*
X164432455Y-120420038D01*
X164432455Y-120420038D02*
X164527693Y-120515276D01*
X164527693Y-120515276D02*
X164575312Y-120610514D01*
X164575312Y-120610514D02*
X164622931Y-120800990D01*
X164622931Y-120800990D02*
X164622931Y-120943847D01*
X164622931Y-120943847D02*
X164575312Y-121134323D01*
X164575312Y-121134323D02*
X164527693Y-121229561D01*
X164527693Y-121229561D02*
X164432455Y-121324800D01*
X164432455Y-121324800D02*
X164289598Y-121372419D01*
X164289598Y-121372419D02*
X164051503Y-121372419D01*
X160656265Y-116924800D02*
X160799122Y-116972419D01*
X160799122Y-116972419D02*
X161037217Y-116972419D01*
X161037217Y-116972419D02*
X161132455Y-116924800D01*
X161132455Y-116924800D02*
X161180074Y-116877180D01*
X161180074Y-116877180D02*
X161227693Y-116781942D01*
X161227693Y-116781942D02*
X161227693Y-116686704D01*
X161227693Y-116686704D02*
X161180074Y-116591466D01*
X161180074Y-116591466D02*
X161132455Y-116543847D01*
X161132455Y-116543847D02*
X161037217Y-116496228D01*
X161037217Y-116496228D02*
X160846741Y-116448609D01*
X160846741Y-116448609D02*
X160751503Y-116400990D01*
X160751503Y-116400990D02*
X160703884Y-116353371D01*
X160703884Y-116353371D02*
X160656265Y-116258133D01*
X160656265Y-116258133D02*
X160656265Y-116162895D01*
X160656265Y-116162895D02*
X160703884Y-116067657D01*
X160703884Y-116067657D02*
X160751503Y-116020038D01*
X160751503Y-116020038D02*
X160846741Y-115972419D01*
X160846741Y-115972419D02*
X161084836Y-115972419D01*
X161084836Y-115972419D02*
X161227693Y-116020038D01*
X161561027Y-115972419D02*
X161799122Y-116972419D01*
X161799122Y-116972419D02*
X161989598Y-116258133D01*
X161989598Y-116258133D02*
X162180074Y-116972419D01*
X162180074Y-116972419D02*
X162418170Y-115972419D01*
X162799122Y-116972419D02*
X162799122Y-115972419D01*
X162799122Y-115972419D02*
X163037217Y-115972419D01*
X163037217Y-115972419D02*
X163180074Y-116020038D01*
X163180074Y-116020038D02*
X163275312Y-116115276D01*
X163275312Y-116115276D02*
X163322931Y-116210514D01*
X163322931Y-116210514D02*
X163370550Y-116400990D01*
X163370550Y-116400990D02*
X163370550Y-116543847D01*
X163370550Y-116543847D02*
X163322931Y-116734323D01*
X163322931Y-116734323D02*
X163275312Y-116829561D01*
X163275312Y-116829561D02*
X163180074Y-116924800D01*
X163180074Y-116924800D02*
X163037217Y-116972419D01*
X163037217Y-116972419D02*
X162799122Y-116972419D01*
X163799122Y-116972419D02*
X163799122Y-115972419D01*
X164465788Y-115972419D02*
X164656264Y-115972419D01*
X164656264Y-115972419D02*
X164751502Y-116020038D01*
X164751502Y-116020038D02*
X164846740Y-116115276D01*
X164846740Y-116115276D02*
X164894359Y-116305752D01*
X164894359Y-116305752D02*
X164894359Y-116639085D01*
X164894359Y-116639085D02*
X164846740Y-116829561D01*
X164846740Y-116829561D02*
X164751502Y-116924800D01*
X164751502Y-116924800D02*
X164656264Y-116972419D01*
X164656264Y-116972419D02*
X164465788Y-116972419D01*
X164465788Y-116972419D02*
X164370550Y-116924800D01*
X164370550Y-116924800D02*
X164275312Y-116829561D01*
X164275312Y-116829561D02*
X164227693Y-116639085D01*
X164227693Y-116639085D02*
X164227693Y-116305752D01*
X164227693Y-116305752D02*
X164275312Y-116115276D01*
X164275312Y-116115276D02*
X164370550Y-116020038D01*
X164370550Y-116020038D02*
X164465788Y-115972419D01*
X161603884Y-113542419D02*
X161603884Y-112542419D01*
X161603884Y-112542419D02*
X162175312Y-113542419D01*
X162175312Y-113542419D02*
X162175312Y-112542419D01*
X163222931Y-113542419D02*
X162889598Y-113066228D01*
X162651503Y-113542419D02*
X162651503Y-112542419D01*
X162651503Y-112542419D02*
X163032455Y-112542419D01*
X163032455Y-112542419D02*
X163127693Y-112590038D01*
X163127693Y-112590038D02*
X163175312Y-112637657D01*
X163175312Y-112637657D02*
X163222931Y-112732895D01*
X163222931Y-112732895D02*
X163222931Y-112875752D01*
X163222931Y-112875752D02*
X163175312Y-112970990D01*
X163175312Y-112970990D02*
X163127693Y-113018609D01*
X163127693Y-113018609D02*
X163032455Y-113066228D01*
X163032455Y-113066228D02*
X162651503Y-113066228D01*
X163603884Y-113494800D02*
X163746741Y-113542419D01*
X163746741Y-113542419D02*
X163984836Y-113542419D01*
X163984836Y-113542419D02*
X164080074Y-113494800D01*
X164080074Y-113494800D02*
X164127693Y-113447180D01*
X164127693Y-113447180D02*
X164175312Y-113351942D01*
X164175312Y-113351942D02*
X164175312Y-113256704D01*
X164175312Y-113256704D02*
X164127693Y-113161466D01*
X164127693Y-113161466D02*
X164080074Y-113113847D01*
X164080074Y-113113847D02*
X163984836Y-113066228D01*
X163984836Y-113066228D02*
X163794360Y-113018609D01*
X163794360Y-113018609D02*
X163699122Y-112970990D01*
X163699122Y-112970990D02*
X163651503Y-112923371D01*
X163651503Y-112923371D02*
X163603884Y-112828133D01*
X163603884Y-112828133D02*
X163603884Y-112732895D01*
X163603884Y-112732895D02*
X163651503Y-112637657D01*
X163651503Y-112637657D02*
X163699122Y-112590038D01*
X163699122Y-112590038D02*
X163794360Y-112542419D01*
X163794360Y-112542419D02*
X164032455Y-112542419D01*
X164032455Y-112542419D02*
X164175312Y-112590038D01*
X164461027Y-112542419D02*
X165032455Y-112542419D01*
X164746741Y-113542419D02*
X164746741Y-112542419D01*
X159956265Y-108824800D02*
X160099122Y-108872419D01*
X160099122Y-108872419D02*
X160337217Y-108872419D01*
X160337217Y-108872419D02*
X160432455Y-108824800D01*
X160432455Y-108824800D02*
X160480074Y-108777180D01*
X160480074Y-108777180D02*
X160527693Y-108681942D01*
X160527693Y-108681942D02*
X160527693Y-108586704D01*
X160527693Y-108586704D02*
X160480074Y-108491466D01*
X160480074Y-108491466D02*
X160432455Y-108443847D01*
X160432455Y-108443847D02*
X160337217Y-108396228D01*
X160337217Y-108396228D02*
X160146741Y-108348609D01*
X160146741Y-108348609D02*
X160051503Y-108300990D01*
X160051503Y-108300990D02*
X160003884Y-108253371D01*
X160003884Y-108253371D02*
X159956265Y-108158133D01*
X159956265Y-108158133D02*
X159956265Y-108062895D01*
X159956265Y-108062895D02*
X160003884Y-107967657D01*
X160003884Y-107967657D02*
X160051503Y-107920038D01*
X160051503Y-107920038D02*
X160146741Y-107872419D01*
X160146741Y-107872419D02*
X160384836Y-107872419D01*
X160384836Y-107872419D02*
X160527693Y-107920038D01*
X160861027Y-107872419D02*
X161099122Y-108872419D01*
X161099122Y-108872419D02*
X161289598Y-108158133D01*
X161289598Y-108158133D02*
X161480074Y-108872419D01*
X161480074Y-108872419D02*
X161718170Y-107872419D01*
X162099122Y-108872419D02*
X162099122Y-107872419D01*
X162099122Y-107872419D02*
X162337217Y-107872419D01*
X162337217Y-107872419D02*
X162480074Y-107920038D01*
X162480074Y-107920038D02*
X162575312Y-108015276D01*
X162575312Y-108015276D02*
X162622931Y-108110514D01*
X162622931Y-108110514D02*
X162670550Y-108300990D01*
X162670550Y-108300990D02*
X162670550Y-108443847D01*
X162670550Y-108443847D02*
X162622931Y-108634323D01*
X162622931Y-108634323D02*
X162575312Y-108729561D01*
X162575312Y-108729561D02*
X162480074Y-108824800D01*
X162480074Y-108824800D02*
X162337217Y-108872419D01*
X162337217Y-108872419D02*
X162099122Y-108872419D01*
X163670550Y-108777180D02*
X163622931Y-108824800D01*
X163622931Y-108824800D02*
X163480074Y-108872419D01*
X163480074Y-108872419D02*
X163384836Y-108872419D01*
X163384836Y-108872419D02*
X163241979Y-108824800D01*
X163241979Y-108824800D02*
X163146741Y-108729561D01*
X163146741Y-108729561D02*
X163099122Y-108634323D01*
X163099122Y-108634323D02*
X163051503Y-108443847D01*
X163051503Y-108443847D02*
X163051503Y-108300990D01*
X163051503Y-108300990D02*
X163099122Y-108110514D01*
X163099122Y-108110514D02*
X163146741Y-108015276D01*
X163146741Y-108015276D02*
X163241979Y-107920038D01*
X163241979Y-107920038D02*
X163384836Y-107872419D01*
X163384836Y-107872419D02*
X163480074Y-107872419D01*
X163480074Y-107872419D02*
X163622931Y-107920038D01*
X163622931Y-107920038D02*
X163670550Y-107967657D01*
X164099122Y-108872419D02*
X164099122Y-107872419D01*
X164575312Y-108872419D02*
X164575312Y-107872419D01*
X165146740Y-108872419D02*
X164718169Y-108300990D01*
X165146740Y-107872419D02*
X164575312Y-108443847D01*
X157656265Y-104524800D02*
X157799122Y-104572419D01*
X157799122Y-104572419D02*
X158037217Y-104572419D01*
X158037217Y-104572419D02*
X158132455Y-104524800D01*
X158132455Y-104524800D02*
X158180074Y-104477180D01*
X158180074Y-104477180D02*
X158227693Y-104381942D01*
X158227693Y-104381942D02*
X158227693Y-104286704D01*
X158227693Y-104286704D02*
X158180074Y-104191466D01*
X158180074Y-104191466D02*
X158132455Y-104143847D01*
X158132455Y-104143847D02*
X158037217Y-104096228D01*
X158037217Y-104096228D02*
X157846741Y-104048609D01*
X157846741Y-104048609D02*
X157751503Y-104000990D01*
X157751503Y-104000990D02*
X157703884Y-103953371D01*
X157703884Y-103953371D02*
X157656265Y-103858133D01*
X157656265Y-103858133D02*
X157656265Y-103762895D01*
X157656265Y-103762895D02*
X157703884Y-103667657D01*
X157703884Y-103667657D02*
X157751503Y-103620038D01*
X157751503Y-103620038D02*
X157846741Y-103572419D01*
X157846741Y-103572419D02*
X158084836Y-103572419D01*
X158084836Y-103572419D02*
X158227693Y-103620038D01*
X158656265Y-104572419D02*
X158656265Y-103572419D01*
X159132455Y-104572419D02*
X159132455Y-103572419D01*
X159132455Y-103572419D02*
X159465788Y-104286704D01*
X159465788Y-104286704D02*
X159799121Y-103572419D01*
X159799121Y-103572419D02*
X159799121Y-104572419D01*
X161608645Y-104572419D02*
X161275312Y-104096228D01*
X161037217Y-104572419D02*
X161037217Y-103572419D01*
X161037217Y-103572419D02*
X161418169Y-103572419D01*
X161418169Y-103572419D02*
X161513407Y-103620038D01*
X161513407Y-103620038D02*
X161561026Y-103667657D01*
X161561026Y-103667657D02*
X161608645Y-103762895D01*
X161608645Y-103762895D02*
X161608645Y-103905752D01*
X161608645Y-103905752D02*
X161561026Y-104000990D01*
X161561026Y-104000990D02*
X161513407Y-104048609D01*
X161513407Y-104048609D02*
X161418169Y-104096228D01*
X161418169Y-104096228D02*
X161037217Y-104096228D01*
X162037217Y-104048609D02*
X162370550Y-104048609D01*
X162513407Y-104572419D02*
X162037217Y-104572419D01*
X162037217Y-104572419D02*
X162037217Y-103572419D01*
X162037217Y-103572419D02*
X162513407Y-103572419D01*
X162894360Y-104524800D02*
X163037217Y-104572419D01*
X163037217Y-104572419D02*
X163275312Y-104572419D01*
X163275312Y-104572419D02*
X163370550Y-104524800D01*
X163370550Y-104524800D02*
X163418169Y-104477180D01*
X163418169Y-104477180D02*
X163465788Y-104381942D01*
X163465788Y-104381942D02*
X163465788Y-104286704D01*
X163465788Y-104286704D02*
X163418169Y-104191466D01*
X163418169Y-104191466D02*
X163370550Y-104143847D01*
X163370550Y-104143847D02*
X163275312Y-104096228D01*
X163275312Y-104096228D02*
X163084836Y-104048609D01*
X163084836Y-104048609D02*
X162989598Y-104000990D01*
X162989598Y-104000990D02*
X162941979Y-103953371D01*
X162941979Y-103953371D02*
X162894360Y-103858133D01*
X162894360Y-103858133D02*
X162894360Y-103762895D01*
X162894360Y-103762895D02*
X162941979Y-103667657D01*
X162941979Y-103667657D02*
X162989598Y-103620038D01*
X162989598Y-103620038D02*
X163084836Y-103572419D01*
X163084836Y-103572419D02*
X163322931Y-103572419D01*
X163322931Y-103572419D02*
X163465788Y-103620038D01*
X163894360Y-104048609D02*
X164227693Y-104048609D01*
X164370550Y-104572419D02*
X163894360Y-104572419D01*
X163894360Y-104572419D02*
X163894360Y-103572419D01*
X163894360Y-103572419D02*
X164370550Y-103572419D01*
X164656265Y-103572419D02*
X165227693Y-103572419D01*
X164941979Y-104572419D02*
X164941979Y-103572419D01*
X159856265Y-100724800D02*
X159999122Y-100772419D01*
X159999122Y-100772419D02*
X160237217Y-100772419D01*
X160237217Y-100772419D02*
X160332455Y-100724800D01*
X160332455Y-100724800D02*
X160380074Y-100677180D01*
X160380074Y-100677180D02*
X160427693Y-100581942D01*
X160427693Y-100581942D02*
X160427693Y-100486704D01*
X160427693Y-100486704D02*
X160380074Y-100391466D01*
X160380074Y-100391466D02*
X160332455Y-100343847D01*
X160332455Y-100343847D02*
X160237217Y-100296228D01*
X160237217Y-100296228D02*
X160046741Y-100248609D01*
X160046741Y-100248609D02*
X159951503Y-100200990D01*
X159951503Y-100200990D02*
X159903884Y-100153371D01*
X159903884Y-100153371D02*
X159856265Y-100058133D01*
X159856265Y-100058133D02*
X159856265Y-99962895D01*
X159856265Y-99962895D02*
X159903884Y-99867657D01*
X159903884Y-99867657D02*
X159951503Y-99820038D01*
X159951503Y-99820038D02*
X160046741Y-99772419D01*
X160046741Y-99772419D02*
X160284836Y-99772419D01*
X160284836Y-99772419D02*
X160427693Y-99820038D01*
X160856265Y-100772419D02*
X160856265Y-99772419D01*
X161332455Y-100772419D02*
X161332455Y-99772419D01*
X161332455Y-99772419D02*
X161665788Y-100486704D01*
X161665788Y-100486704D02*
X161999121Y-99772419D01*
X161999121Y-99772419D02*
X161999121Y-100772419D01*
X163808645Y-100772419D02*
X163475312Y-100296228D01*
X163237217Y-100772419D02*
X163237217Y-99772419D01*
X163237217Y-99772419D02*
X163618169Y-99772419D01*
X163618169Y-99772419D02*
X163713407Y-99820038D01*
X163713407Y-99820038D02*
X163761026Y-99867657D01*
X163761026Y-99867657D02*
X163808645Y-99962895D01*
X163808645Y-99962895D02*
X163808645Y-100105752D01*
X163808645Y-100105752D02*
X163761026Y-100200990D01*
X163761026Y-100200990D02*
X163713407Y-100248609D01*
X163713407Y-100248609D02*
X163618169Y-100296228D01*
X163618169Y-100296228D02*
X163237217Y-100296228D01*
X164141979Y-99772419D02*
X164808645Y-100772419D01*
X164808645Y-99772419D02*
X164141979Y-100772419D01*
X160256265Y-97024800D02*
X160399122Y-97072419D01*
X160399122Y-97072419D02*
X160637217Y-97072419D01*
X160637217Y-97072419D02*
X160732455Y-97024800D01*
X160732455Y-97024800D02*
X160780074Y-96977180D01*
X160780074Y-96977180D02*
X160827693Y-96881942D01*
X160827693Y-96881942D02*
X160827693Y-96786704D01*
X160827693Y-96786704D02*
X160780074Y-96691466D01*
X160780074Y-96691466D02*
X160732455Y-96643847D01*
X160732455Y-96643847D02*
X160637217Y-96596228D01*
X160637217Y-96596228D02*
X160446741Y-96548609D01*
X160446741Y-96548609D02*
X160351503Y-96500990D01*
X160351503Y-96500990D02*
X160303884Y-96453371D01*
X160303884Y-96453371D02*
X160256265Y-96358133D01*
X160256265Y-96358133D02*
X160256265Y-96262895D01*
X160256265Y-96262895D02*
X160303884Y-96167657D01*
X160303884Y-96167657D02*
X160351503Y-96120038D01*
X160351503Y-96120038D02*
X160446741Y-96072419D01*
X160446741Y-96072419D02*
X160684836Y-96072419D01*
X160684836Y-96072419D02*
X160827693Y-96120038D01*
X161256265Y-97072419D02*
X161256265Y-96072419D01*
X161732455Y-97072419D02*
X161732455Y-96072419D01*
X161732455Y-96072419D02*
X162065788Y-96786704D01*
X162065788Y-96786704D02*
X162399121Y-96072419D01*
X162399121Y-96072419D02*
X162399121Y-97072419D01*
X163494360Y-96072419D02*
X164065788Y-96072419D01*
X163780074Y-97072419D02*
X163780074Y-96072419D01*
X164303884Y-96072419D02*
X164970550Y-97072419D01*
X164970550Y-96072419D02*
X164303884Y-97072419D01*
X159056265Y-93424800D02*
X159199122Y-93472419D01*
X159199122Y-93472419D02*
X159437217Y-93472419D01*
X159437217Y-93472419D02*
X159532455Y-93424800D01*
X159532455Y-93424800D02*
X159580074Y-93377180D01*
X159580074Y-93377180D02*
X159627693Y-93281942D01*
X159627693Y-93281942D02*
X159627693Y-93186704D01*
X159627693Y-93186704D02*
X159580074Y-93091466D01*
X159580074Y-93091466D02*
X159532455Y-93043847D01*
X159532455Y-93043847D02*
X159437217Y-92996228D01*
X159437217Y-92996228D02*
X159246741Y-92948609D01*
X159246741Y-92948609D02*
X159151503Y-92900990D01*
X159151503Y-92900990D02*
X159103884Y-92853371D01*
X159103884Y-92853371D02*
X159056265Y-92758133D01*
X159056265Y-92758133D02*
X159056265Y-92662895D01*
X159056265Y-92662895D02*
X159103884Y-92567657D01*
X159103884Y-92567657D02*
X159151503Y-92520038D01*
X159151503Y-92520038D02*
X159246741Y-92472419D01*
X159246741Y-92472419D02*
X159484836Y-92472419D01*
X159484836Y-92472419D02*
X159627693Y-92520038D01*
X160056265Y-93472419D02*
X160056265Y-92472419D01*
X160532455Y-93472419D02*
X160532455Y-92472419D01*
X160532455Y-92472419D02*
X160865788Y-93186704D01*
X160865788Y-93186704D02*
X161199121Y-92472419D01*
X161199121Y-92472419D02*
X161199121Y-93472419D01*
X162437217Y-93472419D02*
X162437217Y-92472419D01*
X162437217Y-92472419D02*
X162818169Y-92472419D01*
X162818169Y-92472419D02*
X162913407Y-92520038D01*
X162913407Y-92520038D02*
X162961026Y-92567657D01*
X162961026Y-92567657D02*
X163008645Y-92662895D01*
X163008645Y-92662895D02*
X163008645Y-92805752D01*
X163008645Y-92805752D02*
X162961026Y-92900990D01*
X162961026Y-92900990D02*
X162913407Y-92948609D01*
X162913407Y-92948609D02*
X162818169Y-92996228D01*
X162818169Y-92996228D02*
X162437217Y-92996228D01*
X163341979Y-92472419D02*
X163580074Y-93472419D01*
X163580074Y-93472419D02*
X163770550Y-92758133D01*
X163770550Y-92758133D02*
X163961026Y-93472419D01*
X163961026Y-93472419D02*
X164199122Y-92472419D01*
X165151502Y-93472419D02*
X164818169Y-92996228D01*
X164580074Y-93472419D02*
X164580074Y-92472419D01*
X164580074Y-92472419D02*
X164961026Y-92472419D01*
X164961026Y-92472419D02*
X165056264Y-92520038D01*
X165056264Y-92520038D02*
X165103883Y-92567657D01*
X165103883Y-92567657D02*
X165151502Y-92662895D01*
X165151502Y-92662895D02*
X165151502Y-92805752D01*
X165151502Y-92805752D02*
X165103883Y-92900990D01*
X165103883Y-92900990D02*
X165056264Y-92948609D01*
X165056264Y-92948609D02*
X164961026Y-92996228D01*
X164961026Y-92996228D02*
X164580074Y-92996228D01*
X129027693Y-119500038D02*
X128932455Y-119452419D01*
X128932455Y-119452419D02*
X128789598Y-119452419D01*
X128789598Y-119452419D02*
X128646741Y-119500038D01*
X128646741Y-119500038D02*
X128551503Y-119595276D01*
X128551503Y-119595276D02*
X128503884Y-119690514D01*
X128503884Y-119690514D02*
X128456265Y-119880990D01*
X128456265Y-119880990D02*
X128456265Y-120023847D01*
X128456265Y-120023847D02*
X128503884Y-120214323D01*
X128503884Y-120214323D02*
X128551503Y-120309561D01*
X128551503Y-120309561D02*
X128646741Y-120404800D01*
X128646741Y-120404800D02*
X128789598Y-120452419D01*
X128789598Y-120452419D02*
X128884836Y-120452419D01*
X128884836Y-120452419D02*
X129027693Y-120404800D01*
X129027693Y-120404800D02*
X129075312Y-120357180D01*
X129075312Y-120357180D02*
X129075312Y-120023847D01*
X129075312Y-120023847D02*
X128884836Y-120023847D01*
X129503884Y-120452419D02*
X129503884Y-119452419D01*
X129503884Y-119452419D02*
X130075312Y-120452419D01*
X130075312Y-120452419D02*
X130075312Y-119452419D01*
X130551503Y-120452419D02*
X130551503Y-119452419D01*
X130551503Y-119452419D02*
X130789598Y-119452419D01*
X130789598Y-119452419D02*
X130932455Y-119500038D01*
X130932455Y-119500038D02*
X131027693Y-119595276D01*
X131027693Y-119595276D02*
X131075312Y-119690514D01*
X131075312Y-119690514D02*
X131122931Y-119880990D01*
X131122931Y-119880990D02*
X131122931Y-120023847D01*
X131122931Y-120023847D02*
X131075312Y-120214323D01*
X131075312Y-120214323D02*
X131027693Y-120309561D01*
X131027693Y-120309561D02*
X130932455Y-120404800D01*
X130932455Y-120404800D02*
X130789598Y-120452419D01*
X130789598Y-120452419D02*
X130551503Y-120452419D01*
X127113884Y-115972419D02*
X127113884Y-114972419D01*
X127113884Y-114972419D02*
X127494836Y-114972419D01*
X127494836Y-114972419D02*
X127590074Y-115020038D01*
X127590074Y-115020038D02*
X127637693Y-115067657D01*
X127637693Y-115067657D02*
X127685312Y-115162895D01*
X127685312Y-115162895D02*
X127685312Y-115305752D01*
X127685312Y-115305752D02*
X127637693Y-115400990D01*
X127637693Y-115400990D02*
X127590074Y-115448609D01*
X127590074Y-115448609D02*
X127494836Y-115496228D01*
X127494836Y-115496228D02*
X127113884Y-115496228D01*
X128066265Y-115686704D02*
X128542455Y-115686704D01*
X127971027Y-115972419D02*
X128304360Y-114972419D01*
X128304360Y-114972419D02*
X128637693Y-115972419D01*
X128875789Y-114972419D02*
X129542455Y-114972419D01*
X129542455Y-114972419D02*
X129113884Y-115972419D01*
X127503884Y-111672419D02*
X127503884Y-110672419D01*
X127503884Y-110672419D02*
X127884836Y-110672419D01*
X127884836Y-110672419D02*
X127980074Y-110720038D01*
X127980074Y-110720038D02*
X128027693Y-110767657D01*
X128027693Y-110767657D02*
X128075312Y-110862895D01*
X128075312Y-110862895D02*
X128075312Y-111005752D01*
X128075312Y-111005752D02*
X128027693Y-111100990D01*
X128027693Y-111100990D02*
X127980074Y-111148609D01*
X127980074Y-111148609D02*
X127884836Y-111196228D01*
X127884836Y-111196228D02*
X127503884Y-111196228D01*
X128456265Y-111386704D02*
X128932455Y-111386704D01*
X128361027Y-111672419D02*
X128694360Y-110672419D01*
X128694360Y-110672419D02*
X129027693Y-111672419D01*
X129789598Y-110672419D02*
X129599122Y-110672419D01*
X129599122Y-110672419D02*
X129503884Y-110720038D01*
X129503884Y-110720038D02*
X129456265Y-110767657D01*
X129456265Y-110767657D02*
X129361027Y-110910514D01*
X129361027Y-110910514D02*
X129313408Y-111100990D01*
X129313408Y-111100990D02*
X129313408Y-111481942D01*
X129313408Y-111481942D02*
X129361027Y-111577180D01*
X129361027Y-111577180D02*
X129408646Y-111624800D01*
X129408646Y-111624800D02*
X129503884Y-111672419D01*
X129503884Y-111672419D02*
X129694360Y-111672419D01*
X129694360Y-111672419D02*
X129789598Y-111624800D01*
X129789598Y-111624800D02*
X129837217Y-111577180D01*
X129837217Y-111577180D02*
X129884836Y-111481942D01*
X129884836Y-111481942D02*
X129884836Y-111243847D01*
X129884836Y-111243847D02*
X129837217Y-111148609D01*
X129837217Y-111148609D02*
X129789598Y-111100990D01*
X129789598Y-111100990D02*
X129694360Y-111053371D01*
X129694360Y-111053371D02*
X129503884Y-111053371D01*
X129503884Y-111053371D02*
X129408646Y-111100990D01*
X129408646Y-111100990D02*
X129361027Y-111148609D01*
X129361027Y-111148609D02*
X129313408Y-111243847D01*
X127703884Y-108172419D02*
X127703884Y-107172419D01*
X127703884Y-107172419D02*
X128084836Y-107172419D01*
X128084836Y-107172419D02*
X128180074Y-107220038D01*
X128180074Y-107220038D02*
X128227693Y-107267657D01*
X128227693Y-107267657D02*
X128275312Y-107362895D01*
X128275312Y-107362895D02*
X128275312Y-107505752D01*
X128275312Y-107505752D02*
X128227693Y-107600990D01*
X128227693Y-107600990D02*
X128180074Y-107648609D01*
X128180074Y-107648609D02*
X128084836Y-107696228D01*
X128084836Y-107696228D02*
X127703884Y-107696228D01*
X128656265Y-107886704D02*
X129132455Y-107886704D01*
X128561027Y-108172419D02*
X128894360Y-107172419D01*
X128894360Y-107172419D02*
X129227693Y-108172419D01*
X130037217Y-107172419D02*
X129561027Y-107172419D01*
X129561027Y-107172419D02*
X129513408Y-107648609D01*
X129513408Y-107648609D02*
X129561027Y-107600990D01*
X129561027Y-107600990D02*
X129656265Y-107553371D01*
X129656265Y-107553371D02*
X129894360Y-107553371D01*
X129894360Y-107553371D02*
X129989598Y-107600990D01*
X129989598Y-107600990D02*
X130037217Y-107648609D01*
X130037217Y-107648609D02*
X130084836Y-107743847D01*
X130084836Y-107743847D02*
X130084836Y-107981942D01*
X130084836Y-107981942D02*
X130037217Y-108077180D01*
X130037217Y-108077180D02*
X129989598Y-108124800D01*
X129989598Y-108124800D02*
X129894360Y-108172419D01*
X129894360Y-108172419D02*
X129656265Y-108172419D01*
X129656265Y-108172419D02*
X129561027Y-108124800D01*
X129561027Y-108124800D02*
X129513408Y-108077180D01*
X127603884Y-104972419D02*
X127603884Y-103972419D01*
X127603884Y-103972419D02*
X127984836Y-103972419D01*
X127984836Y-103972419D02*
X128080074Y-104020038D01*
X128080074Y-104020038D02*
X128127693Y-104067657D01*
X128127693Y-104067657D02*
X128175312Y-104162895D01*
X128175312Y-104162895D02*
X128175312Y-104305752D01*
X128175312Y-104305752D02*
X128127693Y-104400990D01*
X128127693Y-104400990D02*
X128080074Y-104448609D01*
X128080074Y-104448609D02*
X127984836Y-104496228D01*
X127984836Y-104496228D02*
X127603884Y-104496228D01*
X128556265Y-104686704D02*
X129032455Y-104686704D01*
X128461027Y-104972419D02*
X128794360Y-103972419D01*
X128794360Y-103972419D02*
X129127693Y-104972419D01*
X129889598Y-104305752D02*
X129889598Y-104972419D01*
X129651503Y-103924800D02*
X129413408Y-104639085D01*
X129413408Y-104639085D02*
X130032455Y-104639085D01*
X128075312Y-100972419D02*
X127741979Y-100496228D01*
X127503884Y-100972419D02*
X127503884Y-99972419D01*
X127503884Y-99972419D02*
X127884836Y-99972419D01*
X127884836Y-99972419D02*
X127980074Y-100020038D01*
X127980074Y-100020038D02*
X128027693Y-100067657D01*
X128027693Y-100067657D02*
X128075312Y-100162895D01*
X128075312Y-100162895D02*
X128075312Y-100305752D01*
X128075312Y-100305752D02*
X128027693Y-100400990D01*
X128027693Y-100400990D02*
X127980074Y-100448609D01*
X127980074Y-100448609D02*
X127884836Y-100496228D01*
X127884836Y-100496228D02*
X127503884Y-100496228D01*
X128408646Y-99972419D02*
X129075312Y-100972419D01*
X129075312Y-99972419D02*
X128408646Y-100972419D01*
X129408646Y-100067657D02*
X129456265Y-100020038D01*
X129456265Y-100020038D02*
X129551503Y-99972419D01*
X129551503Y-99972419D02*
X129789598Y-99972419D01*
X129789598Y-99972419D02*
X129884836Y-100020038D01*
X129884836Y-100020038D02*
X129932455Y-100067657D01*
X129932455Y-100067657D02*
X129980074Y-100162895D01*
X129980074Y-100162895D02*
X129980074Y-100258133D01*
X129980074Y-100258133D02*
X129932455Y-100400990D01*
X129932455Y-100400990D02*
X129361027Y-100972419D01*
X129361027Y-100972419D02*
X129980074Y-100972419D01*
X127261027Y-95172419D02*
X127832455Y-95172419D01*
X127546741Y-96172419D02*
X127546741Y-95172419D01*
X128070551Y-95172419D02*
X128737217Y-96172419D01*
X128737217Y-95172419D02*
X128070551Y-96172419D01*
X129070551Y-95267657D02*
X129118170Y-95220038D01*
X129118170Y-95220038D02*
X129213408Y-95172419D01*
X129213408Y-95172419D02*
X129451503Y-95172419D01*
X129451503Y-95172419D02*
X129546741Y-95220038D01*
X129546741Y-95220038D02*
X129594360Y-95267657D01*
X129594360Y-95267657D02*
X129641979Y-95362895D01*
X129641979Y-95362895D02*
X129641979Y-95458133D01*
X129641979Y-95458133D02*
X129594360Y-95600990D01*
X129594360Y-95600990D02*
X129022932Y-96172419D01*
X129022932Y-96172419D02*
X129641979Y-96172419D01*
X127808646Y-91872419D02*
X128427693Y-91872419D01*
X128427693Y-91872419D02*
X128094360Y-92253371D01*
X128094360Y-92253371D02*
X128237217Y-92253371D01*
X128237217Y-92253371D02*
X128332455Y-92300990D01*
X128332455Y-92300990D02*
X128380074Y-92348609D01*
X128380074Y-92348609D02*
X128427693Y-92443847D01*
X128427693Y-92443847D02*
X128427693Y-92681942D01*
X128427693Y-92681942D02*
X128380074Y-92777180D01*
X128380074Y-92777180D02*
X128332455Y-92824800D01*
X128332455Y-92824800D02*
X128237217Y-92872419D01*
X128237217Y-92872419D02*
X127951503Y-92872419D01*
X127951503Y-92872419D02*
X127856265Y-92824800D01*
X127856265Y-92824800D02*
X127808646Y-92777180D01*
X128713408Y-91872419D02*
X129046741Y-92872419D01*
X129046741Y-92872419D02*
X129380074Y-91872419D01*
X129618170Y-91872419D02*
X130237217Y-91872419D01*
X130237217Y-91872419D02*
X129903884Y-92253371D01*
X129903884Y-92253371D02*
X130046741Y-92253371D01*
X130046741Y-92253371D02*
X130141979Y-92300990D01*
X130141979Y-92300990D02*
X130189598Y-92348609D01*
X130189598Y-92348609D02*
X130237217Y-92443847D01*
X130237217Y-92443847D02*
X130237217Y-92681942D01*
X130237217Y-92681942D02*
X130189598Y-92777180D01*
X130189598Y-92777180D02*
X130141979Y-92824800D01*
X130141979Y-92824800D02*
X130046741Y-92872419D01*
X130046741Y-92872419D02*
X129761027Y-92872419D01*
X129761027Y-92872419D02*
X129665789Y-92824800D01*
X129665789Y-92824800D02*
X129618170Y-92777180D01*
D11*
X153196753Y-101933250D02*
X152624333Y-102505670D01*
X152624333Y-102505670D02*
X152590661Y-102606685D01*
X152590661Y-102606685D02*
X152590661Y-102674029D01*
X152590661Y-102674029D02*
X152624333Y-102775044D01*
X152624333Y-102775044D02*
X152759020Y-102909731D01*
X152759020Y-102909731D02*
X152860035Y-102943403D01*
X152860035Y-102943403D02*
X152927379Y-102943403D01*
X152927379Y-102943403D02*
X153028394Y-102909731D01*
X153028394Y-102909731D02*
X153600814Y-102337311D01*
X154004875Y-103212777D02*
X153533470Y-103684181D01*
X154105890Y-102775044D02*
X153432455Y-103111762D01*
X153432455Y-103111762D02*
X153870188Y-103549494D01*
X141459580Y-94142857D02*
X141507200Y-94190476D01*
X141507200Y-94190476D02*
X141554819Y-94333333D01*
X141554819Y-94333333D02*
X141554819Y-94428571D01*
X141554819Y-94428571D02*
X141507200Y-94571428D01*
X141507200Y-94571428D02*
X141411961Y-94666666D01*
X141411961Y-94666666D02*
X141316723Y-94714285D01*
X141316723Y-94714285D02*
X141126247Y-94761904D01*
X141126247Y-94761904D02*
X140983390Y-94761904D01*
X140983390Y-94761904D02*
X140792914Y-94714285D01*
X140792914Y-94714285D02*
X140697676Y-94666666D01*
X140697676Y-94666666D02*
X140602438Y-94571428D01*
X140602438Y-94571428D02*
X140554819Y-94428571D01*
X140554819Y-94428571D02*
X140554819Y-94333333D01*
X140554819Y-94333333D02*
X140602438Y-94190476D01*
X140602438Y-94190476D02*
X140650057Y-94142857D01*
X141554819Y-93190476D02*
X141554819Y-93761904D01*
X141554819Y-93476190D02*
X140554819Y-93476190D01*
X140554819Y-93476190D02*
X140697676Y-93571428D01*
X140697676Y-93571428D02*
X140792914Y-93666666D01*
X140792914Y-93666666D02*
X140840533Y-93761904D01*
X140554819Y-92333333D02*
X140554819Y-92523809D01*
X140554819Y-92523809D02*
X140602438Y-92619047D01*
X140602438Y-92619047D02*
X140650057Y-92666666D01*
X140650057Y-92666666D02*
X140792914Y-92761904D01*
X140792914Y-92761904D02*
X140983390Y-92809523D01*
X140983390Y-92809523D02*
X141364342Y-92809523D01*
X141364342Y-92809523D02*
X141459580Y-92761904D01*
X141459580Y-92761904D02*
X141507200Y-92714285D01*
X141507200Y-92714285D02*
X141554819Y-92619047D01*
X141554819Y-92619047D02*
X141554819Y-92428571D01*
X141554819Y-92428571D02*
X141507200Y-92333333D01*
X141507200Y-92333333D02*
X141459580Y-92285714D01*
X141459580Y-92285714D02*
X141364342Y-92238095D01*
X141364342Y-92238095D02*
X141126247Y-92238095D01*
X141126247Y-92238095D02*
X141031009Y-92285714D01*
X141031009Y-92285714D02*
X140983390Y-92333333D01*
X140983390Y-92333333D02*
X140935771Y-92428571D01*
X140935771Y-92428571D02*
X140935771Y-92619047D01*
X140935771Y-92619047D02*
X140983390Y-92714285D01*
X140983390Y-92714285D02*
X141031009Y-92761904D01*
X141031009Y-92761904D02*
X141126247Y-92809523D01*
X125366666Y-69474819D02*
X125366666Y-70189104D01*
X125366666Y-70189104D02*
X125319047Y-70331961D01*
X125319047Y-70331961D02*
X125223809Y-70427200D01*
X125223809Y-70427200D02*
X125080952Y-70474819D01*
X125080952Y-70474819D02*
X124985714Y-70474819D01*
X126366666Y-70474819D02*
X125795238Y-70474819D01*
X126080952Y-70474819D02*
X126080952Y-69474819D01*
X126080952Y-69474819D02*
X125985714Y-69617676D01*
X125985714Y-69617676D02*
X125890476Y-69712914D01*
X125890476Y-69712914D02*
X125795238Y-69760533D01*
X118554819Y-106553333D02*
X119269104Y-106553333D01*
X119269104Y-106553333D02*
X119411961Y-106600952D01*
X119411961Y-106600952D02*
X119507200Y-106696190D01*
X119507200Y-106696190D02*
X119554819Y-106839047D01*
X119554819Y-106839047D02*
X119554819Y-106934285D01*
X118888152Y-105648571D02*
X119554819Y-105648571D01*
X118507200Y-105886666D02*
X119221485Y-106124761D01*
X119221485Y-106124761D02*
X119221485Y-105505714D01*
X138459580Y-92862857D02*
X138507200Y-92910476D01*
X138507200Y-92910476D02*
X138554819Y-93053333D01*
X138554819Y-93053333D02*
X138554819Y-93148571D01*
X138554819Y-93148571D02*
X138507200Y-93291428D01*
X138507200Y-93291428D02*
X138411961Y-93386666D01*
X138411961Y-93386666D02*
X138316723Y-93434285D01*
X138316723Y-93434285D02*
X138126247Y-93481904D01*
X138126247Y-93481904D02*
X137983390Y-93481904D01*
X137983390Y-93481904D02*
X137792914Y-93434285D01*
X137792914Y-93434285D02*
X137697676Y-93386666D01*
X137697676Y-93386666D02*
X137602438Y-93291428D01*
X137602438Y-93291428D02*
X137554819Y-93148571D01*
X137554819Y-93148571D02*
X137554819Y-93053333D01*
X137554819Y-93053333D02*
X137602438Y-92910476D01*
X137602438Y-92910476D02*
X137650057Y-92862857D01*
X138554819Y-91910476D02*
X138554819Y-92481904D01*
X138554819Y-92196190D02*
X137554819Y-92196190D01*
X137554819Y-92196190D02*
X137697676Y-92291428D01*
X137697676Y-92291428D02*
X137792914Y-92386666D01*
X137792914Y-92386666D02*
X137840533Y-92481904D01*
X137554819Y-91005714D02*
X137554819Y-91481904D01*
X137554819Y-91481904D02*
X138031009Y-91529523D01*
X138031009Y-91529523D02*
X137983390Y-91481904D01*
X137983390Y-91481904D02*
X137935771Y-91386666D01*
X137935771Y-91386666D02*
X137935771Y-91148571D01*
X137935771Y-91148571D02*
X137983390Y-91053333D01*
X137983390Y-91053333D02*
X138031009Y-91005714D01*
X138031009Y-91005714D02*
X138126247Y-90958095D01*
X138126247Y-90958095D02*
X138364342Y-90958095D01*
X138364342Y-90958095D02*
X138459580Y-91005714D01*
X138459580Y-91005714D02*
X138507200Y-91053333D01*
X138507200Y-91053333D02*
X138554819Y-91148571D01*
X138554819Y-91148571D02*
X138554819Y-91386666D01*
X138554819Y-91386666D02*
X138507200Y-91481904D01*
X138507200Y-91481904D02*
X138459580Y-91529523D01*
X156857200Y-117253332D02*
X156904819Y-117110475D01*
X156904819Y-117110475D02*
X156904819Y-116872380D01*
X156904819Y-116872380D02*
X156857200Y-116777142D01*
X156857200Y-116777142D02*
X156809580Y-116729523D01*
X156809580Y-116729523D02*
X156714342Y-116681904D01*
X156714342Y-116681904D02*
X156619104Y-116681904D01*
X156619104Y-116681904D02*
X156523866Y-116729523D01*
X156523866Y-116729523D02*
X156476247Y-116777142D01*
X156476247Y-116777142D02*
X156428628Y-116872380D01*
X156428628Y-116872380D02*
X156381009Y-117062856D01*
X156381009Y-117062856D02*
X156333390Y-117158094D01*
X156333390Y-117158094D02*
X156285771Y-117205713D01*
X156285771Y-117205713D02*
X156190533Y-117253332D01*
X156190533Y-117253332D02*
X156095295Y-117253332D01*
X156095295Y-117253332D02*
X156000057Y-117205713D01*
X156000057Y-117205713D02*
X155952438Y-117158094D01*
X155952438Y-117158094D02*
X155904819Y-117062856D01*
X155904819Y-117062856D02*
X155904819Y-116824761D01*
X155904819Y-116824761D02*
X155952438Y-116681904D01*
X155904819Y-116348570D02*
X156904819Y-116110475D01*
X156904819Y-116110475D02*
X156190533Y-115919999D01*
X156190533Y-115919999D02*
X156904819Y-115729523D01*
X156904819Y-115729523D02*
X155904819Y-115491428D01*
X156000057Y-115158094D02*
X155952438Y-115110475D01*
X155952438Y-115110475D02*
X155904819Y-115015237D01*
X155904819Y-115015237D02*
X155904819Y-114777142D01*
X155904819Y-114777142D02*
X155952438Y-114681904D01*
X155952438Y-114681904D02*
X156000057Y-114634285D01*
X156000057Y-114634285D02*
X156095295Y-114586666D01*
X156095295Y-114586666D02*
X156190533Y-114586666D01*
X156190533Y-114586666D02*
X156333390Y-114634285D01*
X156333390Y-114634285D02*
X156904819Y-115205713D01*
X156904819Y-115205713D02*
X156904819Y-114586666D01*
X138509580Y-79286666D02*
X138557200Y-79334285D01*
X138557200Y-79334285D02*
X138604819Y-79477142D01*
X138604819Y-79477142D02*
X138604819Y-79572380D01*
X138604819Y-79572380D02*
X138557200Y-79715237D01*
X138557200Y-79715237D02*
X138461961Y-79810475D01*
X138461961Y-79810475D02*
X138366723Y-79858094D01*
X138366723Y-79858094D02*
X138176247Y-79905713D01*
X138176247Y-79905713D02*
X138033390Y-79905713D01*
X138033390Y-79905713D02*
X137842914Y-79858094D01*
X137842914Y-79858094D02*
X137747676Y-79810475D01*
X137747676Y-79810475D02*
X137652438Y-79715237D01*
X137652438Y-79715237D02*
X137604819Y-79572380D01*
X137604819Y-79572380D02*
X137604819Y-79477142D01*
X137604819Y-79477142D02*
X137652438Y-79334285D01*
X137652438Y-79334285D02*
X137700057Y-79286666D01*
X137604819Y-78953332D02*
X137604819Y-78286666D01*
X137604819Y-78286666D02*
X138604819Y-78715237D01*
X151804819Y-88661666D02*
X151328628Y-88994999D01*
X151804819Y-89233094D02*
X150804819Y-89233094D01*
X150804819Y-89233094D02*
X150804819Y-88852142D01*
X150804819Y-88852142D02*
X150852438Y-88756904D01*
X150852438Y-88756904D02*
X150900057Y-88709285D01*
X150900057Y-88709285D02*
X150995295Y-88661666D01*
X150995295Y-88661666D02*
X151138152Y-88661666D01*
X151138152Y-88661666D02*
X151233390Y-88709285D01*
X151233390Y-88709285D02*
X151281009Y-88756904D01*
X151281009Y-88756904D02*
X151328628Y-88852142D01*
X151328628Y-88852142D02*
X151328628Y-89233094D01*
X150804819Y-87756904D02*
X150804819Y-88233094D01*
X150804819Y-88233094D02*
X151281009Y-88280713D01*
X151281009Y-88280713D02*
X151233390Y-88233094D01*
X151233390Y-88233094D02*
X151185771Y-88137856D01*
X151185771Y-88137856D02*
X151185771Y-87899761D01*
X151185771Y-87899761D02*
X151233390Y-87804523D01*
X151233390Y-87804523D02*
X151281009Y-87756904D01*
X151281009Y-87756904D02*
X151376247Y-87709285D01*
X151376247Y-87709285D02*
X151614342Y-87709285D01*
X151614342Y-87709285D02*
X151709580Y-87756904D01*
X151709580Y-87756904D02*
X151757200Y-87804523D01*
X151757200Y-87804523D02*
X151804819Y-87899761D01*
X151804819Y-87899761D02*
X151804819Y-88137856D01*
X151804819Y-88137856D02*
X151757200Y-88233094D01*
X151757200Y-88233094D02*
X151709580Y-88280713D01*
X132179580Y-105762857D02*
X132227200Y-105810476D01*
X132227200Y-105810476D02*
X132274819Y-105953333D01*
X132274819Y-105953333D02*
X132274819Y-106048571D01*
X132274819Y-106048571D02*
X132227200Y-106191428D01*
X132227200Y-106191428D02*
X132131961Y-106286666D01*
X132131961Y-106286666D02*
X132036723Y-106334285D01*
X132036723Y-106334285D02*
X131846247Y-106381904D01*
X131846247Y-106381904D02*
X131703390Y-106381904D01*
X131703390Y-106381904D02*
X131512914Y-106334285D01*
X131512914Y-106334285D02*
X131417676Y-106286666D01*
X131417676Y-106286666D02*
X131322438Y-106191428D01*
X131322438Y-106191428D02*
X131274819Y-106048571D01*
X131274819Y-106048571D02*
X131274819Y-105953333D01*
X131274819Y-105953333D02*
X131322438Y-105810476D01*
X131322438Y-105810476D02*
X131370057Y-105762857D01*
X132274819Y-104810476D02*
X132274819Y-105381904D01*
X132274819Y-105096190D02*
X131274819Y-105096190D01*
X131274819Y-105096190D02*
X131417676Y-105191428D01*
X131417676Y-105191428D02*
X131512914Y-105286666D01*
X131512914Y-105286666D02*
X131560533Y-105381904D01*
X131274819Y-104477142D02*
X131274819Y-103858095D01*
X131274819Y-103858095D02*
X131655771Y-104191428D01*
X131655771Y-104191428D02*
X131655771Y-104048571D01*
X131655771Y-104048571D02*
X131703390Y-103953333D01*
X131703390Y-103953333D02*
X131751009Y-103905714D01*
X131751009Y-103905714D02*
X131846247Y-103858095D01*
X131846247Y-103858095D02*
X132084342Y-103858095D01*
X132084342Y-103858095D02*
X132179580Y-103905714D01*
X132179580Y-103905714D02*
X132227200Y-103953333D01*
X132227200Y-103953333D02*
X132274819Y-104048571D01*
X132274819Y-104048571D02*
X132274819Y-104334285D01*
X132274819Y-104334285D02*
X132227200Y-104429523D01*
X132227200Y-104429523D02*
X132179580Y-104477142D01*
X145679580Y-113412857D02*
X145727200Y-113460476D01*
X145727200Y-113460476D02*
X145774819Y-113603333D01*
X145774819Y-113603333D02*
X145774819Y-113698571D01*
X145774819Y-113698571D02*
X145727200Y-113841428D01*
X145727200Y-113841428D02*
X145631961Y-113936666D01*
X145631961Y-113936666D02*
X145536723Y-113984285D01*
X145536723Y-113984285D02*
X145346247Y-114031904D01*
X145346247Y-114031904D02*
X145203390Y-114031904D01*
X145203390Y-114031904D02*
X145012914Y-113984285D01*
X145012914Y-113984285D02*
X144917676Y-113936666D01*
X144917676Y-113936666D02*
X144822438Y-113841428D01*
X144822438Y-113841428D02*
X144774819Y-113698571D01*
X144774819Y-113698571D02*
X144774819Y-113603333D01*
X144774819Y-113603333D02*
X144822438Y-113460476D01*
X144822438Y-113460476D02*
X144870057Y-113412857D01*
X145774819Y-112460476D02*
X145774819Y-113031904D01*
X145774819Y-112746190D02*
X144774819Y-112746190D01*
X144774819Y-112746190D02*
X144917676Y-112841428D01*
X144917676Y-112841428D02*
X145012914Y-112936666D01*
X145012914Y-112936666D02*
X145060533Y-113031904D01*
X145108152Y-111603333D02*
X145774819Y-111603333D01*
X144727200Y-111841428D02*
X145441485Y-112079523D01*
X145441485Y-112079523D02*
X145441485Y-111460476D01*
X139659580Y-75286666D02*
X139707200Y-75334285D01*
X139707200Y-75334285D02*
X139754819Y-75477142D01*
X139754819Y-75477142D02*
X139754819Y-75572380D01*
X139754819Y-75572380D02*
X139707200Y-75715237D01*
X139707200Y-75715237D02*
X139611961Y-75810475D01*
X139611961Y-75810475D02*
X139516723Y-75858094D01*
X139516723Y-75858094D02*
X139326247Y-75905713D01*
X139326247Y-75905713D02*
X139183390Y-75905713D01*
X139183390Y-75905713D02*
X138992914Y-75858094D01*
X138992914Y-75858094D02*
X138897676Y-75810475D01*
X138897676Y-75810475D02*
X138802438Y-75715237D01*
X138802438Y-75715237D02*
X138754819Y-75572380D01*
X138754819Y-75572380D02*
X138754819Y-75477142D01*
X138754819Y-75477142D02*
X138802438Y-75334285D01*
X138802438Y-75334285D02*
X138850057Y-75286666D01*
X139088152Y-74429523D02*
X139754819Y-74429523D01*
X138707200Y-74667618D02*
X139421485Y-74905713D01*
X139421485Y-74905713D02*
X139421485Y-74286666D01*
X150259580Y-94022857D02*
X150307200Y-94070476D01*
X150307200Y-94070476D02*
X150354819Y-94213333D01*
X150354819Y-94213333D02*
X150354819Y-94308571D01*
X150354819Y-94308571D02*
X150307200Y-94451428D01*
X150307200Y-94451428D02*
X150211961Y-94546666D01*
X150211961Y-94546666D02*
X150116723Y-94594285D01*
X150116723Y-94594285D02*
X149926247Y-94641904D01*
X149926247Y-94641904D02*
X149783390Y-94641904D01*
X149783390Y-94641904D02*
X149592914Y-94594285D01*
X149592914Y-94594285D02*
X149497676Y-94546666D01*
X149497676Y-94546666D02*
X149402438Y-94451428D01*
X149402438Y-94451428D02*
X149354819Y-94308571D01*
X149354819Y-94308571D02*
X149354819Y-94213333D01*
X149354819Y-94213333D02*
X149402438Y-94070476D01*
X149402438Y-94070476D02*
X149450057Y-94022857D01*
X150354819Y-93070476D02*
X150354819Y-93641904D01*
X150354819Y-93356190D02*
X149354819Y-93356190D01*
X149354819Y-93356190D02*
X149497676Y-93451428D01*
X149497676Y-93451428D02*
X149592914Y-93546666D01*
X149592914Y-93546666D02*
X149640533Y-93641904D01*
X150354819Y-92594285D02*
X150354819Y-92403809D01*
X150354819Y-92403809D02*
X150307200Y-92308571D01*
X150307200Y-92308571D02*
X150259580Y-92260952D01*
X150259580Y-92260952D02*
X150116723Y-92165714D01*
X150116723Y-92165714D02*
X149926247Y-92118095D01*
X149926247Y-92118095D02*
X149545295Y-92118095D01*
X149545295Y-92118095D02*
X149450057Y-92165714D01*
X149450057Y-92165714D02*
X149402438Y-92213333D01*
X149402438Y-92213333D02*
X149354819Y-92308571D01*
X149354819Y-92308571D02*
X149354819Y-92499047D01*
X149354819Y-92499047D02*
X149402438Y-92594285D01*
X149402438Y-92594285D02*
X149450057Y-92641904D01*
X149450057Y-92641904D02*
X149545295Y-92689523D01*
X149545295Y-92689523D02*
X149783390Y-92689523D01*
X149783390Y-92689523D02*
X149878628Y-92641904D01*
X149878628Y-92641904D02*
X149926247Y-92594285D01*
X149926247Y-92594285D02*
X149973866Y-92499047D01*
X149973866Y-92499047D02*
X149973866Y-92308571D01*
X149973866Y-92308571D02*
X149926247Y-92213333D01*
X149926247Y-92213333D02*
X149878628Y-92165714D01*
X149878628Y-92165714D02*
X149783390Y-92118095D01*
X128633333Y-77154819D02*
X128157143Y-77154819D01*
X128157143Y-77154819D02*
X128157143Y-76154819D01*
X129490476Y-77154819D02*
X128919048Y-77154819D01*
X129204762Y-77154819D02*
X129204762Y-76154819D01*
X129204762Y-76154819D02*
X129109524Y-76297676D01*
X129109524Y-76297676D02*
X129014286Y-76392914D01*
X129014286Y-76392914D02*
X128919048Y-76440533D01*
X151933333Y-79174819D02*
X151600000Y-78698628D01*
X151361905Y-79174819D02*
X151361905Y-78174819D01*
X151361905Y-78174819D02*
X151742857Y-78174819D01*
X151742857Y-78174819D02*
X151838095Y-78222438D01*
X151838095Y-78222438D02*
X151885714Y-78270057D01*
X151885714Y-78270057D02*
X151933333Y-78365295D01*
X151933333Y-78365295D02*
X151933333Y-78508152D01*
X151933333Y-78508152D02*
X151885714Y-78603390D01*
X151885714Y-78603390D02*
X151838095Y-78651009D01*
X151838095Y-78651009D02*
X151742857Y-78698628D01*
X151742857Y-78698628D02*
X151361905Y-78698628D01*
X152504762Y-78603390D02*
X152409524Y-78555771D01*
X152409524Y-78555771D02*
X152361905Y-78508152D01*
X152361905Y-78508152D02*
X152314286Y-78412914D01*
X152314286Y-78412914D02*
X152314286Y-78365295D01*
X152314286Y-78365295D02*
X152361905Y-78270057D01*
X152361905Y-78270057D02*
X152409524Y-78222438D01*
X152409524Y-78222438D02*
X152504762Y-78174819D01*
X152504762Y-78174819D02*
X152695238Y-78174819D01*
X152695238Y-78174819D02*
X152790476Y-78222438D01*
X152790476Y-78222438D02*
X152838095Y-78270057D01*
X152838095Y-78270057D02*
X152885714Y-78365295D01*
X152885714Y-78365295D02*
X152885714Y-78412914D01*
X152885714Y-78412914D02*
X152838095Y-78508152D01*
X152838095Y-78508152D02*
X152790476Y-78555771D01*
X152790476Y-78555771D02*
X152695238Y-78603390D01*
X152695238Y-78603390D02*
X152504762Y-78603390D01*
X152504762Y-78603390D02*
X152409524Y-78651009D01*
X152409524Y-78651009D02*
X152361905Y-78698628D01*
X152361905Y-78698628D02*
X152314286Y-78793866D01*
X152314286Y-78793866D02*
X152314286Y-78984342D01*
X152314286Y-78984342D02*
X152361905Y-79079580D01*
X152361905Y-79079580D02*
X152409524Y-79127200D01*
X152409524Y-79127200D02*
X152504762Y-79174819D01*
X152504762Y-79174819D02*
X152695238Y-79174819D01*
X152695238Y-79174819D02*
X152790476Y-79127200D01*
X152790476Y-79127200D02*
X152838095Y-79079580D01*
X152838095Y-79079580D02*
X152885714Y-78984342D01*
X152885714Y-78984342D02*
X152885714Y-78793866D01*
X152885714Y-78793866D02*
X152838095Y-78698628D01*
X152838095Y-78698628D02*
X152790476Y-78651009D01*
X152790476Y-78651009D02*
X152695238Y-78603390D01*
X153054819Y-94072857D02*
X152578628Y-94406190D01*
X153054819Y-94644285D02*
X152054819Y-94644285D01*
X152054819Y-94644285D02*
X152054819Y-94263333D01*
X152054819Y-94263333D02*
X152102438Y-94168095D01*
X152102438Y-94168095D02*
X152150057Y-94120476D01*
X152150057Y-94120476D02*
X152245295Y-94072857D01*
X152245295Y-94072857D02*
X152388152Y-94072857D01*
X152388152Y-94072857D02*
X152483390Y-94120476D01*
X152483390Y-94120476D02*
X152531009Y-94168095D01*
X152531009Y-94168095D02*
X152578628Y-94263333D01*
X152578628Y-94263333D02*
X152578628Y-94644285D01*
X153054819Y-93120476D02*
X153054819Y-93691904D01*
X153054819Y-93406190D02*
X152054819Y-93406190D01*
X152054819Y-93406190D02*
X152197676Y-93501428D01*
X152197676Y-93501428D02*
X152292914Y-93596666D01*
X152292914Y-93596666D02*
X152340533Y-93691904D01*
X152054819Y-92501428D02*
X152054819Y-92406190D01*
X152054819Y-92406190D02*
X152102438Y-92310952D01*
X152102438Y-92310952D02*
X152150057Y-92263333D01*
X152150057Y-92263333D02*
X152245295Y-92215714D01*
X152245295Y-92215714D02*
X152435771Y-92168095D01*
X152435771Y-92168095D02*
X152673866Y-92168095D01*
X152673866Y-92168095D02*
X152864342Y-92215714D01*
X152864342Y-92215714D02*
X152959580Y-92263333D01*
X152959580Y-92263333D02*
X153007200Y-92310952D01*
X153007200Y-92310952D02*
X153054819Y-92406190D01*
X153054819Y-92406190D02*
X153054819Y-92501428D01*
X153054819Y-92501428D02*
X153007200Y-92596666D01*
X153007200Y-92596666D02*
X152959580Y-92644285D01*
X152959580Y-92644285D02*
X152864342Y-92691904D01*
X152864342Y-92691904D02*
X152673866Y-92739523D01*
X152673866Y-92739523D02*
X152435771Y-92739523D01*
X152435771Y-92739523D02*
X152245295Y-92691904D01*
X152245295Y-92691904D02*
X152150057Y-92644285D01*
X152150057Y-92644285D02*
X152102438Y-92596666D01*
X152102438Y-92596666D02*
X152054819Y-92501428D01*
X144059580Y-94142857D02*
X144107200Y-94190476D01*
X144107200Y-94190476D02*
X144154819Y-94333333D01*
X144154819Y-94333333D02*
X144154819Y-94428571D01*
X144154819Y-94428571D02*
X144107200Y-94571428D01*
X144107200Y-94571428D02*
X144011961Y-94666666D01*
X144011961Y-94666666D02*
X143916723Y-94714285D01*
X143916723Y-94714285D02*
X143726247Y-94761904D01*
X143726247Y-94761904D02*
X143583390Y-94761904D01*
X143583390Y-94761904D02*
X143392914Y-94714285D01*
X143392914Y-94714285D02*
X143297676Y-94666666D01*
X143297676Y-94666666D02*
X143202438Y-94571428D01*
X143202438Y-94571428D02*
X143154819Y-94428571D01*
X143154819Y-94428571D02*
X143154819Y-94333333D01*
X143154819Y-94333333D02*
X143202438Y-94190476D01*
X143202438Y-94190476D02*
X143250057Y-94142857D01*
X144154819Y-93190476D02*
X144154819Y-93761904D01*
X144154819Y-93476190D02*
X143154819Y-93476190D01*
X143154819Y-93476190D02*
X143297676Y-93571428D01*
X143297676Y-93571428D02*
X143392914Y-93666666D01*
X143392914Y-93666666D02*
X143440533Y-93761904D01*
X143154819Y-92857142D02*
X143154819Y-92190476D01*
X143154819Y-92190476D02*
X144154819Y-92619047D01*
X151354819Y-113503094D02*
X150354819Y-113503094D01*
X150354819Y-113503094D02*
X150354819Y-113264999D01*
X150354819Y-113264999D02*
X150402438Y-113122142D01*
X150402438Y-113122142D02*
X150497676Y-113026904D01*
X150497676Y-113026904D02*
X150592914Y-112979285D01*
X150592914Y-112979285D02*
X150783390Y-112931666D01*
X150783390Y-112931666D02*
X150926247Y-112931666D01*
X150926247Y-112931666D02*
X151116723Y-112979285D01*
X151116723Y-112979285D02*
X151211961Y-113026904D01*
X151211961Y-113026904D02*
X151307200Y-113122142D01*
X151307200Y-113122142D02*
X151354819Y-113264999D01*
X151354819Y-113264999D02*
X151354819Y-113503094D01*
X150354819Y-112026904D02*
X150354819Y-112503094D01*
X150354819Y-112503094D02*
X150831009Y-112550713D01*
X150831009Y-112550713D02*
X150783390Y-112503094D01*
X150783390Y-112503094D02*
X150735771Y-112407856D01*
X150735771Y-112407856D02*
X150735771Y-112169761D01*
X150735771Y-112169761D02*
X150783390Y-112074523D01*
X150783390Y-112074523D02*
X150831009Y-112026904D01*
X150831009Y-112026904D02*
X150926247Y-111979285D01*
X150926247Y-111979285D02*
X151164342Y-111979285D01*
X151164342Y-111979285D02*
X151259580Y-112026904D01*
X151259580Y-112026904D02*
X151307200Y-112074523D01*
X151307200Y-112074523D02*
X151354819Y-112169761D01*
X151354819Y-112169761D02*
X151354819Y-112407856D01*
X151354819Y-112407856D02*
X151307200Y-112503094D01*
X151307200Y-112503094D02*
X151259580Y-112550713D01*
X144450057Y-71015238D02*
X144402438Y-71110476D01*
X144402438Y-71110476D02*
X144307200Y-71205714D01*
X144307200Y-71205714D02*
X144164342Y-71348571D01*
X144164342Y-71348571D02*
X144116723Y-71443809D01*
X144116723Y-71443809D02*
X144116723Y-71539047D01*
X144354819Y-71491428D02*
X144307200Y-71586666D01*
X144307200Y-71586666D02*
X144211961Y-71681904D01*
X144211961Y-71681904D02*
X144021485Y-71729523D01*
X144021485Y-71729523D02*
X143688152Y-71729523D01*
X143688152Y-71729523D02*
X143497676Y-71681904D01*
X143497676Y-71681904D02*
X143402438Y-71586666D01*
X143402438Y-71586666D02*
X143354819Y-71491428D01*
X143354819Y-71491428D02*
X143354819Y-71300952D01*
X143354819Y-71300952D02*
X143402438Y-71205714D01*
X143402438Y-71205714D02*
X143497676Y-71110476D01*
X143497676Y-71110476D02*
X143688152Y-71062857D01*
X143688152Y-71062857D02*
X144021485Y-71062857D01*
X144021485Y-71062857D02*
X144211961Y-71110476D01*
X144211961Y-71110476D02*
X144307200Y-71205714D01*
X144307200Y-71205714D02*
X144354819Y-71300952D01*
X144354819Y-71300952D02*
X144354819Y-71491428D01*
X144354819Y-70110476D02*
X144354819Y-70681904D01*
X144354819Y-70396190D02*
X143354819Y-70396190D01*
X143354819Y-70396190D02*
X143497676Y-70491428D01*
X143497676Y-70491428D02*
X143592914Y-70586666D01*
X143592914Y-70586666D02*
X143640533Y-70681904D01*
X137786309Y-97613628D02*
X137786309Y-98089819D01*
X137452976Y-97089819D02*
X137786309Y-97613628D01*
X137786309Y-97613628D02*
X138119642Y-97089819D01*
X138976785Y-98089819D02*
X138405357Y-98089819D01*
X138691071Y-98089819D02*
X138691071Y-97089819D01*
X138691071Y-97089819D02*
X138595833Y-97232676D01*
X138595833Y-97232676D02*
X138500595Y-97327914D01*
X138500595Y-97327914D02*
X138405357Y-97375533D01*
X138259580Y-87486666D02*
X138307200Y-87534285D01*
X138307200Y-87534285D02*
X138354819Y-87677142D01*
X138354819Y-87677142D02*
X138354819Y-87772380D01*
X138354819Y-87772380D02*
X138307200Y-87915237D01*
X138307200Y-87915237D02*
X138211961Y-88010475D01*
X138211961Y-88010475D02*
X138116723Y-88058094D01*
X138116723Y-88058094D02*
X137926247Y-88105713D01*
X137926247Y-88105713D02*
X137783390Y-88105713D01*
X137783390Y-88105713D02*
X137592914Y-88058094D01*
X137592914Y-88058094D02*
X137497676Y-88010475D01*
X137497676Y-88010475D02*
X137402438Y-87915237D01*
X137402438Y-87915237D02*
X137354819Y-87772380D01*
X137354819Y-87772380D02*
X137354819Y-87677142D01*
X137354819Y-87677142D02*
X137402438Y-87534285D01*
X137402438Y-87534285D02*
X137450057Y-87486666D01*
X138354819Y-86534285D02*
X138354819Y-87105713D01*
X138354819Y-86819999D02*
X137354819Y-86819999D01*
X137354819Y-86819999D02*
X137497676Y-86915237D01*
X137497676Y-86915237D02*
X137592914Y-87010475D01*
X137592914Y-87010475D02*
X137640533Y-87105713D01*
X132066667Y-111377200D02*
X132209524Y-111424819D01*
X132209524Y-111424819D02*
X132447619Y-111424819D01*
X132447619Y-111424819D02*
X132542857Y-111377200D01*
X132542857Y-111377200D02*
X132590476Y-111329580D01*
X132590476Y-111329580D02*
X132638095Y-111234342D01*
X132638095Y-111234342D02*
X132638095Y-111139104D01*
X132638095Y-111139104D02*
X132590476Y-111043866D01*
X132590476Y-111043866D02*
X132542857Y-110996247D01*
X132542857Y-110996247D02*
X132447619Y-110948628D01*
X132447619Y-110948628D02*
X132257143Y-110901009D01*
X132257143Y-110901009D02*
X132161905Y-110853390D01*
X132161905Y-110853390D02*
X132114286Y-110805771D01*
X132114286Y-110805771D02*
X132066667Y-110710533D01*
X132066667Y-110710533D02*
X132066667Y-110615295D01*
X132066667Y-110615295D02*
X132114286Y-110520057D01*
X132114286Y-110520057D02*
X132161905Y-110472438D01*
X132161905Y-110472438D02*
X132257143Y-110424819D01*
X132257143Y-110424819D02*
X132495238Y-110424819D01*
X132495238Y-110424819D02*
X132638095Y-110472438D01*
X132971429Y-110424819D02*
X133209524Y-111424819D01*
X133209524Y-111424819D02*
X133400000Y-110710533D01*
X133400000Y-110710533D02*
X133590476Y-111424819D01*
X133590476Y-111424819D02*
X133828572Y-110424819D01*
X134733333Y-111424819D02*
X134161905Y-111424819D01*
X134447619Y-111424819D02*
X134447619Y-110424819D01*
X134447619Y-110424819D02*
X134352381Y-110567676D01*
X134352381Y-110567676D02*
X134257143Y-110662914D01*
X134257143Y-110662914D02*
X134161905Y-110710533D01*
X142654819Y-113837857D02*
X142178628Y-114171190D01*
X142654819Y-114409285D02*
X141654819Y-114409285D01*
X141654819Y-114409285D02*
X141654819Y-114028333D01*
X141654819Y-114028333D02*
X141702438Y-113933095D01*
X141702438Y-113933095D02*
X141750057Y-113885476D01*
X141750057Y-113885476D02*
X141845295Y-113837857D01*
X141845295Y-113837857D02*
X141988152Y-113837857D01*
X141988152Y-113837857D02*
X142083390Y-113885476D01*
X142083390Y-113885476D02*
X142131009Y-113933095D01*
X142131009Y-113933095D02*
X142178628Y-114028333D01*
X142178628Y-114028333D02*
X142178628Y-114409285D01*
X142654819Y-112885476D02*
X142654819Y-113456904D01*
X142654819Y-113171190D02*
X141654819Y-113171190D01*
X141654819Y-113171190D02*
X141797676Y-113266428D01*
X141797676Y-113266428D02*
X141892914Y-113361666D01*
X141892914Y-113361666D02*
X141940533Y-113456904D01*
X142654819Y-111933095D02*
X142654819Y-112504523D01*
X142654819Y-112218809D02*
X141654819Y-112218809D01*
X141654819Y-112218809D02*
X141797676Y-112314047D01*
X141797676Y-112314047D02*
X141892914Y-112409285D01*
X141892914Y-112409285D02*
X141940533Y-112504523D01*
X135437142Y-96019580D02*
X135389523Y-96067200D01*
X135389523Y-96067200D02*
X135246666Y-96114819D01*
X135246666Y-96114819D02*
X135151428Y-96114819D01*
X135151428Y-96114819D02*
X135008571Y-96067200D01*
X135008571Y-96067200D02*
X134913333Y-95971961D01*
X134913333Y-95971961D02*
X134865714Y-95876723D01*
X134865714Y-95876723D02*
X134818095Y-95686247D01*
X134818095Y-95686247D02*
X134818095Y-95543390D01*
X134818095Y-95543390D02*
X134865714Y-95352914D01*
X134865714Y-95352914D02*
X134913333Y-95257676D01*
X134913333Y-95257676D02*
X135008571Y-95162438D01*
X135008571Y-95162438D02*
X135151428Y-95114819D01*
X135151428Y-95114819D02*
X135246666Y-95114819D01*
X135246666Y-95114819D02*
X135389523Y-95162438D01*
X135389523Y-95162438D02*
X135437142Y-95210057D01*
X136389523Y-96114819D02*
X135818095Y-96114819D01*
X136103809Y-96114819D02*
X136103809Y-95114819D01*
X136103809Y-95114819D02*
X136008571Y-95257676D01*
X136008571Y-95257676D02*
X135913333Y-95352914D01*
X135913333Y-95352914D02*
X135818095Y-95400533D01*
X137008571Y-95114819D02*
X137103809Y-95114819D01*
X137103809Y-95114819D02*
X137199047Y-95162438D01*
X137199047Y-95162438D02*
X137246666Y-95210057D01*
X137246666Y-95210057D02*
X137294285Y-95305295D01*
X137294285Y-95305295D02*
X137341904Y-95495771D01*
X137341904Y-95495771D02*
X137341904Y-95733866D01*
X137341904Y-95733866D02*
X137294285Y-95924342D01*
X137294285Y-95924342D02*
X137246666Y-96019580D01*
X137246666Y-96019580D02*
X137199047Y-96067200D01*
X137199047Y-96067200D02*
X137103809Y-96114819D01*
X137103809Y-96114819D02*
X137008571Y-96114819D01*
X137008571Y-96114819D02*
X136913333Y-96067200D01*
X136913333Y-96067200D02*
X136865714Y-96019580D01*
X136865714Y-96019580D02*
X136818095Y-95924342D01*
X136818095Y-95924342D02*
X136770476Y-95733866D01*
X136770476Y-95733866D02*
X136770476Y-95495771D01*
X136770476Y-95495771D02*
X136818095Y-95305295D01*
X136818095Y-95305295D02*
X136865714Y-95210057D01*
X136865714Y-95210057D02*
X136913333Y-95162438D01*
X136913333Y-95162438D02*
X137008571Y-95114819D01*
X144359580Y-113462857D02*
X144407200Y-113510476D01*
X144407200Y-113510476D02*
X144454819Y-113653333D01*
X144454819Y-113653333D02*
X144454819Y-113748571D01*
X144454819Y-113748571D02*
X144407200Y-113891428D01*
X144407200Y-113891428D02*
X144311961Y-113986666D01*
X144311961Y-113986666D02*
X144216723Y-114034285D01*
X144216723Y-114034285D02*
X144026247Y-114081904D01*
X144026247Y-114081904D02*
X143883390Y-114081904D01*
X143883390Y-114081904D02*
X143692914Y-114034285D01*
X143692914Y-114034285D02*
X143597676Y-113986666D01*
X143597676Y-113986666D02*
X143502438Y-113891428D01*
X143502438Y-113891428D02*
X143454819Y-113748571D01*
X143454819Y-113748571D02*
X143454819Y-113653333D01*
X143454819Y-113653333D02*
X143502438Y-113510476D01*
X143502438Y-113510476D02*
X143550057Y-113462857D01*
X144454819Y-112510476D02*
X144454819Y-113081904D01*
X144454819Y-112796190D02*
X143454819Y-112796190D01*
X143454819Y-112796190D02*
X143597676Y-112891428D01*
X143597676Y-112891428D02*
X143692914Y-112986666D01*
X143692914Y-112986666D02*
X143740533Y-113081904D01*
X144454819Y-111558095D02*
X144454819Y-112129523D01*
X144454819Y-111843809D02*
X143454819Y-111843809D01*
X143454819Y-111843809D02*
X143597676Y-111939047D01*
X143597676Y-111939047D02*
X143692914Y-112034285D01*
X143692914Y-112034285D02*
X143740533Y-112129523D01*
X147259580Y-94222857D02*
X147307200Y-94270476D01*
X147307200Y-94270476D02*
X147354819Y-94413333D01*
X147354819Y-94413333D02*
X147354819Y-94508571D01*
X147354819Y-94508571D02*
X147307200Y-94651428D01*
X147307200Y-94651428D02*
X147211961Y-94746666D01*
X147211961Y-94746666D02*
X147116723Y-94794285D01*
X147116723Y-94794285D02*
X146926247Y-94841904D01*
X146926247Y-94841904D02*
X146783390Y-94841904D01*
X146783390Y-94841904D02*
X146592914Y-94794285D01*
X146592914Y-94794285D02*
X146497676Y-94746666D01*
X146497676Y-94746666D02*
X146402438Y-94651428D01*
X146402438Y-94651428D02*
X146354819Y-94508571D01*
X146354819Y-94508571D02*
X146354819Y-94413333D01*
X146354819Y-94413333D02*
X146402438Y-94270476D01*
X146402438Y-94270476D02*
X146450057Y-94222857D01*
X147354819Y-93270476D02*
X147354819Y-93841904D01*
X147354819Y-93556190D02*
X146354819Y-93556190D01*
X146354819Y-93556190D02*
X146497676Y-93651428D01*
X146497676Y-93651428D02*
X146592914Y-93746666D01*
X146592914Y-93746666D02*
X146640533Y-93841904D01*
X146783390Y-92699047D02*
X146735771Y-92794285D01*
X146735771Y-92794285D02*
X146688152Y-92841904D01*
X146688152Y-92841904D02*
X146592914Y-92889523D01*
X146592914Y-92889523D02*
X146545295Y-92889523D01*
X146545295Y-92889523D02*
X146450057Y-92841904D01*
X146450057Y-92841904D02*
X146402438Y-92794285D01*
X146402438Y-92794285D02*
X146354819Y-92699047D01*
X146354819Y-92699047D02*
X146354819Y-92508571D01*
X146354819Y-92508571D02*
X146402438Y-92413333D01*
X146402438Y-92413333D02*
X146450057Y-92365714D01*
X146450057Y-92365714D02*
X146545295Y-92318095D01*
X146545295Y-92318095D02*
X146592914Y-92318095D01*
X146592914Y-92318095D02*
X146688152Y-92365714D01*
X146688152Y-92365714D02*
X146735771Y-92413333D01*
X146735771Y-92413333D02*
X146783390Y-92508571D01*
X146783390Y-92508571D02*
X146783390Y-92699047D01*
X146783390Y-92699047D02*
X146831009Y-92794285D01*
X146831009Y-92794285D02*
X146878628Y-92841904D01*
X146878628Y-92841904D02*
X146973866Y-92889523D01*
X146973866Y-92889523D02*
X147164342Y-92889523D01*
X147164342Y-92889523D02*
X147259580Y-92841904D01*
X147259580Y-92841904D02*
X147307200Y-92794285D01*
X147307200Y-92794285D02*
X147354819Y-92699047D01*
X147354819Y-92699047D02*
X147354819Y-92508571D01*
X147354819Y-92508571D02*
X147307200Y-92413333D01*
X147307200Y-92413333D02*
X147259580Y-92365714D01*
X147259580Y-92365714D02*
X147164342Y-92318095D01*
X147164342Y-92318095D02*
X146973866Y-92318095D01*
X146973866Y-92318095D02*
X146878628Y-92365714D01*
X146878628Y-92365714D02*
X146831009Y-92413333D01*
X146831009Y-92413333D02*
X146783390Y-92508571D01*
X143654819Y-88686666D02*
X143178628Y-89019999D01*
X143654819Y-89258094D02*
X142654819Y-89258094D01*
X142654819Y-89258094D02*
X142654819Y-88877142D01*
X142654819Y-88877142D02*
X142702438Y-88781904D01*
X142702438Y-88781904D02*
X142750057Y-88734285D01*
X142750057Y-88734285D02*
X142845295Y-88686666D01*
X142845295Y-88686666D02*
X142988152Y-88686666D01*
X142988152Y-88686666D02*
X143083390Y-88734285D01*
X143083390Y-88734285D02*
X143131009Y-88781904D01*
X143131009Y-88781904D02*
X143178628Y-88877142D01*
X143178628Y-88877142D02*
X143178628Y-89258094D01*
X142654819Y-88353332D02*
X142654819Y-87686666D01*
X142654819Y-87686666D02*
X143654819Y-88115237D01*
X157154819Y-73058094D02*
X156154819Y-73058094D01*
X156154819Y-73058094D02*
X156154819Y-72819999D01*
X156154819Y-72819999D02*
X156202438Y-72677142D01*
X156202438Y-72677142D02*
X156297676Y-72581904D01*
X156297676Y-72581904D02*
X156392914Y-72534285D01*
X156392914Y-72534285D02*
X156583390Y-72486666D01*
X156583390Y-72486666D02*
X156726247Y-72486666D01*
X156726247Y-72486666D02*
X156916723Y-72534285D01*
X156916723Y-72534285D02*
X157011961Y-72581904D01*
X157011961Y-72581904D02*
X157107200Y-72677142D01*
X157107200Y-72677142D02*
X157154819Y-72819999D01*
X157154819Y-72819999D02*
X157154819Y-73058094D01*
X156250057Y-72105713D02*
X156202438Y-72058094D01*
X156202438Y-72058094D02*
X156154819Y-71962856D01*
X156154819Y-71962856D02*
X156154819Y-71724761D01*
X156154819Y-71724761D02*
X156202438Y-71629523D01*
X156202438Y-71629523D02*
X156250057Y-71581904D01*
X156250057Y-71581904D02*
X156345295Y-71534285D01*
X156345295Y-71534285D02*
X156440533Y-71534285D01*
X156440533Y-71534285D02*
X156583390Y-71581904D01*
X156583390Y-71581904D02*
X157154819Y-72153332D01*
X157154819Y-72153332D02*
X157154819Y-71534285D01*
X122238095Y-69354819D02*
X122238095Y-70164342D01*
X122238095Y-70164342D02*
X122285714Y-70259580D01*
X122285714Y-70259580D02*
X122333333Y-70307200D01*
X122333333Y-70307200D02*
X122428571Y-70354819D01*
X122428571Y-70354819D02*
X122619047Y-70354819D01*
X122619047Y-70354819D02*
X122714285Y-70307200D01*
X122714285Y-70307200D02*
X122761904Y-70259580D01*
X122761904Y-70259580D02*
X122809523Y-70164342D01*
X122809523Y-70164342D02*
X122809523Y-69354819D01*
X123809523Y-70354819D02*
X123238095Y-70354819D01*
X123523809Y-70354819D02*
X123523809Y-69354819D01*
X123523809Y-69354819D02*
X123428571Y-69497676D01*
X123428571Y-69497676D02*
X123333333Y-69592914D01*
X123333333Y-69592914D02*
X123238095Y-69640533D01*
X147354819Y-113368094D02*
X146354819Y-113368094D01*
X146354819Y-113368094D02*
X146354819Y-113129999D01*
X146354819Y-113129999D02*
X146402438Y-112987142D01*
X146402438Y-112987142D02*
X146497676Y-112891904D01*
X146497676Y-112891904D02*
X146592914Y-112844285D01*
X146592914Y-112844285D02*
X146783390Y-112796666D01*
X146783390Y-112796666D02*
X146926247Y-112796666D01*
X146926247Y-112796666D02*
X147116723Y-112844285D01*
X147116723Y-112844285D02*
X147211961Y-112891904D01*
X147211961Y-112891904D02*
X147307200Y-112987142D01*
X147307200Y-112987142D02*
X147354819Y-113129999D01*
X147354819Y-113129999D02*
X147354819Y-113368094D01*
X146688152Y-111939523D02*
X147354819Y-111939523D01*
X146307200Y-112177618D02*
X147021485Y-112415713D01*
X147021485Y-112415713D02*
X147021485Y-111796666D01*
X155061905Y-80474819D02*
X155061905Y-79474819D01*
X155061905Y-79474819D02*
X155300000Y-79474819D01*
X155300000Y-79474819D02*
X155442857Y-79522438D01*
X155442857Y-79522438D02*
X155538095Y-79617676D01*
X155538095Y-79617676D02*
X155585714Y-79712914D01*
X155585714Y-79712914D02*
X155633333Y-79903390D01*
X155633333Y-79903390D02*
X155633333Y-80046247D01*
X155633333Y-80046247D02*
X155585714Y-80236723D01*
X155585714Y-80236723D02*
X155538095Y-80331961D01*
X155538095Y-80331961D02*
X155442857Y-80427200D01*
X155442857Y-80427200D02*
X155300000Y-80474819D01*
X155300000Y-80474819D02*
X155061905Y-80474819D01*
X155966667Y-79474819D02*
X156585714Y-79474819D01*
X156585714Y-79474819D02*
X156252381Y-79855771D01*
X156252381Y-79855771D02*
X156395238Y-79855771D01*
X156395238Y-79855771D02*
X156490476Y-79903390D01*
X156490476Y-79903390D02*
X156538095Y-79951009D01*
X156538095Y-79951009D02*
X156585714Y-80046247D01*
X156585714Y-80046247D02*
X156585714Y-80284342D01*
X156585714Y-80284342D02*
X156538095Y-80379580D01*
X156538095Y-80379580D02*
X156490476Y-80427200D01*
X156490476Y-80427200D02*
X156395238Y-80474819D01*
X156395238Y-80474819D02*
X156109524Y-80474819D01*
X156109524Y-80474819D02*
X156014286Y-80427200D01*
X156014286Y-80427200D02*
X155966667Y-80379580D01*
X140959580Y-113262857D02*
X141007200Y-113310476D01*
X141007200Y-113310476D02*
X141054819Y-113453333D01*
X141054819Y-113453333D02*
X141054819Y-113548571D01*
X141054819Y-113548571D02*
X141007200Y-113691428D01*
X141007200Y-113691428D02*
X140911961Y-113786666D01*
X140911961Y-113786666D02*
X140816723Y-113834285D01*
X140816723Y-113834285D02*
X140626247Y-113881904D01*
X140626247Y-113881904D02*
X140483390Y-113881904D01*
X140483390Y-113881904D02*
X140292914Y-113834285D01*
X140292914Y-113834285D02*
X140197676Y-113786666D01*
X140197676Y-113786666D02*
X140102438Y-113691428D01*
X140102438Y-113691428D02*
X140054819Y-113548571D01*
X140054819Y-113548571D02*
X140054819Y-113453333D01*
X140054819Y-113453333D02*
X140102438Y-113310476D01*
X140102438Y-113310476D02*
X140150057Y-113262857D01*
X141054819Y-112310476D02*
X141054819Y-112881904D01*
X141054819Y-112596190D02*
X140054819Y-112596190D01*
X140054819Y-112596190D02*
X140197676Y-112691428D01*
X140197676Y-112691428D02*
X140292914Y-112786666D01*
X140292914Y-112786666D02*
X140340533Y-112881904D01*
X140150057Y-111929523D02*
X140102438Y-111881904D01*
X140102438Y-111881904D02*
X140054819Y-111786666D01*
X140054819Y-111786666D02*
X140054819Y-111548571D01*
X140054819Y-111548571D02*
X140102438Y-111453333D01*
X140102438Y-111453333D02*
X140150057Y-111405714D01*
X140150057Y-111405714D02*
X140245295Y-111358095D01*
X140245295Y-111358095D02*
X140340533Y-111358095D01*
X140340533Y-111358095D02*
X140483390Y-111405714D01*
X140483390Y-111405714D02*
X141054819Y-111977142D01*
X141054819Y-111977142D02*
X141054819Y-111358095D01*
X167672319Y-88998333D02*
X168386604Y-88998333D01*
X168386604Y-88998333D02*
X168529461Y-89045952D01*
X168529461Y-89045952D02*
X168624700Y-89141190D01*
X168624700Y-89141190D02*
X168672319Y-89284047D01*
X168672319Y-89284047D02*
X168672319Y-89379285D01*
X167672319Y-88617380D02*
X167672319Y-87998333D01*
X167672319Y-87998333D02*
X168053271Y-88331666D01*
X168053271Y-88331666D02*
X168053271Y-88188809D01*
X168053271Y-88188809D02*
X168100890Y-88093571D01*
X168100890Y-88093571D02*
X168148509Y-88045952D01*
X168148509Y-88045952D02*
X168243747Y-87998333D01*
X168243747Y-87998333D02*
X168481842Y-87998333D01*
X168481842Y-87998333D02*
X168577080Y-88045952D01*
X168577080Y-88045952D02*
X168624700Y-88093571D01*
X168624700Y-88093571D02*
X168672319Y-88188809D01*
X168672319Y-88188809D02*
X168672319Y-88474523D01*
X168672319Y-88474523D02*
X168624700Y-88569761D01*
X168624700Y-88569761D02*
X168577080Y-88617380D01*
X149454819Y-114662857D02*
X148978628Y-114996190D01*
X149454819Y-115234285D02*
X148454819Y-115234285D01*
X148454819Y-115234285D02*
X148454819Y-114853333D01*
X148454819Y-114853333D02*
X148502438Y-114758095D01*
X148502438Y-114758095D02*
X148550057Y-114710476D01*
X148550057Y-114710476D02*
X148645295Y-114662857D01*
X148645295Y-114662857D02*
X148788152Y-114662857D01*
X148788152Y-114662857D02*
X148883390Y-114710476D01*
X148883390Y-114710476D02*
X148931009Y-114758095D01*
X148931009Y-114758095D02*
X148978628Y-114853333D01*
X148978628Y-114853333D02*
X148978628Y-115234285D01*
X149454819Y-113710476D02*
X149454819Y-114281904D01*
X149454819Y-113996190D02*
X148454819Y-113996190D01*
X148454819Y-113996190D02*
X148597676Y-114091428D01*
X148597676Y-114091428D02*
X148692914Y-114186666D01*
X148692914Y-114186666D02*
X148740533Y-114281904D01*
X148550057Y-113329523D02*
X148502438Y-113281904D01*
X148502438Y-113281904D02*
X148454819Y-113186666D01*
X148454819Y-113186666D02*
X148454819Y-112948571D01*
X148454819Y-112948571D02*
X148502438Y-112853333D01*
X148502438Y-112853333D02*
X148550057Y-112805714D01*
X148550057Y-112805714D02*
X148645295Y-112758095D01*
X148645295Y-112758095D02*
X148740533Y-112758095D01*
X148740533Y-112758095D02*
X148883390Y-112805714D01*
X148883390Y-112805714D02*
X149454819Y-113377142D01*
X149454819Y-113377142D02*
X149454819Y-112758095D01*
%TO.C,U4*%
D12*
X141794689Y-102420000D02*
X142112887Y-102101802D01*
X142112887Y-102738198D02*
X141794689Y-102420000D01*
X146581802Y-97632887D02*
X146900000Y-97314689D01*
X146900000Y-97314689D02*
X147218198Y-97632887D01*
X146900000Y-107525311D02*
X146581802Y-107207113D01*
X147218198Y-107207113D02*
X146900000Y-107525311D01*
X151687113Y-102101802D02*
X152005311Y-102420000D01*
X152005311Y-102420000D02*
X151687113Y-102738198D01*
X146129254Y-97180339D02*
X146221177Y-96607582D01*
X146702010Y-97088415D01*
X146129254Y-97180339D01*
G36*
X146702010Y-97088415D02*
G01*
X146129254Y-97180339D01*
X146221177Y-96607582D01*
X146702010Y-97088415D01*
G37*
%TO.C,C16*%
X141940000Y-93392164D02*
X141940000Y-93607836D01*
X142660000Y-93392164D02*
X142660000Y-93607836D01*
%TO.C,J1*%
X127580000Y-66267500D02*
X137820000Y-66267500D01*
X127580000Y-73387500D02*
X137820000Y-73387500D01*
X127580000Y-75507500D02*
X127580000Y-66267500D01*
X129900000Y-75507500D02*
X127580000Y-75507500D01*
X137820000Y-66267500D02*
X137820000Y-75507500D01*
X137820000Y-75507500D02*
X130500000Y-75507500D01*
X131200000Y-68187500D02*
G75*
G02*
X129200000Y-68187500I-1000000J0D01*
G01*
X129200000Y-68187500D02*
G75*
G02*
X131200000Y-68187500I1000000J0D01*
G01*
X136200000Y-68187500D02*
G75*
G02*
X134200000Y-68187500I-1000000J0D01*
G01*
X134200000Y-68187500D02*
G75*
G02*
X136200000Y-68187500I1000000J0D01*
G01*
X130200000Y-75507500D02*
X130640000Y-76117500D01*
X129760000Y-76117500D01*
X130200000Y-75507500D01*
G36*
X130640000Y-76117500D02*
G01*
X129760000Y-76117500D01*
X130200000Y-75507500D01*
X130640000Y-76117500D01*
G37*
%TO.C,J4*%
X120190000Y-90560000D02*
X126810000Y-90560000D01*
X120190000Y-106220000D02*
X120190000Y-90560000D01*
X120190000Y-106220000D02*
X120190000Y-121880000D01*
X120190000Y-121880000D02*
X126810000Y-121880000D01*
X126810000Y-90560000D02*
X126810000Y-106220000D01*
X126810000Y-121880000D02*
X126810000Y-106220000D01*
X127200000Y-120080000D02*
X128200000Y-119580000D01*
X128200000Y-119580000D02*
X128200000Y-120580000D01*
X128200000Y-120580000D02*
X127200000Y-120080000D01*
%TO.C,C15*%
X138940000Y-93392164D02*
X138940000Y-93607836D01*
X139660000Y-93392164D02*
X139660000Y-93607836D01*
%TO.C,SW2*%
X157450000Y-113670000D02*
X157450000Y-118170000D01*
X159950000Y-119420000D02*
X161450000Y-119420000D01*
X161450000Y-112420000D02*
X159950000Y-112420000D01*
X163950000Y-118170000D02*
X163950000Y-113670000D01*
%TO.C,R13*%
X152365000Y-111047064D02*
X152365000Y-110592936D01*
X153835000Y-111047064D02*
X153835000Y-110592936D01*
%TO.C,R5*%
X152265000Y-88722064D02*
X152265000Y-88267936D01*
X153735000Y-88722064D02*
X153735000Y-88267936D01*
%TO.C,C13*%
X132620000Y-105227836D02*
X132620000Y-105012164D01*
X133340000Y-105227836D02*
X133340000Y-105012164D01*
%TO.C,C14*%
X145240000Y-110427836D02*
X145240000Y-110212164D01*
X145960000Y-110427836D02*
X145960000Y-110212164D01*
%TO.C,C4*%
X140465000Y-74758748D02*
X140465000Y-75281252D01*
X141935000Y-74758748D02*
X141935000Y-75281252D01*
%TO.C,C19*%
X150740000Y-93192164D02*
X150740000Y-93407836D01*
X151460000Y-93192164D02*
X151460000Y-93407836D01*
%TO.C,L1*%
X124400000Y-77720000D02*
X135000000Y-77720000D01*
X124400000Y-80920000D02*
X124400000Y-77720000D01*
X124400000Y-88320000D02*
X124400000Y-85120000D01*
X135000000Y-77720000D02*
X135000000Y-80920000D01*
X135000000Y-85120000D02*
X135000000Y-88320000D01*
X135000000Y-88320000D02*
X124400000Y-88320000D01*
%TO.C,R8*%
X151927064Y-80485000D02*
X151472936Y-80485000D01*
X151927064Y-81955000D02*
X151472936Y-81955000D01*
%TO.C,R10*%
X153920000Y-93473641D02*
X153920000Y-93166359D01*
X154680000Y-93473641D02*
X154680000Y-93166359D01*
%TO.C,C17*%
X144940000Y-93392164D02*
X144940000Y-93607836D01*
X145660000Y-93392164D02*
X145660000Y-93607836D01*
%TO.C,D5*%
D10*
X151050000Y-111680000D02*
G75*
G02*
X150950000Y-111680000I-50000J0D01*
G01*
X150950000Y-111680000D02*
G75*
G02*
X151050000Y-111680000I50000J0D01*
G01*
%TO.C,Q1*%
D12*
X144740000Y-70160000D02*
X145740000Y-70160000D01*
X144740000Y-71680000D02*
X144740000Y-70160000D01*
X144790000Y-71680000D02*
X144740000Y-71680000D01*
X146690000Y-71680000D02*
X145910000Y-71680000D01*
X146860000Y-70160000D02*
X147860000Y-70160000D01*
X147860000Y-70160000D02*
X147860000Y-71680000D01*
X147860000Y-71680000D02*
X147810000Y-71680000D01*
X145920000Y-72220000D02*
X146250000Y-71980000D01*
X146250000Y-72460000D01*
X145920000Y-72220000D01*
G36*
X146250000Y-72460000D02*
G01*
X145920000Y-72220000D01*
X146250000Y-71980000D01*
X146250000Y-72460000D01*
G37*
%TO.C,Y1*%
D13*
X134050000Y-100440000D02*
X134050000Y-100600000D01*
X136550000Y-100440000D02*
X136550000Y-100600000D01*
D14*
X133200000Y-99420000D02*
G75*
G02*
X133000000Y-99420000I-100000J0D01*
G01*
X133000000Y-99420000D02*
G75*
G02*
X133200000Y-99420000I100000J0D01*
G01*
%TO.C,C1*%
D12*
X138890000Y-86708748D02*
X138890000Y-88131252D01*
X140710000Y-86708748D02*
X140710000Y-88131252D01*
%TO.C,SW1*%
X129900000Y-114470000D02*
X129900000Y-115970000D01*
X131150000Y-118470000D02*
X135650000Y-118470000D01*
X135650000Y-111970000D02*
X131150000Y-111970000D01*
X136900000Y-115970000D02*
X136900000Y-114470000D01*
%TO.C,R11*%
X141977500Y-110257258D02*
X141977500Y-109782742D01*
X143022500Y-110257258D02*
X143022500Y-109782742D01*
%TO.C,C10*%
X135972164Y-96460000D02*
X136187836Y-96460000D01*
X135972164Y-97180000D02*
X136187836Y-97180000D01*
%TO.C,C11*%
X143840000Y-110427836D02*
X143840000Y-110212164D01*
X144560000Y-110427836D02*
X144560000Y-110212164D01*
%TO.C,C18*%
X147940000Y-93392164D02*
X147940000Y-93607836D01*
X148660000Y-93392164D02*
X148660000Y-93607836D01*
%TO.C,R6*%
X148165000Y-88622064D02*
X148165000Y-88167936D01*
X149635000Y-88622064D02*
X149635000Y-88167936D01*
%TO.C,R7*%
X144265000Y-88080436D02*
X144265000Y-88534564D01*
X145735000Y-88080436D02*
X145735000Y-88534564D01*
%TO.C,D2*%
X149350000Y-67410000D02*
X149350000Y-75920000D01*
X149350000Y-67410000D02*
X155850000Y-67410000D01*
X155850000Y-67410000D02*
X155850000Y-75920000D01*
%TO.C,U1*%
D11*
X120925000Y-70825000D02*
X125075000Y-70825000D01*
X120925000Y-75975000D02*
X125075000Y-75975000D01*
D12*
X120500000Y-70900000D02*
X120260000Y-70570000D01*
X120740000Y-70570000D01*
X120500000Y-70900000D01*
G36*
X120500000Y-70900000D02*
G01*
X120260000Y-70570000D01*
X120740000Y-70570000D01*
X120500000Y-70900000D01*
G37*
%TO.C,D4*%
D10*
X146950000Y-111435000D02*
G75*
G02*
X146850000Y-111435000I-50000J0D01*
G01*
X146850000Y-111435000D02*
G75*
G02*
X146950000Y-111435000I50000J0D01*
G01*
%TO.C,D3*%
X156555000Y-81120000D02*
G75*
G02*
X156455000Y-81120000I-50000J0D01*
G01*
X156455000Y-81120000D02*
G75*
G02*
X156555000Y-81120000I50000J0D01*
G01*
%TO.C,C12*%
D12*
X140240000Y-109907836D02*
X140240000Y-109692164D01*
X140960000Y-109907836D02*
X140960000Y-109692164D01*
%TO.C,J3*%
X165390000Y-91000000D02*
X172010000Y-91000000D01*
X165390000Y-106660000D02*
X165390000Y-91000000D01*
X165390000Y-106660000D02*
X165390000Y-122320000D01*
X165390000Y-122320000D02*
X172010000Y-122320000D01*
X172010000Y-91000000D02*
X172010000Y-106660000D01*
X172010000Y-122320000D02*
X172010000Y-106660000D01*
X172400000Y-120520000D02*
X173400000Y-120020000D01*
X173400000Y-120020000D02*
X173400000Y-121020000D01*
X173400000Y-121020000D02*
X172400000Y-120520000D01*
%TO.C,R12*%
X148165000Y-110747064D02*
X148165000Y-110292936D01*
X149635000Y-110747064D02*
X149635000Y-110292936D01*
%TD*%
M02*
