%TF.GenerationSoftware,KiCad,Pcbnew,10.0.5*%
%TF.CreationDate,2026-09-27T19:02:26+05:30*%
%TF.ProjectId,STM32 GPS Tracker,53544d33-3220-4475-9053-20547261636b,rev?*%
%TF.SameCoordinates,Original*%
%TF.FileFunction,Copper,L2,Inr*%
%TF.FilePolarity,Positive*%
%FSLAX46Y46*%
G04 Gerber Fmt 4.6, Leading zero omitted, Abs format (unit mm)*
G04 Created by KiCad (PCBNEW 10.0.5) date 2026-09-27 19:02:26*
%MOMM*%
%LPD*%
G01*
G04 APERTURE LIST*
G04 Aperture macros list*
%AMRoundRect*
0 Rectangle with rounded corners*
0 $1 Rounding radius*
0 $2 $3 $4 $5 $6 $7 $8 $9 X,Y pos of 4 corners*
0 Add a 4 corners polygon primitive as box body*
4,1,4,$2,$3,$4,$5,$6,$7,$8,$9,$2,$3,0*
0 Add four circle primitives for the rounded corners*
1,1,$1+$1,$2,$3*
1,1,$1+$1,$4,$5*
1,1,$1+$1,$6,$7*
1,1,$1+$1,$8,$9*
0 Add four rect primitives between the rounded corners*
20,1,$1+$1,$2,$3,$4,$5,0*
20,1,$1+$1,$4,$5,$6,$7,0*
20,1,$1+$1,$6,$7,$8,$9,0*
20,1,$1+$1,$8,$9,$2,$3,0*%
G04 Aperture macros list end*
%TA.AperFunction,ComponentPad*%
%ADD10RoundRect,0.249999X-1.250001X-1.250001X1.250001X-1.250001X1.250001X1.250001X-1.250001X1.250001X0*%
%TD*%
%TA.AperFunction,ComponentPad*%
%ADD11C,3.000000*%
%TD*%
%TA.AperFunction,ComponentPad*%
%ADD12RoundRect,0.250001X0.949999X-0.949999X0.949999X0.949999X-0.949999X0.949999X-0.949999X-0.949999X0*%
%TD*%
%TA.AperFunction,ComponentPad*%
%ADD13C,2.400000*%
%TD*%
%TA.AperFunction,ComponentPad*%
%ADD14C,2.000000*%
%TD*%
%TA.AperFunction,ComponentPad*%
%ADD15C,0.600000*%
%TD*%
%TA.AperFunction,ViaPad*%
%ADD16C,0.600000*%
%TD*%
%TA.AperFunction,Conductor*%
%ADD17C,0.200000*%
%TD*%
%TA.AperFunction,Conductor*%
%ADD18C,0.300000*%
%TD*%
G04 APERTURE END LIST*
D10*
%TO.N,GND*%
%TO.C,J1*%
X130200000Y-71387500D03*
D11*
%TO.N,+12V*%
X135200000Y-71387500D03*
%TD*%
D12*
%TO.N,GND*%
%TO.C,J4*%
X123500000Y-120080000D03*
D13*
%TO.N,PA7{slash}SPI1_MOS1*%
X123500000Y-116120000D03*
%TO.N,PA6{slash}SPI_MIS0*%
X123500000Y-112160000D03*
%TO.N,PA5{slash}SPI1_CLK*%
X123500000Y-108200000D03*
%TO.N,PA4*%
X123500000Y-104240000D03*
%TO.N,USART2_RX*%
X123500000Y-100280000D03*
%TO.N,USART2_TX*%
X123500000Y-96320000D03*
%TO.N,+3.3V*%
X123500000Y-92360000D03*
%TD*%
D14*
%TO.N,Net-(C11-Pad2)*%
%TO.C,SW2*%
X158450000Y-119170000D03*
X158450000Y-112670000D03*
%TO.N,+3.3V*%
X162950000Y-119170000D03*
X162950000Y-112670000D03*
%TD*%
%TO.N,NRST*%
%TO.C,SW1*%
X130150000Y-112970000D03*
X136650000Y-112970000D03*
%TO.N,GND*%
X130150000Y-117470000D03*
X136650000Y-117470000D03*
%TD*%
D15*
%TO.N,GND*%
%TO.C,U1*%
X122400000Y-71600000D03*
X122400000Y-72800000D03*
X122400000Y-74100000D03*
X122400000Y-75200000D03*
X123600000Y-71600000D03*
X123600000Y-72800000D03*
X123600000Y-74100000D03*
X123600000Y-75200000D03*
%TD*%
D12*
%TO.N,GND*%
%TO.C,J3*%
X168700000Y-120520000D03*
D13*
%TO.N,SWDI0*%
X168700000Y-116560000D03*
%TO.N,NRST*%
X168700000Y-112600000D03*
%TO.N,SIM_CLK*%
X168700000Y-108640000D03*
%TO.N,SIM_RESET*%
X168700000Y-104680000D03*
%TO.N,SIM_RX*%
X168700000Y-100720000D03*
%TO.N,SIM_TX*%
X168700000Y-96760000D03*
%TO.N,SIM_PWRKEY*%
X168700000Y-92800000D03*
%TD*%
D16*
%TO.N,Net-(J2-RET)*%
X132600000Y-107200000D03*
%TO.N,SIM_DATA*%
X135400000Y-103400000D03*
%TO.N,Net-(J2-RET)*%
X138800000Y-113100000D03*
%TO.N,Net-(J2-CLK)*%
X140429046Y-103000000D03*
%TO.N,SIM_VDD*%
X156500000Y-123070000D03*
X161400000Y-97800000D03*
%TO.N,GND*%
X147300000Y-78100000D03*
X141200000Y-110900000D03*
%TO.N,+3.3V*%
X143500000Y-95600000D03*
X140572584Y-96642471D03*
X157800000Y-105220000D03*
X144395405Y-101824595D03*
X152850000Y-84770000D03*
X146500000Y-103720000D03*
%TO.N,STATUS*%
X137200000Y-93620000D03*
%TO.N,Net-(U4-PF0)*%
X142700000Y-97720000D03*
X136100000Y-95520000D03*
X138200000Y-96820000D03*
X134300000Y-97720000D03*
%TO.N,Net-(U4-PF1)*%
X137799998Y-102020000D03*
X133500000Y-103620000D03*
%TO.N,GND*%
X150800000Y-72220000D03*
X135000000Y-105020000D03*
X149800000Y-94620000D03*
X130800000Y-105320000D03*
X149600000Y-91620000D03*
X157500000Y-109920000D03*
X136750000Y-89720000D03*
X163800000Y-99020000D03*
X152159620Y-73279620D03*
X164400000Y-110120000D03*
X137500000Y-97820000D03*
X133053180Y-102956407D03*
X137714213Y-110820000D03*
X135000000Y-95520000D03*
X158800000Y-77020000D03*
X142800000Y-85320000D03*
X148000000Y-73320000D03*
X133400000Y-101520000D03*
%TO.N,USART2_TX*%
X128000000Y-96720000D03*
X132500000Y-99220000D03*
%TO.N,SIM_RX*%
X159500000Y-104520000D03*
X162000000Y-102920000D03*
%TO.N,SIM_TX*%
X155629999Y-97870243D03*
X156800000Y-101520000D03*
X149900000Y-103420000D03*
%TO.N,SWDI0*%
X157300000Y-103820000D03*
%TO.N,SIM_RESET*%
X156498788Y-103418788D03*
%TO.N,Net-(U4-BOOT0)*%
X152700000Y-93620000D03*
X152100000Y-96920000D03*
%TO.N,Net-(C11-Pad2)*%
X139300000Y-112220000D03*
X138675735Y-110820000D03*
%TO.N,Net-(D2-K)*%
X130200000Y-84500000D03*
X128200000Y-82500000D03*
%TO.N,FEEDBACK*%
X126400000Y-79400000D03*
X130700000Y-80700000D03*
%TO.N,SIM_DATA*%
X140000000Y-97820000D03*
%TO.N,Net-(J2-I{slash}O)*%
X157600000Y-108720000D03*
X160700000Y-114520000D03*
%TO.N,Net-(J2-CLK)*%
X143100000Y-102520000D03*
X138555455Y-106875455D03*
X141145887Y-104400745D03*
%TO.N,Net-(J2-RET)*%
X138200000Y-104920000D03*
%TO.N,SIM_DET*%
X147400000Y-102120000D03*
X136400000Y-105920000D03*
X138020402Y-103331069D03*
%TO.N,SIM_VDD*%
X136740380Y-106660380D03*
%TO.N,Net-(U2-VDD_EXT)*%
X155600000Y-101020000D03*
X155000000Y-97320000D03*
%TD*%
%TO.N,GND*%
D17*
X156520000Y-110900000D02*
X157500000Y-109920000D01*
X141200000Y-110900000D02*
X156520000Y-110900000D01*
X141200000Y-112920000D02*
X141200000Y-110900000D01*
X136650000Y-117470000D02*
X141200000Y-112920000D01*
%TO.N,Net-(U4-PF1)*%
X137799998Y-102020000D02*
X135100000Y-102020000D01*
X135100000Y-102020000D02*
X133500000Y-103620000D01*
%TO.N,GND*%
X132900000Y-103868529D02*
X134051471Y-105020000D01*
X133100000Y-103120000D02*
X132900000Y-103320000D01*
X134051471Y-105020000D02*
X135000000Y-105020000D01*
X138075735Y-111181522D02*
X137714213Y-110820000D01*
X133053180Y-102956407D02*
X133000242Y-103009345D01*
D18*
X133053180Y-102956407D02*
X133053180Y-102942365D01*
X133400000Y-102595545D02*
X133400000Y-101520000D01*
D17*
X135000000Y-108105787D02*
X135000000Y-105020000D01*
X132900000Y-103320000D02*
X132900000Y-103868529D01*
X137714213Y-110820000D02*
X135000000Y-108105787D01*
X133000242Y-103020242D02*
X133100000Y-103120000D01*
D18*
X133053180Y-102942365D02*
X133400000Y-102595545D01*
D17*
X138075735Y-116044265D02*
X138075735Y-111181522D01*
X133000242Y-103009345D02*
X133000242Y-103020242D01*
D18*
X149600000Y-94420000D02*
X149800000Y-94620000D01*
X149600000Y-91620000D02*
X149600000Y-94420000D01*
D17*
X136650000Y-117470000D02*
X138075735Y-116044265D01*
%TO.N,Net-(U4-BOOT0)*%
X152100000Y-96920000D02*
X152100000Y-94220000D01*
X152100000Y-94220000D02*
X152700000Y-93620000D01*
%TO.N,SIM_DET*%
X143348529Y-101920000D02*
X139431471Y-101920000D01*
X139431471Y-101920000D02*
X138020402Y-103331069D01*
X147095405Y-102424595D02*
X143853124Y-102424595D01*
X143853124Y-102424595D02*
X143348529Y-101920000D01*
X147400000Y-102120000D02*
X147095405Y-102424595D01*
%TO.N,Net-(J2-RET)*%
X138720000Y-111595979D02*
X138720000Y-113020000D01*
X138720000Y-113020000D02*
X138800000Y-113100000D01*
X137359754Y-108683775D02*
X139255735Y-110579756D01*
X139255735Y-111060244D02*
X138720000Y-111595979D01*
X138200000Y-104920000D02*
X137359754Y-104079754D01*
X139255735Y-110579756D02*
X139255735Y-111060244D01*
X137359754Y-102800000D02*
X137359754Y-108683775D01*
X137359754Y-104079754D02*
X137359754Y-102800000D01*
X137559754Y-102600000D02*
X137359754Y-102800000D01*
X138379998Y-102260244D02*
X138040242Y-102600000D01*
X132473180Y-107073180D02*
X132473180Y-101626576D01*
X138040242Y-102600000D02*
X137559754Y-102600000D01*
X138379998Y-101779756D02*
X138379998Y-102260244D01*
X137540242Y-100940000D02*
X138379998Y-101779756D01*
X132600000Y-107200000D02*
X132473180Y-107073180D01*
X132473180Y-101626576D02*
X133159756Y-100940000D01*
X133159756Y-100940000D02*
X137540242Y-100940000D01*
%TD*%
%TA.AperFunction,Conductor*%
%TO.N,GND*%
G36*
X134497941Y-101560185D02*
G01*
X134543696Y-101612989D01*
X134553640Y-101682147D01*
X134524615Y-101745703D01*
X134518583Y-101752181D01*
X133485339Y-102785425D01*
X133424016Y-102818910D01*
X133421850Y-102819361D01*
X133266508Y-102850261D01*
X133266494Y-102850265D01*
X133245129Y-102859115D01*
X133175660Y-102866582D01*
X133113181Y-102835305D01*
X133077531Y-102775215D01*
X133073680Y-102744553D01*
X133073680Y-101926673D01*
X133093365Y-101859634D01*
X133109999Y-101838992D01*
X133372172Y-101576819D01*
X133433495Y-101543334D01*
X133459853Y-101540500D01*
X134430902Y-101540500D01*
X134497941Y-101560185D01*
G37*
%TD.AperFunction*%
%TA.AperFunction,Conductor*%
G36*
X173042539Y-64740185D02*
G01*
X173088294Y-64792989D01*
X173099500Y-64844500D01*
X173099500Y-123375500D01*
X173079815Y-123442539D01*
X173027011Y-123488294D01*
X172975500Y-123499500D01*
X157374129Y-123499500D01*
X157307090Y-123479815D01*
X157261335Y-123427011D01*
X157251391Y-123357853D01*
X157259568Y-123328048D01*
X157269735Y-123303501D01*
X157269737Y-123303497D01*
X157300500Y-123148842D01*
X157300500Y-122991158D01*
X157300500Y-122991155D01*
X157300499Y-122991153D01*
X157269738Y-122836510D01*
X157269737Y-122836503D01*
X157269735Y-122836498D01*
X157209397Y-122690827D01*
X157209390Y-122690814D01*
X157121789Y-122559711D01*
X157121786Y-122559707D01*
X157010292Y-122448213D01*
X157010288Y-122448210D01*
X156879185Y-122360609D01*
X156879172Y-122360602D01*
X156733501Y-122300264D01*
X156733489Y-122300261D01*
X156578845Y-122269500D01*
X156578842Y-122269500D01*
X156421158Y-122269500D01*
X156421155Y-122269500D01*
X156266510Y-122300261D01*
X156266498Y-122300264D01*
X156120827Y-122360602D01*
X156120814Y-122360609D01*
X155989711Y-122448210D01*
X155989707Y-122448213D01*
X155878213Y-122559707D01*
X155878210Y-122559711D01*
X155790609Y-122690814D01*
X155790602Y-122690827D01*
X155730264Y-122836498D01*
X155730261Y-122836510D01*
X155699500Y-122991153D01*
X155699500Y-123148846D01*
X155730261Y-123303489D01*
X155730264Y-123303501D01*
X155740432Y-123328048D01*
X155747901Y-123397517D01*
X155716626Y-123459996D01*
X155656537Y-123495648D01*
X155625871Y-123499500D01*
X118224500Y-123499500D01*
X118157461Y-123479815D01*
X118111706Y-123427011D01*
X118100500Y-123375500D01*
X118100500Y-119080014D01*
X121800000Y-119080014D01*
X121800000Y-119830000D01*
X122845879Y-119830000D01*
X122826901Y-119875818D01*
X122800000Y-120011056D01*
X122800000Y-120148944D01*
X122826901Y-120284182D01*
X122845879Y-120330000D01*
X121800000Y-120330000D01*
X121800000Y-121079985D01*
X121810493Y-121182689D01*
X121810494Y-121182696D01*
X121865641Y-121349118D01*
X121865643Y-121349123D01*
X121957684Y-121498344D01*
X122081655Y-121622315D01*
X122230876Y-121714356D01*
X122230881Y-121714358D01*
X122397303Y-121769505D01*
X122397310Y-121769506D01*
X122500014Y-121779999D01*
X122500027Y-121780000D01*
X123250000Y-121780000D01*
X123250000Y-120734120D01*
X123295818Y-120753099D01*
X123431056Y-120780000D01*
X123568944Y-120780000D01*
X123704182Y-120753099D01*
X123750000Y-120734120D01*
X123750000Y-121780000D01*
X124499973Y-121780000D01*
X124499985Y-121779999D01*
X124602689Y-121769506D01*
X124602696Y-121769505D01*
X124769118Y-121714358D01*
X124769123Y-121714356D01*
X124918344Y-121622315D01*
X125042315Y-121498344D01*
X125134356Y-121349123D01*
X125134358Y-121349118D01*
X125189505Y-121182696D01*
X125189506Y-121182689D01*
X125199999Y-121079985D01*
X125200000Y-121079972D01*
X125200000Y-120330000D01*
X124154121Y-120330000D01*
X124173099Y-120284182D01*
X124200000Y-120148944D01*
X124200000Y-120011056D01*
X124173099Y-119875818D01*
X124154121Y-119830000D01*
X125200000Y-119830000D01*
X125200000Y-119080027D01*
X125199999Y-119080014D01*
X125197127Y-119051902D01*
X156949500Y-119051902D01*
X156949500Y-119288097D01*
X156986446Y-119521368D01*
X157059433Y-119745996D01*
X157137734Y-119899668D01*
X157166657Y-119956433D01*
X157305483Y-120147510D01*
X157472490Y-120314517D01*
X157663567Y-120453343D01*
X157762991Y-120504002D01*
X157874003Y-120560566D01*
X157874005Y-120560566D01*
X157874008Y-120560568D01*
X157961340Y-120588944D01*
X158098631Y-120633553D01*
X158331903Y-120670500D01*
X158331908Y-120670500D01*
X158568097Y-120670500D01*
X158801368Y-120633553D01*
X158831612Y-120623726D01*
X159025992Y-120560568D01*
X159236433Y-120453343D01*
X159427510Y-120314517D01*
X159594517Y-120147510D01*
X159733343Y-119956433D01*
X159840568Y-119745992D01*
X159913553Y-119521368D01*
X159930034Y-119417310D01*
X159950500Y-119288097D01*
X159950500Y-119051902D01*
X161449500Y-119051902D01*
X161449500Y-119288097D01*
X161486446Y-119521368D01*
X161559433Y-119745996D01*
X161637734Y-119899668D01*
X161666657Y-119956433D01*
X161805483Y-120147510D01*
X161972490Y-120314517D01*
X162163567Y-120453343D01*
X162262991Y-120504002D01*
X162374003Y-120560566D01*
X162374005Y-120560566D01*
X162374008Y-120560568D01*
X162461340Y-120588944D01*
X162598631Y-120633553D01*
X162831903Y-120670500D01*
X162831908Y-120670500D01*
X163068097Y-120670500D01*
X163301368Y-120633553D01*
X163402457Y-120600707D01*
X163525992Y-120560568D01*
X163736433Y-120453343D01*
X163927510Y-120314517D01*
X164094517Y-120147510D01*
X164233343Y-119956433D01*
X164340568Y-119745992D01*
X164413553Y-119521368D01*
X164413767Y-119520014D01*
X167000000Y-119520014D01*
X167000000Y-120270000D01*
X168045879Y-120270000D01*
X168026901Y-120315818D01*
X168000000Y-120451056D01*
X168000000Y-120588944D01*
X168026901Y-120724182D01*
X168045879Y-120770000D01*
X167000000Y-120770000D01*
X167000000Y-121519985D01*
X167010493Y-121622689D01*
X167010494Y-121622696D01*
X167065641Y-121789118D01*
X167065643Y-121789123D01*
X167157684Y-121938344D01*
X167281655Y-122062315D01*
X167430876Y-122154356D01*
X167430881Y-122154358D01*
X167597303Y-122209505D01*
X167597310Y-122209506D01*
X167700014Y-122219999D01*
X167700027Y-122220000D01*
X168450000Y-122220000D01*
X168450000Y-121174120D01*
X168495818Y-121193099D01*
X168631056Y-121220000D01*
X168768944Y-121220000D01*
X168904182Y-121193099D01*
X168950000Y-121174120D01*
X168950000Y-122220000D01*
X169699973Y-122220000D01*
X169699985Y-122219999D01*
X169802689Y-122209506D01*
X169802696Y-122209505D01*
X169969118Y-122154358D01*
X169969123Y-122154356D01*
X170118344Y-122062315D01*
X170242315Y-121938344D01*
X170334356Y-121789123D01*
X170334358Y-121789118D01*
X170389505Y-121622696D01*
X170389506Y-121622689D01*
X170399999Y-121519985D01*
X170400000Y-121519972D01*
X170400000Y-120770000D01*
X169354121Y-120770000D01*
X169373099Y-120724182D01*
X169400000Y-120588944D01*
X169400000Y-120451056D01*
X169373099Y-120315818D01*
X169354121Y-120270000D01*
X170400000Y-120270000D01*
X170400000Y-119520027D01*
X170399999Y-119520014D01*
X170389506Y-119417310D01*
X170389505Y-119417303D01*
X170334358Y-119250881D01*
X170334356Y-119250876D01*
X170242315Y-119101655D01*
X170118344Y-118977684D01*
X169969123Y-118885643D01*
X169969118Y-118885641D01*
X169802696Y-118830494D01*
X169802689Y-118830493D01*
X169699985Y-118820000D01*
X168950000Y-118820000D01*
X168950000Y-119865879D01*
X168904182Y-119846901D01*
X168768944Y-119820000D01*
X168631056Y-119820000D01*
X168495818Y-119846901D01*
X168450000Y-119865879D01*
X168450000Y-118820000D01*
X167700014Y-118820000D01*
X167597310Y-118830493D01*
X167597303Y-118830494D01*
X167430881Y-118885641D01*
X167430876Y-118885643D01*
X167281655Y-118977684D01*
X167157684Y-119101655D01*
X167065643Y-119250876D01*
X167065641Y-119250881D01*
X167010494Y-119417303D01*
X167010493Y-119417310D01*
X167000000Y-119520014D01*
X164413767Y-119520014D01*
X164417339Y-119497465D01*
X164450500Y-119288097D01*
X164450500Y-119051902D01*
X164413553Y-118818631D01*
X164372621Y-118692658D01*
X164340568Y-118594008D01*
X164340566Y-118594005D01*
X164340566Y-118594003D01*
X164233342Y-118383566D01*
X164201039Y-118339105D01*
X164094517Y-118192490D01*
X163927510Y-118025483D01*
X163736433Y-117886657D01*
X163525996Y-117779433D01*
X163301368Y-117706446D01*
X163068097Y-117669500D01*
X163068092Y-117669500D01*
X162831908Y-117669500D01*
X162831903Y-117669500D01*
X162598631Y-117706446D01*
X162374003Y-117779433D01*
X162163566Y-117886657D01*
X162054550Y-117965862D01*
X161972490Y-118025483D01*
X161972488Y-118025485D01*
X161972487Y-118025485D01*
X161805485Y-118192487D01*
X161805485Y-118192488D01*
X161805483Y-118192490D01*
X161777210Y-118231405D01*
X161666657Y-118383566D01*
X161559433Y-118594003D01*
X161486446Y-118818631D01*
X161449500Y-119051902D01*
X159950500Y-119051902D01*
X159913553Y-118818631D01*
X159872621Y-118692658D01*
X159840568Y-118594008D01*
X159840566Y-118594005D01*
X159840566Y-118594003D01*
X159733342Y-118383566D01*
X159701039Y-118339105D01*
X159594517Y-118192490D01*
X159427510Y-118025483D01*
X159236433Y-117886657D01*
X159025996Y-117779433D01*
X158801368Y-117706446D01*
X158568097Y-117669500D01*
X158568092Y-117669500D01*
X158331908Y-117669500D01*
X158331903Y-117669500D01*
X158098631Y-117706446D01*
X157874003Y-117779433D01*
X157663566Y-117886657D01*
X157554550Y-117965862D01*
X157472490Y-118025483D01*
X157472488Y-118025485D01*
X157472487Y-118025485D01*
X157305485Y-118192487D01*
X157305485Y-118192488D01*
X157305483Y-118192490D01*
X157277210Y-118231405D01*
X157166657Y-118383566D01*
X157059433Y-118594003D01*
X156986446Y-118818631D01*
X156949500Y-119051902D01*
X125197127Y-119051902D01*
X125189506Y-118977310D01*
X125189505Y-118977303D01*
X125134358Y-118810881D01*
X125134356Y-118810876D01*
X125072441Y-118710496D01*
X125072440Y-118710493D01*
X125042319Y-118661660D01*
X125042316Y-118661656D01*
X124918344Y-118537684D01*
X124769123Y-118445643D01*
X124769118Y-118445641D01*
X124602696Y-118390494D01*
X124602689Y-118390493D01*
X124499985Y-118380000D01*
X123750000Y-118380000D01*
X123750000Y-119425879D01*
X123704182Y-119406901D01*
X123568944Y-119380000D01*
X123431056Y-119380000D01*
X123295818Y-119406901D01*
X123250000Y-119425879D01*
X123250000Y-118380000D01*
X122500014Y-118380000D01*
X122397310Y-118390493D01*
X122397303Y-118390494D01*
X122230881Y-118445641D01*
X122230876Y-118445643D01*
X122081655Y-118537684D01*
X121957684Y-118661655D01*
X121865643Y-118810876D01*
X121865641Y-118810881D01*
X121810494Y-118977303D01*
X121810493Y-118977310D01*
X121800000Y-119080014D01*
X118100500Y-119080014D01*
X118100500Y-116008549D01*
X121799500Y-116008549D01*
X121799500Y-116231458D01*
X121828594Y-116452452D01*
X121828595Y-116452457D01*
X121828596Y-116452463D01*
X121828597Y-116452465D01*
X121886290Y-116667780D01*
X121886293Y-116667790D01*
X121971593Y-116873722D01*
X121971595Y-116873726D01*
X122083052Y-117066774D01*
X122083057Y-117066780D01*
X122083058Y-117066782D01*
X122218751Y-117243622D01*
X122218757Y-117243629D01*
X122376370Y-117401242D01*
X122376376Y-117401247D01*
X122553226Y-117536948D01*
X122746274Y-117648405D01*
X122952219Y-117733710D01*
X123167537Y-117791404D01*
X123388543Y-117820500D01*
X123388550Y-117820500D01*
X123611450Y-117820500D01*
X123611457Y-117820500D01*
X123832463Y-117791404D01*
X124047781Y-117733710D01*
X124253726Y-117648405D01*
X124446774Y-117536948D01*
X124623624Y-117401247D01*
X124672924Y-117351947D01*
X128650000Y-117351947D01*
X128650000Y-117588052D01*
X128686934Y-117821247D01*
X128759897Y-118045802D01*
X128867087Y-118256174D01*
X128927338Y-118339104D01*
X128927340Y-118339105D01*
X129626212Y-117640233D01*
X129637482Y-117682292D01*
X129709890Y-117807708D01*
X129812292Y-117910110D01*
X129937708Y-117982518D01*
X129979765Y-117993787D01*
X129280893Y-118692658D01*
X129363828Y-118752914D01*
X129574197Y-118860102D01*
X129798752Y-118933065D01*
X129798751Y-118933065D01*
X130031948Y-118970000D01*
X130268052Y-118970000D01*
X130501247Y-118933065D01*
X130725802Y-118860102D01*
X130936163Y-118752918D01*
X130936169Y-118752914D01*
X131019104Y-118692658D01*
X131019105Y-118692658D01*
X130320233Y-117993787D01*
X130362292Y-117982518D01*
X130487708Y-117910110D01*
X130590110Y-117807708D01*
X130662518Y-117682292D01*
X130673787Y-117640234D01*
X131372658Y-118339105D01*
X131372658Y-118339104D01*
X131432914Y-118256169D01*
X131432918Y-118256163D01*
X131540102Y-118045802D01*
X131613065Y-117821247D01*
X131650000Y-117588052D01*
X131650000Y-117351947D01*
X135150000Y-117351947D01*
X135150000Y-117588052D01*
X135186934Y-117821247D01*
X135259897Y-118045802D01*
X135367087Y-118256174D01*
X135427338Y-118339104D01*
X135427340Y-118339105D01*
X136126212Y-117640233D01*
X136137482Y-117682292D01*
X136209890Y-117807708D01*
X136312292Y-117910110D01*
X136437708Y-117982518D01*
X136479765Y-117993787D01*
X135780893Y-118692658D01*
X135863828Y-118752914D01*
X136074197Y-118860102D01*
X136298752Y-118933065D01*
X136298751Y-118933065D01*
X136531948Y-118970000D01*
X136768052Y-118970000D01*
X137001245Y-118933065D01*
X137013436Y-118929105D01*
X137013437Y-118929104D01*
X137225802Y-118860102D01*
X137436163Y-118752918D01*
X137436169Y-118752914D01*
X137519104Y-118692658D01*
X137519105Y-118692658D01*
X136820233Y-117993787D01*
X136862292Y-117982518D01*
X136987708Y-117910110D01*
X137090110Y-117807708D01*
X137162518Y-117682292D01*
X137173787Y-117640234D01*
X137872658Y-118339105D01*
X137872658Y-118339104D01*
X137932914Y-118256169D01*
X137932918Y-118256163D01*
X138040102Y-118045802D01*
X138113065Y-117821247D01*
X138150000Y-117588052D01*
X138150000Y-117351947D01*
X138113065Y-117118752D01*
X138040102Y-116894197D01*
X137932914Y-116683828D01*
X137872658Y-116600894D01*
X137872658Y-116600893D01*
X137173787Y-117299765D01*
X137162518Y-117257708D01*
X137090110Y-117132292D01*
X136987708Y-117029890D01*
X136862292Y-116957482D01*
X136820234Y-116946212D01*
X137317897Y-116448549D01*
X166999500Y-116448549D01*
X166999500Y-116671450D01*
X166999501Y-116671466D01*
X167028594Y-116892452D01*
X167028595Y-116892457D01*
X167028596Y-116892463D01*
X167086290Y-117107780D01*
X167086293Y-117107790D01*
X167149090Y-117259394D01*
X167171595Y-117313726D01*
X167283052Y-117506774D01*
X167283057Y-117506780D01*
X167283058Y-117506782D01*
X167418751Y-117683622D01*
X167418757Y-117683629D01*
X167576370Y-117841242D01*
X167576377Y-117841248D01*
X167702294Y-117937867D01*
X167753226Y-117976948D01*
X167946274Y-118088405D01*
X168152219Y-118173710D01*
X168367537Y-118231404D01*
X168588543Y-118260500D01*
X168588550Y-118260500D01*
X168811450Y-118260500D01*
X168811457Y-118260500D01*
X169032463Y-118231404D01*
X169247781Y-118173710D01*
X169453726Y-118088405D01*
X169646774Y-117976948D01*
X169823624Y-117841247D01*
X169981247Y-117683624D01*
X170116948Y-117506774D01*
X170228405Y-117313726D01*
X170313710Y-117107781D01*
X170371404Y-116892463D01*
X170400500Y-116671457D01*
X170400500Y-116448543D01*
X170371404Y-116227537D01*
X170313710Y-116012219D01*
X170228405Y-115806274D01*
X170116948Y-115613226D01*
X169981247Y-115436376D01*
X169981242Y-115436370D01*
X169823629Y-115278757D01*
X169823622Y-115278751D01*
X169646782Y-115143058D01*
X169646780Y-115143057D01*
X169646774Y-115143052D01*
X169453726Y-115031595D01*
X169453722Y-115031593D01*
X169247790Y-114946293D01*
X169247783Y-114946291D01*
X169247781Y-114946290D01*
X169032463Y-114888596D01*
X169032457Y-114888595D01*
X169032452Y-114888594D01*
X168811466Y-114859501D01*
X168811463Y-114859500D01*
X168811457Y-114859500D01*
X168588543Y-114859500D01*
X168588537Y-114859500D01*
X168588533Y-114859501D01*
X168367547Y-114888594D01*
X168367540Y-114888595D01*
X168367537Y-114888596D01*
X168152219Y-114946290D01*
X168152209Y-114946293D01*
X167946277Y-115031593D01*
X167946273Y-115031595D01*
X167753226Y-115143052D01*
X167753217Y-115143058D01*
X167576377Y-115278751D01*
X167576370Y-115278757D01*
X167418757Y-115436370D01*
X167418751Y-115436377D01*
X167283058Y-115613217D01*
X167283052Y-115613226D01*
X167171595Y-115806273D01*
X167171593Y-115806277D01*
X167086293Y-116012209D01*
X167086290Y-116012219D01*
X167039435Y-116187087D01*
X167028597Y-116227534D01*
X167028594Y-116227547D01*
X166999501Y-116448533D01*
X166999500Y-116448549D01*
X137317897Y-116448549D01*
X137409643Y-116356803D01*
X137519105Y-116247340D01*
X137519104Y-116247338D01*
X137436174Y-116187087D01*
X137225802Y-116079897D01*
X137001247Y-116006934D01*
X137001248Y-116006934D01*
X136768052Y-115970000D01*
X136531948Y-115970000D01*
X136298752Y-116006934D01*
X136074197Y-116079897D01*
X135863830Y-116187084D01*
X135780894Y-116247340D01*
X136479766Y-116946212D01*
X136437708Y-116957482D01*
X136312292Y-117029890D01*
X136209890Y-117132292D01*
X136137482Y-117257708D01*
X136126212Y-117299766D01*
X135427340Y-116600894D01*
X135367084Y-116683830D01*
X135259897Y-116894197D01*
X135186934Y-117118752D01*
X135150000Y-117351947D01*
X131650000Y-117351947D01*
X131613065Y-117118752D01*
X131540102Y-116894197D01*
X131432914Y-116683828D01*
X131372658Y-116600894D01*
X131372658Y-116600893D01*
X130673787Y-117299765D01*
X130662518Y-117257708D01*
X130590110Y-117132292D01*
X130487708Y-117029890D01*
X130362292Y-116957482D01*
X130320234Y-116946212D01*
X131019105Y-116247340D01*
X131019104Y-116247339D01*
X130936174Y-116187087D01*
X130725802Y-116079897D01*
X130501247Y-116006934D01*
X130501248Y-116006934D01*
X130268052Y-115970000D01*
X130031948Y-115970000D01*
X129798752Y-116006934D01*
X129574197Y-116079897D01*
X129363830Y-116187084D01*
X129280894Y-116247340D01*
X129979766Y-116946212D01*
X129937708Y-116957482D01*
X129812292Y-117029890D01*
X129709890Y-117132292D01*
X129637482Y-117257708D01*
X129626212Y-117299766D01*
X128927340Y-116600894D01*
X128867084Y-116683830D01*
X128759897Y-116894197D01*
X128686934Y-117118752D01*
X128650000Y-117351947D01*
X124672924Y-117351947D01*
X124765478Y-117259394D01*
X124781242Y-117243629D01*
X124781247Y-117243624D01*
X124916948Y-117066774D01*
X125028405Y-116873726D01*
X125113710Y-116667781D01*
X125171404Y-116452463D01*
X125200500Y-116231457D01*
X125200500Y-116008543D01*
X125171404Y-115787537D01*
X125113710Y-115572219D01*
X125028405Y-115366274D01*
X124916948Y-115173226D01*
X124877867Y-115122294D01*
X124781248Y-114996377D01*
X124781242Y-114996370D01*
X124623629Y-114838757D01*
X124623622Y-114838751D01*
X124446782Y-114703058D01*
X124446780Y-114703057D01*
X124446774Y-114703052D01*
X124253726Y-114591595D01*
X124253722Y-114591593D01*
X124047790Y-114506293D01*
X124047783Y-114506291D01*
X124047781Y-114506290D01*
X123832463Y-114448596D01*
X123832457Y-114448595D01*
X123832452Y-114448594D01*
X123611466Y-114419501D01*
X123611463Y-114419500D01*
X123611457Y-114419500D01*
X123388543Y-114419500D01*
X123388537Y-114419500D01*
X123388533Y-114419501D01*
X123167547Y-114448594D01*
X123167540Y-114448595D01*
X123167537Y-114448596D01*
X123085790Y-114470500D01*
X122952219Y-114506290D01*
X122952209Y-114506293D01*
X122746277Y-114591593D01*
X122746273Y-114591595D01*
X122553226Y-114703052D01*
X122553217Y-114703058D01*
X122376377Y-114838751D01*
X122376370Y-114838757D01*
X122218757Y-114996370D01*
X122218751Y-114996377D01*
X122083058Y-115173217D01*
X122083052Y-115173226D01*
X121971595Y-115366273D01*
X121971593Y-115366277D01*
X121886293Y-115572209D01*
X121886290Y-115572219D01*
X121828597Y-115787534D01*
X121828594Y-115787547D01*
X121799501Y-116008533D01*
X121799500Y-116008549D01*
X118100500Y-116008549D01*
X118100500Y-112048549D01*
X121799500Y-112048549D01*
X121799500Y-112271458D01*
X121828594Y-112492452D01*
X121828595Y-112492457D01*
X121828596Y-112492463D01*
X121862403Y-112618632D01*
X121886290Y-112707780D01*
X121886293Y-112707790D01*
X121945989Y-112851908D01*
X121971595Y-112913726D01*
X122083052Y-113106774D01*
X122083057Y-113106780D01*
X122083058Y-113106782D01*
X122218751Y-113283622D01*
X122218757Y-113283629D01*
X122376370Y-113441242D01*
X122376376Y-113441247D01*
X122553226Y-113576948D01*
X122746274Y-113688405D01*
X122876140Y-113742197D01*
X122910508Y-113756433D01*
X122952219Y-113773710D01*
X123167537Y-113831404D01*
X123388543Y-113860500D01*
X123388550Y-113860500D01*
X123611450Y-113860500D01*
X123611457Y-113860500D01*
X123832463Y-113831404D01*
X124047781Y-113773710D01*
X124253726Y-113688405D01*
X124446774Y-113576948D01*
X124623624Y-113441247D01*
X124781247Y-113283624D01*
X124916948Y-113106774D01*
X125028405Y-112913726D01*
X125054013Y-112851902D01*
X128649500Y-112851902D01*
X128649500Y-113088097D01*
X128686446Y-113321368D01*
X128759433Y-113545996D01*
X128863512Y-113750261D01*
X128866657Y-113756433D01*
X129005483Y-113947510D01*
X129172490Y-114114517D01*
X129363567Y-114253343D01*
X129428661Y-114286510D01*
X129574003Y-114360566D01*
X129574005Y-114360566D01*
X129574008Y-114360568D01*
X129694412Y-114399689D01*
X129798631Y-114433553D01*
X130031903Y-114470500D01*
X130031908Y-114470500D01*
X130268097Y-114470500D01*
X130501368Y-114433553D01*
X130544615Y-114419501D01*
X130725992Y-114360568D01*
X130936433Y-114253343D01*
X131127510Y-114114517D01*
X131294517Y-113947510D01*
X131433343Y-113756433D01*
X131536630Y-113553719D01*
X131540566Y-113545996D01*
X131540566Y-113545995D01*
X131540568Y-113545992D01*
X131613553Y-113321368D01*
X131625491Y-113245996D01*
X131650500Y-113088097D01*
X131650500Y-112851902D01*
X131613553Y-112618631D01*
X131559897Y-112453497D01*
X131540568Y-112394008D01*
X131540566Y-112394005D01*
X131540566Y-112394003D01*
X131433342Y-112183566D01*
X131294517Y-111992490D01*
X131127510Y-111825483D01*
X130936433Y-111686657D01*
X130933230Y-111685025D01*
X130725996Y-111579433D01*
X130501368Y-111506446D01*
X130268097Y-111469500D01*
X130268092Y-111469500D01*
X130031908Y-111469500D01*
X130031903Y-111469500D01*
X129798631Y-111506446D01*
X129574003Y-111579433D01*
X129363566Y-111686657D01*
X129254550Y-111765862D01*
X129172490Y-111825483D01*
X129172488Y-111825485D01*
X129172487Y-111825485D01*
X129005485Y-111992487D01*
X129005485Y-111992488D01*
X129005483Y-111992490D01*
X128962087Y-112052219D01*
X128866657Y-112183566D01*
X128759433Y-112394003D01*
X128686446Y-112618631D01*
X128649500Y-112851902D01*
X125054013Y-112851902D01*
X125058202Y-112841789D01*
X125075685Y-112799583D01*
X125075685Y-112799581D01*
X125113704Y-112707796D01*
X125113706Y-112707790D01*
X125113710Y-112707781D01*
X125171404Y-112492463D01*
X125200500Y-112271457D01*
X125200500Y-112048543D01*
X125171404Y-111827537D01*
X125113710Y-111612219D01*
X125028405Y-111406274D01*
X124916948Y-111213226D01*
X124860222Y-111139299D01*
X124781248Y-111036377D01*
X124781242Y-111036370D01*
X124623629Y-110878757D01*
X124623622Y-110878751D01*
X124446782Y-110743058D01*
X124446780Y-110743057D01*
X124446774Y-110743052D01*
X124253726Y-110631595D01*
X124253722Y-110631593D01*
X124047790Y-110546293D01*
X124047783Y-110546291D01*
X124047781Y-110546290D01*
X123832463Y-110488596D01*
X123832457Y-110488595D01*
X123832452Y-110488594D01*
X123611466Y-110459501D01*
X123611463Y-110459500D01*
X123611457Y-110459500D01*
X123388543Y-110459500D01*
X123388537Y-110459500D01*
X123388533Y-110459501D01*
X123167547Y-110488594D01*
X123167540Y-110488595D01*
X123167537Y-110488596D01*
X122952219Y-110546290D01*
X122952209Y-110546293D01*
X122746277Y-110631593D01*
X122746273Y-110631595D01*
X122553226Y-110743052D01*
X122553217Y-110743058D01*
X122376377Y-110878751D01*
X122376370Y-110878757D01*
X122218757Y-111036370D01*
X122218751Y-111036377D01*
X122083058Y-111213217D01*
X122083052Y-111213226D01*
X121971595Y-111406273D01*
X121971593Y-111406277D01*
X121886293Y-111612209D01*
X121886290Y-111612219D01*
X121829147Y-111825483D01*
X121828597Y-111827534D01*
X121828594Y-111827547D01*
X121799501Y-112048533D01*
X121799500Y-112048549D01*
X118100500Y-112048549D01*
X118100500Y-108088549D01*
X121799500Y-108088549D01*
X121799500Y-108311458D01*
X121828594Y-108532452D01*
X121828595Y-108532457D01*
X121828596Y-108532463D01*
X121857720Y-108641155D01*
X121886290Y-108747780D01*
X121886293Y-108747790D01*
X121971593Y-108953722D01*
X121971595Y-108953726D01*
X122083052Y-109146774D01*
X122083057Y-109146780D01*
X122083058Y-109146782D01*
X122218751Y-109323622D01*
X122218757Y-109323629D01*
X122376370Y-109481242D01*
X122376377Y-109481248D01*
X122427530Y-109520499D01*
X122553226Y-109616948D01*
X122746274Y-109728405D01*
X122952219Y-109813710D01*
X123167537Y-109871404D01*
X123388543Y-109900500D01*
X123388550Y-109900500D01*
X123611450Y-109900500D01*
X123611457Y-109900500D01*
X123832463Y-109871404D01*
X124047781Y-109813710D01*
X124253726Y-109728405D01*
X124446774Y-109616948D01*
X124623624Y-109481247D01*
X124781247Y-109323624D01*
X124916948Y-109146774D01*
X125028405Y-108953726D01*
X125113710Y-108747781D01*
X125171404Y-108532463D01*
X125200500Y-108311457D01*
X125200500Y-108088543D01*
X125171404Y-107867537D01*
X125113710Y-107652219D01*
X125028405Y-107446274D01*
X124916948Y-107253226D01*
X124868857Y-107190552D01*
X124815606Y-107121153D01*
X131799500Y-107121153D01*
X131799500Y-107278846D01*
X131830261Y-107433489D01*
X131830264Y-107433501D01*
X131890602Y-107579172D01*
X131890609Y-107579185D01*
X131978210Y-107710288D01*
X131978213Y-107710292D01*
X132089707Y-107821786D01*
X132089711Y-107821789D01*
X132220814Y-107909390D01*
X132220827Y-107909397D01*
X132366498Y-107969735D01*
X132366503Y-107969737D01*
X132521153Y-108000499D01*
X132521156Y-108000500D01*
X132521158Y-108000500D01*
X132678844Y-108000500D01*
X132678845Y-108000499D01*
X132833497Y-107969737D01*
X132979179Y-107909394D01*
X133110289Y-107821789D01*
X133221789Y-107710289D01*
X133309394Y-107579179D01*
X133369737Y-107433497D01*
X133400500Y-107278842D01*
X133400500Y-107121158D01*
X133400500Y-107121155D01*
X133400499Y-107121153D01*
X133381629Y-107026290D01*
X133369737Y-106966503D01*
X133364681Y-106954297D01*
X133309397Y-106820827D01*
X133309390Y-106820814D01*
X133221789Y-106689711D01*
X133221786Y-106689707D01*
X133109999Y-106577920D01*
X133076514Y-106516597D01*
X133073680Y-106490239D01*
X133073680Y-104495446D01*
X133093365Y-104428407D01*
X133146169Y-104382652D01*
X133215327Y-104372708D01*
X133245130Y-104380884D01*
X133266503Y-104389737D01*
X133416131Y-104419500D01*
X133421153Y-104420499D01*
X133421156Y-104420500D01*
X133421158Y-104420500D01*
X133578844Y-104420500D01*
X133578845Y-104420499D01*
X133733497Y-104389737D01*
X133879179Y-104329394D01*
X134010289Y-104241789D01*
X134121789Y-104130289D01*
X134209394Y-103999179D01*
X134269737Y-103853497D01*
X134298233Y-103710241D01*
X134300638Y-103698150D01*
X134333023Y-103636239D01*
X134334518Y-103634716D01*
X134417360Y-103551874D01*
X134478681Y-103518391D01*
X134548373Y-103523375D01*
X134604306Y-103565247D01*
X134626656Y-103615366D01*
X134630261Y-103633489D01*
X134630264Y-103633501D01*
X134690602Y-103779172D01*
X134690609Y-103779185D01*
X134778210Y-103910288D01*
X134778213Y-103910292D01*
X134889707Y-104021786D01*
X134889711Y-104021789D01*
X135020814Y-104109390D01*
X135020827Y-104109397D01*
X135105594Y-104144508D01*
X135166503Y-104169737D01*
X135314482Y-104199172D01*
X135321153Y-104200499D01*
X135321156Y-104200500D01*
X135321158Y-104200500D01*
X135478844Y-104200500D01*
X135478845Y-104200499D01*
X135633497Y-104169737D01*
X135779179Y-104109394D01*
X135910289Y-104021789D01*
X136021789Y-103910289D01*
X136109394Y-103779179D01*
X136169737Y-103633497D01*
X136200500Y-103478842D01*
X136200500Y-103321158D01*
X136200500Y-103321155D01*
X136200499Y-103321153D01*
X136194250Y-103289737D01*
X136169737Y-103166503D01*
X136169735Y-103166498D01*
X136109397Y-103020827D01*
X136109390Y-103020814D01*
X136021789Y-102889711D01*
X136021786Y-102889707D01*
X135964260Y-102832181D01*
X135930775Y-102770858D01*
X135935759Y-102701166D01*
X135977631Y-102645233D01*
X136043095Y-102620816D01*
X136051941Y-102620500D01*
X136635253Y-102620500D01*
X136702292Y-102640185D01*
X136748047Y-102692989D01*
X136759253Y-102744500D01*
X136759253Y-102889046D01*
X136759254Y-102889059D01*
X136759254Y-103993084D01*
X136759253Y-103993102D01*
X136759253Y-104168800D01*
X136759254Y-104168813D01*
X136759254Y-105024183D01*
X136739569Y-105091222D01*
X136686765Y-105136977D01*
X136617607Y-105146921D01*
X136611063Y-105145800D01*
X136478845Y-105119500D01*
X136478842Y-105119500D01*
X136321158Y-105119500D01*
X136321155Y-105119500D01*
X136166510Y-105150261D01*
X136166498Y-105150264D01*
X136020827Y-105210602D01*
X136020814Y-105210609D01*
X135889711Y-105298210D01*
X135889707Y-105298213D01*
X135778213Y-105409707D01*
X135778210Y-105409711D01*
X135690609Y-105540814D01*
X135690602Y-105540827D01*
X135630264Y-105686498D01*
X135630261Y-105686510D01*
X135599500Y-105841153D01*
X135599500Y-105998846D01*
X135630261Y-106153489D01*
X135630264Y-106153501D01*
X135690602Y-106299172D01*
X135690609Y-106299185D01*
X135778210Y-106430288D01*
X135778213Y-106430292D01*
X135889707Y-106541786D01*
X135894419Y-106545653D01*
X135892563Y-106547914D01*
X135929432Y-106591771D01*
X135939880Y-106641590D01*
X135939880Y-106739226D01*
X135970641Y-106893869D01*
X135970644Y-106893881D01*
X136030982Y-107039552D01*
X136030989Y-107039565D01*
X136118590Y-107170668D01*
X136118593Y-107170672D01*
X136230087Y-107282166D01*
X136230091Y-107282169D01*
X136361194Y-107369770D01*
X136361207Y-107369777D01*
X136506878Y-107430115D01*
X136506883Y-107430117D01*
X136588104Y-107446273D01*
X136659445Y-107460464D01*
X136721356Y-107492849D01*
X136755930Y-107553564D01*
X136759254Y-107582081D01*
X136759254Y-108597105D01*
X136759253Y-108597123D01*
X136759253Y-108762829D01*
X136759252Y-108762829D01*
X136768903Y-108798846D01*
X136800177Y-108915560D01*
X136822210Y-108953722D01*
X136829112Y-108965675D01*
X136829113Y-108965679D01*
X136829114Y-108965679D01*
X136879233Y-109052489D01*
X136879235Y-109052492D01*
X136998103Y-109171360D01*
X136998109Y-109171365D01*
X138015036Y-110188292D01*
X138048521Y-110249615D01*
X138043537Y-110319307D01*
X138030457Y-110344864D01*
X137966344Y-110440814D01*
X137966337Y-110440827D01*
X137905999Y-110586498D01*
X137905996Y-110586510D01*
X137875235Y-110741153D01*
X137875235Y-110898846D01*
X137905996Y-111053489D01*
X137905999Y-111053501D01*
X137966337Y-111199172D01*
X137966344Y-111199185D01*
X138053945Y-111330288D01*
X138053948Y-111330292D01*
X138094462Y-111370805D01*
X138127948Y-111432128D01*
X138126557Y-111490578D01*
X138119499Y-111516917D01*
X138119499Y-111685025D01*
X138119500Y-111685038D01*
X138119500Y-112058157D01*
X138099815Y-112125196D01*
X138047011Y-112170951D01*
X137977853Y-112180895D01*
X137914297Y-112151870D01*
X137895182Y-112131043D01*
X137868274Y-112094008D01*
X137794517Y-111992490D01*
X137627510Y-111825483D01*
X137436433Y-111686657D01*
X137433230Y-111685025D01*
X137225996Y-111579433D01*
X137001368Y-111506446D01*
X136768097Y-111469500D01*
X136768092Y-111469500D01*
X136531908Y-111469500D01*
X136531903Y-111469500D01*
X136298631Y-111506446D01*
X136074003Y-111579433D01*
X135863566Y-111686657D01*
X135754550Y-111765862D01*
X135672490Y-111825483D01*
X135672488Y-111825485D01*
X135672487Y-111825485D01*
X135505485Y-111992487D01*
X135505485Y-111992488D01*
X135505483Y-111992490D01*
X135462087Y-112052219D01*
X135366657Y-112183566D01*
X135259433Y-112394003D01*
X135186446Y-112618631D01*
X135149500Y-112851902D01*
X135149500Y-113088097D01*
X135186446Y-113321368D01*
X135259433Y-113545996D01*
X135363512Y-113750261D01*
X135366657Y-113756433D01*
X135505483Y-113947510D01*
X135672490Y-114114517D01*
X135863567Y-114253343D01*
X135928661Y-114286510D01*
X136074003Y-114360566D01*
X136074005Y-114360566D01*
X136074008Y-114360568D01*
X136194412Y-114399689D01*
X136298631Y-114433553D01*
X136531903Y-114470500D01*
X136531908Y-114470500D01*
X136768097Y-114470500D01*
X136953384Y-114441153D01*
X159899500Y-114441153D01*
X159899500Y-114598846D01*
X159930261Y-114753489D01*
X159930264Y-114753501D01*
X159990602Y-114899172D01*
X159990609Y-114899185D01*
X160078210Y-115030288D01*
X160078213Y-115030292D01*
X160189707Y-115141786D01*
X160189711Y-115141789D01*
X160320814Y-115229390D01*
X160320827Y-115229397D01*
X160466498Y-115289735D01*
X160466503Y-115289737D01*
X160621153Y-115320499D01*
X160621156Y-115320500D01*
X160621158Y-115320500D01*
X160778844Y-115320500D01*
X160778845Y-115320499D01*
X160933497Y-115289737D01*
X161079179Y-115229394D01*
X161210289Y-115141789D01*
X161321789Y-115030289D01*
X161409394Y-114899179D01*
X161469737Y-114753497D01*
X161500500Y-114598842D01*
X161500500Y-114441158D01*
X161500500Y-114441155D01*
X161500499Y-114441153D01*
X161496192Y-114419500D01*
X161469737Y-114286503D01*
X161456002Y-114253343D01*
X161409397Y-114140827D01*
X161409390Y-114140814D01*
X161321789Y-114009711D01*
X161321786Y-114009707D01*
X161210292Y-113898213D01*
X161210288Y-113898210D01*
X161079185Y-113810609D01*
X161079172Y-113810602D01*
X160933501Y-113750264D01*
X160933489Y-113750261D01*
X160778845Y-113719500D01*
X160778842Y-113719500D01*
X160621158Y-113719500D01*
X160621155Y-113719500D01*
X160466510Y-113750261D01*
X160466498Y-113750264D01*
X160320827Y-113810602D01*
X160320814Y-113810609D01*
X160189711Y-113898210D01*
X160189707Y-113898213D01*
X160078213Y-114009707D01*
X160078210Y-114009711D01*
X159990609Y-114140814D01*
X159990602Y-114140827D01*
X159930264Y-114286498D01*
X159930261Y-114286510D01*
X159899500Y-114441153D01*
X136953384Y-114441153D01*
X137001368Y-114433553D01*
X137044615Y-114419501D01*
X137225992Y-114360568D01*
X137225996Y-114360566D01*
X137296621Y-114324581D01*
X137343886Y-114300498D01*
X137436433Y-114253343D01*
X137627510Y-114114517D01*
X137794517Y-113947510D01*
X137933343Y-113756433D01*
X137987842Y-113649471D01*
X138035815Y-113598677D01*
X138103635Y-113581881D01*
X138169771Y-113604418D01*
X138186007Y-113618086D01*
X138289707Y-113721786D01*
X138289711Y-113721789D01*
X138420814Y-113809390D01*
X138420827Y-113809397D01*
X138566498Y-113869735D01*
X138566503Y-113869737D01*
X138709661Y-113898213D01*
X138721153Y-113900499D01*
X138721156Y-113900500D01*
X138721158Y-113900500D01*
X138878844Y-113900500D01*
X138878845Y-113900499D01*
X139033497Y-113869737D01*
X139179179Y-113809394D01*
X139310289Y-113721789D01*
X139421789Y-113610289D01*
X139509394Y-113479179D01*
X139569737Y-113333497D01*
X139600500Y-113178842D01*
X139600500Y-113044837D01*
X139620185Y-112977798D01*
X139672989Y-112932043D01*
X139676985Y-112930302D01*
X139679179Y-112929394D01*
X139810289Y-112841789D01*
X139921789Y-112730289D01*
X140009394Y-112599179D01*
X140028977Y-112551902D01*
X156949500Y-112551902D01*
X156949500Y-112788097D01*
X156986446Y-113021368D01*
X157059433Y-113245996D01*
X157114323Y-113353722D01*
X157166657Y-113456433D01*
X157305483Y-113647510D01*
X157472490Y-113814517D01*
X157663567Y-113953343D01*
X157762991Y-114004002D01*
X157874003Y-114060566D01*
X157874005Y-114060566D01*
X157874008Y-114060568D01*
X157994412Y-114099689D01*
X158098631Y-114133553D01*
X158331903Y-114170500D01*
X158331908Y-114170500D01*
X158568097Y-114170500D01*
X158801368Y-114133553D01*
X158817215Y-114128404D01*
X159025992Y-114060568D01*
X159236433Y-113953343D01*
X159427510Y-113814517D01*
X159594517Y-113647510D01*
X159733343Y-113456433D01*
X159840568Y-113245992D01*
X159913553Y-113021368D01*
X159927701Y-112932043D01*
X159950500Y-112788097D01*
X159950500Y-112551902D01*
X161449500Y-112551902D01*
X161449500Y-112788097D01*
X161486446Y-113021368D01*
X161559433Y-113245996D01*
X161614323Y-113353722D01*
X161666657Y-113456433D01*
X161805483Y-113647510D01*
X161972490Y-113814517D01*
X162163567Y-113953343D01*
X162262991Y-114004002D01*
X162374003Y-114060566D01*
X162374005Y-114060566D01*
X162374008Y-114060568D01*
X162494412Y-114099689D01*
X162598631Y-114133553D01*
X162831903Y-114170500D01*
X162831908Y-114170500D01*
X163068097Y-114170500D01*
X163301368Y-114133553D01*
X163317215Y-114128404D01*
X163525992Y-114060568D01*
X163736433Y-113953343D01*
X163927510Y-113814517D01*
X164094517Y-113647510D01*
X164233343Y-113456433D01*
X164340568Y-113245992D01*
X164413553Y-113021368D01*
X164427701Y-112932043D01*
X164450500Y-112788097D01*
X164450500Y-112551903D01*
X164442894Y-112503883D01*
X164442894Y-112503882D01*
X164440465Y-112488549D01*
X166999500Y-112488549D01*
X166999500Y-112711450D01*
X166999501Y-112711466D01*
X167028594Y-112932452D01*
X167028595Y-112932457D01*
X167028596Y-112932463D01*
X167086290Y-113147780D01*
X167086293Y-113147790D01*
X167171593Y-113353722D01*
X167171595Y-113353726D01*
X167283052Y-113546774D01*
X167283057Y-113546780D01*
X167283058Y-113546782D01*
X167418751Y-113723622D01*
X167418757Y-113723629D01*
X167576370Y-113881242D01*
X167576377Y-113881248D01*
X167670334Y-113953343D01*
X167753226Y-114016948D01*
X167946274Y-114128405D01*
X168152219Y-114213710D01*
X168367537Y-114271404D01*
X168588543Y-114300500D01*
X168588550Y-114300500D01*
X168811450Y-114300500D01*
X168811457Y-114300500D01*
X169032463Y-114271404D01*
X169247781Y-114213710D01*
X169453726Y-114128405D01*
X169646774Y-114016948D01*
X169823624Y-113881247D01*
X169981247Y-113723624D01*
X170116948Y-113546774D01*
X170228405Y-113353726D01*
X170313710Y-113147781D01*
X170371404Y-112932463D01*
X170400500Y-112711457D01*
X170400500Y-112488543D01*
X170371404Y-112267537D01*
X170313710Y-112052219D01*
X170288969Y-111992490D01*
X170228406Y-111846277D01*
X170228405Y-111846274D01*
X170116948Y-111653226D01*
X170019561Y-111526308D01*
X169981248Y-111476377D01*
X169981242Y-111476370D01*
X169823629Y-111318757D01*
X169823622Y-111318751D01*
X169646782Y-111183058D01*
X169646780Y-111183057D01*
X169646774Y-111183052D01*
X169453726Y-111071595D01*
X169453722Y-111071593D01*
X169247790Y-110986293D01*
X169247783Y-110986291D01*
X169247781Y-110986290D01*
X169032463Y-110928596D01*
X169032457Y-110928595D01*
X169032452Y-110928594D01*
X168811466Y-110899501D01*
X168811463Y-110899500D01*
X168811457Y-110899500D01*
X168588543Y-110899500D01*
X168588537Y-110899500D01*
X168588533Y-110899501D01*
X168367547Y-110928594D01*
X168367540Y-110928595D01*
X168367537Y-110928596D01*
X168152219Y-110986290D01*
X168152209Y-110986293D01*
X167946277Y-111071593D01*
X167946273Y-111071595D01*
X167753226Y-111183052D01*
X167753217Y-111183058D01*
X167576377Y-111318751D01*
X167576370Y-111318757D01*
X167418757Y-111476370D01*
X167418751Y-111476377D01*
X167283058Y-111653217D01*
X167283052Y-111653226D01*
X167171595Y-111846273D01*
X167171593Y-111846277D01*
X167086293Y-112052209D01*
X167086290Y-112052219D01*
X167028597Y-112267534D01*
X167028594Y-112267547D01*
X166999501Y-112488533D01*
X166999500Y-112488549D01*
X164440465Y-112488549D01*
X164413553Y-112318631D01*
X164379689Y-112214412D01*
X164340568Y-112094008D01*
X164340566Y-112094005D01*
X164340566Y-112094003D01*
X164233342Y-111883566D01*
X164206250Y-111846277D01*
X164094517Y-111692490D01*
X163927510Y-111525483D01*
X163736433Y-111386657D01*
X163705322Y-111370805D01*
X163525996Y-111279433D01*
X163301368Y-111206446D01*
X163068097Y-111169500D01*
X163068092Y-111169500D01*
X162831908Y-111169500D01*
X162831903Y-111169500D01*
X162598631Y-111206446D01*
X162374003Y-111279433D01*
X162163566Y-111386657D01*
X162066772Y-111456983D01*
X161972490Y-111525483D01*
X161972488Y-111525485D01*
X161972487Y-111525485D01*
X161805485Y-111692487D01*
X161805485Y-111692488D01*
X161805483Y-111692490D01*
X161745862Y-111774550D01*
X161666657Y-111883566D01*
X161559433Y-112094003D01*
X161486446Y-112318631D01*
X161449500Y-112551902D01*
X159950500Y-112551902D01*
X159913553Y-112318631D01*
X159879689Y-112214412D01*
X159840568Y-112094008D01*
X159840566Y-112094005D01*
X159840566Y-112094003D01*
X159733342Y-111883566D01*
X159706250Y-111846277D01*
X159594517Y-111692490D01*
X159427510Y-111525483D01*
X159236433Y-111386657D01*
X159205322Y-111370805D01*
X159025996Y-111279433D01*
X158801368Y-111206446D01*
X158568097Y-111169500D01*
X158568092Y-111169500D01*
X158331908Y-111169500D01*
X158331903Y-111169500D01*
X158098631Y-111206446D01*
X157874003Y-111279433D01*
X157663566Y-111386657D01*
X157566772Y-111456983D01*
X157472490Y-111525483D01*
X157472488Y-111525485D01*
X157472487Y-111525485D01*
X157305485Y-111692487D01*
X157305485Y-111692488D01*
X157305483Y-111692490D01*
X157245862Y-111774550D01*
X157166657Y-111883566D01*
X157059433Y-112094003D01*
X156986446Y-112318631D01*
X156949500Y-112551902D01*
X140028977Y-112551902D01*
X140069737Y-112453497D01*
X140100500Y-112298842D01*
X140100500Y-112141158D01*
X140100500Y-112141155D01*
X140100499Y-112141153D01*
X140082079Y-112048549D01*
X140069737Y-111986503D01*
X140027100Y-111883567D01*
X140009397Y-111840827D01*
X140009390Y-111840814D01*
X139921789Y-111709711D01*
X139921786Y-111709707D01*
X139810289Y-111598210D01*
X139782915Y-111579920D01*
X139738110Y-111526308D01*
X139729403Y-111456983D01*
X139744417Y-111414821D01*
X139815312Y-111292028D01*
X139856236Y-111139301D01*
X139856236Y-110981186D01*
X139856236Y-110973591D01*
X139856235Y-110973573D01*
X139856235Y-110668815D01*
X139856236Y-110668802D01*
X139856236Y-110500701D01*
X139856236Y-110500699D01*
X139815312Y-110347971D01*
X139760890Y-110253710D01*
X139736255Y-110211040D01*
X139624451Y-110099236D01*
X139624450Y-110099235D01*
X139620120Y-110094905D01*
X139620109Y-110094895D01*
X138166367Y-108641153D01*
X156799500Y-108641153D01*
X156799500Y-108798846D01*
X156830261Y-108953489D01*
X156830264Y-108953501D01*
X156890602Y-109099172D01*
X156890609Y-109099185D01*
X156978210Y-109230288D01*
X156978213Y-109230292D01*
X157089707Y-109341786D01*
X157089711Y-109341789D01*
X157220814Y-109429390D01*
X157220827Y-109429397D01*
X157366498Y-109489735D01*
X157366503Y-109489737D01*
X157521153Y-109520499D01*
X157521156Y-109520500D01*
X157521158Y-109520500D01*
X157678844Y-109520500D01*
X157678845Y-109520499D01*
X157833497Y-109489737D01*
X157979179Y-109429394D01*
X158110289Y-109341789D01*
X158221789Y-109230289D01*
X158309394Y-109099179D01*
X158369737Y-108953497D01*
X158400500Y-108798842D01*
X158400500Y-108641158D01*
X158400500Y-108641155D01*
X158382104Y-108548676D01*
X158382104Y-108548675D01*
X158378877Y-108532452D01*
X158378101Y-108528549D01*
X166999500Y-108528549D01*
X166999500Y-108751450D01*
X166999501Y-108751466D01*
X167028594Y-108972452D01*
X167028595Y-108972457D01*
X167028596Y-108972463D01*
X167086290Y-109187780D01*
X167086293Y-109187790D01*
X167150082Y-109341789D01*
X167171595Y-109393726D01*
X167283052Y-109586774D01*
X167283057Y-109586780D01*
X167283058Y-109586782D01*
X167418751Y-109763622D01*
X167418757Y-109763629D01*
X167576370Y-109921242D01*
X167576376Y-109921247D01*
X167753226Y-110056948D01*
X167946274Y-110168405D01*
X168076140Y-110222197D01*
X168142332Y-110249615D01*
X168152219Y-110253710D01*
X168367537Y-110311404D01*
X168588543Y-110340500D01*
X168588550Y-110340500D01*
X168811450Y-110340500D01*
X168811457Y-110340500D01*
X169032463Y-110311404D01*
X169247781Y-110253710D01*
X169453726Y-110168405D01*
X169646774Y-110056948D01*
X169823624Y-109921247D01*
X169981247Y-109763624D01*
X170116948Y-109586774D01*
X170228405Y-109393726D01*
X170313710Y-109187781D01*
X170371404Y-108972463D01*
X170400500Y-108751457D01*
X170400500Y-108528543D01*
X170371404Y-108307537D01*
X170313710Y-108092219D01*
X170228405Y-107886274D01*
X170116948Y-107693226D01*
X169981247Y-107516376D01*
X169981242Y-107516370D01*
X169823629Y-107358757D01*
X169823622Y-107358751D01*
X169646782Y-107223058D01*
X169646780Y-107223057D01*
X169646774Y-107223052D01*
X169453726Y-107111595D01*
X169453722Y-107111593D01*
X169247790Y-107026293D01*
X169247783Y-107026291D01*
X169247781Y-107026290D01*
X169032463Y-106968596D01*
X169032457Y-106968595D01*
X169032452Y-106968594D01*
X168811466Y-106939501D01*
X168811463Y-106939500D01*
X168811457Y-106939500D01*
X168588543Y-106939500D01*
X168588537Y-106939500D01*
X168588533Y-106939501D01*
X168367547Y-106968594D01*
X168367540Y-106968595D01*
X168367537Y-106968596D01*
X168152219Y-107026290D01*
X168152209Y-107026293D01*
X167946277Y-107111593D01*
X167946273Y-107111595D01*
X167753226Y-107223052D01*
X167753217Y-107223058D01*
X167576377Y-107358751D01*
X167576370Y-107358757D01*
X167418757Y-107516370D01*
X167418751Y-107516377D01*
X167283058Y-107693217D01*
X167283052Y-107693226D01*
X167171595Y-107886273D01*
X167171593Y-107886277D01*
X167086293Y-108092209D01*
X167086290Y-108092219D01*
X167028597Y-108307534D01*
X167028594Y-108307547D01*
X166999501Y-108528533D01*
X166999500Y-108528549D01*
X158378101Y-108528549D01*
X158369737Y-108486503D01*
X158363464Y-108471359D01*
X158309397Y-108340827D01*
X158309390Y-108340814D01*
X158221789Y-108209711D01*
X158221786Y-108209707D01*
X158110292Y-108098213D01*
X158110288Y-108098210D01*
X157979185Y-108010609D01*
X157979172Y-108010602D01*
X157833501Y-107950264D01*
X157833489Y-107950261D01*
X157678845Y-107919500D01*
X157678842Y-107919500D01*
X157521158Y-107919500D01*
X157521155Y-107919500D01*
X157366510Y-107950261D01*
X157366498Y-107950264D01*
X157220827Y-108010602D01*
X157220814Y-108010609D01*
X157089711Y-108098210D01*
X157089707Y-108098213D01*
X156978213Y-108209707D01*
X156978210Y-108209711D01*
X156890609Y-108340814D01*
X156890602Y-108340827D01*
X156830264Y-108486498D01*
X156830261Y-108486510D01*
X156799500Y-108641153D01*
X138166367Y-108641153D01*
X137996573Y-108471359D01*
X137963088Y-108410036D01*
X137960254Y-108383678D01*
X137960254Y-107672495D01*
X137979939Y-107605456D01*
X138032743Y-107559701D01*
X138101901Y-107549757D01*
X138153147Y-107569395D01*
X138176266Y-107584843D01*
X138176270Y-107584845D01*
X138176276Y-107584849D01*
X138176278Y-107584850D01*
X138176282Y-107584852D01*
X138321953Y-107645190D01*
X138321958Y-107645192D01*
X138459219Y-107672495D01*
X138476608Y-107675954D01*
X138476611Y-107675955D01*
X138476613Y-107675955D01*
X138634299Y-107675955D01*
X138634300Y-107675954D01*
X138788952Y-107645192D01*
X138934634Y-107584849D01*
X139065744Y-107497244D01*
X139177244Y-107385744D01*
X139264849Y-107254634D01*
X139325192Y-107108952D01*
X139355955Y-106954297D01*
X139355955Y-106796613D01*
X139355955Y-106796610D01*
X139355954Y-106796608D01*
X139353259Y-106783058D01*
X139325192Y-106641958D01*
X139302134Y-106586290D01*
X139264852Y-106496282D01*
X139264845Y-106496269D01*
X139177244Y-106365166D01*
X139177241Y-106365162D01*
X139065747Y-106253668D01*
X139065743Y-106253665D01*
X138934640Y-106166064D01*
X138934627Y-106166057D01*
X138788956Y-106105719D01*
X138788944Y-106105716D01*
X138634300Y-106074955D01*
X138634297Y-106074955D01*
X138476613Y-106074955D01*
X138476610Y-106074955D01*
X138321965Y-106105716D01*
X138321953Y-106105719D01*
X138176282Y-106166057D01*
X138176269Y-106166064D01*
X138153145Y-106181516D01*
X138086467Y-106202394D01*
X138019087Y-106183909D01*
X137972397Y-106131931D01*
X137960254Y-106078414D01*
X137960254Y-105839588D01*
X137979939Y-105772549D01*
X138032743Y-105726794D01*
X138101901Y-105716850D01*
X138108436Y-105717969D01*
X138116961Y-105719665D01*
X138121157Y-105720500D01*
X138121158Y-105720500D01*
X138278844Y-105720500D01*
X138278845Y-105720499D01*
X138433497Y-105689737D01*
X138579179Y-105629394D01*
X138710289Y-105541789D01*
X138821789Y-105430289D01*
X138909394Y-105299179D01*
X138969737Y-105153497D01*
X139000500Y-104998842D01*
X139000500Y-104841158D01*
X139000500Y-104841155D01*
X139000499Y-104841153D01*
X138996261Y-104819848D01*
X138969737Y-104686503D01*
X138933427Y-104598842D01*
X138909397Y-104540827D01*
X138909390Y-104540814D01*
X138821789Y-104409711D01*
X138821786Y-104409707D01*
X138710292Y-104298213D01*
X138710288Y-104298210D01*
X138579185Y-104210609D01*
X138579175Y-104210604D01*
X138525447Y-104188349D01*
X138471044Y-104144508D01*
X138448979Y-104078213D01*
X138466258Y-104010514D01*
X138504011Y-103970685D01*
X138530691Y-103952858D01*
X138642191Y-103841358D01*
X138729796Y-103710248D01*
X138730149Y-103709397D01*
X138761590Y-103633489D01*
X138790139Y-103564566D01*
X138809515Y-103467154D01*
X138821040Y-103409219D01*
X138853425Y-103347308D01*
X138854920Y-103345785D01*
X139426159Y-102774546D01*
X139487480Y-102741063D01*
X139557172Y-102746047D01*
X139613105Y-102787919D01*
X139637522Y-102853383D01*
X139635455Y-102886420D01*
X139628546Y-102921153D01*
X139628546Y-103078846D01*
X139659307Y-103233489D01*
X139659310Y-103233501D01*
X139719648Y-103379172D01*
X139719655Y-103379185D01*
X139807256Y-103510288D01*
X139807259Y-103510292D01*
X139918753Y-103621786D01*
X139918757Y-103621789D01*
X140049860Y-103709390D01*
X140049873Y-103709397D01*
X140195544Y-103769735D01*
X140195549Y-103769737D01*
X140337435Y-103797960D01*
X140350199Y-103800499D01*
X140350202Y-103800500D01*
X140352216Y-103800500D01*
X140353232Y-103800798D01*
X140356264Y-103801097D01*
X140356207Y-103801672D01*
X140419255Y-103820185D01*
X140465010Y-103872989D01*
X140474954Y-103942147D01*
X140455319Y-103993390D01*
X140436495Y-104021561D01*
X140436489Y-104021572D01*
X140376151Y-104167243D01*
X140376148Y-104167255D01*
X140345387Y-104321898D01*
X140345387Y-104479591D01*
X140376148Y-104634234D01*
X140376151Y-104634246D01*
X140436489Y-104779917D01*
X140436496Y-104779930D01*
X140524097Y-104911033D01*
X140524100Y-104911037D01*
X140635594Y-105022531D01*
X140635598Y-105022534D01*
X140766701Y-105110135D01*
X140766714Y-105110142D01*
X140912385Y-105170480D01*
X140912390Y-105170482D01*
X141067040Y-105201244D01*
X141067043Y-105201245D01*
X141067045Y-105201245D01*
X141224731Y-105201245D01*
X141224732Y-105201244D01*
X141379384Y-105170482D01*
X141525066Y-105110139D01*
X141656176Y-105022534D01*
X141767676Y-104911034D01*
X141855281Y-104779924D01*
X141915624Y-104634242D01*
X141946387Y-104479587D01*
X141946387Y-104321903D01*
X141946387Y-104321900D01*
X141946386Y-104321898D01*
X141930451Y-104241789D01*
X141915624Y-104167248D01*
X141901115Y-104132219D01*
X141855284Y-104021572D01*
X141855277Y-104021559D01*
X141767676Y-103890456D01*
X141767673Y-103890452D01*
X141656179Y-103778958D01*
X141656175Y-103778955D01*
X141525072Y-103691354D01*
X141525059Y-103691347D01*
X141379388Y-103631009D01*
X141379376Y-103631006D01*
X141224732Y-103600245D01*
X141224729Y-103600245D01*
X141222717Y-103600245D01*
X141221700Y-103599946D01*
X141218669Y-103599648D01*
X141218725Y-103599072D01*
X141155678Y-103580560D01*
X141109923Y-103527756D01*
X141099979Y-103458598D01*
X141119614Y-103407355D01*
X141138437Y-103379183D01*
X141138440Y-103379179D01*
X141198783Y-103233497D01*
X141229546Y-103078842D01*
X141229546Y-102921158D01*
X141229546Y-102921155D01*
X141229545Y-102921153D01*
X141223296Y-102889737D01*
X141198783Y-102766503D01*
X141167902Y-102691950D01*
X141160434Y-102622484D01*
X141191709Y-102560004D01*
X141251798Y-102524352D01*
X141282464Y-102520500D01*
X142182152Y-102520500D01*
X142249191Y-102540185D01*
X142294946Y-102592989D01*
X142303769Y-102620308D01*
X142330261Y-102753491D01*
X142330264Y-102753501D01*
X142390602Y-102899172D01*
X142390609Y-102899185D01*
X142478210Y-103030288D01*
X142478213Y-103030292D01*
X142589707Y-103141786D01*
X142589711Y-103141789D01*
X142720814Y-103229390D01*
X142720827Y-103229397D01*
X142866498Y-103289735D01*
X142866503Y-103289737D01*
X143021153Y-103320499D01*
X143021156Y-103320500D01*
X143021158Y-103320500D01*
X143178844Y-103320500D01*
X143178845Y-103320499D01*
X143333497Y-103289737D01*
X143469264Y-103233501D01*
X143479172Y-103229397D01*
X143479172Y-103229396D01*
X143479179Y-103229394D01*
X143610289Y-103141789D01*
X143646293Y-103105785D01*
X143690665Y-103061414D01*
X143751988Y-103027929D01*
X143778346Y-103025095D01*
X143932181Y-103025095D01*
X145769579Y-103025095D01*
X145836618Y-103044780D01*
X145882373Y-103097584D01*
X145892317Y-103166742D01*
X145872681Y-103217986D01*
X145790609Y-103340814D01*
X145790602Y-103340827D01*
X145730264Y-103486498D01*
X145730261Y-103486510D01*
X145699500Y-103641153D01*
X145699500Y-103798846D01*
X145730261Y-103953489D01*
X145730264Y-103953501D01*
X145790602Y-104099172D01*
X145790609Y-104099185D01*
X145878210Y-104230288D01*
X145878213Y-104230292D01*
X145989707Y-104341786D01*
X145989711Y-104341789D01*
X146120814Y-104429390D01*
X146120827Y-104429397D01*
X146242003Y-104479589D01*
X146266503Y-104489737D01*
X146421153Y-104520499D01*
X146421156Y-104520500D01*
X146421158Y-104520500D01*
X146578844Y-104520500D01*
X146578845Y-104520499D01*
X146733497Y-104489737D01*
X146879179Y-104429394D01*
X147010289Y-104341789D01*
X147121789Y-104230289D01*
X147209394Y-104099179D01*
X147269737Y-103953497D01*
X147300500Y-103798842D01*
X147300500Y-103641158D01*
X147300500Y-103641155D01*
X147300499Y-103641153D01*
X147292243Y-103599648D01*
X147269737Y-103486503D01*
X147269642Y-103486273D01*
X147230164Y-103390963D01*
X147230161Y-103390959D01*
X147209532Y-103341153D01*
X149099500Y-103341153D01*
X149099500Y-103498846D01*
X149130261Y-103653489D01*
X149130264Y-103653501D01*
X149190602Y-103799172D01*
X149190609Y-103799185D01*
X149278210Y-103930288D01*
X149278213Y-103930292D01*
X149389707Y-104041786D01*
X149389711Y-104041789D01*
X149520814Y-104129390D01*
X149520827Y-104129397D01*
X149663152Y-104188349D01*
X149666503Y-104189737D01*
X149815060Y-104219287D01*
X149821153Y-104220499D01*
X149821156Y-104220500D01*
X149821158Y-104220500D01*
X149978844Y-104220500D01*
X149978845Y-104220499D01*
X150133497Y-104189737D01*
X150251592Y-104140821D01*
X150279172Y-104129397D01*
X150279172Y-104129396D01*
X150279179Y-104129394D01*
X150410289Y-104041789D01*
X150521789Y-103930289D01*
X150609394Y-103799179D01*
X150669737Y-103653497D01*
X150700500Y-103498842D01*
X150700500Y-103341158D01*
X150700434Y-103340827D01*
X150700258Y-103339941D01*
X155698288Y-103339941D01*
X155698288Y-103497634D01*
X155729049Y-103652277D01*
X155729052Y-103652289D01*
X155789390Y-103797960D01*
X155789397Y-103797973D01*
X155876998Y-103929076D01*
X155877001Y-103929080D01*
X155988495Y-104040574D01*
X155988499Y-104040577D01*
X156119602Y-104128178D01*
X156119615Y-104128185D01*
X156264866Y-104188349D01*
X156265291Y-104188525D01*
X156419941Y-104219287D01*
X156419944Y-104219288D01*
X156537763Y-104219288D01*
X156604802Y-104238973D01*
X156640865Y-104274397D01*
X156678210Y-104330289D01*
X156789707Y-104441786D01*
X156789711Y-104441789D01*
X156920814Y-104529390D01*
X156920827Y-104529397D01*
X157072130Y-104592068D01*
X157071635Y-104593260D01*
X157124485Y-104627900D01*
X157152938Y-104691714D01*
X157142374Y-104760780D01*
X157133150Y-104777148D01*
X157090608Y-104840816D01*
X157090602Y-104840827D01*
X157030264Y-104986498D01*
X157030261Y-104986510D01*
X156999500Y-105141153D01*
X156999500Y-105298846D01*
X157030261Y-105453489D01*
X157030264Y-105453501D01*
X157090602Y-105599172D01*
X157090609Y-105599185D01*
X157178210Y-105730288D01*
X157178213Y-105730292D01*
X157289707Y-105841786D01*
X157289711Y-105841789D01*
X157420814Y-105929390D01*
X157420827Y-105929397D01*
X157566498Y-105989735D01*
X157566503Y-105989737D01*
X157721153Y-106020499D01*
X157721156Y-106020500D01*
X157721158Y-106020500D01*
X157878844Y-106020500D01*
X157878845Y-106020499D01*
X158033497Y-105989737D01*
X158179179Y-105929394D01*
X158310289Y-105841789D01*
X158421789Y-105730289D01*
X158509394Y-105599179D01*
X158569737Y-105453497D01*
X158600500Y-105298842D01*
X158600500Y-105141158D01*
X158600500Y-105141155D01*
X158590567Y-105091222D01*
X158569737Y-104986503D01*
X158509394Y-104840821D01*
X158495382Y-104819850D01*
X158495381Y-104819848D01*
X158421789Y-104709711D01*
X158421786Y-104709707D01*
X158310292Y-104598213D01*
X158310288Y-104598210D01*
X158179185Y-104510609D01*
X158179172Y-104510602D01*
X158027870Y-104447932D01*
X158028363Y-104446741D01*
X158019839Y-104441153D01*
X158699500Y-104441153D01*
X158699500Y-104598846D01*
X158724655Y-104725311D01*
X158724657Y-104725317D01*
X158730263Y-104753497D01*
X158790606Y-104899179D01*
X158804615Y-104920146D01*
X158804617Y-104920149D01*
X158878210Y-105030288D01*
X158878213Y-105030292D01*
X158989707Y-105141786D01*
X158989711Y-105141789D01*
X159120814Y-105229390D01*
X159120827Y-105229397D01*
X159266498Y-105289735D01*
X159266503Y-105289737D01*
X159421153Y-105320499D01*
X159421156Y-105320500D01*
X159421158Y-105320500D01*
X159578844Y-105320500D01*
X159578845Y-105320499D01*
X159733497Y-105289737D01*
X159879179Y-105229394D01*
X160010289Y-105141789D01*
X160121789Y-105030289D01*
X160209394Y-104899179D01*
X160269737Y-104753497D01*
X160300500Y-104598842D01*
X160300500Y-104568549D01*
X166999500Y-104568549D01*
X166999500Y-104791450D01*
X166999501Y-104791466D01*
X167028594Y-105012452D01*
X167028595Y-105012457D01*
X167028596Y-105012463D01*
X167081687Y-105210602D01*
X167086290Y-105227780D01*
X167086293Y-105227790D01*
X167171593Y-105433722D01*
X167171595Y-105433726D01*
X167283052Y-105626774D01*
X167283057Y-105626780D01*
X167283058Y-105626782D01*
X167418751Y-105803622D01*
X167418757Y-105803629D01*
X167576370Y-105961242D01*
X167576376Y-105961247D01*
X167753226Y-106096948D01*
X167946274Y-106208405D01*
X168152219Y-106293710D01*
X168367537Y-106351404D01*
X168588543Y-106380500D01*
X168588550Y-106380500D01*
X168811450Y-106380500D01*
X168811457Y-106380500D01*
X169032463Y-106351404D01*
X169247781Y-106293710D01*
X169453726Y-106208405D01*
X169646774Y-106096948D01*
X169823624Y-105961247D01*
X169981247Y-105803624D01*
X170116948Y-105626774D01*
X170228405Y-105433726D01*
X170313710Y-105227781D01*
X170371404Y-105012463D01*
X170400500Y-104791457D01*
X170400500Y-104568543D01*
X170371404Y-104347537D01*
X170313710Y-104132219D01*
X170228405Y-103926274D01*
X170116948Y-103733226D01*
X170014009Y-103599072D01*
X169981248Y-103556377D01*
X169981242Y-103556370D01*
X169823629Y-103398757D01*
X169823622Y-103398751D01*
X169646782Y-103263058D01*
X169646780Y-103263057D01*
X169646774Y-103263052D01*
X169453726Y-103151595D01*
X169453722Y-103151593D01*
X169247790Y-103066293D01*
X169247783Y-103066291D01*
X169247781Y-103066290D01*
X169032463Y-103008596D01*
X169032457Y-103008595D01*
X169032452Y-103008594D01*
X168811466Y-102979501D01*
X168811463Y-102979500D01*
X168811457Y-102979500D01*
X168588543Y-102979500D01*
X168588537Y-102979500D01*
X168588533Y-102979501D01*
X168367547Y-103008594D01*
X168367540Y-103008595D01*
X168367537Y-103008596D01*
X168212033Y-103050263D01*
X168152219Y-103066290D01*
X168152209Y-103066293D01*
X167946277Y-103151593D01*
X167946273Y-103151595D01*
X167753226Y-103263052D01*
X167753217Y-103263058D01*
X167576377Y-103398751D01*
X167576370Y-103398757D01*
X167418757Y-103556370D01*
X167418751Y-103556377D01*
X167283058Y-103733217D01*
X167283052Y-103733226D01*
X167171595Y-103926273D01*
X167171593Y-103926277D01*
X167086293Y-104132209D01*
X167086290Y-104132219D01*
X167033458Y-104329394D01*
X167028597Y-104347534D01*
X167028594Y-104347547D01*
X166999501Y-104568533D01*
X166999500Y-104568549D01*
X160300500Y-104568549D01*
X160300500Y-104441158D01*
X160300500Y-104441155D01*
X160300499Y-104441153D01*
X160280734Y-104341789D01*
X160269737Y-104286503D01*
X160242398Y-104220500D01*
X160209397Y-104140827D01*
X160209390Y-104140814D01*
X160121789Y-104009711D01*
X160121786Y-104009707D01*
X160010292Y-103898213D01*
X160010288Y-103898210D01*
X159879185Y-103810609D01*
X159879172Y-103810602D01*
X159733501Y-103750264D01*
X159733489Y-103750261D01*
X159578845Y-103719500D01*
X159578842Y-103719500D01*
X159421158Y-103719500D01*
X159421155Y-103719500D01*
X159266510Y-103750261D01*
X159266498Y-103750264D01*
X159120827Y-103810602D01*
X159120814Y-103810609D01*
X158989711Y-103898210D01*
X158989707Y-103898213D01*
X158878213Y-104009707D01*
X158878210Y-104009711D01*
X158790609Y-104140814D01*
X158790602Y-104140827D01*
X158730264Y-104286498D01*
X158730261Y-104286510D01*
X158699500Y-104441153D01*
X158019839Y-104441153D01*
X157975504Y-104412088D01*
X157947059Y-104348270D01*
X157957631Y-104279205D01*
X157966851Y-104262849D01*
X158009389Y-104199187D01*
X158009390Y-104199184D01*
X158009394Y-104199179D01*
X158069737Y-104053497D01*
X158100500Y-103898842D01*
X158100500Y-103741158D01*
X158100500Y-103741155D01*
X158100499Y-103741153D01*
X158094353Y-103710254D01*
X158069737Y-103586503D01*
X158060652Y-103564570D01*
X158009397Y-103440827D01*
X158009390Y-103440814D01*
X157921789Y-103309711D01*
X157921786Y-103309707D01*
X157810292Y-103198213D01*
X157810288Y-103198210D01*
X157679185Y-103110609D01*
X157679172Y-103110602D01*
X157533501Y-103050264D01*
X157533489Y-103050261D01*
X157378845Y-103019500D01*
X157378842Y-103019500D01*
X157261025Y-103019500D01*
X157253407Y-103017263D01*
X157245572Y-103018533D01*
X157220362Y-103007559D01*
X157193986Y-102999815D01*
X157187156Y-102993106D01*
X157181508Y-102990648D01*
X157157923Y-102964391D01*
X157129033Y-102921155D01*
X157120577Y-102908499D01*
X157120574Y-102908496D01*
X157120574Y-102908495D01*
X157053232Y-102841153D01*
X161199500Y-102841153D01*
X161199500Y-102998846D01*
X161230261Y-103153489D01*
X161230264Y-103153501D01*
X161290602Y-103299172D01*
X161290609Y-103299185D01*
X161378210Y-103430288D01*
X161378213Y-103430292D01*
X161489707Y-103541786D01*
X161489711Y-103541789D01*
X161620814Y-103629390D01*
X161620827Y-103629397D01*
X161715799Y-103668735D01*
X161766503Y-103689737D01*
X161916131Y-103719500D01*
X161921153Y-103720499D01*
X161921156Y-103720500D01*
X161921158Y-103720500D01*
X162078844Y-103720500D01*
X162078845Y-103720499D01*
X162233497Y-103689737D01*
X162369264Y-103633501D01*
X162379172Y-103629397D01*
X162379172Y-103629396D01*
X162379179Y-103629394D01*
X162510289Y-103541789D01*
X162621789Y-103430289D01*
X162709394Y-103299179D01*
X162769737Y-103153497D01*
X162800500Y-102998842D01*
X162800500Y-102841158D01*
X162800500Y-102841155D01*
X162800499Y-102841153D01*
X162791957Y-102798210D01*
X162769737Y-102686503D01*
X162769735Y-102686498D01*
X162709397Y-102540827D01*
X162709390Y-102540814D01*
X162621789Y-102409711D01*
X162621786Y-102409707D01*
X162510292Y-102298213D01*
X162510288Y-102298210D01*
X162379185Y-102210609D01*
X162379172Y-102210602D01*
X162233501Y-102150264D01*
X162233489Y-102150261D01*
X162078845Y-102119500D01*
X162078842Y-102119500D01*
X161921158Y-102119500D01*
X161921155Y-102119500D01*
X161766510Y-102150261D01*
X161766498Y-102150264D01*
X161620827Y-102210602D01*
X161620814Y-102210609D01*
X161489711Y-102298210D01*
X161489707Y-102298213D01*
X161378213Y-102409707D01*
X161378210Y-102409711D01*
X161290609Y-102540814D01*
X161290602Y-102540827D01*
X161230264Y-102686498D01*
X161230261Y-102686510D01*
X161199500Y-102841153D01*
X157053232Y-102841153D01*
X157009080Y-102797001D01*
X157009076Y-102796998D01*
X156877973Y-102709397D01*
X156877960Y-102709390D01*
X156732289Y-102649052D01*
X156732277Y-102649049D01*
X156577633Y-102618288D01*
X156577630Y-102618288D01*
X156419946Y-102618288D01*
X156419943Y-102618288D01*
X156265298Y-102649049D01*
X156265286Y-102649052D01*
X156119615Y-102709390D01*
X156119602Y-102709397D01*
X155988499Y-102796998D01*
X155988495Y-102797001D01*
X155877001Y-102908495D01*
X155876998Y-102908499D01*
X155789397Y-103039602D01*
X155789390Y-103039615D01*
X155729052Y-103185286D01*
X155729049Y-103185298D01*
X155698288Y-103339941D01*
X150700258Y-103339941D01*
X150684964Y-103263052D01*
X150669737Y-103186503D01*
X150655277Y-103151593D01*
X150609397Y-103040827D01*
X150609390Y-103040814D01*
X150521789Y-102909711D01*
X150521786Y-102909707D01*
X150410292Y-102798213D01*
X150410288Y-102798210D01*
X150279185Y-102710609D01*
X150279172Y-102710602D01*
X150133501Y-102650264D01*
X150133489Y-102650261D01*
X149978845Y-102619500D01*
X149978842Y-102619500D01*
X149821158Y-102619500D01*
X149821155Y-102619500D01*
X149666510Y-102650261D01*
X149666498Y-102650264D01*
X149520827Y-102710602D01*
X149520814Y-102710609D01*
X149389711Y-102798210D01*
X149389707Y-102798213D01*
X149278213Y-102909707D01*
X149278210Y-102909711D01*
X149190609Y-103040814D01*
X149190602Y-103040827D01*
X149130264Y-103186498D01*
X149130261Y-103186510D01*
X149099500Y-103341153D01*
X147209532Y-103341153D01*
X147209394Y-103340821D01*
X147121789Y-103209711D01*
X147121225Y-103209147D01*
X147118034Y-103203821D01*
X147109984Y-103172841D01*
X147100422Y-103142302D01*
X147101257Y-103139255D01*
X147100463Y-103136196D01*
X147110439Y-103105785D01*
X147118906Y-103074922D01*
X147121257Y-103072810D01*
X147122242Y-103069808D01*
X147147069Y-103049623D01*
X147170885Y-103028231D01*
X147175465Y-103026537D01*
X147176456Y-103025733D01*
X147178159Y-103025542D01*
X147192300Y-103020316D01*
X147327190Y-102984172D01*
X147377309Y-102955234D01*
X147408700Y-102937110D01*
X147470697Y-102920500D01*
X147478844Y-102920500D01*
X147478845Y-102920499D01*
X147633497Y-102889737D01*
X147750790Y-102841153D01*
X147779172Y-102829397D01*
X147779172Y-102829396D01*
X147779179Y-102829394D01*
X147910289Y-102741789D01*
X148021789Y-102630289D01*
X148109394Y-102499179D01*
X148169737Y-102353497D01*
X148200500Y-102198842D01*
X148200500Y-102041158D01*
X148200500Y-102041155D01*
X148200499Y-102041153D01*
X148182647Y-101951405D01*
X148169737Y-101886503D01*
X148151975Y-101843622D01*
X148109397Y-101740827D01*
X148109390Y-101740814D01*
X148021789Y-101609711D01*
X148021786Y-101609707D01*
X147910292Y-101498213D01*
X147910288Y-101498210D01*
X147779185Y-101410609D01*
X147779172Y-101410602D01*
X147633501Y-101350264D01*
X147633489Y-101350261D01*
X147478845Y-101319500D01*
X147478842Y-101319500D01*
X147321158Y-101319500D01*
X147321155Y-101319500D01*
X147166510Y-101350261D01*
X147166498Y-101350264D01*
X147020827Y-101410602D01*
X147020814Y-101410609D01*
X146889711Y-101498210D01*
X146889707Y-101498213D01*
X146778213Y-101609707D01*
X146778210Y-101609711D01*
X146690609Y-101740814D01*
X146690605Y-101740822D01*
X146687822Y-101747543D01*
X146643983Y-101801948D01*
X146577690Y-101824016D01*
X146573259Y-101824095D01*
X145313253Y-101824095D01*
X145246214Y-101804410D01*
X145200459Y-101751606D01*
X145191636Y-101724287D01*
X145165143Y-101591103D01*
X145165142Y-101591102D01*
X145165142Y-101591098D01*
X145165140Y-101591093D01*
X145104802Y-101445422D01*
X145104795Y-101445409D01*
X145017194Y-101314306D01*
X145017191Y-101314302D01*
X144905697Y-101202808D01*
X144905693Y-101202805D01*
X144774590Y-101115204D01*
X144774577Y-101115197D01*
X144628908Y-101054860D01*
X144628892Y-101054855D01*
X144474250Y-101024095D01*
X144474247Y-101024095D01*
X144316563Y-101024095D01*
X144316560Y-101024095D01*
X144161915Y-101054856D01*
X144161903Y-101054859D01*
X144016232Y-101115197D01*
X144016219Y-101115204D01*
X143885116Y-101202805D01*
X143885112Y-101202808D01*
X143773618Y-101314302D01*
X143773614Y-101314307D01*
X143762088Y-101331557D01*
X143708475Y-101376360D01*
X143639149Y-101385066D01*
X143596986Y-101370049D01*
X143580314Y-101360423D01*
X143427586Y-101319499D01*
X143269472Y-101319499D01*
X143261876Y-101319499D01*
X143261860Y-101319500D01*
X139518140Y-101319500D01*
X139518124Y-101319499D01*
X139510528Y-101319499D01*
X139352414Y-101319499D01*
X139245058Y-101348265D01*
X139199681Y-101360424D01*
X139199680Y-101360425D01*
X139149567Y-101389359D01*
X139149566Y-101389360D01*
X139112010Y-101411043D01*
X139062756Y-101439479D01*
X139059216Y-101443019D01*
X138997891Y-101476501D01*
X138928199Y-101471512D01*
X138872268Y-101429638D01*
X138864153Y-101417335D01*
X138860520Y-101411043D01*
X138860519Y-101411042D01*
X138860518Y-101411040D01*
X138748714Y-101299236D01*
X138748713Y-101299235D01*
X138744383Y-101294905D01*
X138744372Y-101294895D01*
X138390630Y-100941153D01*
X154799500Y-100941153D01*
X154799500Y-101098846D01*
X154830261Y-101253489D01*
X154830264Y-101253501D01*
X154890602Y-101399172D01*
X154890609Y-101399185D01*
X154978210Y-101530288D01*
X154978213Y-101530292D01*
X155089707Y-101641786D01*
X155089711Y-101641789D01*
X155220814Y-101729390D01*
X155220827Y-101729397D01*
X155357773Y-101786121D01*
X155366503Y-101789737D01*
X155521153Y-101820499D01*
X155521156Y-101820500D01*
X155521158Y-101820500D01*
X155678844Y-101820500D01*
X155678845Y-101820499D01*
X155833497Y-101789737D01*
X155899700Y-101762314D01*
X155969167Y-101754846D01*
X156031646Y-101786121D01*
X156061712Y-101829423D01*
X156090604Y-101899176D01*
X156090609Y-101899185D01*
X156178210Y-102030288D01*
X156178213Y-102030292D01*
X156289707Y-102141786D01*
X156289711Y-102141789D01*
X156420814Y-102229390D01*
X156420827Y-102229397D01*
X156566498Y-102289735D01*
X156566503Y-102289737D01*
X156721153Y-102320499D01*
X156721156Y-102320500D01*
X156721158Y-102320500D01*
X156878844Y-102320500D01*
X156878845Y-102320499D01*
X157033497Y-102289737D01*
X157179179Y-102229394D01*
X157310289Y-102141789D01*
X157421789Y-102030289D01*
X157509394Y-101899179D01*
X157569737Y-101753497D01*
X157600500Y-101598842D01*
X157600500Y-101441158D01*
X157600500Y-101441155D01*
X157600499Y-101441153D01*
X157600166Y-101439479D01*
X157569737Y-101286503D01*
X157535069Y-101202806D01*
X157509397Y-101140827D01*
X157509390Y-101140814D01*
X157421789Y-101009711D01*
X157421786Y-101009707D01*
X157310292Y-100898213D01*
X157310288Y-100898210D01*
X157179185Y-100810609D01*
X157179172Y-100810602D01*
X157033501Y-100750264D01*
X157033489Y-100750261D01*
X156912030Y-100726101D01*
X156912029Y-100726101D01*
X156878844Y-100719500D01*
X156878842Y-100719500D01*
X156721158Y-100719500D01*
X156721155Y-100719500D01*
X156566510Y-100750261D01*
X156566503Y-100750263D01*
X156500299Y-100777685D01*
X156430830Y-100785153D01*
X156368351Y-100753877D01*
X156338287Y-100710575D01*
X156309397Y-100640827D01*
X156309390Y-100640814D01*
X156287831Y-100608549D01*
X166999500Y-100608549D01*
X166999500Y-100831450D01*
X166999501Y-100831466D01*
X167028594Y-101052452D01*
X167028595Y-101052457D01*
X167028596Y-101052463D01*
X167086290Y-101267780D01*
X167086293Y-101267790D01*
X167159871Y-101445422D01*
X167171595Y-101473726D01*
X167283052Y-101666774D01*
X167283057Y-101666780D01*
X167283058Y-101666782D01*
X167418751Y-101843622D01*
X167418757Y-101843629D01*
X167576370Y-102001242D01*
X167576376Y-102001247D01*
X167753226Y-102136948D01*
X167946274Y-102248405D01*
X168152219Y-102333710D01*
X168367537Y-102391404D01*
X168588543Y-102420500D01*
X168588550Y-102420500D01*
X168811450Y-102420500D01*
X168811457Y-102420500D01*
X169032463Y-102391404D01*
X169247781Y-102333710D01*
X169453726Y-102248405D01*
X169646774Y-102136948D01*
X169823624Y-102001247D01*
X169981247Y-101843624D01*
X170116948Y-101666774D01*
X170228405Y-101473726D01*
X170313710Y-101267781D01*
X170371404Y-101052463D01*
X170400500Y-100831457D01*
X170400500Y-100608543D01*
X170371404Y-100387537D01*
X170313710Y-100172219D01*
X170228405Y-99966274D01*
X170116948Y-99773226D01*
X170077867Y-99722294D01*
X169981248Y-99596377D01*
X169981242Y-99596370D01*
X169823629Y-99438757D01*
X169823622Y-99438751D01*
X169646782Y-99303058D01*
X169646780Y-99303057D01*
X169646774Y-99303052D01*
X169453726Y-99191595D01*
X169453722Y-99191593D01*
X169247790Y-99106293D01*
X169247783Y-99106291D01*
X169247781Y-99106290D01*
X169032463Y-99048596D01*
X169032457Y-99048595D01*
X169032452Y-99048594D01*
X168811466Y-99019501D01*
X168811463Y-99019500D01*
X168811457Y-99019500D01*
X168588543Y-99019500D01*
X168588537Y-99019500D01*
X168588533Y-99019501D01*
X168367547Y-99048594D01*
X168367540Y-99048595D01*
X168367537Y-99048596D01*
X168152219Y-99106290D01*
X168152209Y-99106293D01*
X167946277Y-99191593D01*
X167946273Y-99191595D01*
X167753226Y-99303052D01*
X167753217Y-99303058D01*
X167576377Y-99438751D01*
X167576370Y-99438757D01*
X167418757Y-99596370D01*
X167418751Y-99596377D01*
X167283058Y-99773217D01*
X167283052Y-99773226D01*
X167171595Y-99966273D01*
X167171593Y-99966277D01*
X167086293Y-100172209D01*
X167086290Y-100172219D01*
X167041468Y-100339500D01*
X167028597Y-100387534D01*
X167028594Y-100387547D01*
X166999501Y-100608533D01*
X166999500Y-100608549D01*
X156287831Y-100608549D01*
X156221789Y-100509711D01*
X156221786Y-100509707D01*
X156110292Y-100398213D01*
X156110288Y-100398210D01*
X155979185Y-100310609D01*
X155979172Y-100310602D01*
X155833501Y-100250264D01*
X155833489Y-100250261D01*
X155678845Y-100219500D01*
X155678842Y-100219500D01*
X155521158Y-100219500D01*
X155521155Y-100219500D01*
X155366510Y-100250261D01*
X155366498Y-100250264D01*
X155220827Y-100310602D01*
X155220814Y-100310609D01*
X155089711Y-100398210D01*
X155089707Y-100398213D01*
X154978213Y-100509707D01*
X154978210Y-100509711D01*
X154890609Y-100640814D01*
X154890602Y-100640827D01*
X154830264Y-100786498D01*
X154830261Y-100786510D01*
X154799500Y-100941153D01*
X138390630Y-100941153D01*
X138027832Y-100578355D01*
X138027830Y-100578352D01*
X137908959Y-100459481D01*
X137908951Y-100459475D01*
X137791139Y-100391457D01*
X137791138Y-100391456D01*
X137777705Y-100383701D01*
X137772027Y-100380423D01*
X137619299Y-100339499D01*
X137461185Y-100339499D01*
X137453589Y-100339499D01*
X137453573Y-100339500D01*
X133080699Y-100339500D01*
X132927970Y-100380423D01*
X132927969Y-100380424D01*
X132908858Y-100391456D01*
X132908859Y-100391457D01*
X132791043Y-100459477D01*
X132791038Y-100459481D01*
X131992661Y-101257858D01*
X131992655Y-101257866D01*
X131952092Y-101328125D01*
X131952092Y-101328127D01*
X131913603Y-101394790D01*
X131909249Y-101411040D01*
X131872679Y-101547519D01*
X131872679Y-101547521D01*
X131872679Y-101715622D01*
X131872680Y-101715635D01*
X131872680Y-106839434D01*
X131863241Y-106886886D01*
X131830263Y-106966501D01*
X131830260Y-106966511D01*
X131799500Y-107121153D01*
X124815606Y-107121153D01*
X124781248Y-107076377D01*
X124781242Y-107076370D01*
X124623629Y-106918757D01*
X124623622Y-106918751D01*
X124446782Y-106783058D01*
X124446780Y-106783057D01*
X124446774Y-106783052D01*
X124253726Y-106671595D01*
X124253722Y-106671593D01*
X124047790Y-106586293D01*
X124047783Y-106586291D01*
X124047781Y-106586290D01*
X123832463Y-106528596D01*
X123832457Y-106528595D01*
X123832452Y-106528594D01*
X123611466Y-106499501D01*
X123611463Y-106499500D01*
X123611457Y-106499500D01*
X123388543Y-106499500D01*
X123388537Y-106499500D01*
X123388533Y-106499501D01*
X123167547Y-106528594D01*
X123167540Y-106528595D01*
X123167537Y-106528596D01*
X122982370Y-106578211D01*
X122952219Y-106586290D01*
X122952209Y-106586293D01*
X122746277Y-106671593D01*
X122746273Y-106671595D01*
X122553226Y-106783052D01*
X122553217Y-106783058D01*
X122376377Y-106918751D01*
X122376370Y-106918757D01*
X122218757Y-107076370D01*
X122218751Y-107076377D01*
X122083058Y-107253217D01*
X122083052Y-107253226D01*
X121971595Y-107446273D01*
X121971593Y-107446277D01*
X121886293Y-107652209D01*
X121886290Y-107652219D01*
X121870730Y-107710292D01*
X121828597Y-107867534D01*
X121828594Y-107867547D01*
X121799501Y-108088533D01*
X121799500Y-108088549D01*
X118100500Y-108088549D01*
X118100500Y-104128549D01*
X121799500Y-104128549D01*
X121799500Y-104351458D01*
X121828594Y-104572452D01*
X121828595Y-104572457D01*
X121828596Y-104572463D01*
X121886290Y-104787780D01*
X121886293Y-104787790D01*
X121937344Y-104911037D01*
X121971595Y-104993726D01*
X122083052Y-105186774D01*
X122083057Y-105186780D01*
X122083058Y-105186782D01*
X122218751Y-105363622D01*
X122218757Y-105363629D01*
X122376370Y-105521242D01*
X122376377Y-105521248D01*
X122477947Y-105599185D01*
X122553226Y-105656948D01*
X122746274Y-105768405D01*
X122876140Y-105822197D01*
X122921903Y-105841153D01*
X122952219Y-105853710D01*
X123167537Y-105911404D01*
X123388543Y-105940500D01*
X123388550Y-105940500D01*
X123611450Y-105940500D01*
X123611457Y-105940500D01*
X123832463Y-105911404D01*
X124047781Y-105853710D01*
X124253726Y-105768405D01*
X124446774Y-105656948D01*
X124623624Y-105521247D01*
X124781247Y-105363624D01*
X124916948Y-105186774D01*
X125028405Y-104993726D01*
X125113710Y-104787781D01*
X125171404Y-104572463D01*
X125195460Y-104389737D01*
X125200500Y-104351458D01*
X125200500Y-104128549D01*
X125200500Y-104128543D01*
X125171404Y-103907537D01*
X125113710Y-103692219D01*
X125113350Y-103691351D01*
X125060836Y-103564570D01*
X125028405Y-103486274D01*
X124916948Y-103293226D01*
X124844040Y-103198210D01*
X124781248Y-103116377D01*
X124781242Y-103116370D01*
X124623629Y-102958757D01*
X124623622Y-102958751D01*
X124446782Y-102823058D01*
X124446780Y-102823057D01*
X124446774Y-102823052D01*
X124253726Y-102711595D01*
X124253722Y-102711593D01*
X124047790Y-102626293D01*
X124047783Y-102626291D01*
X124047781Y-102626290D01*
X123832463Y-102568596D01*
X123832457Y-102568595D01*
X123832452Y-102568594D01*
X123611466Y-102539501D01*
X123611463Y-102539500D01*
X123611457Y-102539500D01*
X123388543Y-102539500D01*
X123388537Y-102539500D01*
X123388533Y-102539501D01*
X123167547Y-102568594D01*
X123167540Y-102568595D01*
X123167537Y-102568596D01*
X123076501Y-102592989D01*
X122952219Y-102626290D01*
X122952209Y-102626293D01*
X122746277Y-102711593D01*
X122746273Y-102711595D01*
X122553226Y-102823052D01*
X122553217Y-102823058D01*
X122376377Y-102958751D01*
X122376370Y-102958757D01*
X122218757Y-103116370D01*
X122218751Y-103116377D01*
X122083058Y-103293217D01*
X122083052Y-103293226D01*
X121971595Y-103486273D01*
X121971593Y-103486277D01*
X121886293Y-103692209D01*
X121886290Y-103692219D01*
X121831095Y-103898213D01*
X121828597Y-103907534D01*
X121828594Y-103907547D01*
X121799501Y-104128533D01*
X121799500Y-104128549D01*
X118100500Y-104128549D01*
X118100500Y-100168549D01*
X121799500Y-100168549D01*
X121799500Y-100391457D01*
X121828594Y-100612452D01*
X121828595Y-100612457D01*
X121828596Y-100612463D01*
X121875230Y-100786503D01*
X121886290Y-100827780D01*
X121886293Y-100827790D01*
X121971593Y-101033722D01*
X121971595Y-101033726D01*
X122083052Y-101226774D01*
X122083057Y-101226780D01*
X122083058Y-101226782D01*
X122218751Y-101403622D01*
X122218757Y-101403629D01*
X122376370Y-101561242D01*
X122376377Y-101561248D01*
X122425376Y-101598846D01*
X122553226Y-101696948D01*
X122746274Y-101808405D01*
X122869952Y-101859634D01*
X122934836Y-101886510D01*
X122952219Y-101893710D01*
X123167537Y-101951404D01*
X123388543Y-101980500D01*
X123388550Y-101980500D01*
X123611450Y-101980500D01*
X123611457Y-101980500D01*
X123832463Y-101951404D01*
X124047781Y-101893710D01*
X124253726Y-101808405D01*
X124446774Y-101696948D01*
X124623624Y-101561247D01*
X124781247Y-101403624D01*
X124916948Y-101226774D01*
X125028405Y-101033726D01*
X125113710Y-100827781D01*
X125171404Y-100612463D01*
X125200500Y-100391457D01*
X125200500Y-100168543D01*
X125171404Y-99947537D01*
X125113710Y-99732219D01*
X125028405Y-99526274D01*
X124916948Y-99333226D01*
X124916943Y-99333220D01*
X124916941Y-99333216D01*
X124822818Y-99210552D01*
X124781248Y-99156377D01*
X124781242Y-99156370D01*
X124766025Y-99141153D01*
X131699500Y-99141153D01*
X131699500Y-99298846D01*
X131730261Y-99453489D01*
X131730264Y-99453501D01*
X131790602Y-99599172D01*
X131790609Y-99599185D01*
X131878210Y-99730288D01*
X131878213Y-99730292D01*
X131989707Y-99841786D01*
X131989711Y-99841789D01*
X132120814Y-99929390D01*
X132120827Y-99929397D01*
X132209865Y-99966277D01*
X132266503Y-99989737D01*
X132421153Y-100020499D01*
X132421156Y-100020500D01*
X132421158Y-100020500D01*
X132578844Y-100020500D01*
X132578845Y-100020499D01*
X132733497Y-99989737D01*
X132879179Y-99929394D01*
X133010289Y-99841789D01*
X133121789Y-99730289D01*
X133209394Y-99599179D01*
X133269737Y-99453497D01*
X133300500Y-99298842D01*
X133300500Y-99141158D01*
X133300500Y-99141155D01*
X133300499Y-99141153D01*
X133282088Y-99048594D01*
X133269737Y-98986503D01*
X133218605Y-98863058D01*
X133209397Y-98840827D01*
X133209390Y-98840814D01*
X133121789Y-98709711D01*
X133121786Y-98709707D01*
X133010292Y-98598213D01*
X133010288Y-98598210D01*
X132879185Y-98510609D01*
X132879172Y-98510602D01*
X132733501Y-98450264D01*
X132733489Y-98450261D01*
X132578845Y-98419500D01*
X132578842Y-98419500D01*
X132421158Y-98419500D01*
X132421155Y-98419500D01*
X132266510Y-98450261D01*
X132266498Y-98450264D01*
X132120827Y-98510602D01*
X132120814Y-98510609D01*
X131989711Y-98598210D01*
X131989707Y-98598213D01*
X131878213Y-98709707D01*
X131878210Y-98709711D01*
X131790609Y-98840814D01*
X131790602Y-98840827D01*
X131730264Y-98986498D01*
X131730261Y-98986510D01*
X131699500Y-99141153D01*
X124766025Y-99141153D01*
X124623629Y-98998757D01*
X124623622Y-98998751D01*
X124446782Y-98863058D01*
X124446780Y-98863057D01*
X124446774Y-98863052D01*
X124253726Y-98751595D01*
X124253722Y-98751593D01*
X124047790Y-98666293D01*
X124047783Y-98666291D01*
X124047781Y-98666290D01*
X123832463Y-98608596D01*
X123832457Y-98608595D01*
X123832452Y-98608594D01*
X123611466Y-98579501D01*
X123611463Y-98579500D01*
X123611457Y-98579500D01*
X123388543Y-98579500D01*
X123388537Y-98579500D01*
X123388533Y-98579501D01*
X123167547Y-98608594D01*
X123167540Y-98608595D01*
X123167537Y-98608596D01*
X123050410Y-98639980D01*
X122952219Y-98666290D01*
X122952209Y-98666293D01*
X122746277Y-98751593D01*
X122746273Y-98751595D01*
X122553226Y-98863052D01*
X122553217Y-98863058D01*
X122376377Y-98998751D01*
X122376370Y-98998757D01*
X122218757Y-99156370D01*
X122218751Y-99156377D01*
X122083058Y-99333217D01*
X122083052Y-99333226D01*
X121971595Y-99526273D01*
X121971593Y-99526277D01*
X121886293Y-99732209D01*
X121886290Y-99732219D01*
X121833458Y-99929394D01*
X121828597Y-99947534D01*
X121828594Y-99947547D01*
X121799501Y-100168533D01*
X121799500Y-100168549D01*
X118100500Y-100168549D01*
X118100500Y-96208549D01*
X121799500Y-96208549D01*
X121799500Y-96431458D01*
X121828594Y-96652452D01*
X121828595Y-96652457D01*
X121828596Y-96652463D01*
X121886290Y-96867780D01*
X121886293Y-96867790D01*
X121966730Y-97061982D01*
X121971595Y-97073726D01*
X122083052Y-97266774D01*
X122083057Y-97266780D01*
X122083058Y-97266782D01*
X122218751Y-97443622D01*
X122218757Y-97443629D01*
X122376370Y-97601242D01*
X122376377Y-97601248D01*
X122428383Y-97641153D01*
X122553226Y-97736948D01*
X122746274Y-97848405D01*
X122952219Y-97933710D01*
X123167537Y-97991404D01*
X123388543Y-98020500D01*
X123388550Y-98020500D01*
X123611450Y-98020500D01*
X123611457Y-98020500D01*
X123832463Y-97991404D01*
X124047781Y-97933710D01*
X124253726Y-97848405D01*
X124446774Y-97736948D01*
X124571617Y-97641153D01*
X133499500Y-97641153D01*
X133499500Y-97798846D01*
X133530261Y-97953489D01*
X133530264Y-97953501D01*
X133590602Y-98099172D01*
X133590609Y-98099185D01*
X133678210Y-98230288D01*
X133678213Y-98230292D01*
X133789707Y-98341786D01*
X133789711Y-98341789D01*
X133920814Y-98429390D01*
X133920827Y-98429397D01*
X134066498Y-98489735D01*
X134066503Y-98489737D01*
X134221153Y-98520499D01*
X134221156Y-98520500D01*
X134221158Y-98520500D01*
X134378844Y-98520500D01*
X134378845Y-98520499D01*
X134533497Y-98489737D01*
X134674324Y-98431405D01*
X134679172Y-98429397D01*
X134679172Y-98429396D01*
X134679179Y-98429394D01*
X134810289Y-98341789D01*
X134921789Y-98230289D01*
X135009394Y-98099179D01*
X135069737Y-97953497D01*
X135100500Y-97798842D01*
X135100500Y-97741153D01*
X139199500Y-97741153D01*
X139199500Y-97898846D01*
X139230261Y-98053489D01*
X139230264Y-98053501D01*
X139290602Y-98199172D01*
X139290609Y-98199185D01*
X139378210Y-98330288D01*
X139378213Y-98330292D01*
X139489707Y-98441786D01*
X139489711Y-98441789D01*
X139620814Y-98529390D01*
X139620827Y-98529397D01*
X139742119Y-98579637D01*
X139766503Y-98589737D01*
X139921153Y-98620499D01*
X139921156Y-98620500D01*
X139921158Y-98620500D01*
X140078844Y-98620500D01*
X140078845Y-98620499D01*
X140233497Y-98589737D01*
X140379179Y-98529394D01*
X140510289Y-98441789D01*
X140621789Y-98330289D01*
X140709394Y-98199179D01*
X140769737Y-98053497D01*
X140800500Y-97898842D01*
X140800500Y-97741158D01*
X140800500Y-97741155D01*
X140784897Y-97662718D01*
X140780607Y-97641153D01*
X141899500Y-97641153D01*
X141899500Y-97798846D01*
X141930261Y-97953489D01*
X141930264Y-97953501D01*
X141990602Y-98099172D01*
X141990609Y-98099185D01*
X142078210Y-98230288D01*
X142078213Y-98230292D01*
X142189707Y-98341786D01*
X142189711Y-98341789D01*
X142320814Y-98429390D01*
X142320827Y-98429397D01*
X142466498Y-98489735D01*
X142466503Y-98489737D01*
X142621153Y-98520499D01*
X142621156Y-98520500D01*
X142621158Y-98520500D01*
X142778844Y-98520500D01*
X142778845Y-98520499D01*
X142933497Y-98489737D01*
X143074324Y-98431405D01*
X143079172Y-98429397D01*
X143079172Y-98429396D01*
X143079179Y-98429394D01*
X143210289Y-98341789D01*
X143321789Y-98230289D01*
X143409394Y-98099179D01*
X143469737Y-97953497D01*
X143500500Y-97798842D01*
X143500500Y-97641158D01*
X143500500Y-97641155D01*
X143500499Y-97641153D01*
X143480734Y-97541789D01*
X143469737Y-97486503D01*
X143450812Y-97440814D01*
X143409397Y-97340827D01*
X143409390Y-97340814D01*
X143321789Y-97209711D01*
X143321786Y-97209707D01*
X143210292Y-97098213D01*
X143210288Y-97098210D01*
X143079185Y-97010609D01*
X143079172Y-97010602D01*
X142933501Y-96950264D01*
X142933489Y-96950261D01*
X142778845Y-96919500D01*
X142778842Y-96919500D01*
X142621158Y-96919500D01*
X142621155Y-96919500D01*
X142466510Y-96950261D01*
X142466498Y-96950264D01*
X142320827Y-97010602D01*
X142320814Y-97010609D01*
X142189711Y-97098210D01*
X142189707Y-97098213D01*
X142078213Y-97209707D01*
X142078210Y-97209711D01*
X141990609Y-97340814D01*
X141990602Y-97340827D01*
X141930264Y-97486498D01*
X141930261Y-97486510D01*
X141899500Y-97641153D01*
X140780607Y-97641153D01*
X140769737Y-97586503D01*
X140757574Y-97557139D01*
X140755405Y-97548757D01*
X140756266Y-97522149D01*
X140753420Y-97495674D01*
X140757379Y-97487763D01*
X140757666Y-97478924D01*
X140772776Y-97457004D01*
X140784695Y-97433195D01*
X140793317Y-97427208D01*
X140797322Y-97421399D01*
X140808288Y-97416813D01*
X140827994Y-97403131D01*
X140951763Y-97351865D01*
X141082873Y-97264260D01*
X141194373Y-97152760D01*
X141281978Y-97021650D01*
X141291425Y-96998844D01*
X141315461Y-96940814D01*
X141342321Y-96875968D01*
X141349246Y-96841153D01*
X151299500Y-96841153D01*
X151299500Y-96998846D01*
X151330261Y-97153489D01*
X151330264Y-97153501D01*
X151390602Y-97299172D01*
X151390609Y-97299185D01*
X151478210Y-97430288D01*
X151478213Y-97430292D01*
X151589707Y-97541786D01*
X151589711Y-97541789D01*
X151720814Y-97629390D01*
X151720827Y-97629397D01*
X151866498Y-97689735D01*
X151866503Y-97689737D01*
X152021153Y-97720499D01*
X152021156Y-97720500D01*
X152021158Y-97720500D01*
X152178844Y-97720500D01*
X152178845Y-97720499D01*
X152333497Y-97689737D01*
X152479179Y-97629394D01*
X152610289Y-97541789D01*
X152721789Y-97430289D01*
X152809394Y-97299179D01*
X152813316Y-97289711D01*
X152833429Y-97241153D01*
X154199500Y-97241153D01*
X154199500Y-97398846D01*
X154230261Y-97553489D01*
X154230264Y-97553501D01*
X154290602Y-97699172D01*
X154290609Y-97699185D01*
X154378210Y-97830288D01*
X154378213Y-97830292D01*
X154489707Y-97941786D01*
X154489711Y-97941789D01*
X154620814Y-98029390D01*
X154620827Y-98029397D01*
X154649439Y-98041248D01*
X154766503Y-98089737D01*
X154797352Y-98095873D01*
X154859262Y-98128256D01*
X154887722Y-98170037D01*
X154920603Y-98249418D01*
X154920608Y-98249428D01*
X155008209Y-98380531D01*
X155008212Y-98380535D01*
X155119706Y-98492029D01*
X155119710Y-98492032D01*
X155250813Y-98579633D01*
X155250826Y-98579640D01*
X155396497Y-98639978D01*
X155396502Y-98639980D01*
X155551152Y-98670742D01*
X155551155Y-98670743D01*
X155551157Y-98670743D01*
X155708843Y-98670743D01*
X155708844Y-98670742D01*
X155863496Y-98639980D01*
X156009178Y-98579637D01*
X156140288Y-98492032D01*
X156251788Y-98380532D01*
X156339393Y-98249422D01*
X156399736Y-98103740D01*
X156430499Y-97949085D01*
X156430499Y-97791401D01*
X156430499Y-97791398D01*
X156420127Y-97739258D01*
X156420127Y-97739257D01*
X156416526Y-97721153D01*
X160599500Y-97721153D01*
X160599500Y-97878846D01*
X160630261Y-98033489D01*
X160630264Y-98033501D01*
X160690602Y-98179172D01*
X160690609Y-98179185D01*
X160778210Y-98310288D01*
X160778213Y-98310292D01*
X160889707Y-98421786D01*
X160889711Y-98421789D01*
X161020814Y-98509390D01*
X161020827Y-98509397D01*
X161166498Y-98569735D01*
X161166503Y-98569737D01*
X161309661Y-98598213D01*
X161321153Y-98600499D01*
X161321156Y-98600500D01*
X161321158Y-98600500D01*
X161478844Y-98600500D01*
X161478845Y-98600499D01*
X161633497Y-98569737D01*
X161779179Y-98509394D01*
X161910289Y-98421789D01*
X162021789Y-98310289D01*
X162109394Y-98179179D01*
X162169737Y-98033497D01*
X162200500Y-97878842D01*
X162200500Y-97721158D01*
X162200500Y-97721155D01*
X162200499Y-97721153D01*
X162194250Y-97689737D01*
X162169737Y-97566503D01*
X162169735Y-97566498D01*
X162109397Y-97420827D01*
X162109390Y-97420814D01*
X162021789Y-97289711D01*
X162021786Y-97289707D01*
X161910292Y-97178213D01*
X161910288Y-97178210D01*
X161779185Y-97090609D01*
X161779172Y-97090602D01*
X161633501Y-97030264D01*
X161633489Y-97030261D01*
X161478845Y-96999500D01*
X161478842Y-96999500D01*
X161321158Y-96999500D01*
X161321155Y-96999500D01*
X161166510Y-97030261D01*
X161166498Y-97030264D01*
X161020827Y-97090602D01*
X161020814Y-97090609D01*
X160889711Y-97178210D01*
X160889707Y-97178213D01*
X160778213Y-97289707D01*
X160778210Y-97289711D01*
X160690609Y-97420814D01*
X160690602Y-97420827D01*
X160630264Y-97566498D01*
X160630261Y-97566510D01*
X160599500Y-97721153D01*
X156416526Y-97721153D01*
X156404902Y-97662718D01*
X156399736Y-97636746D01*
X156390086Y-97613449D01*
X156339396Y-97491070D01*
X156339389Y-97491057D01*
X156251788Y-97359954D01*
X156251785Y-97359950D01*
X156140291Y-97248456D01*
X156140287Y-97248453D01*
X156009184Y-97160852D01*
X156009171Y-97160845D01*
X155863498Y-97100506D01*
X155863491Y-97100504D01*
X155832643Y-97094368D01*
X155770732Y-97061982D01*
X155742275Y-97020203D01*
X155709397Y-96940827D01*
X155709390Y-96940814D01*
X155621789Y-96809711D01*
X155621786Y-96809707D01*
X155510292Y-96698213D01*
X155510288Y-96698210D01*
X155435966Y-96648549D01*
X166999500Y-96648549D01*
X166999500Y-96871450D01*
X166999501Y-96871466D01*
X167028594Y-97092452D01*
X167028595Y-97092457D01*
X167028596Y-97092463D01*
X167083985Y-97299179D01*
X167086290Y-97307780D01*
X167086293Y-97307790D01*
X167171593Y-97513722D01*
X167171595Y-97513726D01*
X167283052Y-97706774D01*
X167283057Y-97706780D01*
X167283058Y-97706782D01*
X167418751Y-97883622D01*
X167418757Y-97883629D01*
X167576370Y-98041242D01*
X167576377Y-98041248D01*
X167689769Y-98128256D01*
X167753226Y-98176948D01*
X167946274Y-98288405D01*
X168152219Y-98373710D01*
X168367537Y-98431404D01*
X168588543Y-98460500D01*
X168588550Y-98460500D01*
X168811450Y-98460500D01*
X168811457Y-98460500D01*
X169032463Y-98431404D01*
X169247781Y-98373710D01*
X169453726Y-98288405D01*
X169646774Y-98176948D01*
X169823624Y-98041247D01*
X169981247Y-97883624D01*
X170116948Y-97706774D01*
X170228405Y-97513726D01*
X170313710Y-97307781D01*
X170371404Y-97092463D01*
X170400500Y-96871457D01*
X170400500Y-96648543D01*
X170371404Y-96427537D01*
X170313710Y-96212219D01*
X170312669Y-96209707D01*
X170246625Y-96050261D01*
X170228405Y-96006274D01*
X170116948Y-95813226D01*
X169981247Y-95636376D01*
X169981242Y-95636370D01*
X169823629Y-95478757D01*
X169823622Y-95478751D01*
X169646782Y-95343058D01*
X169646780Y-95343057D01*
X169646774Y-95343052D01*
X169453726Y-95231595D01*
X169453722Y-95231593D01*
X169247790Y-95146293D01*
X169247783Y-95146291D01*
X169247781Y-95146290D01*
X169032463Y-95088596D01*
X169032457Y-95088595D01*
X169032452Y-95088594D01*
X168811466Y-95059501D01*
X168811463Y-95059500D01*
X168811457Y-95059500D01*
X168588543Y-95059500D01*
X168588537Y-95059500D01*
X168588533Y-95059501D01*
X168367547Y-95088594D01*
X168367540Y-95088595D01*
X168367537Y-95088596D01*
X168363391Y-95089707D01*
X168152219Y-95146290D01*
X168152209Y-95146293D01*
X167946277Y-95231593D01*
X167946273Y-95231595D01*
X167753226Y-95343052D01*
X167753217Y-95343058D01*
X167576377Y-95478751D01*
X167576370Y-95478757D01*
X167418757Y-95636370D01*
X167418751Y-95636377D01*
X167283058Y-95813217D01*
X167283052Y-95813226D01*
X167171595Y-96006273D01*
X167171593Y-96006277D01*
X167086293Y-96212209D01*
X167086290Y-96212219D01*
X167033373Y-96409711D01*
X167028597Y-96427534D01*
X167028594Y-96427547D01*
X166999501Y-96648533D01*
X166999500Y-96648549D01*
X155435966Y-96648549D01*
X155379185Y-96610609D01*
X155379172Y-96610602D01*
X155233501Y-96550264D01*
X155233489Y-96550261D01*
X155078845Y-96519500D01*
X155078842Y-96519500D01*
X154921158Y-96519500D01*
X154921155Y-96519500D01*
X154766510Y-96550261D01*
X154766498Y-96550264D01*
X154620827Y-96610602D01*
X154620814Y-96610609D01*
X154489711Y-96698210D01*
X154489707Y-96698213D01*
X154378213Y-96809707D01*
X154378210Y-96809711D01*
X154290609Y-96940814D01*
X154290602Y-96940827D01*
X154230264Y-97086498D01*
X154230261Y-97086510D01*
X154199500Y-97241153D01*
X152833429Y-97241153D01*
X152855603Y-97187621D01*
X152855605Y-97187614D01*
X152859499Y-97178213D01*
X152869737Y-97153497D01*
X152900500Y-96998842D01*
X152900500Y-96841158D01*
X152900500Y-96841155D01*
X152900499Y-96841153D01*
X152894244Y-96809707D01*
X152869737Y-96686503D01*
X152854014Y-96648543D01*
X152809397Y-96540827D01*
X152809390Y-96540814D01*
X152721398Y-96409125D01*
X152700520Y-96342447D01*
X152700500Y-96340234D01*
X152700500Y-94537847D01*
X152720185Y-94470808D01*
X152772989Y-94425053D01*
X152800309Y-94416230D01*
X152816291Y-94413050D01*
X152933497Y-94389737D01*
X153079179Y-94329394D01*
X153210289Y-94241789D01*
X153321789Y-94130289D01*
X153409394Y-93999179D01*
X153469737Y-93853497D01*
X153500500Y-93698842D01*
X153500500Y-93541158D01*
X153500500Y-93541155D01*
X153500499Y-93541153D01*
X153469738Y-93386510D01*
X153469738Y-93386508D01*
X153469737Y-93386503D01*
X153436716Y-93306782D01*
X153409397Y-93240827D01*
X153409390Y-93240814D01*
X153321789Y-93109711D01*
X153321786Y-93109707D01*
X153210292Y-92998213D01*
X153210288Y-92998210D01*
X153079185Y-92910609D01*
X153079172Y-92910602D01*
X152933501Y-92850264D01*
X152933489Y-92850261D01*
X152778845Y-92819500D01*
X152778842Y-92819500D01*
X152621158Y-92819500D01*
X152621155Y-92819500D01*
X152466510Y-92850261D01*
X152466498Y-92850264D01*
X152320827Y-92910602D01*
X152320814Y-92910609D01*
X152189711Y-92998210D01*
X152189707Y-92998213D01*
X152078213Y-93109707D01*
X152078210Y-93109711D01*
X151990609Y-93240814D01*
X151990602Y-93240827D01*
X151930264Y-93386498D01*
X151930261Y-93386508D01*
X151899362Y-93541848D01*
X151866977Y-93603759D01*
X151865427Y-93605337D01*
X151805915Y-93664849D01*
X151731286Y-93739478D01*
X151619481Y-93851282D01*
X151619480Y-93851284D01*
X151584110Y-93912547D01*
X151540423Y-93988215D01*
X151499499Y-94140943D01*
X151499499Y-94140945D01*
X151499499Y-94309046D01*
X151499500Y-94309059D01*
X151499500Y-96340234D01*
X151479815Y-96407273D01*
X151478602Y-96409125D01*
X151390609Y-96540814D01*
X151390602Y-96540827D01*
X151330264Y-96686498D01*
X151330261Y-96686510D01*
X151299500Y-96841153D01*
X141349246Y-96841153D01*
X141373084Y-96721313D01*
X141373084Y-96563629D01*
X141373084Y-96563626D01*
X141373083Y-96563624D01*
X141342321Y-96408974D01*
X141342319Y-96408969D01*
X141281981Y-96263298D01*
X141281974Y-96263285D01*
X141194373Y-96132182D01*
X141194370Y-96132178D01*
X141082876Y-96020684D01*
X141082872Y-96020681D01*
X140951769Y-95933080D01*
X140951756Y-95933073D01*
X140806085Y-95872735D01*
X140806073Y-95872732D01*
X140651429Y-95841971D01*
X140651426Y-95841971D01*
X140493742Y-95841971D01*
X140493739Y-95841971D01*
X140339094Y-95872732D01*
X140339082Y-95872735D01*
X140193411Y-95933073D01*
X140193398Y-95933080D01*
X140062295Y-96020681D01*
X140062291Y-96020684D01*
X139950797Y-96132178D01*
X139950794Y-96132182D01*
X139863193Y-96263285D01*
X139863186Y-96263298D01*
X139802848Y-96408969D01*
X139802845Y-96408981D01*
X139772084Y-96563624D01*
X139772084Y-96721317D01*
X139802845Y-96875960D01*
X139802847Y-96875967D01*
X139811695Y-96897329D01*
X139819163Y-96966798D01*
X139787887Y-97029277D01*
X139744585Y-97059341D01*
X139620827Y-97110602D01*
X139620814Y-97110609D01*
X139489711Y-97198210D01*
X139489707Y-97198213D01*
X139378213Y-97309707D01*
X139378210Y-97309711D01*
X139290609Y-97440814D01*
X139290602Y-97440827D01*
X139230264Y-97586498D01*
X139230261Y-97586510D01*
X139199500Y-97741153D01*
X135100500Y-97741153D01*
X135100500Y-97641158D01*
X135100500Y-97641155D01*
X135100499Y-97641153D01*
X135080734Y-97541789D01*
X135069737Y-97486503D01*
X135050812Y-97440814D01*
X135009397Y-97340827D01*
X135009390Y-97340814D01*
X134921789Y-97209711D01*
X134921786Y-97209707D01*
X134810292Y-97098213D01*
X134810288Y-97098210D01*
X134679185Y-97010609D01*
X134679172Y-97010602D01*
X134533501Y-96950264D01*
X134533489Y-96950261D01*
X134378845Y-96919500D01*
X134378842Y-96919500D01*
X134221158Y-96919500D01*
X134221155Y-96919500D01*
X134066510Y-96950261D01*
X134066498Y-96950264D01*
X133920827Y-97010602D01*
X133920814Y-97010609D01*
X133789711Y-97098210D01*
X133789707Y-97098213D01*
X133678213Y-97209707D01*
X133678210Y-97209711D01*
X133590609Y-97340814D01*
X133590602Y-97340827D01*
X133530264Y-97486498D01*
X133530261Y-97486510D01*
X133499500Y-97641153D01*
X124571617Y-97641153D01*
X124623624Y-97601247D01*
X124781247Y-97443624D01*
X124916948Y-97266774D01*
X125028405Y-97073726D01*
X125113710Y-96867781D01*
X125171404Y-96652463D01*
X125172893Y-96641153D01*
X127199500Y-96641153D01*
X127199500Y-96798846D01*
X127230261Y-96953489D01*
X127230264Y-96953501D01*
X127290602Y-97099172D01*
X127290609Y-97099185D01*
X127378210Y-97230288D01*
X127378213Y-97230292D01*
X127489707Y-97341786D01*
X127489711Y-97341789D01*
X127620814Y-97429390D01*
X127620827Y-97429397D01*
X127740398Y-97478924D01*
X127766503Y-97489737D01*
X127887083Y-97513722D01*
X127921153Y-97520499D01*
X127921156Y-97520500D01*
X127921158Y-97520500D01*
X128078844Y-97520500D01*
X128078845Y-97520499D01*
X128089179Y-97518443D01*
X128114287Y-97513450D01*
X128114292Y-97513449D01*
X128203650Y-97495674D01*
X128233497Y-97489737D01*
X128351592Y-97440821D01*
X128379172Y-97429397D01*
X128379172Y-97429396D01*
X128379179Y-97429394D01*
X128510289Y-97341789D01*
X128621789Y-97230289D01*
X128709394Y-97099179D01*
X128769737Y-96953497D01*
X128800500Y-96798842D01*
X128800500Y-96741153D01*
X137399500Y-96741153D01*
X137399500Y-96898846D01*
X137430261Y-97053489D01*
X137430264Y-97053501D01*
X137490602Y-97199172D01*
X137490609Y-97199185D01*
X137578210Y-97330288D01*
X137578213Y-97330292D01*
X137689707Y-97441786D01*
X137689711Y-97441789D01*
X137820814Y-97529390D01*
X137820827Y-97529397D01*
X137958683Y-97586498D01*
X137966503Y-97589737D01*
X138121153Y-97620499D01*
X138121156Y-97620500D01*
X138121158Y-97620500D01*
X138278844Y-97620500D01*
X138278845Y-97620499D01*
X138289179Y-97618443D01*
X138314287Y-97613450D01*
X138314292Y-97613449D01*
X138399800Y-97596439D01*
X138433497Y-97589737D01*
X138579179Y-97529394D01*
X138710289Y-97441789D01*
X138821789Y-97330289D01*
X138909394Y-97199179D01*
X138914182Y-97187621D01*
X138928622Y-97152759D01*
X138969737Y-97053497D01*
X139000500Y-96898842D01*
X139000500Y-96741158D01*
X139000500Y-96741155D01*
X139000499Y-96741153D01*
X138982079Y-96648549D01*
X138969737Y-96586503D01*
X138960260Y-96563624D01*
X138909397Y-96440827D01*
X138909390Y-96440814D01*
X138821789Y-96309711D01*
X138821786Y-96309707D01*
X138710292Y-96198213D01*
X138710288Y-96198210D01*
X138579185Y-96110609D01*
X138579172Y-96110602D01*
X138433501Y-96050264D01*
X138433489Y-96050261D01*
X138278845Y-96019500D01*
X138278842Y-96019500D01*
X138121158Y-96019500D01*
X138121155Y-96019500D01*
X137966510Y-96050261D01*
X137966498Y-96050264D01*
X137820827Y-96110602D01*
X137820814Y-96110609D01*
X137689711Y-96198210D01*
X137689707Y-96198213D01*
X137578213Y-96309707D01*
X137578210Y-96309711D01*
X137490609Y-96440814D01*
X137490602Y-96440827D01*
X137430264Y-96586498D01*
X137430261Y-96586510D01*
X137399500Y-96741153D01*
X128800500Y-96741153D01*
X128800500Y-96641158D01*
X128800500Y-96641155D01*
X128800499Y-96641153D01*
X128780543Y-96540827D01*
X128769737Y-96486503D01*
X128746937Y-96431458D01*
X128709397Y-96340827D01*
X128709390Y-96340814D01*
X128621789Y-96209711D01*
X128621786Y-96209707D01*
X128510292Y-96098213D01*
X128510288Y-96098210D01*
X128379185Y-96010609D01*
X128379172Y-96010602D01*
X128233501Y-95950264D01*
X128233489Y-95950261D01*
X128078845Y-95919500D01*
X128078842Y-95919500D01*
X127921158Y-95919500D01*
X127921155Y-95919500D01*
X127766510Y-95950261D01*
X127766498Y-95950264D01*
X127620827Y-96010602D01*
X127620814Y-96010609D01*
X127489711Y-96098210D01*
X127489707Y-96098213D01*
X127378213Y-96209707D01*
X127378210Y-96209711D01*
X127290609Y-96340814D01*
X127290602Y-96340827D01*
X127230264Y-96486498D01*
X127230261Y-96486510D01*
X127199500Y-96641153D01*
X125172893Y-96641153D01*
X125193254Y-96486498D01*
X125200500Y-96431458D01*
X125200500Y-96208549D01*
X125200500Y-96208543D01*
X125171404Y-95987537D01*
X125113710Y-95772219D01*
X125028405Y-95566274D01*
X125028403Y-95566271D01*
X125028401Y-95566266D01*
X124988449Y-95497068D01*
X124988448Y-95497067D01*
X124977873Y-95478751D01*
X124956166Y-95441153D01*
X135299500Y-95441153D01*
X135299500Y-95598846D01*
X135330261Y-95753489D01*
X135330264Y-95753501D01*
X135390602Y-95899172D01*
X135390609Y-95899185D01*
X135478210Y-96030288D01*
X135478213Y-96030292D01*
X135589707Y-96141786D01*
X135589711Y-96141789D01*
X135720814Y-96229390D01*
X135720827Y-96229397D01*
X135866498Y-96289735D01*
X135866503Y-96289737D01*
X136021153Y-96320499D01*
X136021156Y-96320500D01*
X136021158Y-96320500D01*
X136178844Y-96320500D01*
X136178845Y-96320499D01*
X136333497Y-96289737D01*
X136479179Y-96229394D01*
X136610289Y-96141789D01*
X136721789Y-96030289D01*
X136809394Y-95899179D01*
X136869737Y-95753497D01*
X136900500Y-95598842D01*
X136900500Y-95521153D01*
X142699500Y-95521153D01*
X142699500Y-95678846D01*
X142730261Y-95833489D01*
X142730264Y-95833501D01*
X142790602Y-95979172D01*
X142790609Y-95979185D01*
X142878210Y-96110288D01*
X142878213Y-96110292D01*
X142989707Y-96221786D01*
X142989711Y-96221789D01*
X143120814Y-96309390D01*
X143120827Y-96309397D01*
X143266498Y-96369735D01*
X143266503Y-96369737D01*
X143421153Y-96400499D01*
X143421156Y-96400500D01*
X143421158Y-96400500D01*
X143578844Y-96400500D01*
X143578845Y-96400499D01*
X143733497Y-96369737D01*
X143878414Y-96309711D01*
X143879172Y-96309397D01*
X143879172Y-96309396D01*
X143879179Y-96309394D01*
X144010289Y-96221789D01*
X144121789Y-96110289D01*
X144209394Y-95979179D01*
X144269737Y-95833497D01*
X144300500Y-95678842D01*
X144300500Y-95521158D01*
X144300500Y-95521155D01*
X144300499Y-95521153D01*
X144271074Y-95373226D01*
X144269737Y-95366503D01*
X144213856Y-95231593D01*
X144209397Y-95220827D01*
X144209390Y-95220814D01*
X144121789Y-95089711D01*
X144121786Y-95089707D01*
X144010292Y-94978213D01*
X144010288Y-94978210D01*
X143879185Y-94890609D01*
X143879172Y-94890602D01*
X143733501Y-94830264D01*
X143733489Y-94830261D01*
X143578845Y-94799500D01*
X143578842Y-94799500D01*
X143421158Y-94799500D01*
X143421155Y-94799500D01*
X143266510Y-94830261D01*
X143266498Y-94830264D01*
X143120827Y-94890602D01*
X143120814Y-94890609D01*
X142989711Y-94978210D01*
X142989707Y-94978213D01*
X142878213Y-95089707D01*
X142878210Y-95089711D01*
X142790609Y-95220814D01*
X142790602Y-95220827D01*
X142730264Y-95366498D01*
X142730261Y-95366510D01*
X142699500Y-95521153D01*
X136900500Y-95521153D01*
X136900500Y-95441158D01*
X136900500Y-95441155D01*
X136900499Y-95441153D01*
X136886987Y-95373226D01*
X136869737Y-95286503D01*
X136846993Y-95231593D01*
X136809397Y-95140827D01*
X136809390Y-95140814D01*
X136721789Y-95009711D01*
X136721786Y-95009707D01*
X136610292Y-94898213D01*
X136610288Y-94898210D01*
X136479185Y-94810609D01*
X136479172Y-94810602D01*
X136333501Y-94750264D01*
X136333489Y-94750261D01*
X136178845Y-94719500D01*
X136178842Y-94719500D01*
X136021158Y-94719500D01*
X136021155Y-94719500D01*
X135866510Y-94750261D01*
X135866498Y-94750264D01*
X135720827Y-94810602D01*
X135720814Y-94810609D01*
X135589711Y-94898210D01*
X135589707Y-94898213D01*
X135478213Y-95009707D01*
X135478210Y-95009711D01*
X135390609Y-95140814D01*
X135390602Y-95140827D01*
X135330264Y-95286498D01*
X135330261Y-95286510D01*
X135299500Y-95441153D01*
X124956166Y-95441153D01*
X124916948Y-95373226D01*
X124850409Y-95286510D01*
X124781248Y-95196377D01*
X124781242Y-95196370D01*
X124623629Y-95038757D01*
X124623622Y-95038751D01*
X124446782Y-94903058D01*
X124446780Y-94903057D01*
X124446774Y-94903052D01*
X124253726Y-94791595D01*
X124253722Y-94791593D01*
X124047790Y-94706293D01*
X124047783Y-94706291D01*
X124047781Y-94706290D01*
X123832463Y-94648596D01*
X123832457Y-94648595D01*
X123832452Y-94648594D01*
X123611466Y-94619501D01*
X123611463Y-94619500D01*
X123611457Y-94619500D01*
X123388543Y-94619500D01*
X123388537Y-94619500D01*
X123388533Y-94619501D01*
X123167547Y-94648594D01*
X123167540Y-94648595D01*
X123167537Y-94648596D01*
X122952219Y-94706290D01*
X122952209Y-94706293D01*
X122746277Y-94791593D01*
X122746273Y-94791595D01*
X122553226Y-94903052D01*
X122553217Y-94903058D01*
X122376377Y-95038751D01*
X122376370Y-95038757D01*
X122218757Y-95196370D01*
X122218751Y-95196377D01*
X122083058Y-95373217D01*
X122083052Y-95373226D01*
X121971595Y-95566273D01*
X121971593Y-95566277D01*
X121886293Y-95772209D01*
X121886290Y-95772219D01*
X121830838Y-95979172D01*
X121828597Y-95987534D01*
X121828594Y-95987547D01*
X121799501Y-96208533D01*
X121799500Y-96208549D01*
X118100500Y-96208549D01*
X118100500Y-92248549D01*
X121799500Y-92248549D01*
X121799500Y-92471458D01*
X121828594Y-92692452D01*
X121828595Y-92692457D01*
X121828596Y-92692463D01*
X121886290Y-92907780D01*
X121886293Y-92907790D01*
X121923747Y-92998211D01*
X121971595Y-93113726D01*
X122083052Y-93306774D01*
X122083057Y-93306780D01*
X122083058Y-93306782D01*
X122218751Y-93483622D01*
X122218757Y-93483629D01*
X122376370Y-93641242D01*
X122376376Y-93641247D01*
X122553226Y-93776948D01*
X122746274Y-93888405D01*
X122952219Y-93973710D01*
X123167537Y-94031404D01*
X123388543Y-94060500D01*
X123388550Y-94060500D01*
X123611450Y-94060500D01*
X123611457Y-94060500D01*
X123832463Y-94031404D01*
X124047781Y-93973710D01*
X124253726Y-93888405D01*
X124446774Y-93776948D01*
X124623624Y-93641247D01*
X124723718Y-93541153D01*
X136399500Y-93541153D01*
X136399500Y-93698846D01*
X136430261Y-93853489D01*
X136430264Y-93853501D01*
X136490602Y-93999172D01*
X136490609Y-93999185D01*
X136578210Y-94130288D01*
X136578213Y-94130292D01*
X136689707Y-94241786D01*
X136689711Y-94241789D01*
X136820814Y-94329390D01*
X136820827Y-94329397D01*
X136966498Y-94389735D01*
X136966503Y-94389737D01*
X137121153Y-94420499D01*
X137121156Y-94420500D01*
X137121158Y-94420500D01*
X137278844Y-94420500D01*
X137278845Y-94420499D01*
X137433497Y-94389737D01*
X137579179Y-94329394D01*
X137710289Y-94241789D01*
X137821789Y-94130289D01*
X137909394Y-93999179D01*
X137969737Y-93853497D01*
X138000500Y-93698842D01*
X138000500Y-93541158D01*
X138000500Y-93541155D01*
X138000499Y-93541153D01*
X137969738Y-93386510D01*
X137969738Y-93386508D01*
X137969737Y-93386503D01*
X137936716Y-93306782D01*
X137909397Y-93240827D01*
X137909390Y-93240814D01*
X137821789Y-93109711D01*
X137821786Y-93109707D01*
X137710292Y-92998213D01*
X137710288Y-92998210D01*
X137579185Y-92910609D01*
X137579172Y-92910602D01*
X137433501Y-92850264D01*
X137433489Y-92850261D01*
X137278845Y-92819500D01*
X137278842Y-92819500D01*
X137121158Y-92819500D01*
X137121155Y-92819500D01*
X136966510Y-92850261D01*
X136966498Y-92850264D01*
X136820827Y-92910602D01*
X136820814Y-92910609D01*
X136689711Y-92998210D01*
X136689707Y-92998213D01*
X136578213Y-93109707D01*
X136578210Y-93109711D01*
X136490609Y-93240814D01*
X136490602Y-93240827D01*
X136430264Y-93386498D01*
X136430261Y-93386510D01*
X136399500Y-93541153D01*
X124723718Y-93541153D01*
X124781247Y-93483624D01*
X124916948Y-93306774D01*
X125028405Y-93113726D01*
X125113710Y-92907781D01*
X125171404Y-92692463D01*
X125171919Y-92688549D01*
X166999500Y-92688549D01*
X166999500Y-92911450D01*
X166999501Y-92911466D01*
X167028594Y-93132452D01*
X167028595Y-93132457D01*
X167028596Y-93132463D01*
X167086290Y-93347780D01*
X167086293Y-93347790D01*
X167166387Y-93541153D01*
X167171595Y-93553726D01*
X167283052Y-93746774D01*
X167283057Y-93746780D01*
X167283058Y-93746782D01*
X167418751Y-93923622D01*
X167418757Y-93923629D01*
X167576370Y-94081242D01*
X167576376Y-94081247D01*
X167753226Y-94216948D01*
X167946274Y-94328405D01*
X168152219Y-94413710D01*
X168367537Y-94471404D01*
X168588543Y-94500500D01*
X168588550Y-94500500D01*
X168811450Y-94500500D01*
X168811457Y-94500500D01*
X169032463Y-94471404D01*
X169247781Y-94413710D01*
X169453726Y-94328405D01*
X169646774Y-94216948D01*
X169823624Y-94081247D01*
X169981247Y-93923624D01*
X170116948Y-93746774D01*
X170228405Y-93553726D01*
X170313710Y-93347781D01*
X170371404Y-93132463D01*
X170400500Y-92911457D01*
X170400500Y-92688543D01*
X170371404Y-92467537D01*
X170313710Y-92252219D01*
X170228405Y-92046274D01*
X170116948Y-91853226D01*
X169981247Y-91676376D01*
X169981242Y-91676370D01*
X169823629Y-91518757D01*
X169823622Y-91518751D01*
X169646782Y-91383058D01*
X169646780Y-91383057D01*
X169646774Y-91383052D01*
X169453726Y-91271595D01*
X169453722Y-91271593D01*
X169247790Y-91186293D01*
X169247783Y-91186291D01*
X169247781Y-91186290D01*
X169032463Y-91128596D01*
X169032457Y-91128595D01*
X169032452Y-91128594D01*
X168811466Y-91099501D01*
X168811463Y-91099500D01*
X168811457Y-91099500D01*
X168588543Y-91099500D01*
X168588537Y-91099500D01*
X168588533Y-91099501D01*
X168367547Y-91128594D01*
X168367540Y-91128595D01*
X168367537Y-91128596D01*
X168152219Y-91186290D01*
X168152209Y-91186293D01*
X167946277Y-91271593D01*
X167946273Y-91271595D01*
X167753226Y-91383052D01*
X167753217Y-91383058D01*
X167576377Y-91518751D01*
X167576370Y-91518757D01*
X167418757Y-91676370D01*
X167418751Y-91676377D01*
X167283058Y-91853217D01*
X167283052Y-91853226D01*
X167171595Y-92046273D01*
X167171593Y-92046277D01*
X167086293Y-92252209D01*
X167086290Y-92252219D01*
X167028597Y-92467534D01*
X167028594Y-92467547D01*
X166999501Y-92688533D01*
X166999500Y-92688549D01*
X125171919Y-92688549D01*
X125200500Y-92471457D01*
X125200500Y-92248543D01*
X125171404Y-92027537D01*
X125113710Y-91812219D01*
X125028405Y-91606274D01*
X124916948Y-91413226D01*
X124877867Y-91362294D01*
X124781248Y-91236377D01*
X124781242Y-91236370D01*
X124623629Y-91078757D01*
X124623622Y-91078751D01*
X124446782Y-90943058D01*
X124446780Y-90943057D01*
X124446774Y-90943052D01*
X124253726Y-90831595D01*
X124253722Y-90831593D01*
X124047790Y-90746293D01*
X124047783Y-90746291D01*
X124047781Y-90746290D01*
X123832463Y-90688596D01*
X123832457Y-90688595D01*
X123832452Y-90688594D01*
X123611466Y-90659501D01*
X123611463Y-90659500D01*
X123611457Y-90659500D01*
X123388543Y-90659500D01*
X123388537Y-90659500D01*
X123388533Y-90659501D01*
X123167547Y-90688594D01*
X123167540Y-90688595D01*
X123167537Y-90688596D01*
X122952219Y-90746290D01*
X122952209Y-90746293D01*
X122746277Y-90831593D01*
X122746273Y-90831595D01*
X122553226Y-90943052D01*
X122553217Y-90943058D01*
X122376377Y-91078751D01*
X122376370Y-91078757D01*
X122218757Y-91236370D01*
X122218751Y-91236377D01*
X122083058Y-91413217D01*
X122083052Y-91413226D01*
X121971595Y-91606273D01*
X121971593Y-91606277D01*
X121886293Y-91812209D01*
X121886290Y-91812219D01*
X121828597Y-92027534D01*
X121828594Y-92027547D01*
X121799501Y-92248533D01*
X121799500Y-92248549D01*
X118100500Y-92248549D01*
X118100500Y-84421153D01*
X129399500Y-84421153D01*
X129399500Y-84578846D01*
X129430261Y-84733489D01*
X129430264Y-84733501D01*
X129490602Y-84879172D01*
X129490609Y-84879185D01*
X129578210Y-85010288D01*
X129578213Y-85010292D01*
X129689707Y-85121786D01*
X129689711Y-85121789D01*
X129820814Y-85209390D01*
X129820827Y-85209397D01*
X129966498Y-85269735D01*
X129966503Y-85269737D01*
X130121153Y-85300499D01*
X130121156Y-85300500D01*
X130121158Y-85300500D01*
X130278844Y-85300500D01*
X130278845Y-85300499D01*
X130433497Y-85269737D01*
X130579179Y-85209394D01*
X130710289Y-85121789D01*
X130821789Y-85010289D01*
X130909394Y-84879179D01*
X130969737Y-84733497D01*
X130978160Y-84691153D01*
X152049500Y-84691153D01*
X152049500Y-84848846D01*
X152080261Y-85003489D01*
X152080264Y-85003501D01*
X152140602Y-85149172D01*
X152140609Y-85149185D01*
X152228210Y-85280288D01*
X152228213Y-85280292D01*
X152339707Y-85391786D01*
X152339711Y-85391789D01*
X152470814Y-85479390D01*
X152470827Y-85479397D01*
X152616498Y-85539735D01*
X152616503Y-85539737D01*
X152771153Y-85570499D01*
X152771156Y-85570500D01*
X152771158Y-85570500D01*
X152928844Y-85570500D01*
X152928845Y-85570499D01*
X153083497Y-85539737D01*
X153229179Y-85479394D01*
X153360289Y-85391789D01*
X153471789Y-85280289D01*
X153559394Y-85149179D01*
X153619737Y-85003497D01*
X153650500Y-84848842D01*
X153650500Y-84691158D01*
X153650500Y-84691155D01*
X153650499Y-84691153D01*
X153644476Y-84660874D01*
X153619737Y-84536503D01*
X153571958Y-84421153D01*
X153559397Y-84390827D01*
X153559390Y-84390814D01*
X153471789Y-84259711D01*
X153471786Y-84259707D01*
X153360292Y-84148213D01*
X153360288Y-84148210D01*
X153229185Y-84060609D01*
X153229172Y-84060602D01*
X153083501Y-84000264D01*
X153083489Y-84000261D01*
X152928845Y-83969500D01*
X152928842Y-83969500D01*
X152771158Y-83969500D01*
X152771155Y-83969500D01*
X152616510Y-84000261D01*
X152616498Y-84000264D01*
X152470827Y-84060602D01*
X152470814Y-84060609D01*
X152339711Y-84148210D01*
X152339707Y-84148213D01*
X152228213Y-84259707D01*
X152228210Y-84259711D01*
X152140609Y-84390814D01*
X152140602Y-84390827D01*
X152080264Y-84536498D01*
X152080261Y-84536510D01*
X152049500Y-84691153D01*
X130978160Y-84691153D01*
X130984183Y-84660874D01*
X131000500Y-84578844D01*
X131000500Y-84421155D01*
X131000499Y-84421153D01*
X130994467Y-84390827D01*
X130969737Y-84266503D01*
X130920740Y-84148213D01*
X130909397Y-84120827D01*
X130909390Y-84120814D01*
X130821789Y-83989711D01*
X130821786Y-83989707D01*
X130710292Y-83878213D01*
X130710288Y-83878210D01*
X130579185Y-83790609D01*
X130579172Y-83790602D01*
X130433501Y-83730264D01*
X130433489Y-83730261D01*
X130278845Y-83699500D01*
X130278842Y-83699500D01*
X130121158Y-83699500D01*
X130121155Y-83699500D01*
X129966510Y-83730261D01*
X129966498Y-83730264D01*
X129820827Y-83790602D01*
X129820814Y-83790609D01*
X129689711Y-83878210D01*
X129689707Y-83878213D01*
X129578213Y-83989707D01*
X129578210Y-83989711D01*
X129490609Y-84120814D01*
X129490602Y-84120827D01*
X129430264Y-84266498D01*
X129430261Y-84266510D01*
X129399500Y-84421153D01*
X118100500Y-84421153D01*
X118100500Y-82421153D01*
X127399500Y-82421153D01*
X127399500Y-82578846D01*
X127430261Y-82733489D01*
X127430264Y-82733501D01*
X127490602Y-82879172D01*
X127490609Y-82879185D01*
X127578210Y-83010288D01*
X127578213Y-83010292D01*
X127689707Y-83121786D01*
X127689711Y-83121789D01*
X127820814Y-83209390D01*
X127820827Y-83209397D01*
X127966498Y-83269735D01*
X127966503Y-83269737D01*
X128121153Y-83300499D01*
X128121156Y-83300500D01*
X128121158Y-83300500D01*
X128278844Y-83300500D01*
X128278845Y-83300499D01*
X128433497Y-83269737D01*
X128579179Y-83209394D01*
X128710289Y-83121789D01*
X128821789Y-83010289D01*
X128909394Y-82879179D01*
X128969737Y-82733497D01*
X129000500Y-82578842D01*
X129000500Y-82421158D01*
X129000500Y-82421155D01*
X129000499Y-82421153D01*
X128969738Y-82266510D01*
X128969737Y-82266503D01*
X128969735Y-82266498D01*
X128909397Y-82120827D01*
X128909390Y-82120814D01*
X128821789Y-81989711D01*
X128821786Y-81989707D01*
X128710292Y-81878213D01*
X128710288Y-81878210D01*
X128579185Y-81790609D01*
X128579172Y-81790602D01*
X128433501Y-81730264D01*
X128433489Y-81730261D01*
X128278845Y-81699500D01*
X128278842Y-81699500D01*
X128121158Y-81699500D01*
X128121155Y-81699500D01*
X127966510Y-81730261D01*
X127966498Y-81730264D01*
X127820827Y-81790602D01*
X127820814Y-81790609D01*
X127689711Y-81878210D01*
X127689707Y-81878213D01*
X127578213Y-81989707D01*
X127578210Y-81989711D01*
X127490609Y-82120814D01*
X127490602Y-82120827D01*
X127430264Y-82266498D01*
X127430261Y-82266510D01*
X127399500Y-82421153D01*
X118100500Y-82421153D01*
X118100500Y-80621153D01*
X129899500Y-80621153D01*
X129899500Y-80778846D01*
X129930261Y-80933489D01*
X129930264Y-80933501D01*
X129990602Y-81079172D01*
X129990609Y-81079185D01*
X130078210Y-81210288D01*
X130078213Y-81210292D01*
X130189707Y-81321786D01*
X130189711Y-81321789D01*
X130320814Y-81409390D01*
X130320827Y-81409397D01*
X130466498Y-81469735D01*
X130466503Y-81469737D01*
X130621153Y-81500499D01*
X130621156Y-81500500D01*
X130621158Y-81500500D01*
X130778844Y-81500500D01*
X130778845Y-81500499D01*
X130933497Y-81469737D01*
X131079179Y-81409394D01*
X131210289Y-81321789D01*
X131321789Y-81210289D01*
X131409394Y-81079179D01*
X131469737Y-80933497D01*
X131500500Y-80778842D01*
X131500500Y-80621158D01*
X131500500Y-80621155D01*
X131500499Y-80621153D01*
X131469738Y-80466510D01*
X131469737Y-80466503D01*
X131469735Y-80466498D01*
X131409397Y-80320827D01*
X131409390Y-80320814D01*
X131321789Y-80189711D01*
X131321786Y-80189707D01*
X131210292Y-80078213D01*
X131210288Y-80078210D01*
X131079185Y-79990609D01*
X131079172Y-79990602D01*
X130933501Y-79930264D01*
X130933489Y-79930261D01*
X130778845Y-79899500D01*
X130778842Y-79899500D01*
X130621158Y-79899500D01*
X130621155Y-79899500D01*
X130466510Y-79930261D01*
X130466498Y-79930264D01*
X130320827Y-79990602D01*
X130320814Y-79990609D01*
X130189711Y-80078210D01*
X130189707Y-80078213D01*
X130078213Y-80189707D01*
X130078210Y-80189711D01*
X129990609Y-80320814D01*
X129990602Y-80320827D01*
X129930264Y-80466498D01*
X129930261Y-80466510D01*
X129899500Y-80621153D01*
X118100500Y-80621153D01*
X118100500Y-79321153D01*
X125599500Y-79321153D01*
X125599500Y-79478846D01*
X125630261Y-79633489D01*
X125630264Y-79633501D01*
X125690602Y-79779172D01*
X125690609Y-79779185D01*
X125778210Y-79910288D01*
X125778213Y-79910292D01*
X125889707Y-80021786D01*
X125889711Y-80021789D01*
X126020814Y-80109390D01*
X126020827Y-80109397D01*
X126166498Y-80169735D01*
X126166503Y-80169737D01*
X126321153Y-80200499D01*
X126321156Y-80200500D01*
X126321158Y-80200500D01*
X126478844Y-80200500D01*
X126478845Y-80200499D01*
X126633497Y-80169737D01*
X126779179Y-80109394D01*
X126910289Y-80021789D01*
X127021789Y-79910289D01*
X127109394Y-79779179D01*
X127169737Y-79633497D01*
X127200500Y-79478842D01*
X127200500Y-79321158D01*
X127200500Y-79321155D01*
X127200499Y-79321153D01*
X127169738Y-79166510D01*
X127169737Y-79166503D01*
X127169735Y-79166498D01*
X127109397Y-79020827D01*
X127109390Y-79020814D01*
X127021789Y-78889711D01*
X127021786Y-78889707D01*
X126910292Y-78778213D01*
X126910288Y-78778210D01*
X126779185Y-78690609D01*
X126779172Y-78690602D01*
X126633501Y-78630264D01*
X126633489Y-78630261D01*
X126478845Y-78599500D01*
X126478842Y-78599500D01*
X126321158Y-78599500D01*
X126321155Y-78599500D01*
X126166510Y-78630261D01*
X126166498Y-78630264D01*
X126020827Y-78690602D01*
X126020814Y-78690609D01*
X125889711Y-78778210D01*
X125889707Y-78778213D01*
X125778213Y-78889707D01*
X125778210Y-78889711D01*
X125690609Y-79020814D01*
X125690602Y-79020827D01*
X125630264Y-79166498D01*
X125630261Y-79166510D01*
X125599500Y-79321153D01*
X118100500Y-79321153D01*
X118100500Y-75915845D01*
X122037706Y-75915845D01*
X122166652Y-75969257D01*
X122166656Y-75969258D01*
X122321202Y-75999999D01*
X122321206Y-76000000D01*
X122478794Y-76000000D01*
X122478797Y-75999999D01*
X122633343Y-75969258D01*
X122633347Y-75969257D01*
X122762293Y-75915845D01*
X123237706Y-75915845D01*
X123366652Y-75969257D01*
X123366656Y-75969258D01*
X123521202Y-75999999D01*
X123521206Y-76000000D01*
X123678794Y-76000000D01*
X123678797Y-75999999D01*
X123833343Y-75969258D01*
X123833347Y-75969257D01*
X123962293Y-75915845D01*
X123600001Y-75553553D01*
X123600000Y-75553553D01*
X123237706Y-75915845D01*
X122762293Y-75915845D01*
X122400001Y-75553553D01*
X122400000Y-75553553D01*
X122037706Y-75915845D01*
X118100500Y-75915845D01*
X118100500Y-75121202D01*
X121600000Y-75121202D01*
X121600000Y-75278797D01*
X121630741Y-75433343D01*
X121630743Y-75433351D01*
X121684153Y-75562293D01*
X122046446Y-75200001D01*
X122046446Y-75199999D01*
X122016610Y-75170163D01*
X122250000Y-75170163D01*
X122250000Y-75229837D01*
X122272836Y-75284968D01*
X122315032Y-75327164D01*
X122370163Y-75350000D01*
X122429837Y-75350000D01*
X122484968Y-75327164D01*
X122527164Y-75284968D01*
X122550000Y-75229837D01*
X122550000Y-75199999D01*
X122753553Y-75199999D01*
X123000000Y-75446446D01*
X123246446Y-75200001D01*
X123246446Y-75200000D01*
X123216609Y-75170163D01*
X123450000Y-75170163D01*
X123450000Y-75229837D01*
X123472836Y-75284968D01*
X123515032Y-75327164D01*
X123570163Y-75350000D01*
X123629837Y-75350000D01*
X123684968Y-75327164D01*
X123727164Y-75284968D01*
X123750000Y-75229837D01*
X123750000Y-75199999D01*
X123953553Y-75199999D01*
X123953553Y-75200001D01*
X124315845Y-75562293D01*
X124369257Y-75433347D01*
X124369258Y-75433343D01*
X124399999Y-75278797D01*
X124400000Y-75278794D01*
X124400000Y-75121206D01*
X124399999Y-75121202D01*
X124369258Y-74966656D01*
X124369257Y-74966652D01*
X124315845Y-74837706D01*
X123953553Y-75199999D01*
X123750000Y-75199999D01*
X123750000Y-75170163D01*
X123727164Y-75115032D01*
X123684968Y-75072836D01*
X123629837Y-75050000D01*
X123570163Y-75050000D01*
X123515032Y-75072836D01*
X123472836Y-75115032D01*
X123450000Y-75170163D01*
X123216609Y-75170163D01*
X123000000Y-74953553D01*
X122753553Y-75199999D01*
X122550000Y-75199999D01*
X122550000Y-75170163D01*
X122527164Y-75115032D01*
X122484968Y-75072836D01*
X122429837Y-75050000D01*
X122370163Y-75050000D01*
X122315032Y-75072836D01*
X122272836Y-75115032D01*
X122250000Y-75170163D01*
X122016610Y-75170163D01*
X121684153Y-74837705D01*
X121630743Y-74966648D01*
X121630741Y-74966656D01*
X121600000Y-75121202D01*
X118100500Y-75121202D01*
X118100500Y-74649999D01*
X122203553Y-74649999D01*
X122400000Y-74846446D01*
X122596446Y-74650001D01*
X122596446Y-74650000D01*
X122596445Y-74649999D01*
X123403553Y-74649999D01*
X123600000Y-74846446D01*
X123796446Y-74650001D01*
X123796446Y-74650000D01*
X123600000Y-74453553D01*
X123403553Y-74649999D01*
X122596445Y-74649999D01*
X122400000Y-74453553D01*
X122203553Y-74649999D01*
X118100500Y-74649999D01*
X118100500Y-74021202D01*
X121600000Y-74021202D01*
X121600000Y-74178797D01*
X121630741Y-74333343D01*
X121630743Y-74333351D01*
X121684153Y-74462293D01*
X122046446Y-74100001D01*
X122046446Y-74099999D01*
X122016610Y-74070163D01*
X122250000Y-74070163D01*
X122250000Y-74129837D01*
X122272836Y-74184968D01*
X122315032Y-74227164D01*
X122370163Y-74250000D01*
X122429837Y-74250000D01*
X122484968Y-74227164D01*
X122527164Y-74184968D01*
X122550000Y-74129837D01*
X122550000Y-74099999D01*
X122753553Y-74099999D01*
X123000000Y-74346446D01*
X123246446Y-74100001D01*
X123246446Y-74100000D01*
X123216609Y-74070163D01*
X123450000Y-74070163D01*
X123450000Y-74129837D01*
X123472836Y-74184968D01*
X123515032Y-74227164D01*
X123570163Y-74250000D01*
X123629837Y-74250000D01*
X123684968Y-74227164D01*
X123727164Y-74184968D01*
X123750000Y-74129837D01*
X123750000Y-74099999D01*
X123953553Y-74099999D01*
X123953553Y-74100001D01*
X124315845Y-74462293D01*
X124369257Y-74333347D01*
X124369258Y-74333343D01*
X124399999Y-74178797D01*
X124400000Y-74178794D01*
X124400000Y-74021206D01*
X124399999Y-74021202D01*
X124369258Y-73866656D01*
X124369257Y-73866652D01*
X124315845Y-73737706D01*
X123953553Y-74099999D01*
X123750000Y-74099999D01*
X123750000Y-74070163D01*
X123727164Y-74015032D01*
X123684968Y-73972836D01*
X123629837Y-73950000D01*
X123570163Y-73950000D01*
X123515032Y-73972836D01*
X123472836Y-74015032D01*
X123450000Y-74070163D01*
X123216609Y-74070163D01*
X123000000Y-73853553D01*
X122753553Y-74099999D01*
X122550000Y-74099999D01*
X122550000Y-74070163D01*
X122527164Y-74015032D01*
X122484968Y-73972836D01*
X122429837Y-73950000D01*
X122370163Y-73950000D01*
X122315032Y-73972836D01*
X122272836Y-74015032D01*
X122250000Y-74070163D01*
X122016610Y-74070163D01*
X121684153Y-73737705D01*
X121630743Y-73866648D01*
X121630741Y-73866656D01*
X121600000Y-74021202D01*
X118100500Y-74021202D01*
X118100500Y-73450000D01*
X122103553Y-73450000D01*
X122400000Y-73746446D01*
X122400001Y-73746446D01*
X122696446Y-73450001D01*
X122696446Y-73450000D01*
X123303553Y-73450000D01*
X123600000Y-73746446D01*
X123600001Y-73746446D01*
X123896446Y-73450001D01*
X123896446Y-73449999D01*
X123600001Y-73153553D01*
X123600000Y-73153553D01*
X123303553Y-73450000D01*
X122696446Y-73450000D01*
X122696446Y-73449999D01*
X122400001Y-73153553D01*
X122400000Y-73153553D01*
X122103553Y-73450000D01*
X118100500Y-73450000D01*
X118100500Y-72721202D01*
X121600000Y-72721202D01*
X121600000Y-72878797D01*
X121630741Y-73033343D01*
X121630743Y-73033351D01*
X121684153Y-73162293D01*
X122046446Y-72800001D01*
X122046446Y-72799999D01*
X122016610Y-72770163D01*
X122250000Y-72770163D01*
X122250000Y-72829837D01*
X122272836Y-72884968D01*
X122315032Y-72927164D01*
X122370163Y-72950000D01*
X122429837Y-72950000D01*
X122484968Y-72927164D01*
X122527164Y-72884968D01*
X122550000Y-72829837D01*
X122550000Y-72799999D01*
X122753553Y-72799999D01*
X123000000Y-73046446D01*
X123246446Y-72800001D01*
X123246446Y-72800000D01*
X123216609Y-72770163D01*
X123450000Y-72770163D01*
X123450000Y-72829837D01*
X123472836Y-72884968D01*
X123515032Y-72927164D01*
X123570163Y-72950000D01*
X123629837Y-72950000D01*
X123684968Y-72927164D01*
X123727164Y-72884968D01*
X123750000Y-72829837D01*
X123750000Y-72799999D01*
X123953553Y-72799999D01*
X123953553Y-72800001D01*
X124315845Y-73162293D01*
X124369257Y-73033347D01*
X124369258Y-73033343D01*
X124399999Y-72878797D01*
X124400000Y-72878794D01*
X124400000Y-72721206D01*
X124399999Y-72721202D01*
X124369258Y-72566656D01*
X124369257Y-72566652D01*
X124315845Y-72437706D01*
X123953553Y-72799999D01*
X123750000Y-72799999D01*
X123750000Y-72770163D01*
X123727164Y-72715032D01*
X123684968Y-72672836D01*
X123629837Y-72650000D01*
X123570163Y-72650000D01*
X123515032Y-72672836D01*
X123472836Y-72715032D01*
X123450000Y-72770163D01*
X123216609Y-72770163D01*
X123000000Y-72553553D01*
X122753553Y-72799999D01*
X122550000Y-72799999D01*
X122550000Y-72770163D01*
X122527164Y-72715032D01*
X122484968Y-72672836D01*
X122429837Y-72650000D01*
X122370163Y-72650000D01*
X122315032Y-72672836D01*
X122272836Y-72715032D01*
X122250000Y-72770163D01*
X122016610Y-72770163D01*
X121684153Y-72437705D01*
X121630743Y-72566648D01*
X121630741Y-72566656D01*
X121600000Y-72721202D01*
X118100500Y-72721202D01*
X118100500Y-72199999D01*
X122153553Y-72199999D01*
X122400000Y-72446446D01*
X122646446Y-72200001D01*
X122646446Y-72200000D01*
X122646445Y-72199999D01*
X123353553Y-72199999D01*
X123600000Y-72446446D01*
X123846446Y-72200001D01*
X123846446Y-72200000D01*
X123600000Y-71953553D01*
X123353553Y-72199999D01*
X122646445Y-72199999D01*
X122400000Y-71953553D01*
X122153553Y-72199999D01*
X118100500Y-72199999D01*
X118100500Y-71521202D01*
X121600000Y-71521202D01*
X121600000Y-71678797D01*
X121630741Y-71833343D01*
X121630743Y-71833351D01*
X121684153Y-71962293D01*
X122046446Y-71600001D01*
X122046446Y-71599999D01*
X122016610Y-71570163D01*
X122250000Y-71570163D01*
X122250000Y-71629837D01*
X122272836Y-71684968D01*
X122315032Y-71727164D01*
X122370163Y-71750000D01*
X122429837Y-71750000D01*
X122484968Y-71727164D01*
X122527164Y-71684968D01*
X122550000Y-71629837D01*
X122550000Y-71599999D01*
X122753553Y-71599999D01*
X123000000Y-71846446D01*
X123246446Y-71600001D01*
X123246446Y-71600000D01*
X123216609Y-71570163D01*
X123450000Y-71570163D01*
X123450000Y-71629837D01*
X123472836Y-71684968D01*
X123515032Y-71727164D01*
X123570163Y-71750000D01*
X123629837Y-71750000D01*
X123684968Y-71727164D01*
X123727164Y-71684968D01*
X123750000Y-71629837D01*
X123750000Y-71599999D01*
X123953553Y-71599999D01*
X123953553Y-71600001D01*
X124315845Y-71962293D01*
X124369257Y-71833347D01*
X124369258Y-71833343D01*
X124399999Y-71678797D01*
X124400000Y-71678794D01*
X124400000Y-71521206D01*
X124399999Y-71521202D01*
X124369258Y-71366656D01*
X124369257Y-71366652D01*
X124315845Y-71237706D01*
X123953553Y-71599999D01*
X123750000Y-71599999D01*
X123750000Y-71570163D01*
X123727164Y-71515032D01*
X123684968Y-71472836D01*
X123629837Y-71450000D01*
X123570163Y-71450000D01*
X123515032Y-71472836D01*
X123472836Y-71515032D01*
X123450000Y-71570163D01*
X123216609Y-71570163D01*
X123000000Y-71353553D01*
X122753553Y-71599999D01*
X122550000Y-71599999D01*
X122550000Y-71570163D01*
X122527164Y-71515032D01*
X122484968Y-71472836D01*
X122429837Y-71450000D01*
X122370163Y-71450000D01*
X122315032Y-71472836D01*
X122272836Y-71515032D01*
X122250000Y-71570163D01*
X122016610Y-71570163D01*
X121684153Y-71237705D01*
X121630743Y-71366648D01*
X121630741Y-71366656D01*
X121600000Y-71521202D01*
X118100500Y-71521202D01*
X118100500Y-70884153D01*
X122037705Y-70884153D01*
X122400000Y-71246446D01*
X122400001Y-71246446D01*
X122762293Y-70884153D01*
X123237705Y-70884153D01*
X123600000Y-71246446D01*
X123600001Y-71246446D01*
X123962293Y-70884153D01*
X123833351Y-70830743D01*
X123833343Y-70830741D01*
X123678797Y-70800000D01*
X123521202Y-70800000D01*
X123366656Y-70830741D01*
X123366648Y-70830743D01*
X123237705Y-70884153D01*
X122762293Y-70884153D01*
X122633351Y-70830743D01*
X122633343Y-70830741D01*
X122478797Y-70800000D01*
X122321202Y-70800000D01*
X122166656Y-70830741D01*
X122166648Y-70830743D01*
X122037705Y-70884153D01*
X118100500Y-70884153D01*
X118100500Y-70087513D01*
X128200000Y-70087513D01*
X128200000Y-71137500D01*
X129599999Y-71137500D01*
X129574979Y-71197902D01*
X129550000Y-71323481D01*
X129550000Y-71451519D01*
X129574979Y-71577098D01*
X129599999Y-71637500D01*
X128200001Y-71637500D01*
X128200001Y-72687486D01*
X128210494Y-72790196D01*
X128210494Y-72790198D01*
X128265640Y-72956619D01*
X128265645Y-72956630D01*
X128357680Y-73105840D01*
X128357683Y-73105844D01*
X128481655Y-73229816D01*
X128481659Y-73229819D01*
X128630869Y-73321854D01*
X128630880Y-73321859D01*
X128797302Y-73377005D01*
X128900020Y-73387499D01*
X129949999Y-73387499D01*
X129950000Y-73387498D01*
X129950000Y-71987501D01*
X130010402Y-72012521D01*
X130135981Y-72037500D01*
X130264019Y-72037500D01*
X130389598Y-72012521D01*
X130450000Y-71987501D01*
X130450000Y-73387499D01*
X131499972Y-73387499D01*
X131499986Y-73387498D01*
X131602696Y-73377005D01*
X131602698Y-73377005D01*
X131769119Y-73321859D01*
X131769130Y-73321854D01*
X131918340Y-73229819D01*
X131918344Y-73229816D01*
X132042316Y-73105844D01*
X132042319Y-73105840D01*
X132134354Y-72956630D01*
X132134359Y-72956619D01*
X132189505Y-72790197D01*
X132199999Y-72687486D01*
X132200000Y-72687473D01*
X132200000Y-71637500D01*
X130800001Y-71637500D01*
X130825021Y-71577098D01*
X130850000Y-71451519D01*
X130850000Y-71323481D01*
X130836651Y-71256372D01*
X133199500Y-71256372D01*
X133199500Y-71518627D01*
X133210214Y-71600000D01*
X133233730Y-71778616D01*
X133301602Y-72031918D01*
X133301605Y-72031928D01*
X133401953Y-72274190D01*
X133401958Y-72274200D01*
X133533075Y-72501303D01*
X133692718Y-72709351D01*
X133692726Y-72709360D01*
X133878140Y-72894774D01*
X133878148Y-72894781D01*
X134086196Y-73054424D01*
X134313299Y-73185541D01*
X134313309Y-73185546D01*
X134555571Y-73285894D01*
X134555581Y-73285898D01*
X134808884Y-73353770D01*
X135057188Y-73386460D01*
X135065074Y-73387499D01*
X135068880Y-73388000D01*
X135068887Y-73388000D01*
X135331113Y-73388000D01*
X135331120Y-73388000D01*
X135591116Y-73353770D01*
X135844419Y-73285898D01*
X136086697Y-73185543D01*
X136313803Y-73054424D01*
X136521851Y-72894782D01*
X136521855Y-72894777D01*
X136521860Y-72894774D01*
X136707274Y-72709360D01*
X136707277Y-72709355D01*
X136707282Y-72709351D01*
X136866924Y-72501303D01*
X136998043Y-72274197D01*
X137098398Y-72031919D01*
X137166270Y-71778616D01*
X137200500Y-71518620D01*
X137200500Y-71256380D01*
X137166270Y-70996384D01*
X137098398Y-70743081D01*
X137096086Y-70737500D01*
X136998046Y-70500809D01*
X136998041Y-70500799D01*
X136866924Y-70273696D01*
X136707281Y-70065648D01*
X136707274Y-70065640D01*
X136521860Y-69880226D01*
X136521851Y-69880218D01*
X136313803Y-69720575D01*
X136086700Y-69589458D01*
X136086690Y-69589453D01*
X135844428Y-69489105D01*
X135844421Y-69489103D01*
X135844419Y-69489102D01*
X135591116Y-69421230D01*
X135533339Y-69413623D01*
X135331127Y-69387000D01*
X135331120Y-69387000D01*
X135068880Y-69387000D01*
X135068872Y-69387000D01*
X134837772Y-69417426D01*
X134808884Y-69421230D01*
X134555581Y-69489102D01*
X134555571Y-69489105D01*
X134313309Y-69589453D01*
X134313299Y-69589458D01*
X134086196Y-69720575D01*
X133878148Y-69880218D01*
X133692718Y-70065648D01*
X133533075Y-70273696D01*
X133401958Y-70500799D01*
X133401953Y-70500809D01*
X133301605Y-70743071D01*
X133301602Y-70743081D01*
X133233730Y-70996385D01*
X133199500Y-71256372D01*
X130836651Y-71256372D01*
X130825021Y-71197902D01*
X130800001Y-71137500D01*
X132199999Y-71137500D01*
X132199999Y-70087528D01*
X132199998Y-70087513D01*
X132189505Y-69984803D01*
X132189505Y-69984801D01*
X132134359Y-69818380D01*
X132134354Y-69818369D01*
X132042319Y-69669159D01*
X132042316Y-69669155D01*
X131918344Y-69545183D01*
X131918340Y-69545180D01*
X131769130Y-69453145D01*
X131769119Y-69453140D01*
X131602697Y-69397994D01*
X131499986Y-69387500D01*
X130450000Y-69387500D01*
X130450000Y-70787498D01*
X130389598Y-70762479D01*
X130264019Y-70737500D01*
X130135981Y-70737500D01*
X130010402Y-70762479D01*
X129950000Y-70787498D01*
X129950000Y-69387500D01*
X128900028Y-69387500D01*
X128900012Y-69387501D01*
X128797303Y-69397994D01*
X128797301Y-69397994D01*
X128630880Y-69453140D01*
X128630869Y-69453145D01*
X128481659Y-69545180D01*
X128481655Y-69545183D01*
X128357683Y-69669155D01*
X128357680Y-69669159D01*
X128265645Y-69818369D01*
X128265640Y-69818380D01*
X128210494Y-69984802D01*
X128200000Y-70087513D01*
X118100500Y-70087513D01*
X118100500Y-64844500D01*
X118120185Y-64777461D01*
X118172989Y-64731706D01*
X118224500Y-64720500D01*
X172975500Y-64720500D01*
X173042539Y-64740185D01*
G37*
%TD.AperFunction*%
%TD*%
M02*
