%TF.GenerationSoftware,KiCad,Pcbnew,10.0.5*%
%TF.CreationDate,2026-09-27T19:02:26+05:30*%
%TF.ProjectId,STM32 GPS Tracker,53544d33-3220-4475-9053-20547261636b,rev?*%
%TF.SameCoordinates,Original*%
%TF.FileFunction,Legend,Bot*%
%TF.FilePolarity,Positive*%
%FSLAX46Y46*%
G04 Gerber Fmt 4.6, Leading zero omitted, Abs format (unit mm)*
G04 Created by KiCad (PCBNEW 10.0.5) date 2026-09-27 19:02:26*
%MOMM*%
%LPD*%
G01*
G04 APERTURE LIST*
%ADD10C,0.150000*%
%ADD11C,0.400000*%
%ADD12C,0.200000*%
%ADD13C,0.120000*%
%ADD14C,0.152400*%
%ADD15C,0.127000*%
G04 APERTURE END LIST*
D10*
X157469819Y-113036666D02*
X158184104Y-113036666D01*
X158184104Y-113036666D02*
X158326961Y-112989047D01*
X158326961Y-112989047D02*
X158422200Y-112893809D01*
X158422200Y-112893809D02*
X158469819Y-112750952D01*
X158469819Y-112750952D02*
X158469819Y-112655714D01*
X157565057Y-113465238D02*
X157517438Y-113512857D01*
X157517438Y-113512857D02*
X157469819Y-113608095D01*
X157469819Y-113608095D02*
X157469819Y-113846190D01*
X157469819Y-113846190D02*
X157517438Y-113941428D01*
X157517438Y-113941428D02*
X157565057Y-113989047D01*
X157565057Y-113989047D02*
X157660295Y-114036666D01*
X157660295Y-114036666D02*
X157755533Y-114036666D01*
X157755533Y-114036666D02*
X157898390Y-113989047D01*
X157898390Y-113989047D02*
X158469819Y-113417619D01*
X158469819Y-113417619D02*
X158469819Y-114036666D01*
X135999580Y-103353333D02*
X136047200Y-103305714D01*
X136047200Y-103305714D02*
X136094819Y-103162857D01*
X136094819Y-103162857D02*
X136094819Y-103067619D01*
X136094819Y-103067619D02*
X136047200Y-102924762D01*
X136047200Y-102924762D02*
X135951961Y-102829524D01*
X135951961Y-102829524D02*
X135856723Y-102781905D01*
X135856723Y-102781905D02*
X135666247Y-102734286D01*
X135666247Y-102734286D02*
X135523390Y-102734286D01*
X135523390Y-102734286D02*
X135332914Y-102781905D01*
X135332914Y-102781905D02*
X135237676Y-102829524D01*
X135237676Y-102829524D02*
X135142438Y-102924762D01*
X135142438Y-102924762D02*
X135094819Y-103067619D01*
X135094819Y-103067619D02*
X135094819Y-103162857D01*
X135094819Y-103162857D02*
X135142438Y-103305714D01*
X135142438Y-103305714D02*
X135190057Y-103353333D01*
X135094819Y-104210476D02*
X135094819Y-104020000D01*
X135094819Y-104020000D02*
X135142438Y-103924762D01*
X135142438Y-103924762D02*
X135190057Y-103877143D01*
X135190057Y-103877143D02*
X135332914Y-103781905D01*
X135332914Y-103781905D02*
X135523390Y-103734286D01*
X135523390Y-103734286D02*
X135904342Y-103734286D01*
X135904342Y-103734286D02*
X135999580Y-103781905D01*
X135999580Y-103781905D02*
X136047200Y-103829524D01*
X136047200Y-103829524D02*
X136094819Y-103924762D01*
X136094819Y-103924762D02*
X136094819Y-104115238D01*
X136094819Y-104115238D02*
X136047200Y-104210476D01*
X136047200Y-104210476D02*
X135999580Y-104258095D01*
X135999580Y-104258095D02*
X135904342Y-104305714D01*
X135904342Y-104305714D02*
X135666247Y-104305714D01*
X135666247Y-104305714D02*
X135571009Y-104258095D01*
X135571009Y-104258095D02*
X135523390Y-104210476D01*
X135523390Y-104210476D02*
X135475771Y-104115238D01*
X135475771Y-104115238D02*
X135475771Y-103924762D01*
X135475771Y-103924762D02*
X135523390Y-103829524D01*
X135523390Y-103829524D02*
X135571009Y-103781905D01*
X135571009Y-103781905D02*
X135666247Y-103734286D01*
X161639580Y-74653333D02*
X161687200Y-74605714D01*
X161687200Y-74605714D02*
X161734819Y-74462857D01*
X161734819Y-74462857D02*
X161734819Y-74367619D01*
X161734819Y-74367619D02*
X161687200Y-74224762D01*
X161687200Y-74224762D02*
X161591961Y-74129524D01*
X161591961Y-74129524D02*
X161496723Y-74081905D01*
X161496723Y-74081905D02*
X161306247Y-74034286D01*
X161306247Y-74034286D02*
X161163390Y-74034286D01*
X161163390Y-74034286D02*
X160972914Y-74081905D01*
X160972914Y-74081905D02*
X160877676Y-74129524D01*
X160877676Y-74129524D02*
X160782438Y-74224762D01*
X160782438Y-74224762D02*
X160734819Y-74367619D01*
X160734819Y-74367619D02*
X160734819Y-74462857D01*
X160734819Y-74462857D02*
X160782438Y-74605714D01*
X160782438Y-74605714D02*
X160830057Y-74653333D01*
X161734819Y-75129524D02*
X161734819Y-75320000D01*
X161734819Y-75320000D02*
X161687200Y-75415238D01*
X161687200Y-75415238D02*
X161639580Y-75462857D01*
X161639580Y-75462857D02*
X161496723Y-75558095D01*
X161496723Y-75558095D02*
X161306247Y-75605714D01*
X161306247Y-75605714D02*
X160925295Y-75605714D01*
X160925295Y-75605714D02*
X160830057Y-75558095D01*
X160830057Y-75558095D02*
X160782438Y-75510476D01*
X160782438Y-75510476D02*
X160734819Y-75415238D01*
X160734819Y-75415238D02*
X160734819Y-75224762D01*
X160734819Y-75224762D02*
X160782438Y-75129524D01*
X160782438Y-75129524D02*
X160830057Y-75081905D01*
X160830057Y-75081905D02*
X160925295Y-75034286D01*
X160925295Y-75034286D02*
X161163390Y-75034286D01*
X161163390Y-75034286D02*
X161258628Y-75081905D01*
X161258628Y-75081905D02*
X161306247Y-75129524D01*
X161306247Y-75129524D02*
X161353866Y-75224762D01*
X161353866Y-75224762D02*
X161353866Y-75415238D01*
X161353866Y-75415238D02*
X161306247Y-75510476D01*
X161306247Y-75510476D02*
X161258628Y-75558095D01*
X161258628Y-75558095D02*
X161163390Y-75605714D01*
X144384819Y-103343333D02*
X143908628Y-103010000D01*
X144384819Y-102771905D02*
X143384819Y-102771905D01*
X143384819Y-102771905D02*
X143384819Y-103152857D01*
X143384819Y-103152857D02*
X143432438Y-103248095D01*
X143432438Y-103248095D02*
X143480057Y-103295714D01*
X143480057Y-103295714D02*
X143575295Y-103343333D01*
X143575295Y-103343333D02*
X143718152Y-103343333D01*
X143718152Y-103343333D02*
X143813390Y-103295714D01*
X143813390Y-103295714D02*
X143861009Y-103248095D01*
X143861009Y-103248095D02*
X143908628Y-103152857D01*
X143908628Y-103152857D02*
X143908628Y-102771905D01*
X143480057Y-103724286D02*
X143432438Y-103771905D01*
X143432438Y-103771905D02*
X143384819Y-103867143D01*
X143384819Y-103867143D02*
X143384819Y-104105238D01*
X143384819Y-104105238D02*
X143432438Y-104200476D01*
X143432438Y-104200476D02*
X143480057Y-104248095D01*
X143480057Y-104248095D02*
X143575295Y-104295714D01*
X143575295Y-104295714D02*
X143670533Y-104295714D01*
X143670533Y-104295714D02*
X143813390Y-104248095D01*
X143813390Y-104248095D02*
X144384819Y-103676667D01*
X144384819Y-103676667D02*
X144384819Y-104295714D01*
X162766666Y-95429580D02*
X162814285Y-95477200D01*
X162814285Y-95477200D02*
X162957142Y-95524819D01*
X162957142Y-95524819D02*
X163052380Y-95524819D01*
X163052380Y-95524819D02*
X163195237Y-95477200D01*
X163195237Y-95477200D02*
X163290475Y-95381961D01*
X163290475Y-95381961D02*
X163338094Y-95286723D01*
X163338094Y-95286723D02*
X163385713Y-95096247D01*
X163385713Y-95096247D02*
X163385713Y-94953390D01*
X163385713Y-94953390D02*
X163338094Y-94762914D01*
X163338094Y-94762914D02*
X163290475Y-94667676D01*
X163290475Y-94667676D02*
X163195237Y-94572438D01*
X163195237Y-94572438D02*
X163052380Y-94524819D01*
X163052380Y-94524819D02*
X162957142Y-94524819D01*
X162957142Y-94524819D02*
X162814285Y-94572438D01*
X162814285Y-94572438D02*
X162766666Y-94620057D01*
X161861904Y-94524819D02*
X162338094Y-94524819D01*
X162338094Y-94524819D02*
X162385713Y-95001009D01*
X162385713Y-95001009D02*
X162338094Y-94953390D01*
X162338094Y-94953390D02*
X162242856Y-94905771D01*
X162242856Y-94905771D02*
X162004761Y-94905771D01*
X162004761Y-94905771D02*
X161909523Y-94953390D01*
X161909523Y-94953390D02*
X161861904Y-95001009D01*
X161861904Y-95001009D02*
X161814285Y-95096247D01*
X161814285Y-95096247D02*
X161814285Y-95334342D01*
X161814285Y-95334342D02*
X161861904Y-95429580D01*
X161861904Y-95429580D02*
X161909523Y-95477200D01*
X161909523Y-95477200D02*
X162004761Y-95524819D01*
X162004761Y-95524819D02*
X162242856Y-95524819D01*
X162242856Y-95524819D02*
X162338094Y-95477200D01*
X162338094Y-95477200D02*
X162385713Y-95429580D01*
X138150114Y-105052169D02*
X138150114Y-105861692D01*
X138150114Y-105861692D02*
X138102495Y-105956930D01*
X138102495Y-105956930D02*
X138054876Y-106004550D01*
X138054876Y-106004550D02*
X137959638Y-106052169D01*
X137959638Y-106052169D02*
X137769162Y-106052169D01*
X137769162Y-106052169D02*
X137673924Y-106004550D01*
X137673924Y-106004550D02*
X137626305Y-105956930D01*
X137626305Y-105956930D02*
X137578686Y-105861692D01*
X137578686Y-105861692D02*
X137578686Y-105052169D01*
X137197733Y-105052169D02*
X136578686Y-105052169D01*
X136578686Y-105052169D02*
X136912019Y-105433121D01*
X136912019Y-105433121D02*
X136769162Y-105433121D01*
X136769162Y-105433121D02*
X136673924Y-105480740D01*
X136673924Y-105480740D02*
X136626305Y-105528359D01*
X136626305Y-105528359D02*
X136578686Y-105623597D01*
X136578686Y-105623597D02*
X136578686Y-105861692D01*
X136578686Y-105861692D02*
X136626305Y-105956930D01*
X136626305Y-105956930D02*
X136673924Y-106004550D01*
X136673924Y-106004550D02*
X136769162Y-106052169D01*
X136769162Y-106052169D02*
X137054876Y-106052169D01*
X137054876Y-106052169D02*
X137150114Y-106004550D01*
X137150114Y-106004550D02*
X137197733Y-105956930D01*
X167755594Y-85074819D02*
X167755594Y-84074819D01*
X167755594Y-84074819D02*
X167517499Y-84074819D01*
X167517499Y-84074819D02*
X167374642Y-84122438D01*
X167374642Y-84122438D02*
X167279404Y-84217676D01*
X167279404Y-84217676D02*
X167231785Y-84312914D01*
X167231785Y-84312914D02*
X167184166Y-84503390D01*
X167184166Y-84503390D02*
X167184166Y-84646247D01*
X167184166Y-84646247D02*
X167231785Y-84836723D01*
X167231785Y-84836723D02*
X167279404Y-84931961D01*
X167279404Y-84931961D02*
X167374642Y-85027200D01*
X167374642Y-85027200D02*
X167517499Y-85074819D01*
X167517499Y-85074819D02*
X167755594Y-85074819D01*
X166231785Y-85074819D02*
X166803213Y-85074819D01*
X166517499Y-85074819D02*
X166517499Y-84074819D01*
X166517499Y-84074819D02*
X166612737Y-84217676D01*
X166612737Y-84217676D02*
X166707975Y-84312914D01*
X166707975Y-84312914D02*
X166803213Y-84360533D01*
X138484819Y-103343333D02*
X138008628Y-103010000D01*
X138484819Y-102771905D02*
X137484819Y-102771905D01*
X137484819Y-102771905D02*
X137484819Y-103152857D01*
X137484819Y-103152857D02*
X137532438Y-103248095D01*
X137532438Y-103248095D02*
X137580057Y-103295714D01*
X137580057Y-103295714D02*
X137675295Y-103343333D01*
X137675295Y-103343333D02*
X137818152Y-103343333D01*
X137818152Y-103343333D02*
X137913390Y-103295714D01*
X137913390Y-103295714D02*
X137961009Y-103248095D01*
X137961009Y-103248095D02*
X138008628Y-103152857D01*
X138008628Y-103152857D02*
X138008628Y-102771905D01*
X137484819Y-103676667D02*
X137484819Y-104295714D01*
X137484819Y-104295714D02*
X137865771Y-103962381D01*
X137865771Y-103962381D02*
X137865771Y-104105238D01*
X137865771Y-104105238D02*
X137913390Y-104200476D01*
X137913390Y-104200476D02*
X137961009Y-104248095D01*
X137961009Y-104248095D02*
X138056247Y-104295714D01*
X138056247Y-104295714D02*
X138294342Y-104295714D01*
X138294342Y-104295714D02*
X138389580Y-104248095D01*
X138389580Y-104248095D02*
X138437200Y-104200476D01*
X138437200Y-104200476D02*
X138484819Y-104105238D01*
X138484819Y-104105238D02*
X138484819Y-103819524D01*
X138484819Y-103819524D02*
X138437200Y-103724286D01*
X138437200Y-103724286D02*
X138389580Y-103676667D01*
X154121666Y-72470866D02*
X154121666Y-73604200D01*
X154121666Y-73604200D02*
X154055000Y-73737533D01*
X154055000Y-73737533D02*
X153988333Y-73804200D01*
X153988333Y-73804200D02*
X153855000Y-73870866D01*
X153855000Y-73870866D02*
X153588333Y-73870866D01*
X153588333Y-73870866D02*
X153455000Y-73804200D01*
X153455000Y-73804200D02*
X153388333Y-73737533D01*
X153388333Y-73737533D02*
X153321666Y-73604200D01*
X153321666Y-73604200D02*
X153321666Y-72470866D01*
X152721666Y-72604200D02*
X152654999Y-72537533D01*
X152654999Y-72537533D02*
X152521666Y-72470866D01*
X152521666Y-72470866D02*
X152188333Y-72470866D01*
X152188333Y-72470866D02*
X152054999Y-72537533D01*
X152054999Y-72537533D02*
X151988333Y-72604200D01*
X151988333Y-72604200D02*
X151921666Y-72737533D01*
X151921666Y-72737533D02*
X151921666Y-72870866D01*
X151921666Y-72870866D02*
X151988333Y-73070866D01*
X151988333Y-73070866D02*
X152788333Y-73870866D01*
X152788333Y-73870866D02*
X151921666Y-73870866D01*
X167266666Y-82679580D02*
X167314285Y-82727200D01*
X167314285Y-82727200D02*
X167457142Y-82774819D01*
X167457142Y-82774819D02*
X167552380Y-82774819D01*
X167552380Y-82774819D02*
X167695237Y-82727200D01*
X167695237Y-82727200D02*
X167790475Y-82631961D01*
X167790475Y-82631961D02*
X167838094Y-82536723D01*
X167838094Y-82536723D02*
X167885713Y-82346247D01*
X167885713Y-82346247D02*
X167885713Y-82203390D01*
X167885713Y-82203390D02*
X167838094Y-82012914D01*
X167838094Y-82012914D02*
X167790475Y-81917676D01*
X167790475Y-81917676D02*
X167695237Y-81822438D01*
X167695237Y-81822438D02*
X167552380Y-81774819D01*
X167552380Y-81774819D02*
X167457142Y-81774819D01*
X167457142Y-81774819D02*
X167314285Y-81822438D01*
X167314285Y-81822438D02*
X167266666Y-81870057D01*
X166933332Y-81774819D02*
X166314285Y-81774819D01*
X166314285Y-81774819D02*
X166647618Y-82155771D01*
X166647618Y-82155771D02*
X166504761Y-82155771D01*
X166504761Y-82155771D02*
X166409523Y-82203390D01*
X166409523Y-82203390D02*
X166361904Y-82251009D01*
X166361904Y-82251009D02*
X166314285Y-82346247D01*
X166314285Y-82346247D02*
X166314285Y-82584342D01*
X166314285Y-82584342D02*
X166361904Y-82679580D01*
X166361904Y-82679580D02*
X166409523Y-82727200D01*
X166409523Y-82727200D02*
X166504761Y-82774819D01*
X166504761Y-82774819D02*
X166790475Y-82774819D01*
X166790475Y-82774819D02*
X166885713Y-82727200D01*
X166885713Y-82727200D02*
X166933332Y-82679580D01*
X134299580Y-106653333D02*
X134347200Y-106605714D01*
X134347200Y-106605714D02*
X134394819Y-106462857D01*
X134394819Y-106462857D02*
X134394819Y-106367619D01*
X134394819Y-106367619D02*
X134347200Y-106224762D01*
X134347200Y-106224762D02*
X134251961Y-106129524D01*
X134251961Y-106129524D02*
X134156723Y-106081905D01*
X134156723Y-106081905D02*
X133966247Y-106034286D01*
X133966247Y-106034286D02*
X133823390Y-106034286D01*
X133823390Y-106034286D02*
X133632914Y-106081905D01*
X133632914Y-106081905D02*
X133537676Y-106129524D01*
X133537676Y-106129524D02*
X133442438Y-106224762D01*
X133442438Y-106224762D02*
X133394819Y-106367619D01*
X133394819Y-106367619D02*
X133394819Y-106462857D01*
X133394819Y-106462857D02*
X133442438Y-106605714D01*
X133442438Y-106605714D02*
X133490057Y-106653333D01*
X133823390Y-107224762D02*
X133775771Y-107129524D01*
X133775771Y-107129524D02*
X133728152Y-107081905D01*
X133728152Y-107081905D02*
X133632914Y-107034286D01*
X133632914Y-107034286D02*
X133585295Y-107034286D01*
X133585295Y-107034286D02*
X133490057Y-107081905D01*
X133490057Y-107081905D02*
X133442438Y-107129524D01*
X133442438Y-107129524D02*
X133394819Y-107224762D01*
X133394819Y-107224762D02*
X133394819Y-107415238D01*
X133394819Y-107415238D02*
X133442438Y-107510476D01*
X133442438Y-107510476D02*
X133490057Y-107558095D01*
X133490057Y-107558095D02*
X133585295Y-107605714D01*
X133585295Y-107605714D02*
X133632914Y-107605714D01*
X133632914Y-107605714D02*
X133728152Y-107558095D01*
X133728152Y-107558095D02*
X133775771Y-107510476D01*
X133775771Y-107510476D02*
X133823390Y-107415238D01*
X133823390Y-107415238D02*
X133823390Y-107224762D01*
X133823390Y-107224762D02*
X133871009Y-107129524D01*
X133871009Y-107129524D02*
X133918628Y-107081905D01*
X133918628Y-107081905D02*
X134013866Y-107034286D01*
X134013866Y-107034286D02*
X134204342Y-107034286D01*
X134204342Y-107034286D02*
X134299580Y-107081905D01*
X134299580Y-107081905D02*
X134347200Y-107129524D01*
X134347200Y-107129524D02*
X134394819Y-107224762D01*
X134394819Y-107224762D02*
X134394819Y-107415238D01*
X134394819Y-107415238D02*
X134347200Y-107510476D01*
X134347200Y-107510476D02*
X134299580Y-107558095D01*
X134299580Y-107558095D02*
X134204342Y-107605714D01*
X134204342Y-107605714D02*
X134013866Y-107605714D01*
X134013866Y-107605714D02*
X133918628Y-107558095D01*
X133918628Y-107558095D02*
X133871009Y-107510476D01*
X133871009Y-107510476D02*
X133823390Y-107415238D01*
X149524819Y-103353333D02*
X149048628Y-103020000D01*
X149524819Y-102781905D02*
X148524819Y-102781905D01*
X148524819Y-102781905D02*
X148524819Y-103162857D01*
X148524819Y-103162857D02*
X148572438Y-103258095D01*
X148572438Y-103258095D02*
X148620057Y-103305714D01*
X148620057Y-103305714D02*
X148715295Y-103353333D01*
X148715295Y-103353333D02*
X148858152Y-103353333D01*
X148858152Y-103353333D02*
X148953390Y-103305714D01*
X148953390Y-103305714D02*
X149001009Y-103258095D01*
X149001009Y-103258095D02*
X149048628Y-103162857D01*
X149048628Y-103162857D02*
X149048628Y-102781905D01*
X149524819Y-104305714D02*
X149524819Y-103734286D01*
X149524819Y-104020000D02*
X148524819Y-104020000D01*
X148524819Y-104020000D02*
X148667676Y-103924762D01*
X148667676Y-103924762D02*
X148762914Y-103829524D01*
X148762914Y-103829524D02*
X148810533Y-103734286D01*
X141434819Y-103343333D02*
X140958628Y-103010000D01*
X141434819Y-102771905D02*
X140434819Y-102771905D01*
X140434819Y-102771905D02*
X140434819Y-103152857D01*
X140434819Y-103152857D02*
X140482438Y-103248095D01*
X140482438Y-103248095D02*
X140530057Y-103295714D01*
X140530057Y-103295714D02*
X140625295Y-103343333D01*
X140625295Y-103343333D02*
X140768152Y-103343333D01*
X140768152Y-103343333D02*
X140863390Y-103295714D01*
X140863390Y-103295714D02*
X140911009Y-103248095D01*
X140911009Y-103248095D02*
X140958628Y-103152857D01*
X140958628Y-103152857D02*
X140958628Y-102771905D01*
X140768152Y-104200476D02*
X141434819Y-104200476D01*
X140387200Y-103962381D02*
X141101485Y-103724286D01*
X141101485Y-103724286D02*
X141101485Y-104343333D01*
X154116990Y-67282032D02*
X154212335Y-67234359D01*
X154212335Y-67234359D02*
X154355353Y-67234359D01*
X154355353Y-67234359D02*
X154498371Y-67282032D01*
X154498371Y-67282032D02*
X154593717Y-67377377D01*
X154593717Y-67377377D02*
X154641389Y-67472723D01*
X154641389Y-67472723D02*
X154689062Y-67663413D01*
X154689062Y-67663413D02*
X154689062Y-67806431D01*
X154689062Y-67806431D02*
X154641389Y-67997122D01*
X154641389Y-67997122D02*
X154593717Y-68092467D01*
X154593717Y-68092467D02*
X154498371Y-68187813D01*
X154498371Y-68187813D02*
X154355353Y-68235485D01*
X154355353Y-68235485D02*
X154260008Y-68235485D01*
X154260008Y-68235485D02*
X154116990Y-68187813D01*
X154116990Y-68187813D02*
X154069317Y-68140140D01*
X154069317Y-68140140D02*
X154069317Y-67806431D01*
X154069317Y-67806431D02*
X154260008Y-67806431D01*
X153687936Y-68187813D02*
X153544918Y-68235485D01*
X153544918Y-68235485D02*
X153306555Y-68235485D01*
X153306555Y-68235485D02*
X153211209Y-68187813D01*
X153211209Y-68187813D02*
X153163537Y-68140140D01*
X153163537Y-68140140D02*
X153115864Y-68044795D01*
X153115864Y-68044795D02*
X153115864Y-67949449D01*
X153115864Y-67949449D02*
X153163537Y-67854104D01*
X153163537Y-67854104D02*
X153211209Y-67806431D01*
X153211209Y-67806431D02*
X153306555Y-67758759D01*
X153306555Y-67758759D02*
X153497245Y-67711086D01*
X153497245Y-67711086D02*
X153592591Y-67663413D01*
X153592591Y-67663413D02*
X153640263Y-67615741D01*
X153640263Y-67615741D02*
X153687936Y-67520395D01*
X153687936Y-67520395D02*
X153687936Y-67425050D01*
X153687936Y-67425050D02*
X153640263Y-67329705D01*
X153640263Y-67329705D02*
X153592591Y-67282032D01*
X153592591Y-67282032D02*
X153497245Y-67234359D01*
X153497245Y-67234359D02*
X153258882Y-67234359D01*
X153258882Y-67234359D02*
X153115864Y-67282032D01*
X152686810Y-68235485D02*
X152686810Y-67234359D01*
X152686810Y-67234359D02*
X152353102Y-67949449D01*
X152353102Y-67949449D02*
X152019393Y-67234359D01*
X152019393Y-67234359D02*
X152019393Y-68235485D01*
X151590339Y-67329705D02*
X151542666Y-67282032D01*
X151542666Y-67282032D02*
X151447321Y-67234359D01*
X151447321Y-67234359D02*
X151208958Y-67234359D01*
X151208958Y-67234359D02*
X151113612Y-67282032D01*
X151113612Y-67282032D02*
X151065940Y-67329705D01*
X151065940Y-67329705D02*
X151018267Y-67425050D01*
X151018267Y-67425050D02*
X151018267Y-67520395D01*
X151018267Y-67520395D02*
X151065940Y-67663413D01*
X151065940Y-67663413D02*
X151638012Y-68235485D01*
X151638012Y-68235485D02*
X151018267Y-68235485D01*
X166966666Y-80779580D02*
X167014285Y-80827200D01*
X167014285Y-80827200D02*
X167157142Y-80874819D01*
X167157142Y-80874819D02*
X167252380Y-80874819D01*
X167252380Y-80874819D02*
X167395237Y-80827200D01*
X167395237Y-80827200D02*
X167490475Y-80731961D01*
X167490475Y-80731961D02*
X167538094Y-80636723D01*
X167538094Y-80636723D02*
X167585713Y-80446247D01*
X167585713Y-80446247D02*
X167585713Y-80303390D01*
X167585713Y-80303390D02*
X167538094Y-80112914D01*
X167538094Y-80112914D02*
X167490475Y-80017676D01*
X167490475Y-80017676D02*
X167395237Y-79922438D01*
X167395237Y-79922438D02*
X167252380Y-79874819D01*
X167252380Y-79874819D02*
X167157142Y-79874819D01*
X167157142Y-79874819D02*
X167014285Y-79922438D01*
X167014285Y-79922438D02*
X166966666Y-79970057D01*
X166585713Y-79970057D02*
X166538094Y-79922438D01*
X166538094Y-79922438D02*
X166442856Y-79874819D01*
X166442856Y-79874819D02*
X166204761Y-79874819D01*
X166204761Y-79874819D02*
X166109523Y-79922438D01*
X166109523Y-79922438D02*
X166061904Y-79970057D01*
X166061904Y-79970057D02*
X166014285Y-80065295D01*
X166014285Y-80065295D02*
X166014285Y-80160533D01*
X166014285Y-80160533D02*
X166061904Y-80303390D01*
X166061904Y-80303390D02*
X166633332Y-80874819D01*
X166633332Y-80874819D02*
X166014285Y-80874819D01*
%TO.C,J2*%
D11*
X154730000Y-117270000D02*
G75*
G02*
X154530000Y-117270000I-100000J0D01*
G01*
X154530000Y-117270000D02*
G75*
G02*
X154730000Y-117270000I100000J0D01*
G01*
D12*
X156630000Y-121670000D02*
X150130000Y-121670000D01*
X156630000Y-118920000D02*
X156630000Y-121670000D01*
X156630000Y-107820000D02*
X156630000Y-105070000D01*
X156630000Y-105070000D02*
X150130000Y-105070000D01*
X152830000Y-118920000D02*
X156630000Y-118920000D01*
X152830000Y-118090000D02*
X152830000Y-118920000D01*
X152830000Y-116390000D02*
X152830000Y-115590000D01*
X152830000Y-113890000D02*
X152830000Y-112990000D01*
X152830000Y-111390000D02*
X152830000Y-107820000D01*
X152830000Y-107820000D02*
X156630000Y-107820000D01*
X145130000Y-121670000D02*
X140130000Y-121670000D01*
X141160000Y-118920000D02*
X141160000Y-118090000D01*
X141160000Y-111390000D02*
X141160000Y-107820000D01*
X141160000Y-107820000D02*
X140130000Y-107820000D01*
X140130000Y-121670000D02*
X140130000Y-118920000D01*
X140130000Y-118920000D02*
X141160000Y-118920000D01*
X140130000Y-107820000D02*
X140130000Y-105070000D01*
X140130000Y-105070000D02*
X145130000Y-105070000D01*
%TO.C,C6*%
D13*
X136440000Y-103412164D02*
X136440000Y-103627836D01*
X137160000Y-103412164D02*
X137160000Y-103627836D01*
%TO.C,C9*%
X162120000Y-70405000D02*
X166640000Y-70405000D01*
X162120000Y-78470000D02*
X162120000Y-70405000D01*
X166640000Y-70405000D02*
X166640000Y-78470000D01*
%TO.C,R2*%
X144720000Y-103356359D02*
X144720000Y-103663641D01*
X145480000Y-103356359D02*
X145480000Y-103663641D01*
%TO.C,U3*%
D14*
X137020000Y-107520000D02*
X138380000Y-107520000D01*
X138380000Y-109720000D02*
X137020000Y-109720000D01*
%TO.C,D1*%
D13*
X163080000Y-83760000D02*
X165765000Y-83760000D01*
X165765000Y-83760000D02*
X165765000Y-85680000D01*
X165765000Y-85680000D02*
X163080000Y-85680000D01*
%TO.C,R3*%
X138820000Y-103356359D02*
X138820000Y-103663641D01*
X139580000Y-103356359D02*
X139580000Y-103663641D01*
%TO.C,U2*%
D15*
X133425000Y-76045000D02*
X133425000Y-79500000D01*
X133425000Y-96740000D02*
X133425000Y-100195000D01*
X133425000Y-100195000D02*
X136880000Y-100195000D01*
X136880000Y-76045000D02*
X133425000Y-76045000D01*
X154120000Y-100195000D02*
X157575000Y-100195000D01*
X157575000Y-76045000D02*
X154120000Y-76045000D01*
X157575000Y-79500000D02*
X157575000Y-76045000D01*
X157575000Y-100195000D02*
X157575000Y-96740000D01*
D12*
X159600000Y-80120000D02*
G75*
G02*
X159400000Y-80120000I-100000J0D01*
G01*
X159400000Y-80120000D02*
G75*
G02*
X159600000Y-80120000I100000J0D01*
G01*
%TO.C,C3*%
D13*
X164807836Y-82060000D02*
X164592164Y-82060000D01*
X164807836Y-82780000D02*
X164592164Y-82780000D01*
%TO.C,C8*%
X134740000Y-106712164D02*
X134740000Y-106927836D01*
X135460000Y-106712164D02*
X135460000Y-106927836D01*
%TO.C,R1*%
X147520000Y-103673641D02*
X147520000Y-103366359D01*
X148280000Y-103673641D02*
X148280000Y-103366359D01*
%TO.C,R4*%
X141770000Y-103356359D02*
X141770000Y-103663641D01*
X142530000Y-103356359D02*
X142530000Y-103663641D01*
%TO.C,GSM2*%
D15*
X151925000Y-68720000D02*
X154525000Y-68720000D01*
%TO.C,C2*%
D13*
X164807836Y-80260000D02*
X164592164Y-80260000D01*
X164807836Y-80980000D02*
X164592164Y-80980000D01*
%TO.C,GSM1*%
D15*
X129150000Y-103220000D02*
X129150000Y-100620000D01*
%TD*%
M02*
