%TF.GenerationSoftware,KiCad,Pcbnew,10.0.5*%
%TF.CreationDate,2026-09-27T19:02:26+05:30*%
%TF.ProjectId,STM32 GPS Tracker,53544d33-3220-4475-9053-20547261636b,rev?*%
%TF.SameCoordinates,Original*%
%TF.FileFunction,Copper,L3,Inr*%
%TF.FilePolarity,Positive*%
%FSLAX46Y46*%
G04 Gerber Fmt 4.6, Leading zero omitted, Abs format (unit mm)*
G04 Created by KiCad (PCBNEW 10.0.5) date 2026-09-27 19:02:26*
%MOMM*%
%LPD*%
G01*
G04 APERTURE LIST*
G04 Aperture macros list*
%AMRoundRect*
0 Rectangle with rounded corners*
0 $1 Rounding radius*
0 $2 $3 $4 $5 $6 $7 $8 $9 X,Y pos of 4 corners*
0 Add a 4 corners polygon primitive as box body*
4,1,4,$2,$3,$4,$5,$6,$7,$8,$9,$2,$3,0*
0 Add four circle primitives for the rounded corners*
1,1,$1+$1,$2,$3*
1,1,$1+$1,$4,$5*
1,1,$1+$1,$6,$7*
1,1,$1+$1,$8,$9*
0 Add four rect primitives between the rounded corners*
20,1,$1+$1,$2,$3,$4,$5,0*
20,1,$1+$1,$4,$5,$6,$7,0*
20,1,$1+$1,$6,$7,$8,$9,0*
20,1,$1+$1,$8,$9,$2,$3,0*%
G04 Aperture macros list end*
%TA.AperFunction,ComponentPad*%
%ADD10RoundRect,0.249999X-1.250001X-1.250001X1.250001X-1.250001X1.250001X1.250001X-1.250001X1.250001X0*%
%TD*%
%TA.AperFunction,ComponentPad*%
%ADD11C,3.000000*%
%TD*%
%TA.AperFunction,ComponentPad*%
%ADD12RoundRect,0.250001X0.949999X-0.949999X0.949999X0.949999X-0.949999X0.949999X-0.949999X-0.949999X0*%
%TD*%
%TA.AperFunction,ComponentPad*%
%ADD13C,2.400000*%
%TD*%
%TA.AperFunction,ComponentPad*%
%ADD14C,2.000000*%
%TD*%
%TA.AperFunction,ComponentPad*%
%ADD15C,0.600000*%
%TD*%
%TA.AperFunction,ViaPad*%
%ADD16C,0.600000*%
%TD*%
%TA.AperFunction,Conductor*%
%ADD17C,0.200000*%
%TD*%
G04 APERTURE END LIST*
D10*
%TO.N,GND*%
%TO.C,J1*%
X130200000Y-71387500D03*
D11*
%TO.N,+12V*%
X135200000Y-71387500D03*
%TD*%
D12*
%TO.N,GND*%
%TO.C,J4*%
X123500000Y-120080000D03*
D13*
%TO.N,PA7{slash}SPI1_MOS1*%
X123500000Y-116120000D03*
%TO.N,PA6{slash}SPI_MIS0*%
X123500000Y-112160000D03*
%TO.N,PA5{slash}SPI1_CLK*%
X123500000Y-108200000D03*
%TO.N,PA4*%
X123500000Y-104240000D03*
%TO.N,USART2_RX*%
X123500000Y-100280000D03*
%TO.N,USART2_TX*%
X123500000Y-96320000D03*
%TO.N,+3.3V*%
X123500000Y-92360000D03*
%TD*%
D14*
%TO.N,Net-(C11-Pad2)*%
%TO.C,SW2*%
X158450000Y-119170000D03*
X158450000Y-112670000D03*
%TO.N,+3.3V*%
X162950000Y-119170000D03*
X162950000Y-112670000D03*
%TD*%
%TO.N,NRST*%
%TO.C,SW1*%
X130150000Y-112970000D03*
X136650000Y-112970000D03*
%TO.N,GND*%
X130150000Y-117470000D03*
X136650000Y-117470000D03*
%TD*%
D15*
%TO.N,GND*%
%TO.C,U1*%
X122400000Y-71600000D03*
X122400000Y-72800000D03*
X122400000Y-74100000D03*
X122400000Y-75200000D03*
X123600000Y-71600000D03*
X123600000Y-72800000D03*
X123600000Y-74100000D03*
X123600000Y-75200000D03*
%TD*%
D12*
%TO.N,GND*%
%TO.C,J3*%
X168700000Y-120520000D03*
D13*
%TO.N,SWDI0*%
X168700000Y-116560000D03*
%TO.N,NRST*%
X168700000Y-112600000D03*
%TO.N,SIM_CLK*%
X168700000Y-108640000D03*
%TO.N,SIM_RESET*%
X168700000Y-104680000D03*
%TO.N,SIM_RX*%
X168700000Y-100720000D03*
%TO.N,SIM_TX*%
X168700000Y-96760000D03*
%TO.N,SIM_PWRKEY*%
X168700000Y-92800000D03*
%TD*%
D16*
%TO.N,Net-(J2-RET)*%
X132600000Y-107200000D03*
%TO.N,SIM_DATA*%
X135400000Y-103400000D03*
%TO.N,Net-(J2-RET)*%
X138800000Y-113100000D03*
%TO.N,Net-(J2-CLK)*%
X140429046Y-103000000D03*
%TO.N,SIM_VDD*%
X156500000Y-123070000D03*
X161400000Y-97800000D03*
%TO.N,GND*%
X147300000Y-78100000D03*
X141200000Y-110900000D03*
%TO.N,+3.3V*%
X143500000Y-95600000D03*
X140572584Y-96642471D03*
X157800000Y-105220000D03*
X144395405Y-101824595D03*
X152850000Y-84770000D03*
X146500000Y-103720000D03*
%TO.N,STATUS*%
X137200000Y-93620000D03*
%TO.N,Net-(U4-PF0)*%
X142700000Y-97720000D03*
X136100000Y-95520000D03*
X138200000Y-96820000D03*
X134300000Y-97720000D03*
%TO.N,Net-(U4-PF1)*%
X137799998Y-102020000D03*
X133500000Y-103620000D03*
%TO.N,GND*%
X150800000Y-72220000D03*
X135000000Y-105020000D03*
X149800000Y-94620000D03*
X130800000Y-105320000D03*
X149600000Y-91620000D03*
X157500000Y-109920000D03*
X136750000Y-89720000D03*
X163800000Y-99020000D03*
X152159620Y-73279620D03*
X164400000Y-110120000D03*
X137500000Y-97820000D03*
X133053180Y-102956407D03*
X137714213Y-110820000D03*
X135000000Y-95520000D03*
X158800000Y-77020000D03*
X142800000Y-85320000D03*
X148000000Y-73320000D03*
X133400000Y-101520000D03*
%TO.N,USART2_TX*%
X128000000Y-96720000D03*
X132500000Y-99220000D03*
%TO.N,SIM_RX*%
X159500000Y-104520000D03*
X162000000Y-102920000D03*
%TO.N,SIM_TX*%
X155629999Y-97870243D03*
X156800000Y-101520000D03*
X149900000Y-103420000D03*
%TO.N,SWDI0*%
X157300000Y-103820000D03*
%TO.N,SIM_RESET*%
X156498788Y-103418788D03*
%TO.N,Net-(U4-BOOT0)*%
X152700000Y-93620000D03*
X152100000Y-96920000D03*
%TO.N,Net-(C11-Pad2)*%
X139300000Y-112220000D03*
X138675735Y-110820000D03*
%TO.N,Net-(D2-K)*%
X130200000Y-84500000D03*
X128200000Y-82500000D03*
%TO.N,FEEDBACK*%
X126400000Y-79400000D03*
X130700000Y-80700000D03*
%TO.N,SIM_DATA*%
X140000000Y-97820000D03*
%TO.N,Net-(J2-I{slash}O)*%
X157600000Y-108720000D03*
X160700000Y-114520000D03*
%TO.N,Net-(J2-CLK)*%
X143100000Y-102520000D03*
X138555455Y-106875455D03*
X141145887Y-104400745D03*
%TO.N,Net-(J2-RET)*%
X138200000Y-104920000D03*
%TO.N,SIM_DET*%
X147400000Y-102120000D03*
X136400000Y-105920000D03*
X138020402Y-103331069D03*
%TO.N,SIM_VDD*%
X136740380Y-106660380D03*
%TO.N,Net-(U2-VDD_EXT)*%
X155600000Y-101020000D03*
X155000000Y-97320000D03*
%TD*%
%TO.N,SIM_DATA*%
D17*
X135400000Y-102420000D02*
X140000000Y-97820000D01*
X135400000Y-103400000D02*
X135400000Y-102420000D01*
%TD*%
%TA.AperFunction,Conductor*%
%TO.N,+3.3V*%
G36*
X173042539Y-64740185D02*
G01*
X173088294Y-64792989D01*
X173099500Y-64844500D01*
X173099500Y-123375500D01*
X173079815Y-123442539D01*
X173027011Y-123488294D01*
X172975500Y-123499500D01*
X157374129Y-123499500D01*
X157307090Y-123479815D01*
X157261335Y-123427011D01*
X157251391Y-123357853D01*
X157259568Y-123328048D01*
X157269735Y-123303501D01*
X157269737Y-123303497D01*
X157300500Y-123148842D01*
X157300500Y-122991158D01*
X157300500Y-122991155D01*
X157300499Y-122991153D01*
X157269738Y-122836510D01*
X157269737Y-122836503D01*
X157269735Y-122836498D01*
X157209397Y-122690827D01*
X157209390Y-122690814D01*
X157121789Y-122559711D01*
X157121786Y-122559707D01*
X157010292Y-122448213D01*
X157010288Y-122448210D01*
X156879185Y-122360609D01*
X156879172Y-122360602D01*
X156733501Y-122300264D01*
X156733489Y-122300261D01*
X156578845Y-122269500D01*
X156578842Y-122269500D01*
X156421158Y-122269500D01*
X156421155Y-122269500D01*
X156266510Y-122300261D01*
X156266498Y-122300264D01*
X156120827Y-122360602D01*
X156120814Y-122360609D01*
X155989711Y-122448210D01*
X155989707Y-122448213D01*
X155878213Y-122559707D01*
X155878210Y-122559711D01*
X155790609Y-122690814D01*
X155790602Y-122690827D01*
X155730264Y-122836498D01*
X155730261Y-122836510D01*
X155699500Y-122991153D01*
X155699500Y-123148846D01*
X155730261Y-123303489D01*
X155730264Y-123303501D01*
X155740432Y-123328048D01*
X155747901Y-123397517D01*
X155716626Y-123459996D01*
X155656537Y-123495648D01*
X155625871Y-123499500D01*
X118224500Y-123499500D01*
X118157461Y-123479815D01*
X118111706Y-123427011D01*
X118100500Y-123375500D01*
X118100500Y-119079984D01*
X121799500Y-119079984D01*
X121799500Y-121080015D01*
X121810000Y-121182795D01*
X121810001Y-121182796D01*
X121865186Y-121349335D01*
X121865187Y-121349337D01*
X121957286Y-121498651D01*
X121957289Y-121498655D01*
X122081344Y-121622710D01*
X122081348Y-121622713D01*
X122230662Y-121714812D01*
X122230664Y-121714813D01*
X122230666Y-121714814D01*
X122397203Y-121769999D01*
X122499992Y-121780500D01*
X122499997Y-121780500D01*
X124500003Y-121780500D01*
X124500008Y-121780500D01*
X124602797Y-121769999D01*
X124769334Y-121714814D01*
X124918655Y-121622711D01*
X125042711Y-121498655D01*
X125134814Y-121349334D01*
X125189999Y-121182797D01*
X125200500Y-121080008D01*
X125200500Y-119079992D01*
X125197630Y-119051902D01*
X156949500Y-119051902D01*
X156949500Y-119288097D01*
X156986446Y-119521368D01*
X157059433Y-119745996D01*
X157166519Y-119956163D01*
X157166657Y-119956433D01*
X157305483Y-120147510D01*
X157472490Y-120314517D01*
X157663567Y-120453343D01*
X157762991Y-120504002D01*
X157874003Y-120560566D01*
X157874005Y-120560566D01*
X157874008Y-120560568D01*
X157994412Y-120599689D01*
X158098631Y-120633553D01*
X158331903Y-120670500D01*
X158331908Y-120670500D01*
X158568097Y-120670500D01*
X158801368Y-120633553D01*
X158802870Y-120633065D01*
X159025992Y-120560568D01*
X159236433Y-120453343D01*
X159427510Y-120314517D01*
X159594517Y-120147510D01*
X159733343Y-119956433D01*
X159840568Y-119745992D01*
X159913553Y-119521368D01*
X159930051Y-119417203D01*
X159950500Y-119288097D01*
X159950500Y-119051947D01*
X161450000Y-119051947D01*
X161450000Y-119288052D01*
X161486934Y-119521247D01*
X161559897Y-119745802D01*
X161667087Y-119956174D01*
X161727338Y-120039104D01*
X161727340Y-120039105D01*
X162426212Y-119340233D01*
X162437482Y-119382292D01*
X162509890Y-119507708D01*
X162612292Y-119610110D01*
X162737708Y-119682518D01*
X162779765Y-119693787D01*
X162080893Y-120392658D01*
X162163828Y-120452914D01*
X162374197Y-120560102D01*
X162598752Y-120633065D01*
X162598751Y-120633065D01*
X162831948Y-120670000D01*
X163068052Y-120670000D01*
X163301247Y-120633065D01*
X163525802Y-120560102D01*
X163736163Y-120452918D01*
X163736169Y-120452914D01*
X163819104Y-120392658D01*
X163819105Y-120392658D01*
X163120233Y-119693787D01*
X163162292Y-119682518D01*
X163287708Y-119610110D01*
X163390110Y-119507708D01*
X163462518Y-119382292D01*
X163473787Y-119340233D01*
X164172658Y-120039105D01*
X164172658Y-120039104D01*
X164232914Y-119956169D01*
X164232918Y-119956163D01*
X164340102Y-119745802D01*
X164413065Y-119521247D01*
X164413265Y-119519984D01*
X166999500Y-119519984D01*
X166999500Y-121520015D01*
X167010000Y-121622795D01*
X167010001Y-121622796D01*
X167065186Y-121789335D01*
X167065187Y-121789337D01*
X167157286Y-121938651D01*
X167157289Y-121938655D01*
X167281344Y-122062710D01*
X167281348Y-122062713D01*
X167430662Y-122154812D01*
X167430664Y-122154813D01*
X167430666Y-122154814D01*
X167597203Y-122209999D01*
X167699992Y-122220500D01*
X167699997Y-122220500D01*
X169700003Y-122220500D01*
X169700008Y-122220500D01*
X169802797Y-122209999D01*
X169969334Y-122154814D01*
X170118655Y-122062711D01*
X170242711Y-121938655D01*
X170334814Y-121789334D01*
X170389999Y-121622797D01*
X170400500Y-121520008D01*
X170400500Y-119519992D01*
X170389999Y-119417203D01*
X170334814Y-119250666D01*
X170285058Y-119170000D01*
X170242713Y-119101348D01*
X170242710Y-119101344D01*
X170118655Y-118977289D01*
X170118651Y-118977286D01*
X169969337Y-118885187D01*
X169969335Y-118885186D01*
X169886065Y-118857593D01*
X169802797Y-118830001D01*
X169802795Y-118830000D01*
X169700015Y-118819500D01*
X169700008Y-118819500D01*
X167699992Y-118819500D01*
X167699984Y-118819500D01*
X167597204Y-118830000D01*
X167597203Y-118830001D01*
X167430664Y-118885186D01*
X167430662Y-118885187D01*
X167281348Y-118977286D01*
X167281344Y-118977289D01*
X167157289Y-119101344D01*
X167157286Y-119101348D01*
X167065187Y-119250662D01*
X167065186Y-119250664D01*
X167010001Y-119417203D01*
X167010000Y-119417204D01*
X166999500Y-119519984D01*
X164413265Y-119519984D01*
X164416837Y-119497437D01*
X164450000Y-119288052D01*
X164450000Y-119051947D01*
X164413065Y-118818752D01*
X164340102Y-118594197D01*
X164232914Y-118383828D01*
X164172658Y-118300894D01*
X164172658Y-118300893D01*
X163473787Y-118999765D01*
X163462518Y-118957708D01*
X163390110Y-118832292D01*
X163287708Y-118729890D01*
X163162292Y-118657482D01*
X163120234Y-118646212D01*
X163819105Y-117947340D01*
X163819104Y-117947338D01*
X163736174Y-117887087D01*
X163525802Y-117779897D01*
X163301247Y-117706934D01*
X163301248Y-117706934D01*
X163068052Y-117670000D01*
X162831948Y-117670000D01*
X162598752Y-117706934D01*
X162374197Y-117779897D01*
X162163830Y-117887084D01*
X162080894Y-117947340D01*
X162779766Y-118646212D01*
X162737708Y-118657482D01*
X162612292Y-118729890D01*
X162509890Y-118832292D01*
X162437482Y-118957708D01*
X162426212Y-118999766D01*
X161727340Y-118300894D01*
X161667084Y-118383830D01*
X161559897Y-118594197D01*
X161486934Y-118818752D01*
X161450000Y-119051947D01*
X159950500Y-119051947D01*
X159950500Y-119051902D01*
X159913553Y-118818631D01*
X159849013Y-118620000D01*
X159840568Y-118594008D01*
X159840566Y-118594005D01*
X159840566Y-118594003D01*
X159784002Y-118482991D01*
X159733343Y-118383567D01*
X159594517Y-118192490D01*
X159427510Y-118025483D01*
X159236433Y-117886657D01*
X159025996Y-117779433D01*
X158801368Y-117706446D01*
X158568097Y-117669500D01*
X158568092Y-117669500D01*
X158331908Y-117669500D01*
X158331903Y-117669500D01*
X158098631Y-117706446D01*
X157874003Y-117779433D01*
X157663566Y-117886657D01*
X157580047Y-117947338D01*
X157472490Y-118025483D01*
X157472488Y-118025485D01*
X157472487Y-118025485D01*
X157305485Y-118192487D01*
X157305485Y-118192488D01*
X157305483Y-118192490D01*
X157277210Y-118231405D01*
X157166657Y-118383566D01*
X157059433Y-118594003D01*
X156986446Y-118818631D01*
X156949500Y-119051902D01*
X125197630Y-119051902D01*
X125189999Y-118977203D01*
X125134814Y-118810666D01*
X125099456Y-118753343D01*
X125042713Y-118661348D01*
X125042710Y-118661344D01*
X124918655Y-118537289D01*
X124918651Y-118537286D01*
X124769337Y-118445187D01*
X124769335Y-118445186D01*
X124686065Y-118417593D01*
X124602797Y-118390001D01*
X124602795Y-118390000D01*
X124500015Y-118379500D01*
X124500008Y-118379500D01*
X122499992Y-118379500D01*
X122499984Y-118379500D01*
X122397204Y-118390000D01*
X122397203Y-118390001D01*
X122230664Y-118445186D01*
X122230662Y-118445187D01*
X122081348Y-118537286D01*
X122081344Y-118537289D01*
X121957289Y-118661344D01*
X121957286Y-118661348D01*
X121865187Y-118810662D01*
X121865186Y-118810664D01*
X121810001Y-118977203D01*
X121810000Y-118977204D01*
X121799500Y-119079984D01*
X118100500Y-119079984D01*
X118100500Y-116008549D01*
X121799500Y-116008549D01*
X121799500Y-116231458D01*
X121828594Y-116452452D01*
X121828595Y-116452457D01*
X121828596Y-116452463D01*
X121845988Y-116517370D01*
X121886290Y-116667780D01*
X121886293Y-116667790D01*
X121971593Y-116873722D01*
X121971595Y-116873726D01*
X122083052Y-117066774D01*
X122083057Y-117066780D01*
X122083058Y-117066782D01*
X122218751Y-117243622D01*
X122218757Y-117243629D01*
X122376370Y-117401242D01*
X122376376Y-117401247D01*
X122553226Y-117536948D01*
X122746274Y-117648405D01*
X122952219Y-117733710D01*
X123167537Y-117791404D01*
X123388543Y-117820500D01*
X123388550Y-117820500D01*
X123611450Y-117820500D01*
X123611457Y-117820500D01*
X123832463Y-117791404D01*
X124047781Y-117733710D01*
X124253726Y-117648405D01*
X124446774Y-117536948D01*
X124623624Y-117401247D01*
X124672969Y-117351902D01*
X128649500Y-117351902D01*
X128649500Y-117588097D01*
X128686446Y-117821368D01*
X128759433Y-118045996D01*
X128866657Y-118256433D01*
X129005483Y-118447510D01*
X129172490Y-118614517D01*
X129363567Y-118753343D01*
X129462991Y-118804002D01*
X129574003Y-118860566D01*
X129574005Y-118860566D01*
X129574008Y-118860568D01*
X129694412Y-118899689D01*
X129798631Y-118933553D01*
X130031903Y-118970500D01*
X130031908Y-118970500D01*
X130268097Y-118970500D01*
X130501368Y-118933553D01*
X130515057Y-118929105D01*
X130725992Y-118860568D01*
X130936433Y-118753343D01*
X131127510Y-118614517D01*
X131294517Y-118447510D01*
X131433343Y-118256433D01*
X131540568Y-118045992D01*
X131613553Y-117821368D01*
X131627437Y-117733706D01*
X131650500Y-117588097D01*
X131650500Y-117351902D01*
X135149500Y-117351902D01*
X135149500Y-117588097D01*
X135186446Y-117821368D01*
X135259433Y-118045996D01*
X135366657Y-118256433D01*
X135505483Y-118447510D01*
X135672490Y-118614517D01*
X135863567Y-118753343D01*
X135962991Y-118804002D01*
X136074003Y-118860566D01*
X136074005Y-118860566D01*
X136074008Y-118860568D01*
X136194412Y-118899689D01*
X136298631Y-118933553D01*
X136531903Y-118970500D01*
X136531908Y-118970500D01*
X136768097Y-118970500D01*
X137001368Y-118933553D01*
X137015058Y-118929105D01*
X137055310Y-118916025D01*
X137225992Y-118860568D01*
X137436433Y-118753343D01*
X137627510Y-118614517D01*
X137794517Y-118447510D01*
X137933343Y-118256433D01*
X138040568Y-118045992D01*
X138113553Y-117821368D01*
X138127437Y-117733706D01*
X138150500Y-117588097D01*
X138150500Y-117351902D01*
X138113553Y-117118631D01*
X138040566Y-116894003D01*
X137933342Y-116683566D01*
X137924551Y-116671466D01*
X137794517Y-116492490D01*
X137750576Y-116448549D01*
X166999500Y-116448549D01*
X166999500Y-116671450D01*
X166999501Y-116671466D01*
X167028594Y-116892452D01*
X167028595Y-116892457D01*
X167028596Y-116892463D01*
X167086290Y-117107780D01*
X167086293Y-117107790D01*
X167171593Y-117313722D01*
X167171595Y-117313726D01*
X167283052Y-117506774D01*
X167283057Y-117506780D01*
X167283058Y-117506782D01*
X167418751Y-117683622D01*
X167418757Y-117683629D01*
X167576370Y-117841242D01*
X167576376Y-117841247D01*
X167753226Y-117976948D01*
X167946274Y-118088405D01*
X168152219Y-118173710D01*
X168367537Y-118231404D01*
X168588543Y-118260500D01*
X168588550Y-118260500D01*
X168811450Y-118260500D01*
X168811457Y-118260500D01*
X169032463Y-118231404D01*
X169247781Y-118173710D01*
X169453726Y-118088405D01*
X169646774Y-117976948D01*
X169823624Y-117841247D01*
X169981247Y-117683624D01*
X170116948Y-117506774D01*
X170228405Y-117313726D01*
X170313710Y-117107781D01*
X170371404Y-116892463D01*
X170400500Y-116671457D01*
X170400500Y-116448543D01*
X170371404Y-116227537D01*
X170313710Y-116012219D01*
X170228405Y-115806274D01*
X170116948Y-115613226D01*
X169981247Y-115436376D01*
X169981242Y-115436370D01*
X169823629Y-115278757D01*
X169823622Y-115278751D01*
X169646782Y-115143058D01*
X169646780Y-115143057D01*
X169646774Y-115143052D01*
X169453726Y-115031595D01*
X169453722Y-115031593D01*
X169247790Y-114946293D01*
X169247783Y-114946291D01*
X169247781Y-114946290D01*
X169032463Y-114888596D01*
X169032457Y-114888595D01*
X169032452Y-114888594D01*
X168811466Y-114859501D01*
X168811463Y-114859500D01*
X168811457Y-114859500D01*
X168588543Y-114859500D01*
X168588537Y-114859500D01*
X168588533Y-114859501D01*
X168367547Y-114888594D01*
X168367540Y-114888595D01*
X168367537Y-114888596D01*
X168152219Y-114946290D01*
X168152209Y-114946293D01*
X167946277Y-115031593D01*
X167946273Y-115031595D01*
X167753226Y-115143052D01*
X167753217Y-115143058D01*
X167576377Y-115278751D01*
X167576370Y-115278757D01*
X167418757Y-115436370D01*
X167418751Y-115436377D01*
X167283058Y-115613217D01*
X167283052Y-115613226D01*
X167171595Y-115806273D01*
X167171593Y-115806277D01*
X167086293Y-116012209D01*
X167086290Y-116012219D01*
X167028597Y-116227534D01*
X167028594Y-116227547D01*
X166999501Y-116448533D01*
X166999500Y-116448549D01*
X137750576Y-116448549D01*
X137627510Y-116325483D01*
X137436433Y-116186657D01*
X137225996Y-116079433D01*
X137001368Y-116006446D01*
X136768097Y-115969500D01*
X136768092Y-115969500D01*
X136531908Y-115969500D01*
X136531903Y-115969500D01*
X136298631Y-116006446D01*
X136074003Y-116079433D01*
X135863566Y-116186657D01*
X135754550Y-116265862D01*
X135672490Y-116325483D01*
X135672488Y-116325485D01*
X135672487Y-116325485D01*
X135505485Y-116492487D01*
X135505485Y-116492488D01*
X135505483Y-116492490D01*
X135487407Y-116517370D01*
X135366657Y-116683566D01*
X135259433Y-116894003D01*
X135186446Y-117118631D01*
X135149500Y-117351902D01*
X131650500Y-117351902D01*
X131613553Y-117118631D01*
X131540566Y-116894003D01*
X131433342Y-116683566D01*
X131424551Y-116671466D01*
X131294517Y-116492490D01*
X131127510Y-116325483D01*
X130936433Y-116186657D01*
X130725996Y-116079433D01*
X130501368Y-116006446D01*
X130268097Y-115969500D01*
X130268092Y-115969500D01*
X130031908Y-115969500D01*
X130031903Y-115969500D01*
X129798631Y-116006446D01*
X129574003Y-116079433D01*
X129363566Y-116186657D01*
X129254550Y-116265862D01*
X129172490Y-116325483D01*
X129172488Y-116325485D01*
X129172487Y-116325485D01*
X129005485Y-116492487D01*
X129005485Y-116492488D01*
X129005483Y-116492490D01*
X128987407Y-116517370D01*
X128866657Y-116683566D01*
X128759433Y-116894003D01*
X128686446Y-117118631D01*
X128649500Y-117351902D01*
X124672969Y-117351902D01*
X124765517Y-117259355D01*
X124781242Y-117243629D01*
X124781247Y-117243624D01*
X124916948Y-117066774D01*
X125028405Y-116873726D01*
X125113710Y-116667781D01*
X125171404Y-116452463D01*
X125200500Y-116231457D01*
X125200500Y-116008543D01*
X125171404Y-115787537D01*
X125113710Y-115572219D01*
X125028405Y-115366274D01*
X124916948Y-115173226D01*
X124877867Y-115122294D01*
X124781248Y-114996377D01*
X124781242Y-114996370D01*
X124623629Y-114838757D01*
X124623622Y-114838751D01*
X124446782Y-114703058D01*
X124446780Y-114703057D01*
X124446774Y-114703052D01*
X124253726Y-114591595D01*
X124253722Y-114591593D01*
X124047790Y-114506293D01*
X124047783Y-114506291D01*
X124047781Y-114506290D01*
X123832463Y-114448596D01*
X123832457Y-114448595D01*
X123832452Y-114448594D01*
X123611466Y-114419501D01*
X123611463Y-114419500D01*
X123611457Y-114419500D01*
X123388543Y-114419500D01*
X123388537Y-114419500D01*
X123388533Y-114419501D01*
X123167547Y-114448594D01*
X123167540Y-114448595D01*
X123167537Y-114448596D01*
X123085790Y-114470500D01*
X122952219Y-114506290D01*
X122952209Y-114506293D01*
X122746277Y-114591593D01*
X122746273Y-114591595D01*
X122553226Y-114703052D01*
X122553217Y-114703058D01*
X122376377Y-114838751D01*
X122376370Y-114838757D01*
X122218757Y-114996370D01*
X122218751Y-114996377D01*
X122083058Y-115173217D01*
X122083052Y-115173226D01*
X121971595Y-115366273D01*
X121971593Y-115366277D01*
X121886293Y-115572209D01*
X121886290Y-115572219D01*
X121828597Y-115787534D01*
X121828594Y-115787547D01*
X121799501Y-116008533D01*
X121799500Y-116008549D01*
X118100500Y-116008549D01*
X118100500Y-112048549D01*
X121799500Y-112048549D01*
X121799500Y-112271458D01*
X121828594Y-112492452D01*
X121828595Y-112492457D01*
X121828596Y-112492463D01*
X121886290Y-112707780D01*
X121886293Y-112707790D01*
X121971593Y-112913722D01*
X121971595Y-112913726D01*
X122083052Y-113106774D01*
X122083057Y-113106780D01*
X122083058Y-113106782D01*
X122218751Y-113283622D01*
X122218757Y-113283629D01*
X122376370Y-113441242D01*
X122376376Y-113441247D01*
X122553226Y-113576948D01*
X122746274Y-113688405D01*
X122876140Y-113742197D01*
X122910508Y-113756433D01*
X122952219Y-113773710D01*
X123167537Y-113831404D01*
X123388543Y-113860500D01*
X123388550Y-113860500D01*
X123611450Y-113860500D01*
X123611457Y-113860500D01*
X123832463Y-113831404D01*
X124047781Y-113773710D01*
X124253726Y-113688405D01*
X124446774Y-113576948D01*
X124623624Y-113441247D01*
X124781247Y-113283624D01*
X124916948Y-113106774D01*
X125028405Y-112913726D01*
X125054013Y-112851902D01*
X128649500Y-112851902D01*
X128649500Y-113088097D01*
X128686446Y-113321368D01*
X128759433Y-113545996D01*
X128863512Y-113750261D01*
X128866657Y-113756433D01*
X129005483Y-113947510D01*
X129172490Y-114114517D01*
X129363567Y-114253343D01*
X129428661Y-114286510D01*
X129574003Y-114360566D01*
X129574005Y-114360566D01*
X129574008Y-114360568D01*
X129694412Y-114399689D01*
X129798631Y-114433553D01*
X130031903Y-114470500D01*
X130031908Y-114470500D01*
X130268097Y-114470500D01*
X130501368Y-114433553D01*
X130544615Y-114419501D01*
X130725992Y-114360568D01*
X130936433Y-114253343D01*
X131127510Y-114114517D01*
X131294517Y-113947510D01*
X131433343Y-113756433D01*
X131536630Y-113553719D01*
X131540566Y-113545996D01*
X131540566Y-113545995D01*
X131540568Y-113545992D01*
X131613553Y-113321368D01*
X131625491Y-113245996D01*
X131650500Y-113088097D01*
X131650500Y-112851902D01*
X135149500Y-112851902D01*
X135149500Y-113088097D01*
X135186446Y-113321368D01*
X135259433Y-113545996D01*
X135363512Y-113750261D01*
X135366657Y-113756433D01*
X135505483Y-113947510D01*
X135672490Y-114114517D01*
X135863567Y-114253343D01*
X135928661Y-114286510D01*
X136074003Y-114360566D01*
X136074005Y-114360566D01*
X136074008Y-114360568D01*
X136194412Y-114399689D01*
X136298631Y-114433553D01*
X136531903Y-114470500D01*
X136531908Y-114470500D01*
X136768097Y-114470500D01*
X136953384Y-114441153D01*
X159899500Y-114441153D01*
X159899500Y-114598846D01*
X159930261Y-114753489D01*
X159930264Y-114753501D01*
X159990602Y-114899172D01*
X159990609Y-114899185D01*
X160078210Y-115030288D01*
X160078213Y-115030292D01*
X160189707Y-115141786D01*
X160189711Y-115141789D01*
X160320814Y-115229390D01*
X160320827Y-115229397D01*
X160466498Y-115289735D01*
X160466503Y-115289737D01*
X160621153Y-115320499D01*
X160621156Y-115320500D01*
X160621158Y-115320500D01*
X160778844Y-115320500D01*
X160778845Y-115320499D01*
X160933497Y-115289737D01*
X161079179Y-115229394D01*
X161210289Y-115141789D01*
X161321789Y-115030289D01*
X161409394Y-114899179D01*
X161469737Y-114753497D01*
X161500500Y-114598842D01*
X161500500Y-114441158D01*
X161500500Y-114441155D01*
X161500499Y-114441153D01*
X161496192Y-114419500D01*
X161469737Y-114286503D01*
X161456002Y-114253343D01*
X161409397Y-114140827D01*
X161409390Y-114140814D01*
X161321789Y-114009711D01*
X161321786Y-114009707D01*
X161210292Y-113898213D01*
X161210288Y-113898210D01*
X161079185Y-113810609D01*
X161079172Y-113810602D01*
X160933501Y-113750264D01*
X160933489Y-113750261D01*
X160778845Y-113719500D01*
X160778842Y-113719500D01*
X160621158Y-113719500D01*
X160621155Y-113719500D01*
X160466510Y-113750261D01*
X160466498Y-113750264D01*
X160320827Y-113810602D01*
X160320814Y-113810609D01*
X160189711Y-113898210D01*
X160189707Y-113898213D01*
X160078213Y-114009707D01*
X160078210Y-114009711D01*
X159990609Y-114140814D01*
X159990602Y-114140827D01*
X159930264Y-114286498D01*
X159930261Y-114286510D01*
X159899500Y-114441153D01*
X136953384Y-114441153D01*
X137001368Y-114433553D01*
X137044615Y-114419501D01*
X137225992Y-114360568D01*
X137225996Y-114360566D01*
X137296621Y-114324581D01*
X137343886Y-114300498D01*
X137436433Y-114253343D01*
X137627510Y-114114517D01*
X137794517Y-113947510D01*
X137933343Y-113756433D01*
X137987842Y-113649471D01*
X138035815Y-113598677D01*
X138103635Y-113581881D01*
X138169771Y-113604418D01*
X138186007Y-113618086D01*
X138289707Y-113721786D01*
X138289711Y-113721789D01*
X138420814Y-113809390D01*
X138420827Y-113809397D01*
X138566498Y-113869735D01*
X138566503Y-113869737D01*
X138709661Y-113898213D01*
X138721153Y-113900499D01*
X138721156Y-113900500D01*
X138721158Y-113900500D01*
X138878844Y-113900500D01*
X138878845Y-113900499D01*
X139033497Y-113869737D01*
X139179179Y-113809394D01*
X139310289Y-113721789D01*
X139421789Y-113610289D01*
X139509394Y-113479179D01*
X139569737Y-113333497D01*
X139600500Y-113178842D01*
X139600500Y-113044837D01*
X139620185Y-112977798D01*
X139672989Y-112932043D01*
X139676985Y-112930302D01*
X139679179Y-112929394D01*
X139810289Y-112841789D01*
X139921789Y-112730289D01*
X140009394Y-112599179D01*
X140028977Y-112551902D01*
X156949500Y-112551902D01*
X156949500Y-112788097D01*
X156986446Y-113021368D01*
X157059433Y-113245996D01*
X157114323Y-113353722D01*
X157166657Y-113456433D01*
X157305483Y-113647510D01*
X157472490Y-113814517D01*
X157663567Y-113953343D01*
X157762991Y-114004002D01*
X157874003Y-114060566D01*
X157874005Y-114060566D01*
X157874008Y-114060568D01*
X157994412Y-114099689D01*
X158098631Y-114133553D01*
X158331903Y-114170500D01*
X158331908Y-114170500D01*
X158568097Y-114170500D01*
X158801368Y-114133553D01*
X158817215Y-114128404D01*
X159025992Y-114060568D01*
X159236433Y-113953343D01*
X159427510Y-113814517D01*
X159594517Y-113647510D01*
X159733343Y-113456433D01*
X159840568Y-113245992D01*
X159913553Y-113021368D01*
X159927701Y-112932043D01*
X159950500Y-112788097D01*
X159950500Y-112551947D01*
X161450000Y-112551947D01*
X161450000Y-112788052D01*
X161486934Y-113021247D01*
X161559897Y-113245802D01*
X161667087Y-113456174D01*
X161727338Y-113539104D01*
X161727340Y-113539105D01*
X162426212Y-112840233D01*
X162437482Y-112882292D01*
X162509890Y-113007708D01*
X162612292Y-113110110D01*
X162737708Y-113182518D01*
X162779765Y-113193787D01*
X162080893Y-113892658D01*
X162163828Y-113952914D01*
X162374197Y-114060102D01*
X162598752Y-114133065D01*
X162598751Y-114133065D01*
X162831948Y-114170000D01*
X163068052Y-114170000D01*
X163301247Y-114133065D01*
X163525802Y-114060102D01*
X163736163Y-113952918D01*
X163736169Y-113952914D01*
X163819104Y-113892658D01*
X163819105Y-113892658D01*
X163120233Y-113193787D01*
X163162292Y-113182518D01*
X163287708Y-113110110D01*
X163390110Y-113007708D01*
X163462518Y-112882292D01*
X163473787Y-112840233D01*
X164172658Y-113539105D01*
X164172658Y-113539104D01*
X164232914Y-113456169D01*
X164232918Y-113456163D01*
X164340102Y-113245802D01*
X164413065Y-113021247D01*
X164450000Y-112788052D01*
X164450000Y-112551947D01*
X164442387Y-112503882D01*
X164439958Y-112488549D01*
X166999500Y-112488549D01*
X166999500Y-112711450D01*
X166999501Y-112711466D01*
X167028594Y-112932452D01*
X167028595Y-112932457D01*
X167028596Y-112932463D01*
X167076196Y-113110110D01*
X167086290Y-113147780D01*
X167086293Y-113147790D01*
X167171593Y-113353722D01*
X167171595Y-113353726D01*
X167283052Y-113546774D01*
X167283057Y-113546780D01*
X167283058Y-113546782D01*
X167418751Y-113723622D01*
X167418757Y-113723629D01*
X167576370Y-113881242D01*
X167576377Y-113881248D01*
X167670334Y-113953343D01*
X167753226Y-114016948D01*
X167946274Y-114128405D01*
X168152219Y-114213710D01*
X168367537Y-114271404D01*
X168588543Y-114300500D01*
X168588550Y-114300500D01*
X168811450Y-114300500D01*
X168811457Y-114300500D01*
X169032463Y-114271404D01*
X169247781Y-114213710D01*
X169453726Y-114128405D01*
X169646774Y-114016948D01*
X169823624Y-113881247D01*
X169981247Y-113723624D01*
X170116948Y-113546774D01*
X170228405Y-113353726D01*
X170313710Y-113147781D01*
X170371404Y-112932463D01*
X170400500Y-112711457D01*
X170400500Y-112488543D01*
X170371404Y-112267537D01*
X170313710Y-112052219D01*
X170288969Y-111992490D01*
X170228406Y-111846277D01*
X170228405Y-111846274D01*
X170116948Y-111653226D01*
X170021929Y-111529394D01*
X169981248Y-111476377D01*
X169981242Y-111476370D01*
X169823629Y-111318757D01*
X169823622Y-111318751D01*
X169646782Y-111183058D01*
X169646780Y-111183057D01*
X169646774Y-111183052D01*
X169453726Y-111071595D01*
X169453722Y-111071593D01*
X169247790Y-110986293D01*
X169247783Y-110986291D01*
X169247781Y-110986290D01*
X169032463Y-110928596D01*
X169032457Y-110928595D01*
X169032452Y-110928594D01*
X168811466Y-110899501D01*
X168811463Y-110899500D01*
X168811457Y-110899500D01*
X168588543Y-110899500D01*
X168588537Y-110899500D01*
X168588533Y-110899501D01*
X168367547Y-110928594D01*
X168367540Y-110928595D01*
X168367537Y-110928596D01*
X168180008Y-110978844D01*
X168152219Y-110986290D01*
X168152209Y-110986293D01*
X167946277Y-111071593D01*
X167946273Y-111071595D01*
X167753226Y-111183052D01*
X167753217Y-111183058D01*
X167576377Y-111318751D01*
X167576370Y-111318757D01*
X167418757Y-111476370D01*
X167418751Y-111476377D01*
X167283058Y-111653217D01*
X167283052Y-111653226D01*
X167171595Y-111846273D01*
X167171593Y-111846277D01*
X167086293Y-112052209D01*
X167086290Y-112052219D01*
X167038684Y-112229890D01*
X167028597Y-112267534D01*
X167028594Y-112267547D01*
X166999501Y-112488533D01*
X166999500Y-112488549D01*
X164439958Y-112488549D01*
X164413065Y-112318752D01*
X164340102Y-112094197D01*
X164232914Y-111883828D01*
X164172658Y-111800894D01*
X164172658Y-111800893D01*
X163473787Y-112499765D01*
X163462518Y-112457708D01*
X163390110Y-112332292D01*
X163287708Y-112229890D01*
X163162292Y-112157482D01*
X163120234Y-112146212D01*
X163819105Y-111447340D01*
X163819104Y-111447338D01*
X163736174Y-111387087D01*
X163525802Y-111279897D01*
X163301247Y-111206934D01*
X163301248Y-111206934D01*
X163068052Y-111170000D01*
X162831948Y-111170000D01*
X162598752Y-111206934D01*
X162374197Y-111279897D01*
X162163830Y-111387084D01*
X162080894Y-111447340D01*
X162779766Y-112146212D01*
X162737708Y-112157482D01*
X162612292Y-112229890D01*
X162509890Y-112332292D01*
X162437482Y-112457708D01*
X162426212Y-112499766D01*
X161727340Y-111800894D01*
X161667084Y-111883830D01*
X161559897Y-112094197D01*
X161486934Y-112318752D01*
X161450000Y-112551947D01*
X159950500Y-112551947D01*
X159950500Y-112551902D01*
X159913553Y-112318631D01*
X159879689Y-112214412D01*
X159840568Y-112094008D01*
X159840566Y-112094005D01*
X159840566Y-112094003D01*
X159733477Y-111883830D01*
X159733343Y-111883567D01*
X159594517Y-111692490D01*
X159427510Y-111525483D01*
X159236433Y-111386657D01*
X159140660Y-111337858D01*
X159025996Y-111279433D01*
X158801368Y-111206446D01*
X158568097Y-111169500D01*
X158568092Y-111169500D01*
X158331908Y-111169500D01*
X158331903Y-111169500D01*
X158098631Y-111206446D01*
X157874003Y-111279433D01*
X157663566Y-111386657D01*
X157580047Y-111447338D01*
X157472490Y-111525483D01*
X157472488Y-111525485D01*
X157472487Y-111525485D01*
X157305485Y-111692487D01*
X157305485Y-111692488D01*
X157305483Y-111692490D01*
X157248545Y-111770858D01*
X157166657Y-111883566D01*
X157059433Y-112094003D01*
X156986446Y-112318631D01*
X156949500Y-112551902D01*
X140028977Y-112551902D01*
X140069737Y-112453497D01*
X140100500Y-112298842D01*
X140100500Y-112141158D01*
X140100500Y-112141155D01*
X140100499Y-112141153D01*
X140082079Y-112048549D01*
X140069737Y-111986503D01*
X140027100Y-111883567D01*
X140009397Y-111840827D01*
X140009390Y-111840814D01*
X139921789Y-111709711D01*
X139921786Y-111709707D01*
X139810292Y-111598213D01*
X139810288Y-111598210D01*
X139679185Y-111510609D01*
X139679172Y-111510602D01*
X139533501Y-111450264D01*
X139533491Y-111450261D01*
X139436461Y-111430960D01*
X139374550Y-111398574D01*
X139339976Y-111337858D01*
X139343717Y-111268089D01*
X139357552Y-111240451D01*
X139379947Y-111206934D01*
X139385129Y-111199179D01*
X139391807Y-111183058D01*
X139398802Y-111166166D01*
X139445472Y-111053497D01*
X139476235Y-110898842D01*
X139476235Y-110821153D01*
X140399500Y-110821153D01*
X140399500Y-110978846D01*
X140430261Y-111133489D01*
X140430264Y-111133501D01*
X140490602Y-111279172D01*
X140490609Y-111279185D01*
X140578210Y-111410288D01*
X140578213Y-111410292D01*
X140689707Y-111521786D01*
X140689711Y-111521789D01*
X140820814Y-111609390D01*
X140820827Y-111609397D01*
X140966498Y-111669735D01*
X140966503Y-111669737D01*
X141121153Y-111700499D01*
X141121156Y-111700500D01*
X141121158Y-111700500D01*
X141278844Y-111700500D01*
X141278845Y-111700499D01*
X141433497Y-111669737D01*
X141579179Y-111609394D01*
X141710289Y-111521789D01*
X141821789Y-111410289D01*
X141909394Y-111279179D01*
X141969737Y-111133497D01*
X142000500Y-110978842D01*
X142000500Y-110821158D01*
X142000500Y-110821155D01*
X142000499Y-110821153D01*
X141984965Y-110743058D01*
X141969737Y-110666503D01*
X141954737Y-110630289D01*
X141909397Y-110520827D01*
X141909390Y-110520814D01*
X141821789Y-110389711D01*
X141821786Y-110389707D01*
X141710292Y-110278213D01*
X141710288Y-110278210D01*
X141579185Y-110190609D01*
X141579172Y-110190602D01*
X141433501Y-110130264D01*
X141433489Y-110130261D01*
X141278845Y-110099500D01*
X141278842Y-110099500D01*
X141121158Y-110099500D01*
X141121155Y-110099500D01*
X140966510Y-110130261D01*
X140966498Y-110130264D01*
X140820827Y-110190602D01*
X140820814Y-110190609D01*
X140689711Y-110278210D01*
X140689707Y-110278213D01*
X140578213Y-110389707D01*
X140578210Y-110389711D01*
X140490609Y-110520814D01*
X140490602Y-110520827D01*
X140430264Y-110666498D01*
X140430261Y-110666510D01*
X140399500Y-110821153D01*
X139476235Y-110821153D01*
X139476235Y-110741158D01*
X139476235Y-110741155D01*
X139476234Y-110741153D01*
X139454182Y-110630292D01*
X139445472Y-110586503D01*
X139428817Y-110546293D01*
X139385132Y-110440827D01*
X139385125Y-110440814D01*
X139297524Y-110309711D01*
X139297521Y-110309707D01*
X139186027Y-110198213D01*
X139186023Y-110198210D01*
X139054920Y-110110609D01*
X139054907Y-110110602D01*
X138909236Y-110050264D01*
X138909224Y-110050261D01*
X138754580Y-110019500D01*
X138754577Y-110019500D01*
X138596893Y-110019500D01*
X138596890Y-110019500D01*
X138442245Y-110050261D01*
X138442233Y-110050264D01*
X138296563Y-110110602D01*
X138296549Y-110110610D01*
X138263862Y-110132450D01*
X138197184Y-110153326D01*
X138129804Y-110134840D01*
X138126086Y-110132450D01*
X138093398Y-110110610D01*
X138093397Y-110110609D01*
X138093392Y-110110606D01*
X138093388Y-110110604D01*
X138093384Y-110110602D01*
X137947714Y-110050264D01*
X137947702Y-110050261D01*
X137793058Y-110019500D01*
X137793055Y-110019500D01*
X137635371Y-110019500D01*
X137635368Y-110019500D01*
X137480723Y-110050261D01*
X137480711Y-110050264D01*
X137335040Y-110110602D01*
X137335027Y-110110609D01*
X137203924Y-110198210D01*
X137203920Y-110198213D01*
X137092426Y-110309707D01*
X137092423Y-110309711D01*
X137004822Y-110440814D01*
X137004815Y-110440827D01*
X136944477Y-110586498D01*
X136944474Y-110586510D01*
X136913713Y-110741153D01*
X136913713Y-110898846D01*
X136944474Y-111053489D01*
X136944477Y-111053501D01*
X137004815Y-111199172D01*
X137004825Y-111199190D01*
X137077338Y-111307714D01*
X137098216Y-111374391D01*
X137079731Y-111441771D01*
X137027752Y-111488461D01*
X136958782Y-111499637D01*
X136954838Y-111499077D01*
X136768097Y-111469500D01*
X136768092Y-111469500D01*
X136531908Y-111469500D01*
X136531903Y-111469500D01*
X136298631Y-111506446D01*
X136074003Y-111579433D01*
X135863566Y-111686657D01*
X135754550Y-111765862D01*
X135672490Y-111825483D01*
X135672488Y-111825485D01*
X135672487Y-111825485D01*
X135505485Y-111992487D01*
X135505485Y-111992488D01*
X135505483Y-111992490D01*
X135462087Y-112052219D01*
X135366657Y-112183566D01*
X135259433Y-112394003D01*
X135186446Y-112618631D01*
X135149500Y-112851902D01*
X131650500Y-112851902D01*
X131613553Y-112618631D01*
X131559897Y-112453497D01*
X131540568Y-112394008D01*
X131540566Y-112394005D01*
X131540566Y-112394003D01*
X131476126Y-112267534D01*
X131433343Y-112183567D01*
X131294517Y-111992490D01*
X131127510Y-111825483D01*
X130936433Y-111686657D01*
X130903222Y-111669735D01*
X130725996Y-111579433D01*
X130501368Y-111506446D01*
X130268097Y-111469500D01*
X130268092Y-111469500D01*
X130031908Y-111469500D01*
X130031903Y-111469500D01*
X129798631Y-111506446D01*
X129574003Y-111579433D01*
X129363566Y-111686657D01*
X129254550Y-111765862D01*
X129172490Y-111825483D01*
X129172488Y-111825485D01*
X129172487Y-111825485D01*
X129005485Y-111992487D01*
X129005485Y-111992488D01*
X129005483Y-111992490D01*
X128962087Y-112052219D01*
X128866657Y-112183566D01*
X128759433Y-112394003D01*
X128686446Y-112618631D01*
X128649500Y-112851902D01*
X125054013Y-112851902D01*
X125058202Y-112841789D01*
X125075685Y-112799583D01*
X125075685Y-112799581D01*
X125113704Y-112707796D01*
X125113706Y-112707790D01*
X125113710Y-112707781D01*
X125171404Y-112492463D01*
X125193893Y-112321635D01*
X125200500Y-112271458D01*
X125200500Y-112048549D01*
X125200500Y-112048543D01*
X125171404Y-111827537D01*
X125113710Y-111612219D01*
X125028405Y-111406274D01*
X124916948Y-111213226D01*
X124855764Y-111133489D01*
X124781248Y-111036377D01*
X124781242Y-111036370D01*
X124623629Y-110878757D01*
X124623622Y-110878751D01*
X124446782Y-110743058D01*
X124446780Y-110743057D01*
X124446774Y-110743052D01*
X124253726Y-110631595D01*
X124253722Y-110631593D01*
X124047790Y-110546293D01*
X124047783Y-110546291D01*
X124047781Y-110546290D01*
X123832463Y-110488596D01*
X123832457Y-110488595D01*
X123832452Y-110488594D01*
X123611466Y-110459501D01*
X123611463Y-110459500D01*
X123611457Y-110459500D01*
X123388543Y-110459500D01*
X123388537Y-110459500D01*
X123388533Y-110459501D01*
X123167547Y-110488594D01*
X123167540Y-110488595D01*
X123167537Y-110488596D01*
X123047271Y-110520821D01*
X122952219Y-110546290D01*
X122952209Y-110546293D01*
X122746277Y-110631593D01*
X122746273Y-110631595D01*
X122553226Y-110743052D01*
X122553217Y-110743058D01*
X122376377Y-110878751D01*
X122376370Y-110878757D01*
X122218757Y-111036370D01*
X122218751Y-111036377D01*
X122083058Y-111213217D01*
X122083052Y-111213226D01*
X121971595Y-111406273D01*
X121971593Y-111406277D01*
X121886293Y-111612209D01*
X121886290Y-111612219D01*
X121829147Y-111825483D01*
X121828597Y-111827534D01*
X121828594Y-111827547D01*
X121799501Y-112048533D01*
X121799500Y-112048549D01*
X118100500Y-112048549D01*
X118100500Y-108088549D01*
X121799500Y-108088549D01*
X121799500Y-108311458D01*
X121828594Y-108532452D01*
X121828595Y-108532457D01*
X121828596Y-108532463D01*
X121857720Y-108641155D01*
X121886290Y-108747780D01*
X121886293Y-108747790D01*
X121971593Y-108953722D01*
X121971595Y-108953726D01*
X122083052Y-109146774D01*
X122083057Y-109146780D01*
X122083058Y-109146782D01*
X122218751Y-109323622D01*
X122218757Y-109323629D01*
X122376370Y-109481242D01*
X122376377Y-109481248D01*
X122502294Y-109577867D01*
X122553226Y-109616948D01*
X122746274Y-109728405D01*
X122952219Y-109813710D01*
X123167537Y-109871404D01*
X123388543Y-109900500D01*
X123388550Y-109900500D01*
X123611450Y-109900500D01*
X123611457Y-109900500D01*
X123832463Y-109871404D01*
X123945362Y-109841153D01*
X156699500Y-109841153D01*
X156699500Y-109998846D01*
X156730261Y-110153489D01*
X156730264Y-110153501D01*
X156790602Y-110299172D01*
X156790609Y-110299185D01*
X156878210Y-110430288D01*
X156878213Y-110430292D01*
X156989707Y-110541786D01*
X156989711Y-110541789D01*
X157120814Y-110629390D01*
X157120827Y-110629397D01*
X157266498Y-110689735D01*
X157266503Y-110689737D01*
X157421153Y-110720499D01*
X157421156Y-110720500D01*
X157421158Y-110720500D01*
X157578844Y-110720500D01*
X157578845Y-110720499D01*
X157733497Y-110689737D01*
X157879179Y-110629394D01*
X158010289Y-110541789D01*
X158121789Y-110430289D01*
X158209394Y-110299179D01*
X158269737Y-110153497D01*
X158288943Y-110056941D01*
X158292084Y-110041153D01*
X163599500Y-110041153D01*
X163599500Y-110198846D01*
X163630261Y-110353489D01*
X163630264Y-110353501D01*
X163690602Y-110499172D01*
X163690609Y-110499185D01*
X163778210Y-110630288D01*
X163778213Y-110630292D01*
X163889707Y-110741786D01*
X163889711Y-110741789D01*
X164020814Y-110829390D01*
X164020827Y-110829397D01*
X164166498Y-110889735D01*
X164166503Y-110889737D01*
X164321153Y-110920499D01*
X164321156Y-110920500D01*
X164321158Y-110920500D01*
X164478844Y-110920500D01*
X164478845Y-110920499D01*
X164633497Y-110889737D01*
X164779179Y-110829394D01*
X164910289Y-110741789D01*
X165021789Y-110630289D01*
X165109394Y-110499179D01*
X165169737Y-110353497D01*
X165200500Y-110198842D01*
X165200500Y-110041158D01*
X165200500Y-110041155D01*
X165200499Y-110041153D01*
X165194476Y-110010874D01*
X165169737Y-109886503D01*
X165150955Y-109841158D01*
X165109397Y-109740827D01*
X165109390Y-109740814D01*
X165021789Y-109609711D01*
X165021786Y-109609707D01*
X164910292Y-109498213D01*
X164910288Y-109498210D01*
X164779185Y-109410609D01*
X164779172Y-109410602D01*
X164633501Y-109350264D01*
X164633489Y-109350261D01*
X164478845Y-109319500D01*
X164478842Y-109319500D01*
X164321158Y-109319500D01*
X164321155Y-109319500D01*
X164166510Y-109350261D01*
X164166498Y-109350264D01*
X164020827Y-109410602D01*
X164020814Y-109410609D01*
X163889711Y-109498210D01*
X163889707Y-109498213D01*
X163778213Y-109609707D01*
X163778210Y-109609711D01*
X163690609Y-109740814D01*
X163690602Y-109740827D01*
X163630264Y-109886498D01*
X163630261Y-109886510D01*
X163599500Y-110041153D01*
X158292084Y-110041153D01*
X158298107Y-110010875D01*
X158298107Y-110010874D01*
X158300500Y-109998844D01*
X158300500Y-109841155D01*
X158300499Y-109841153D01*
X158280543Y-109740827D01*
X158269737Y-109686503D01*
X158269735Y-109686498D01*
X158209397Y-109540827D01*
X158209390Y-109540814D01*
X158146514Y-109446714D01*
X158125636Y-109380037D01*
X158144120Y-109312656D01*
X158161928Y-109290149D01*
X158221789Y-109230289D01*
X158309394Y-109099179D01*
X158369737Y-108953497D01*
X158400500Y-108798842D01*
X158400500Y-108641158D01*
X158400500Y-108641155D01*
X158382104Y-108548676D01*
X158382104Y-108548675D01*
X158378877Y-108532452D01*
X158378101Y-108528549D01*
X166999500Y-108528549D01*
X166999500Y-108751450D01*
X166999501Y-108751466D01*
X167028594Y-108972452D01*
X167028595Y-108972457D01*
X167028596Y-108972463D01*
X167086290Y-109187780D01*
X167086293Y-109187790D01*
X167171593Y-109393722D01*
X167171595Y-109393726D01*
X167283052Y-109586774D01*
X167283057Y-109586780D01*
X167283058Y-109586782D01*
X167418751Y-109763622D01*
X167418757Y-109763629D01*
X167576370Y-109921242D01*
X167576376Y-109921247D01*
X167753226Y-110056948D01*
X167946274Y-110168405D01*
X168152219Y-110253710D01*
X168367537Y-110311404D01*
X168588543Y-110340500D01*
X168588550Y-110340500D01*
X168811450Y-110340500D01*
X168811457Y-110340500D01*
X169032463Y-110311404D01*
X169247781Y-110253710D01*
X169453726Y-110168405D01*
X169646774Y-110056948D01*
X169823624Y-109921247D01*
X169981247Y-109763624D01*
X170116948Y-109586774D01*
X170228405Y-109393726D01*
X170313710Y-109187781D01*
X170371404Y-108972463D01*
X170400500Y-108751457D01*
X170400500Y-108528543D01*
X170371404Y-108307537D01*
X170313710Y-108092219D01*
X170228405Y-107886274D01*
X170116948Y-107693226D01*
X169981247Y-107516376D01*
X169981242Y-107516370D01*
X169823629Y-107358757D01*
X169823622Y-107358751D01*
X169646782Y-107223058D01*
X169646780Y-107223057D01*
X169646774Y-107223052D01*
X169453726Y-107111595D01*
X169453722Y-107111593D01*
X169247790Y-107026293D01*
X169247783Y-107026291D01*
X169247781Y-107026290D01*
X169032463Y-106968596D01*
X169032457Y-106968595D01*
X169032452Y-106968594D01*
X168811466Y-106939501D01*
X168811463Y-106939500D01*
X168811457Y-106939500D01*
X168588543Y-106939500D01*
X168588537Y-106939500D01*
X168588533Y-106939501D01*
X168367547Y-106968594D01*
X168367540Y-106968595D01*
X168367537Y-106968596D01*
X168152219Y-107026290D01*
X168152209Y-107026293D01*
X167946277Y-107111593D01*
X167946273Y-107111595D01*
X167753226Y-107223052D01*
X167753217Y-107223058D01*
X167576377Y-107358751D01*
X167576370Y-107358757D01*
X167418757Y-107516370D01*
X167418751Y-107516377D01*
X167283058Y-107693217D01*
X167283052Y-107693226D01*
X167171595Y-107886273D01*
X167171593Y-107886277D01*
X167086293Y-108092209D01*
X167086290Y-108092219D01*
X167028597Y-108307534D01*
X167028594Y-108307547D01*
X166999501Y-108528533D01*
X166999500Y-108528549D01*
X158378101Y-108528549D01*
X158369737Y-108486503D01*
X158369735Y-108486498D01*
X158309397Y-108340827D01*
X158309390Y-108340814D01*
X158221789Y-108209711D01*
X158221786Y-108209707D01*
X158110292Y-108098213D01*
X158110288Y-108098210D01*
X157979185Y-108010609D01*
X157979172Y-108010602D01*
X157833501Y-107950264D01*
X157833489Y-107950261D01*
X157678845Y-107919500D01*
X157678842Y-107919500D01*
X157521158Y-107919500D01*
X157521155Y-107919500D01*
X157366510Y-107950261D01*
X157366498Y-107950264D01*
X157220827Y-108010602D01*
X157220814Y-108010609D01*
X157089711Y-108098210D01*
X157089707Y-108098213D01*
X156978213Y-108209707D01*
X156978210Y-108209711D01*
X156890609Y-108340814D01*
X156890602Y-108340827D01*
X156830264Y-108486498D01*
X156830261Y-108486510D01*
X156799500Y-108641153D01*
X156799500Y-108798846D01*
X156830261Y-108953489D01*
X156830264Y-108953501D01*
X156890602Y-109099172D01*
X156890609Y-109099185D01*
X156953485Y-109193285D01*
X156974363Y-109259963D01*
X156955878Y-109327343D01*
X156938064Y-109349857D01*
X156878213Y-109409707D01*
X156878210Y-109409711D01*
X156790609Y-109540814D01*
X156790602Y-109540827D01*
X156730264Y-109686498D01*
X156730261Y-109686510D01*
X156699500Y-109841153D01*
X123945362Y-109841153D01*
X124047781Y-109813710D01*
X124253726Y-109728405D01*
X124253729Y-109728403D01*
X124253732Y-109728402D01*
X124254979Y-109727682D01*
X124254981Y-109727681D01*
X124254984Y-109727679D01*
X124326311Y-109686498D01*
X124446774Y-109616948D01*
X124623624Y-109481247D01*
X124781247Y-109323624D01*
X124916948Y-109146774D01*
X125028405Y-108953726D01*
X125113710Y-108747781D01*
X125171404Y-108532463D01*
X125200500Y-108311457D01*
X125200500Y-108088543D01*
X125171404Y-107867537D01*
X125113710Y-107652219D01*
X125028405Y-107446274D01*
X124916948Y-107253226D01*
X124868857Y-107190552D01*
X124815606Y-107121153D01*
X131799500Y-107121153D01*
X131799500Y-107278846D01*
X131830261Y-107433489D01*
X131830264Y-107433501D01*
X131890602Y-107579172D01*
X131890609Y-107579185D01*
X131978210Y-107710288D01*
X131978213Y-107710292D01*
X132089707Y-107821786D01*
X132089711Y-107821789D01*
X132220814Y-107909390D01*
X132220827Y-107909397D01*
X132366498Y-107969735D01*
X132366503Y-107969737D01*
X132521153Y-108000499D01*
X132521156Y-108000500D01*
X132521158Y-108000500D01*
X132678844Y-108000500D01*
X132678845Y-108000499D01*
X132833497Y-107969737D01*
X132979179Y-107909394D01*
X133110289Y-107821789D01*
X133221789Y-107710289D01*
X133309394Y-107579179D01*
X133369737Y-107433497D01*
X133400500Y-107278842D01*
X133400500Y-107121158D01*
X133400500Y-107121155D01*
X133400499Y-107121153D01*
X133381629Y-107026290D01*
X133369737Y-106966503D01*
X133364681Y-106954297D01*
X133309397Y-106820827D01*
X133309390Y-106820814D01*
X133221789Y-106689711D01*
X133221786Y-106689707D01*
X133110292Y-106578213D01*
X133110288Y-106578210D01*
X132979185Y-106490609D01*
X132979172Y-106490602D01*
X132833501Y-106430264D01*
X132833489Y-106430261D01*
X132678845Y-106399500D01*
X132678842Y-106399500D01*
X132521158Y-106399500D01*
X132521155Y-106399500D01*
X132366510Y-106430261D01*
X132366498Y-106430264D01*
X132220827Y-106490602D01*
X132220814Y-106490609D01*
X132089711Y-106578210D01*
X132089707Y-106578213D01*
X131978213Y-106689707D01*
X131978210Y-106689711D01*
X131890609Y-106820814D01*
X131890602Y-106820827D01*
X131830264Y-106966498D01*
X131830261Y-106966510D01*
X131799500Y-107121153D01*
X124815606Y-107121153D01*
X124781248Y-107076377D01*
X124781242Y-107076370D01*
X124623629Y-106918757D01*
X124623622Y-106918751D01*
X124446782Y-106783058D01*
X124446780Y-106783057D01*
X124446774Y-106783052D01*
X124253726Y-106671595D01*
X124253722Y-106671593D01*
X124047790Y-106586293D01*
X124047783Y-106586291D01*
X124047781Y-106586290D01*
X123832463Y-106528596D01*
X123832457Y-106528595D01*
X123832452Y-106528594D01*
X123611466Y-106499501D01*
X123611463Y-106499500D01*
X123611457Y-106499500D01*
X123388543Y-106499500D01*
X123388537Y-106499500D01*
X123388533Y-106499501D01*
X123167547Y-106528594D01*
X123167540Y-106528595D01*
X123167537Y-106528596D01*
X122969965Y-106581535D01*
X122952219Y-106586290D01*
X122952209Y-106586293D01*
X122746277Y-106671593D01*
X122746273Y-106671595D01*
X122553226Y-106783052D01*
X122553217Y-106783058D01*
X122376377Y-106918751D01*
X122376370Y-106918757D01*
X122218757Y-107076370D01*
X122218751Y-107076377D01*
X122083058Y-107253217D01*
X122083052Y-107253226D01*
X121971595Y-107446273D01*
X121971593Y-107446277D01*
X121886293Y-107652209D01*
X121886290Y-107652219D01*
X121870730Y-107710292D01*
X121828597Y-107867534D01*
X121828594Y-107867547D01*
X121799501Y-108088533D01*
X121799500Y-108088549D01*
X118100500Y-108088549D01*
X118100500Y-104128549D01*
X121799500Y-104128549D01*
X121799500Y-104351458D01*
X121828594Y-104572452D01*
X121828595Y-104572457D01*
X121828596Y-104572463D01*
X121886290Y-104787780D01*
X121886293Y-104787790D01*
X121971593Y-104993722D01*
X121971595Y-104993726D01*
X122083052Y-105186774D01*
X122083057Y-105186780D01*
X122083058Y-105186782D01*
X122218751Y-105363622D01*
X122218757Y-105363629D01*
X122376370Y-105521242D01*
X122376377Y-105521248D01*
X122401876Y-105540814D01*
X122553226Y-105656948D01*
X122746274Y-105768405D01*
X122872040Y-105820499D01*
X122921903Y-105841153D01*
X122952219Y-105853710D01*
X123167537Y-105911404D01*
X123388543Y-105940500D01*
X123388550Y-105940500D01*
X123611450Y-105940500D01*
X123611457Y-105940500D01*
X123832463Y-105911404D01*
X124047781Y-105853710D01*
X124253726Y-105768405D01*
X124446774Y-105656948D01*
X124623624Y-105521247D01*
X124781247Y-105363624D01*
X124875222Y-105241153D01*
X129999500Y-105241153D01*
X129999500Y-105398846D01*
X130030261Y-105553489D01*
X130030264Y-105553501D01*
X130090602Y-105699172D01*
X130090609Y-105699185D01*
X130178210Y-105830288D01*
X130178213Y-105830292D01*
X130289707Y-105941786D01*
X130289711Y-105941789D01*
X130420814Y-106029390D01*
X130420827Y-106029397D01*
X130566498Y-106089735D01*
X130566503Y-106089737D01*
X130721153Y-106120499D01*
X130721156Y-106120500D01*
X130721158Y-106120500D01*
X130878844Y-106120500D01*
X130878845Y-106120499D01*
X131033497Y-106089737D01*
X131146166Y-106043067D01*
X131179172Y-106029397D01*
X131179172Y-106029396D01*
X131179179Y-106029394D01*
X131310289Y-105941789D01*
X131421789Y-105830289D01*
X131509394Y-105699179D01*
X131569737Y-105553497D01*
X131600500Y-105398842D01*
X131600500Y-105241158D01*
X131600500Y-105241155D01*
X131600499Y-105241153D01*
X131592561Y-105201245D01*
X131569737Y-105086503D01*
X131546453Y-105030289D01*
X131526666Y-104982518D01*
X131509532Y-104941153D01*
X134199500Y-104941153D01*
X134199500Y-105098846D01*
X134230261Y-105253489D01*
X134230264Y-105253501D01*
X134290602Y-105399172D01*
X134290609Y-105399185D01*
X134378210Y-105530288D01*
X134378213Y-105530292D01*
X134489707Y-105641786D01*
X134489711Y-105641789D01*
X134620814Y-105729390D01*
X134620827Y-105729397D01*
X134766498Y-105789735D01*
X134766503Y-105789737D01*
X134921153Y-105820499D01*
X134921156Y-105820500D01*
X134921158Y-105820500D01*
X135078844Y-105820500D01*
X135078845Y-105820499D01*
X135233497Y-105789737D01*
X135379179Y-105729394D01*
X135409998Y-105708801D01*
X135476673Y-105687923D01*
X135544054Y-105706406D01*
X135590745Y-105758384D01*
X135601923Y-105827354D01*
X135600508Y-105836088D01*
X135599500Y-105841156D01*
X135599500Y-105998846D01*
X135630261Y-106153489D01*
X135630264Y-106153501D01*
X135690602Y-106299172D01*
X135690609Y-106299185D01*
X135778210Y-106430288D01*
X135778213Y-106430292D01*
X135889707Y-106541786D01*
X135894419Y-106545653D01*
X135892563Y-106547914D01*
X135929432Y-106591771D01*
X135939880Y-106641590D01*
X135939880Y-106739226D01*
X135970641Y-106893869D01*
X135970644Y-106893881D01*
X136030982Y-107039552D01*
X136030989Y-107039565D01*
X136118590Y-107170668D01*
X136118593Y-107170672D01*
X136230087Y-107282166D01*
X136230091Y-107282169D01*
X136361194Y-107369770D01*
X136361207Y-107369777D01*
X136506878Y-107430115D01*
X136506883Y-107430117D01*
X136661533Y-107460879D01*
X136661536Y-107460880D01*
X136661538Y-107460880D01*
X136819224Y-107460880D01*
X136819225Y-107460879D01*
X136973877Y-107430117D01*
X137119559Y-107369774D01*
X137250669Y-107282169D01*
X137362169Y-107170669D01*
X137449774Y-107039559D01*
X137510117Y-106893877D01*
X137510118Y-106893869D01*
X137511886Y-106888045D01*
X137514090Y-106888713D01*
X137541716Y-106835891D01*
X137602429Y-106801312D01*
X137672199Y-106805046D01*
X137728874Y-106845908D01*
X137754461Y-106910924D01*
X137754955Y-106921986D01*
X137754955Y-106954301D01*
X137785716Y-107108944D01*
X137785719Y-107108956D01*
X137846057Y-107254627D01*
X137846064Y-107254640D01*
X137933665Y-107385743D01*
X137933668Y-107385747D01*
X138045162Y-107497241D01*
X138045166Y-107497244D01*
X138176269Y-107584845D01*
X138176282Y-107584852D01*
X138321953Y-107645190D01*
X138321958Y-107645192D01*
X138476608Y-107675954D01*
X138476611Y-107675955D01*
X138476613Y-107675955D01*
X138634299Y-107675955D01*
X138634300Y-107675954D01*
X138788952Y-107645192D01*
X138934634Y-107584849D01*
X139065744Y-107497244D01*
X139177244Y-107385744D01*
X139264849Y-107254634D01*
X139325192Y-107108952D01*
X139355955Y-106954297D01*
X139355955Y-106796613D01*
X139355955Y-106796610D01*
X139355954Y-106796608D01*
X139353259Y-106783058D01*
X139325192Y-106641958D01*
X139302134Y-106586290D01*
X139264852Y-106496282D01*
X139264845Y-106496269D01*
X139177244Y-106365166D01*
X139177241Y-106365162D01*
X139065747Y-106253668D01*
X139065743Y-106253665D01*
X138934640Y-106166064D01*
X138934627Y-106166057D01*
X138788956Y-106105719D01*
X138788944Y-106105716D01*
X138634300Y-106074955D01*
X138634297Y-106074955D01*
X138476613Y-106074955D01*
X138476610Y-106074955D01*
X138321965Y-106105716D01*
X138321953Y-106105719D01*
X138176282Y-106166057D01*
X138176269Y-106166064D01*
X138045166Y-106253665D01*
X138045162Y-106253668D01*
X137933668Y-106365162D01*
X137933665Y-106365166D01*
X137846064Y-106496269D01*
X137846057Y-106496282D01*
X137785719Y-106641953D01*
X137783949Y-106647790D01*
X137781746Y-106647121D01*
X137754111Y-106699952D01*
X137693395Y-106734525D01*
X137623625Y-106730784D01*
X137566954Y-106689917D01*
X137541373Y-106624898D01*
X137540880Y-106613848D01*
X137540880Y-106581535D01*
X137540879Y-106581533D01*
X137524562Y-106499501D01*
X137510117Y-106426883D01*
X137484552Y-106365162D01*
X137449777Y-106281207D01*
X137449770Y-106281194D01*
X137362169Y-106150091D01*
X137362166Y-106150087D01*
X137250672Y-106038593D01*
X137245961Y-106034727D01*
X137247736Y-106032564D01*
X137210674Y-105987979D01*
X137200500Y-105938789D01*
X137200500Y-105841155D01*
X137200499Y-105841153D01*
X137169737Y-105686503D01*
X137144996Y-105626773D01*
X137109397Y-105540827D01*
X137109390Y-105540814D01*
X137021789Y-105409711D01*
X137021786Y-105409707D01*
X136910292Y-105298213D01*
X136910288Y-105298210D01*
X136779185Y-105210609D01*
X136779172Y-105210602D01*
X136633501Y-105150264D01*
X136633489Y-105150261D01*
X136478845Y-105119500D01*
X136478842Y-105119500D01*
X136321158Y-105119500D01*
X136321155Y-105119500D01*
X136166510Y-105150261D01*
X136166498Y-105150264D01*
X136020827Y-105210602D01*
X136020816Y-105210608D01*
X135990000Y-105231199D01*
X135923322Y-105252076D01*
X135855942Y-105233591D01*
X135809252Y-105181611D01*
X135798077Y-105112641D01*
X135799494Y-105103898D01*
X135800500Y-105098841D01*
X135800500Y-104941155D01*
X135800499Y-104941153D01*
X135800432Y-104940814D01*
X135769737Y-104786503D01*
X135756062Y-104753489D01*
X135709397Y-104640827D01*
X135709390Y-104640814D01*
X135621789Y-104509711D01*
X135621786Y-104509707D01*
X135505982Y-104393903D01*
X135507484Y-104392400D01*
X135473570Y-104342608D01*
X135471703Y-104272763D01*
X135507892Y-104212996D01*
X135567376Y-104182889D01*
X135633497Y-104169737D01*
X135779179Y-104109394D01*
X135910289Y-104021789D01*
X136021789Y-103910289D01*
X136109394Y-103779179D01*
X136169737Y-103633497D01*
X136200500Y-103478842D01*
X136200500Y-103321158D01*
X136200500Y-103321155D01*
X136200499Y-103321153D01*
X136194250Y-103289737D01*
X136169737Y-103166503D01*
X136169735Y-103166498D01*
X136109397Y-103020827D01*
X136109390Y-103020814D01*
X136021398Y-102889125D01*
X136000520Y-102822447D01*
X136000500Y-102820234D01*
X136000500Y-102720097D01*
X136020185Y-102653058D01*
X136036819Y-102632416D01*
X136787817Y-101881418D01*
X136849140Y-101847933D01*
X136918832Y-101852917D01*
X136974765Y-101894789D01*
X136999182Y-101960253D01*
X136999498Y-101969099D01*
X136999498Y-102098846D01*
X137030259Y-102253489D01*
X137030262Y-102253501D01*
X137090600Y-102399172D01*
X137090607Y-102399185D01*
X137178208Y-102530288D01*
X137178211Y-102530292D01*
X137289705Y-102641786D01*
X137289713Y-102641792D01*
X137344578Y-102678452D01*
X137389384Y-102732064D01*
X137398091Y-102801389D01*
X137378791Y-102850444D01*
X137311010Y-102951885D01*
X137311004Y-102951896D01*
X137250666Y-103097567D01*
X137250663Y-103097579D01*
X137219902Y-103252222D01*
X137219902Y-103409915D01*
X137250663Y-103564558D01*
X137250666Y-103564570D01*
X137311004Y-103710241D01*
X137311011Y-103710254D01*
X137398612Y-103841357D01*
X137398615Y-103841361D01*
X137510109Y-103952855D01*
X137510113Y-103952858D01*
X137641216Y-104040459D01*
X137641229Y-104040466D01*
X137694953Y-104062719D01*
X137749357Y-104106560D01*
X137771422Y-104172854D01*
X137754143Y-104240553D01*
X137716394Y-104280381D01*
X137689709Y-104298211D01*
X137578213Y-104409707D01*
X137578210Y-104409711D01*
X137490609Y-104540814D01*
X137490602Y-104540827D01*
X137430264Y-104686498D01*
X137430261Y-104686510D01*
X137399500Y-104841153D01*
X137399500Y-104998846D01*
X137430261Y-105153489D01*
X137430264Y-105153501D01*
X137490602Y-105299172D01*
X137490609Y-105299185D01*
X137578210Y-105430288D01*
X137578213Y-105430292D01*
X137689707Y-105541786D01*
X137689711Y-105541789D01*
X137820814Y-105629390D01*
X137820827Y-105629397D01*
X137966498Y-105689735D01*
X137966503Y-105689737D01*
X138062349Y-105708802D01*
X138121153Y-105720499D01*
X138121156Y-105720500D01*
X138121158Y-105720500D01*
X138278844Y-105720500D01*
X138278845Y-105720499D01*
X138433497Y-105689737D01*
X138579179Y-105629394D01*
X138710289Y-105541789D01*
X138821789Y-105430289D01*
X138909394Y-105299179D01*
X138969737Y-105153497D01*
X139000500Y-104998842D01*
X139000500Y-104841158D01*
X139000500Y-104841155D01*
X139000499Y-104841153D01*
X138994244Y-104809707D01*
X138969737Y-104686503D01*
X138942398Y-104620500D01*
X138909397Y-104540827D01*
X138909390Y-104540814D01*
X138821789Y-104409711D01*
X138821786Y-104409707D01*
X138710292Y-104298213D01*
X138710288Y-104298210D01*
X138579185Y-104210609D01*
X138579175Y-104210604D01*
X138525447Y-104188349D01*
X138471044Y-104144508D01*
X138448979Y-104078213D01*
X138466258Y-104010514D01*
X138504011Y-103970685D01*
X138530691Y-103952858D01*
X138642191Y-103841358D01*
X138729796Y-103710248D01*
X138730149Y-103709397D01*
X138761590Y-103633489D01*
X138790139Y-103564566D01*
X138820902Y-103409911D01*
X138820902Y-103252227D01*
X138820902Y-103252224D01*
X138820901Y-103252222D01*
X138808505Y-103189904D01*
X138790139Y-103097572D01*
X138790137Y-103097567D01*
X138734215Y-102962558D01*
X138734199Y-102962520D01*
X138732640Y-102958757D01*
X138729796Y-102951890D01*
X138729793Y-102951885D01*
X138729792Y-102951883D01*
X138709259Y-102921153D01*
X139628546Y-102921153D01*
X139628546Y-103078846D01*
X139659307Y-103233489D01*
X139659310Y-103233501D01*
X139719648Y-103379172D01*
X139719655Y-103379185D01*
X139807256Y-103510288D01*
X139807259Y-103510292D01*
X139918753Y-103621786D01*
X139918757Y-103621789D01*
X140049860Y-103709390D01*
X140049873Y-103709397D01*
X140195544Y-103769735D01*
X140195549Y-103769737D01*
X140337435Y-103797960D01*
X140350199Y-103800499D01*
X140350202Y-103800500D01*
X140352216Y-103800500D01*
X140353232Y-103800798D01*
X140356264Y-103801097D01*
X140356207Y-103801672D01*
X140419255Y-103820185D01*
X140465010Y-103872989D01*
X140474954Y-103942147D01*
X140455319Y-103993390D01*
X140436495Y-104021561D01*
X140436489Y-104021572D01*
X140376151Y-104167243D01*
X140376148Y-104167255D01*
X140345387Y-104321898D01*
X140345387Y-104479591D01*
X140376148Y-104634234D01*
X140376151Y-104634246D01*
X140436489Y-104779917D01*
X140436496Y-104779930D01*
X140524097Y-104911033D01*
X140524100Y-104911037D01*
X140635594Y-105022531D01*
X140635598Y-105022534D01*
X140766701Y-105110135D01*
X140766714Y-105110142D01*
X140912385Y-105170480D01*
X140912390Y-105170482D01*
X141067040Y-105201244D01*
X141067043Y-105201245D01*
X141067045Y-105201245D01*
X141224731Y-105201245D01*
X141224732Y-105201244D01*
X141379384Y-105170482D01*
X141525066Y-105110139D01*
X141656176Y-105022534D01*
X141767676Y-104911034D01*
X141855281Y-104779924D01*
X141915624Y-104634242D01*
X141946387Y-104479587D01*
X141946387Y-104321903D01*
X141946387Y-104321900D01*
X141946386Y-104321898D01*
X141930451Y-104241789D01*
X141915624Y-104167248D01*
X141901115Y-104132219D01*
X141855284Y-104021572D01*
X141855277Y-104021559D01*
X141767676Y-103890456D01*
X141767673Y-103890452D01*
X141656179Y-103778958D01*
X141656175Y-103778955D01*
X141525072Y-103691354D01*
X141525059Y-103691347D01*
X141379388Y-103631009D01*
X141379376Y-103631006D01*
X141224732Y-103600245D01*
X141224729Y-103600245D01*
X141222717Y-103600245D01*
X141221700Y-103599946D01*
X141218669Y-103599648D01*
X141218725Y-103599072D01*
X141155678Y-103580560D01*
X141109923Y-103527756D01*
X141099979Y-103458598D01*
X141119614Y-103407355D01*
X141131951Y-103388890D01*
X141138440Y-103379179D01*
X141154191Y-103341153D01*
X149099500Y-103341153D01*
X149099500Y-103498846D01*
X149130261Y-103653489D01*
X149130264Y-103653501D01*
X149190602Y-103799172D01*
X149190609Y-103799185D01*
X149278210Y-103930288D01*
X149278213Y-103930292D01*
X149389707Y-104041786D01*
X149389711Y-104041789D01*
X149520814Y-104129390D01*
X149520827Y-104129397D01*
X149663152Y-104188349D01*
X149666503Y-104189737D01*
X149815060Y-104219287D01*
X149821153Y-104220499D01*
X149821156Y-104220500D01*
X149821158Y-104220500D01*
X149978844Y-104220500D01*
X149978845Y-104220499D01*
X150133497Y-104189737D01*
X150251592Y-104140821D01*
X150279172Y-104129397D01*
X150279172Y-104129396D01*
X150279179Y-104129394D01*
X150410289Y-104041789D01*
X150521789Y-103930289D01*
X150609394Y-103799179D01*
X150669737Y-103653497D01*
X150700500Y-103498842D01*
X150700500Y-103341158D01*
X150700258Y-103339941D01*
X155698288Y-103339941D01*
X155698288Y-103497634D01*
X155729049Y-103652277D01*
X155729052Y-103652289D01*
X155789390Y-103797960D01*
X155789397Y-103797973D01*
X155876998Y-103929076D01*
X155877001Y-103929080D01*
X155988495Y-104040574D01*
X155988499Y-104040577D01*
X156119602Y-104128178D01*
X156119615Y-104128185D01*
X156264866Y-104188349D01*
X156265291Y-104188525D01*
X156419941Y-104219287D01*
X156419944Y-104219288D01*
X156537763Y-104219288D01*
X156604802Y-104238973D01*
X156640865Y-104274397D01*
X156678210Y-104330289D01*
X156789707Y-104441786D01*
X156789711Y-104441789D01*
X156920814Y-104529390D01*
X156920827Y-104529397D01*
X157024804Y-104572465D01*
X157066503Y-104589737D01*
X157221153Y-104620499D01*
X157221156Y-104620500D01*
X157221158Y-104620500D01*
X157378844Y-104620500D01*
X157378845Y-104620499D01*
X157533497Y-104589737D01*
X157651592Y-104540821D01*
X157679172Y-104529397D01*
X157679172Y-104529396D01*
X157679179Y-104529394D01*
X157810289Y-104441789D01*
X157810925Y-104441153D01*
X158699500Y-104441153D01*
X158699500Y-104598846D01*
X158730261Y-104753489D01*
X158730264Y-104753501D01*
X158790602Y-104899172D01*
X158790609Y-104899185D01*
X158878210Y-105030288D01*
X158878213Y-105030292D01*
X158989707Y-105141786D01*
X158989711Y-105141789D01*
X159120814Y-105229390D01*
X159120827Y-105229397D01*
X159266498Y-105289735D01*
X159266503Y-105289737D01*
X159421153Y-105320499D01*
X159421156Y-105320500D01*
X159421158Y-105320500D01*
X159578844Y-105320500D01*
X159578845Y-105320499D01*
X159733497Y-105289737D01*
X159850790Y-105241153D01*
X159879172Y-105229397D01*
X159879172Y-105229396D01*
X159879179Y-105229394D01*
X160010289Y-105141789D01*
X160121789Y-105030289D01*
X160209394Y-104899179D01*
X160269737Y-104753497D01*
X160300500Y-104598842D01*
X160300500Y-104568549D01*
X166999500Y-104568549D01*
X166999500Y-104791450D01*
X166999501Y-104791466D01*
X167028594Y-105012452D01*
X167028595Y-105012457D01*
X167028596Y-105012463D01*
X167079180Y-105201245D01*
X167086290Y-105227780D01*
X167086293Y-105227790D01*
X167171593Y-105433722D01*
X167171595Y-105433726D01*
X167283052Y-105626774D01*
X167283057Y-105626780D01*
X167283058Y-105626782D01*
X167418751Y-105803622D01*
X167418757Y-105803629D01*
X167576370Y-105961242D01*
X167576377Y-105961248D01*
X167677173Y-106038591D01*
X167753226Y-106096948D01*
X167946274Y-106208405D01*
X168055542Y-106253665D01*
X168122019Y-106281201D01*
X168152219Y-106293710D01*
X168367537Y-106351404D01*
X168588543Y-106380500D01*
X168588550Y-106380500D01*
X168811450Y-106380500D01*
X168811457Y-106380500D01*
X169032463Y-106351404D01*
X169247781Y-106293710D01*
X169453726Y-106208405D01*
X169646774Y-106096948D01*
X169823624Y-105961247D01*
X169981247Y-105803624D01*
X170116948Y-105626774D01*
X170228405Y-105433726D01*
X170313710Y-105227781D01*
X170371404Y-105012463D01*
X170400500Y-104791457D01*
X170400500Y-104568543D01*
X170371404Y-104347537D01*
X170313710Y-104132219D01*
X170228405Y-103926274D01*
X170116948Y-103733226D01*
X170014009Y-103599072D01*
X169981248Y-103556377D01*
X169981242Y-103556370D01*
X169823629Y-103398757D01*
X169823622Y-103398751D01*
X169646782Y-103263058D01*
X169646780Y-103263057D01*
X169646774Y-103263052D01*
X169453726Y-103151595D01*
X169453722Y-103151593D01*
X169247790Y-103066293D01*
X169247783Y-103066291D01*
X169247781Y-103066290D01*
X169032463Y-103008596D01*
X169032457Y-103008595D01*
X169032452Y-103008594D01*
X168811466Y-102979501D01*
X168811463Y-102979500D01*
X168811457Y-102979500D01*
X168588543Y-102979500D01*
X168588537Y-102979500D01*
X168588533Y-102979501D01*
X168367547Y-103008594D01*
X168367540Y-103008595D01*
X168367537Y-103008596D01*
X168212033Y-103050263D01*
X168152219Y-103066290D01*
X168152209Y-103066293D01*
X167946277Y-103151593D01*
X167946273Y-103151595D01*
X167753226Y-103263052D01*
X167753217Y-103263058D01*
X167576377Y-103398751D01*
X167576370Y-103398757D01*
X167418757Y-103556370D01*
X167418751Y-103556377D01*
X167283058Y-103733217D01*
X167283052Y-103733226D01*
X167171595Y-103926273D01*
X167171593Y-103926277D01*
X167086293Y-104132209D01*
X167086290Y-104132219D01*
X167033458Y-104329394D01*
X167028597Y-104347534D01*
X167028594Y-104347547D01*
X166999501Y-104568533D01*
X166999500Y-104568549D01*
X160300500Y-104568549D01*
X160300500Y-104441158D01*
X160300500Y-104441155D01*
X160300499Y-104441153D01*
X160278447Y-104330292D01*
X160269737Y-104286503D01*
X160264046Y-104272763D01*
X160209397Y-104140827D01*
X160209390Y-104140814D01*
X160121789Y-104009711D01*
X160121786Y-104009707D01*
X160010292Y-103898213D01*
X160010288Y-103898210D01*
X159879185Y-103810609D01*
X159879172Y-103810602D01*
X159733501Y-103750264D01*
X159733489Y-103750261D01*
X159578845Y-103719500D01*
X159578842Y-103719500D01*
X159421158Y-103719500D01*
X159421155Y-103719500D01*
X159266510Y-103750261D01*
X159266498Y-103750264D01*
X159120827Y-103810602D01*
X159120814Y-103810609D01*
X158989711Y-103898210D01*
X158989707Y-103898213D01*
X158878213Y-104009707D01*
X158878210Y-104009711D01*
X158790609Y-104140814D01*
X158790602Y-104140827D01*
X158730264Y-104286498D01*
X158730261Y-104286510D01*
X158699500Y-104441153D01*
X157810925Y-104441153D01*
X157853868Y-104398210D01*
X157904694Y-104347385D01*
X157921786Y-104330292D01*
X157921789Y-104330289D01*
X158009394Y-104199179D01*
X158069737Y-104053497D01*
X158100500Y-103898842D01*
X158100500Y-103741158D01*
X158100500Y-103741155D01*
X158100499Y-103741153D01*
X158094353Y-103710254D01*
X158069737Y-103586503D01*
X158060652Y-103564570D01*
X158009397Y-103440827D01*
X158009390Y-103440814D01*
X157921789Y-103309711D01*
X157921786Y-103309707D01*
X157810292Y-103198213D01*
X157810288Y-103198210D01*
X157679185Y-103110609D01*
X157679172Y-103110602D01*
X157533501Y-103050264D01*
X157533489Y-103050261D01*
X157378845Y-103019500D01*
X157378842Y-103019500D01*
X157261025Y-103019500D01*
X157253407Y-103017263D01*
X157245572Y-103018533D01*
X157220362Y-103007559D01*
X157193986Y-102999815D01*
X157187156Y-102993106D01*
X157181508Y-102990648D01*
X157157923Y-102964391D01*
X157149569Y-102951889D01*
X157120577Y-102908499D01*
X157120574Y-102908496D01*
X157120574Y-102908495D01*
X157053232Y-102841153D01*
X161199500Y-102841153D01*
X161199500Y-102998846D01*
X161230261Y-103153489D01*
X161230264Y-103153501D01*
X161290602Y-103299172D01*
X161290609Y-103299185D01*
X161378210Y-103430288D01*
X161378213Y-103430292D01*
X161489707Y-103541786D01*
X161489711Y-103541789D01*
X161620814Y-103629390D01*
X161620827Y-103629397D01*
X161766498Y-103689735D01*
X161766503Y-103689737D01*
X161916131Y-103719500D01*
X161921153Y-103720499D01*
X161921156Y-103720500D01*
X161921158Y-103720500D01*
X162078844Y-103720500D01*
X162078845Y-103720499D01*
X162233497Y-103689737D01*
X162369264Y-103633501D01*
X162379172Y-103629397D01*
X162379172Y-103629396D01*
X162379179Y-103629394D01*
X162510289Y-103541789D01*
X162621789Y-103430289D01*
X162709394Y-103299179D01*
X162769737Y-103153497D01*
X162800500Y-102998842D01*
X162800500Y-102841158D01*
X162800500Y-102841155D01*
X162800499Y-102841153D01*
X162796778Y-102822447D01*
X162769737Y-102686503D01*
X162755884Y-102653058D01*
X162709397Y-102540827D01*
X162709390Y-102540814D01*
X162621789Y-102409711D01*
X162621786Y-102409707D01*
X162510292Y-102298213D01*
X162510288Y-102298210D01*
X162379185Y-102210609D01*
X162379172Y-102210602D01*
X162233501Y-102150264D01*
X162233489Y-102150261D01*
X162078845Y-102119500D01*
X162078842Y-102119500D01*
X161921158Y-102119500D01*
X161921155Y-102119500D01*
X161766510Y-102150261D01*
X161766498Y-102150264D01*
X161620827Y-102210602D01*
X161620814Y-102210609D01*
X161489711Y-102298210D01*
X161489707Y-102298213D01*
X161378213Y-102409707D01*
X161378210Y-102409711D01*
X161290609Y-102540814D01*
X161290602Y-102540827D01*
X161230264Y-102686498D01*
X161230261Y-102686510D01*
X161199500Y-102841153D01*
X157053232Y-102841153D01*
X157009080Y-102797001D01*
X157009076Y-102796998D01*
X156877973Y-102709397D01*
X156877960Y-102709390D01*
X156732289Y-102649052D01*
X156732277Y-102649049D01*
X156577633Y-102618288D01*
X156577630Y-102618288D01*
X156419946Y-102618288D01*
X156419943Y-102618288D01*
X156265298Y-102649049D01*
X156265286Y-102649052D01*
X156119615Y-102709390D01*
X156119602Y-102709397D01*
X155988499Y-102796998D01*
X155988495Y-102797001D01*
X155877001Y-102908495D01*
X155876998Y-102908499D01*
X155789397Y-103039602D01*
X155789390Y-103039615D01*
X155729052Y-103185286D01*
X155729049Y-103185298D01*
X155698288Y-103339941D01*
X150700258Y-103339941D01*
X150699390Y-103335579D01*
X150680543Y-103240827D01*
X150669737Y-103186503D01*
X150637929Y-103109711D01*
X150609397Y-103040827D01*
X150609390Y-103040814D01*
X150521789Y-102909711D01*
X150521786Y-102909707D01*
X150410292Y-102798213D01*
X150410288Y-102798210D01*
X150279185Y-102710609D01*
X150279172Y-102710602D01*
X150133501Y-102650264D01*
X150133489Y-102650261D01*
X149978845Y-102619500D01*
X149978842Y-102619500D01*
X149821158Y-102619500D01*
X149821155Y-102619500D01*
X149666510Y-102650261D01*
X149666498Y-102650264D01*
X149520827Y-102710602D01*
X149520814Y-102710609D01*
X149389711Y-102798210D01*
X149389707Y-102798213D01*
X149278213Y-102909707D01*
X149278210Y-102909711D01*
X149190609Y-103040814D01*
X149190602Y-103040827D01*
X149130264Y-103186498D01*
X149130261Y-103186510D01*
X149099500Y-103341153D01*
X141154191Y-103341153D01*
X141198783Y-103233497D01*
X141229546Y-103078842D01*
X141229546Y-102921158D01*
X141229546Y-102921155D01*
X141229545Y-102921153D01*
X141223296Y-102889737D01*
X141198783Y-102766503D01*
X141198781Y-102766498D01*
X141138443Y-102620827D01*
X141138436Y-102620814D01*
X141060354Y-102503957D01*
X141060353Y-102503956D01*
X141050833Y-102489708D01*
X141002278Y-102441153D01*
X142299500Y-102441153D01*
X142299500Y-102598846D01*
X142330261Y-102753489D01*
X142330264Y-102753501D01*
X142390602Y-102899172D01*
X142390609Y-102899185D01*
X142478210Y-103030288D01*
X142478213Y-103030292D01*
X142589707Y-103141786D01*
X142589711Y-103141789D01*
X142720814Y-103229390D01*
X142720827Y-103229397D01*
X142866498Y-103289735D01*
X142866503Y-103289737D01*
X143021153Y-103320499D01*
X143021156Y-103320500D01*
X143021158Y-103320500D01*
X143178844Y-103320500D01*
X143178845Y-103320499D01*
X143333497Y-103289737D01*
X143451592Y-103240821D01*
X143479172Y-103229397D01*
X143479172Y-103229396D01*
X143479179Y-103229394D01*
X143610289Y-103141789D01*
X143721789Y-103030289D01*
X143809394Y-102899179D01*
X143813559Y-102889125D01*
X143823067Y-102866166D01*
X143869737Y-102753497D01*
X143900500Y-102598842D01*
X143900500Y-102441158D01*
X143900500Y-102441155D01*
X143900499Y-102441153D01*
X143879308Y-102334620D01*
X143869737Y-102286503D01*
X143869735Y-102286498D01*
X143809397Y-102140827D01*
X143809390Y-102140814D01*
X143784763Y-102103957D01*
X143742798Y-102041153D01*
X146599500Y-102041153D01*
X146599500Y-102198846D01*
X146630261Y-102353489D01*
X146630264Y-102353501D01*
X146690602Y-102499172D01*
X146690609Y-102499185D01*
X146778210Y-102630288D01*
X146778213Y-102630292D01*
X146889707Y-102741786D01*
X146889711Y-102741789D01*
X147020814Y-102829390D01*
X147020827Y-102829397D01*
X147137105Y-102877560D01*
X147166503Y-102889737D01*
X147271418Y-102910606D01*
X147321153Y-102920499D01*
X147321156Y-102920500D01*
X147321158Y-102920500D01*
X147478844Y-102920500D01*
X147478845Y-102920499D01*
X147633497Y-102889737D01*
X147779179Y-102829394D01*
X147910289Y-102741789D01*
X148021789Y-102630289D01*
X148109394Y-102499179D01*
X148169737Y-102353497D01*
X148200500Y-102198842D01*
X148200500Y-102041158D01*
X148200500Y-102041155D01*
X148200499Y-102041153D01*
X148199461Y-102035936D01*
X148169737Y-101886503D01*
X148167631Y-101881418D01*
X148109397Y-101740827D01*
X148109390Y-101740814D01*
X148021789Y-101609711D01*
X148021786Y-101609707D01*
X147910292Y-101498213D01*
X147910288Y-101498210D01*
X147779185Y-101410609D01*
X147779172Y-101410602D01*
X147633501Y-101350264D01*
X147633489Y-101350261D01*
X147478845Y-101319500D01*
X147478842Y-101319500D01*
X147321158Y-101319500D01*
X147321155Y-101319500D01*
X147166510Y-101350261D01*
X147166498Y-101350264D01*
X147020827Y-101410602D01*
X147020814Y-101410609D01*
X146889711Y-101498210D01*
X146889707Y-101498213D01*
X146778213Y-101609707D01*
X146778210Y-101609711D01*
X146690609Y-101740814D01*
X146690602Y-101740827D01*
X146630264Y-101886498D01*
X146630261Y-101886510D01*
X146599500Y-102041153D01*
X143742798Y-102041153D01*
X143721789Y-102009711D01*
X143721786Y-102009707D01*
X143610292Y-101898213D01*
X143610288Y-101898210D01*
X143479185Y-101810609D01*
X143479172Y-101810602D01*
X143333501Y-101750264D01*
X143333489Y-101750261D01*
X143178845Y-101719500D01*
X143178842Y-101719500D01*
X143021158Y-101719500D01*
X143021155Y-101719500D01*
X142866510Y-101750261D01*
X142866498Y-101750264D01*
X142720827Y-101810602D01*
X142720814Y-101810609D01*
X142589711Y-101898210D01*
X142589707Y-101898213D01*
X142478213Y-102009707D01*
X142478210Y-102009711D01*
X142390609Y-102140814D01*
X142390602Y-102140827D01*
X142330264Y-102286498D01*
X142330261Y-102286510D01*
X142299500Y-102441153D01*
X141002278Y-102441153D01*
X140939338Y-102378213D01*
X140939334Y-102378210D01*
X140808231Y-102290609D01*
X140808218Y-102290602D01*
X140662547Y-102230264D01*
X140662535Y-102230261D01*
X140507891Y-102199500D01*
X140507888Y-102199500D01*
X140350204Y-102199500D01*
X140350201Y-102199500D01*
X140195556Y-102230261D01*
X140195544Y-102230264D01*
X140049873Y-102290602D01*
X140049860Y-102290609D01*
X139918757Y-102378210D01*
X139918753Y-102378213D01*
X139807259Y-102489707D01*
X139807256Y-102489711D01*
X139719655Y-102620814D01*
X139719648Y-102620827D01*
X139659310Y-102766498D01*
X139659307Y-102766510D01*
X139628546Y-102921153D01*
X138709259Y-102921153D01*
X138642191Y-102820780D01*
X138642188Y-102820776D01*
X138530694Y-102709282D01*
X138530690Y-102709279D01*
X138475820Y-102672616D01*
X138431015Y-102619004D01*
X138422308Y-102549679D01*
X138441609Y-102500623D01*
X138442579Y-102499172D01*
X138509392Y-102399179D01*
X138512613Y-102391404D01*
X138536510Y-102333709D01*
X138569735Y-102253497D01*
X138600498Y-102098842D01*
X138600498Y-101941158D01*
X138600498Y-101941155D01*
X138600497Y-101941153D01*
X138591955Y-101898210D01*
X138569735Y-101786503D01*
X138559716Y-101762315D01*
X138509395Y-101640827D01*
X138509388Y-101640814D01*
X138421787Y-101509711D01*
X138421784Y-101509707D01*
X138310290Y-101398213D01*
X138310286Y-101398210D01*
X138179183Y-101310609D01*
X138179170Y-101310602D01*
X138033499Y-101250264D01*
X138033487Y-101250261D01*
X137878843Y-101219500D01*
X137878840Y-101219500D01*
X137749097Y-101219500D01*
X137727851Y-101213261D01*
X137705763Y-101211682D01*
X137694979Y-101203609D01*
X137682058Y-101199815D01*
X137667558Y-101183081D01*
X137649830Y-101169810D01*
X137645122Y-101157189D01*
X137636303Y-101147011D01*
X137633151Y-101125093D01*
X137625413Y-101104346D01*
X137628275Y-101091185D01*
X137626359Y-101077853D01*
X137635558Y-101057709D01*
X137640265Y-101036073D01*
X137653533Y-101018347D01*
X137655384Y-101014297D01*
X137661416Y-101007819D01*
X137728082Y-100941153D01*
X154799500Y-100941153D01*
X154799500Y-101098846D01*
X154830261Y-101253489D01*
X154830264Y-101253501D01*
X154890602Y-101399172D01*
X154890609Y-101399185D01*
X154978210Y-101530288D01*
X154978213Y-101530292D01*
X155089707Y-101641786D01*
X155089711Y-101641789D01*
X155220814Y-101729390D01*
X155220827Y-101729397D01*
X155357773Y-101786121D01*
X155366503Y-101789737D01*
X155521153Y-101820499D01*
X155521156Y-101820500D01*
X155521158Y-101820500D01*
X155678844Y-101820500D01*
X155678845Y-101820499D01*
X155833497Y-101789737D01*
X155899700Y-101762314D01*
X155969167Y-101754846D01*
X156031646Y-101786121D01*
X156061712Y-101829423D01*
X156090604Y-101899176D01*
X156090609Y-101899185D01*
X156178210Y-102030288D01*
X156178213Y-102030292D01*
X156289707Y-102141786D01*
X156289711Y-102141789D01*
X156420814Y-102229390D01*
X156420827Y-102229397D01*
X156497364Y-102261099D01*
X156566503Y-102289737D01*
X156721153Y-102320499D01*
X156721156Y-102320500D01*
X156721158Y-102320500D01*
X156878844Y-102320500D01*
X156878845Y-102320499D01*
X157033497Y-102289737D01*
X157179179Y-102229394D01*
X157310289Y-102141789D01*
X157421789Y-102030289D01*
X157509394Y-101899179D01*
X157569737Y-101753497D01*
X157600500Y-101598842D01*
X157600500Y-101441158D01*
X157600500Y-101441155D01*
X157600499Y-101441153D01*
X157593034Y-101403624D01*
X157569737Y-101286503D01*
X157556062Y-101253489D01*
X157509397Y-101140827D01*
X157509390Y-101140814D01*
X157421789Y-101009711D01*
X157421786Y-101009707D01*
X157310292Y-100898213D01*
X157310288Y-100898210D01*
X157179185Y-100810609D01*
X157179172Y-100810602D01*
X157033501Y-100750264D01*
X157033489Y-100750261D01*
X156912030Y-100726101D01*
X156912029Y-100726101D01*
X156878844Y-100719500D01*
X156878842Y-100719500D01*
X156721158Y-100719500D01*
X156721155Y-100719500D01*
X156566510Y-100750261D01*
X156566503Y-100750263D01*
X156500299Y-100777685D01*
X156430830Y-100785153D01*
X156368351Y-100753877D01*
X156338287Y-100710575D01*
X156309397Y-100640827D01*
X156309390Y-100640814D01*
X156287831Y-100608549D01*
X166999500Y-100608549D01*
X166999500Y-100831450D01*
X166999501Y-100831466D01*
X167028594Y-101052452D01*
X167028595Y-101052457D01*
X167028596Y-101052463D01*
X167082463Y-101253497D01*
X167086290Y-101267780D01*
X167086293Y-101267790D01*
X167158105Y-101441158D01*
X167171595Y-101473726D01*
X167283052Y-101666774D01*
X167283057Y-101666780D01*
X167283058Y-101666782D01*
X167418751Y-101843622D01*
X167418757Y-101843629D01*
X167576370Y-102001242D01*
X167576377Y-102001248D01*
X167620825Y-102035354D01*
X167753226Y-102136948D01*
X167946274Y-102248405D01*
X168048164Y-102290609D01*
X168101404Y-102312662D01*
X168152219Y-102333710D01*
X168367537Y-102391404D01*
X168588543Y-102420500D01*
X168588550Y-102420500D01*
X168811450Y-102420500D01*
X168811457Y-102420500D01*
X169032463Y-102391404D01*
X169247781Y-102333710D01*
X169453726Y-102248405D01*
X169646774Y-102136948D01*
X169823624Y-102001247D01*
X169981247Y-101843624D01*
X170116948Y-101666774D01*
X170228405Y-101473726D01*
X170313710Y-101267781D01*
X170371404Y-101052463D01*
X170400500Y-100831457D01*
X170400500Y-100608543D01*
X170371404Y-100387537D01*
X170313710Y-100172219D01*
X170228405Y-99966274D01*
X170116948Y-99773226D01*
X170077867Y-99722294D01*
X169981248Y-99596377D01*
X169981242Y-99596370D01*
X169823629Y-99438757D01*
X169823622Y-99438751D01*
X169646782Y-99303058D01*
X169646780Y-99303057D01*
X169646774Y-99303052D01*
X169453726Y-99191595D01*
X169453722Y-99191593D01*
X169247790Y-99106293D01*
X169247783Y-99106291D01*
X169247781Y-99106290D01*
X169032463Y-99048596D01*
X169032457Y-99048595D01*
X169032452Y-99048594D01*
X168811466Y-99019501D01*
X168811463Y-99019500D01*
X168811457Y-99019500D01*
X168588543Y-99019500D01*
X168588537Y-99019500D01*
X168588533Y-99019501D01*
X168367547Y-99048594D01*
X168367540Y-99048595D01*
X168367537Y-99048596D01*
X168180008Y-99098844D01*
X168152219Y-99106290D01*
X168152209Y-99106293D01*
X167946277Y-99191593D01*
X167946273Y-99191595D01*
X167753226Y-99303052D01*
X167753217Y-99303058D01*
X167576377Y-99438751D01*
X167576370Y-99438757D01*
X167418757Y-99596370D01*
X167418751Y-99596377D01*
X167283058Y-99773217D01*
X167283052Y-99773226D01*
X167171595Y-99966273D01*
X167171593Y-99966277D01*
X167086293Y-100172209D01*
X167086290Y-100172219D01*
X167049210Y-100310606D01*
X167028597Y-100387534D01*
X167028594Y-100387547D01*
X166999501Y-100608533D01*
X166999500Y-100608549D01*
X156287831Y-100608549D01*
X156221789Y-100509711D01*
X156221786Y-100509707D01*
X156110292Y-100398213D01*
X156110288Y-100398210D01*
X155979185Y-100310609D01*
X155979172Y-100310602D01*
X155833501Y-100250264D01*
X155833489Y-100250261D01*
X155678845Y-100219500D01*
X155678842Y-100219500D01*
X155521158Y-100219500D01*
X155521155Y-100219500D01*
X155366510Y-100250261D01*
X155366498Y-100250264D01*
X155220827Y-100310602D01*
X155220814Y-100310609D01*
X155089711Y-100398210D01*
X155089707Y-100398213D01*
X154978213Y-100509707D01*
X154978210Y-100509711D01*
X154890609Y-100640814D01*
X154890602Y-100640827D01*
X154830264Y-100786498D01*
X154830261Y-100786510D01*
X154799500Y-100941153D01*
X137728082Y-100941153D01*
X137821850Y-100847385D01*
X138739845Y-99929390D01*
X139728081Y-98941153D01*
X162999500Y-98941153D01*
X162999500Y-99098846D01*
X163030261Y-99253489D01*
X163030264Y-99253501D01*
X163090602Y-99399172D01*
X163090609Y-99399185D01*
X163178210Y-99530288D01*
X163178213Y-99530292D01*
X163289707Y-99641786D01*
X163289711Y-99641789D01*
X163420814Y-99729390D01*
X163420827Y-99729397D01*
X163566498Y-99789735D01*
X163566503Y-99789737D01*
X163721153Y-99820499D01*
X163721156Y-99820500D01*
X163721158Y-99820500D01*
X163878844Y-99820500D01*
X163878845Y-99820499D01*
X164033497Y-99789737D01*
X164179179Y-99729394D01*
X164310289Y-99641789D01*
X164421789Y-99530289D01*
X164509394Y-99399179D01*
X164569737Y-99253497D01*
X164600500Y-99098842D01*
X164600500Y-98941158D01*
X164600500Y-98941155D01*
X164600499Y-98941153D01*
X164584965Y-98863058D01*
X164569737Y-98786503D01*
X164537929Y-98709711D01*
X164509397Y-98640827D01*
X164509390Y-98640814D01*
X164421789Y-98509711D01*
X164421786Y-98509707D01*
X164310292Y-98398213D01*
X164310288Y-98398210D01*
X164179185Y-98310609D01*
X164179172Y-98310602D01*
X164033501Y-98250264D01*
X164033489Y-98250261D01*
X163878845Y-98219500D01*
X163878842Y-98219500D01*
X163721158Y-98219500D01*
X163721155Y-98219500D01*
X163566510Y-98250261D01*
X163566498Y-98250264D01*
X163420827Y-98310602D01*
X163420814Y-98310609D01*
X163289711Y-98398210D01*
X163289707Y-98398213D01*
X163178213Y-98509707D01*
X163178210Y-98509711D01*
X163090609Y-98640814D01*
X163090602Y-98640827D01*
X163030264Y-98786498D01*
X163030261Y-98786510D01*
X162999500Y-98941153D01*
X139728081Y-98941153D01*
X140014662Y-98654572D01*
X140075983Y-98621089D01*
X140078150Y-98620638D01*
X140138697Y-98608594D01*
X140233497Y-98589737D01*
X140379179Y-98529394D01*
X140510289Y-98441789D01*
X140621789Y-98330289D01*
X140709394Y-98199179D01*
X140769737Y-98053497D01*
X140800500Y-97898842D01*
X140800500Y-97741158D01*
X140800500Y-97741155D01*
X140784209Y-97659258D01*
X140784209Y-97659257D01*
X140780608Y-97641153D01*
X141899500Y-97641153D01*
X141899500Y-97798846D01*
X141930261Y-97953489D01*
X141930264Y-97953501D01*
X141990602Y-98099172D01*
X141990609Y-98099185D01*
X142078210Y-98230288D01*
X142078213Y-98230292D01*
X142189707Y-98341786D01*
X142189711Y-98341789D01*
X142320814Y-98429390D01*
X142320827Y-98429397D01*
X142466498Y-98489735D01*
X142466503Y-98489737D01*
X142621153Y-98520499D01*
X142621156Y-98520500D01*
X142621158Y-98520500D01*
X142778844Y-98520500D01*
X142778845Y-98520499D01*
X142933497Y-98489737D01*
X143074324Y-98431405D01*
X143079172Y-98429397D01*
X143079172Y-98429396D01*
X143079179Y-98429394D01*
X143210289Y-98341789D01*
X143321789Y-98230289D01*
X143409394Y-98099179D01*
X143469737Y-97953497D01*
X143500500Y-97798842D01*
X143500500Y-97641158D01*
X143500500Y-97641155D01*
X143500499Y-97641153D01*
X143480734Y-97541789D01*
X143469737Y-97486503D01*
X143446080Y-97429390D01*
X143409397Y-97340827D01*
X143409390Y-97340814D01*
X143321789Y-97209711D01*
X143321786Y-97209707D01*
X143210292Y-97098213D01*
X143210288Y-97098210D01*
X143079185Y-97010609D01*
X143079172Y-97010602D01*
X142933501Y-96950264D01*
X142933489Y-96950261D01*
X142778845Y-96919500D01*
X142778842Y-96919500D01*
X142621158Y-96919500D01*
X142621155Y-96919500D01*
X142466510Y-96950261D01*
X142466498Y-96950264D01*
X142320827Y-97010602D01*
X142320814Y-97010609D01*
X142189711Y-97098210D01*
X142189707Y-97098213D01*
X142078213Y-97209707D01*
X142078210Y-97209711D01*
X141990609Y-97340814D01*
X141990602Y-97340827D01*
X141930264Y-97486498D01*
X141930261Y-97486510D01*
X141899500Y-97641153D01*
X140780608Y-97641153D01*
X140769738Y-97586510D01*
X140769738Y-97586508D01*
X140769737Y-97586503D01*
X140742398Y-97520500D01*
X140709397Y-97440827D01*
X140709390Y-97440814D01*
X140621789Y-97309711D01*
X140621786Y-97309707D01*
X140510292Y-97198213D01*
X140510288Y-97198210D01*
X140379185Y-97110609D01*
X140379172Y-97110602D01*
X140233501Y-97050264D01*
X140233489Y-97050261D01*
X140078845Y-97019500D01*
X140078842Y-97019500D01*
X139921158Y-97019500D01*
X139921155Y-97019500D01*
X139766510Y-97050261D01*
X139766498Y-97050264D01*
X139620827Y-97110602D01*
X139620814Y-97110609D01*
X139489711Y-97198210D01*
X139489707Y-97198213D01*
X139378213Y-97309707D01*
X139378210Y-97309711D01*
X139290609Y-97440814D01*
X139290602Y-97440827D01*
X139230264Y-97586498D01*
X139230261Y-97586508D01*
X139199361Y-97741850D01*
X139166976Y-97803761D01*
X139165425Y-97805339D01*
X134919481Y-102051282D01*
X134919479Y-102051284D01*
X134894303Y-102094893D01*
X134880096Y-102119500D01*
X134840423Y-102188215D01*
X134799499Y-102340943D01*
X134799499Y-102340945D01*
X134799499Y-102509046D01*
X134799500Y-102509059D01*
X134799500Y-102820234D01*
X134779815Y-102887273D01*
X134778602Y-102889125D01*
X134690609Y-103020814D01*
X134690602Y-103020827D01*
X134630264Y-103166498D01*
X134630261Y-103166510D01*
X134599500Y-103321153D01*
X134599500Y-103478846D01*
X134630261Y-103633489D01*
X134630264Y-103633501D01*
X134690602Y-103779172D01*
X134690609Y-103779185D01*
X134778210Y-103910288D01*
X134778213Y-103910292D01*
X134894018Y-104026097D01*
X134892514Y-104027600D01*
X134926427Y-104077385D01*
X134928298Y-104147230D01*
X134892112Y-104206998D01*
X134832620Y-104237111D01*
X134766508Y-104250261D01*
X134766498Y-104250264D01*
X134620827Y-104310602D01*
X134620814Y-104310609D01*
X134489711Y-104398210D01*
X134489707Y-104398213D01*
X134378213Y-104509707D01*
X134378210Y-104509711D01*
X134290609Y-104640814D01*
X134290602Y-104640827D01*
X134230264Y-104786498D01*
X134230261Y-104786510D01*
X134199500Y-104941153D01*
X131509532Y-104941153D01*
X131509395Y-104940823D01*
X131509390Y-104940814D01*
X131421789Y-104809711D01*
X131421786Y-104809707D01*
X131310292Y-104698213D01*
X131310288Y-104698210D01*
X131179185Y-104610609D01*
X131179172Y-104610602D01*
X131033501Y-104550264D01*
X131033489Y-104550261D01*
X130878845Y-104519500D01*
X130878842Y-104519500D01*
X130721158Y-104519500D01*
X130721155Y-104519500D01*
X130566510Y-104550261D01*
X130566498Y-104550264D01*
X130420827Y-104610602D01*
X130420814Y-104610609D01*
X130289711Y-104698210D01*
X130289707Y-104698213D01*
X130178213Y-104809707D01*
X130178210Y-104809711D01*
X130090609Y-104940814D01*
X130090602Y-104940827D01*
X130030264Y-105086498D01*
X130030261Y-105086510D01*
X129999500Y-105241153D01*
X124875222Y-105241153D01*
X124916948Y-105186774D01*
X125028405Y-104993726D01*
X125113710Y-104787781D01*
X125171404Y-104572463D01*
X125200500Y-104351457D01*
X125200500Y-104128543D01*
X125171404Y-103907537D01*
X125113710Y-103692219D01*
X125113350Y-103691351D01*
X125060836Y-103564570D01*
X125028405Y-103486274D01*
X124916948Y-103293226D01*
X124837661Y-103189896D01*
X124781248Y-103116377D01*
X124781242Y-103116370D01*
X124623629Y-102958757D01*
X124623622Y-102958751D01*
X124517811Y-102877560D01*
X132252680Y-102877560D01*
X132252680Y-103035253D01*
X132283441Y-103189896D01*
X132283444Y-103189908D01*
X132343782Y-103335579D01*
X132343789Y-103335592D01*
X132431390Y-103466695D01*
X132431393Y-103466699D01*
X132542890Y-103578196D01*
X132653122Y-103651850D01*
X132697927Y-103705462D01*
X132705848Y-103730760D01*
X132730261Y-103853491D01*
X132730264Y-103853501D01*
X132790602Y-103999172D01*
X132790609Y-103999185D01*
X132878210Y-104130288D01*
X132878213Y-104130292D01*
X132989707Y-104241786D01*
X132989711Y-104241789D01*
X133120814Y-104329390D01*
X133120827Y-104329397D01*
X133266498Y-104389735D01*
X133266503Y-104389737D01*
X133421153Y-104420499D01*
X133421156Y-104420500D01*
X133421158Y-104420500D01*
X133578844Y-104420500D01*
X133578845Y-104420499D01*
X133733497Y-104389737D01*
X133879179Y-104329394D01*
X134010289Y-104241789D01*
X134121789Y-104130289D01*
X134209394Y-103999179D01*
X134269737Y-103853497D01*
X134300500Y-103698842D01*
X134300500Y-103541158D01*
X134300500Y-103541155D01*
X134300499Y-103541153D01*
X134294360Y-103510289D01*
X134269737Y-103386503D01*
X134266703Y-103379179D01*
X134209397Y-103240827D01*
X134209390Y-103240814D01*
X134121789Y-103109711D01*
X134121786Y-103109707D01*
X134010292Y-102998213D01*
X134010288Y-102998210D01*
X133900057Y-102924555D01*
X133855252Y-102870942D01*
X133847331Y-102845644D01*
X133829001Y-102753497D01*
X133822917Y-102722910D01*
X133793984Y-102653058D01*
X133762577Y-102577234D01*
X133762570Y-102577221D01*
X133674970Y-102446120D01*
X133674969Y-102446118D01*
X133674965Y-102446114D01*
X133674740Y-102445839D01*
X133674665Y-102445662D01*
X133671585Y-102441053D01*
X133672458Y-102440469D01*
X133647423Y-102381531D01*
X133659210Y-102312662D01*
X133706359Y-102261099D01*
X133723124Y-102252612D01*
X133779179Y-102229394D01*
X133910289Y-102141789D01*
X134021789Y-102030289D01*
X134109394Y-101899179D01*
X134169737Y-101753497D01*
X134200500Y-101598842D01*
X134200500Y-101441158D01*
X134200500Y-101441155D01*
X134200499Y-101441153D01*
X134193034Y-101403624D01*
X134169737Y-101286503D01*
X134156062Y-101253489D01*
X134109397Y-101140827D01*
X134109390Y-101140814D01*
X134021789Y-101009711D01*
X134021786Y-101009707D01*
X133910292Y-100898213D01*
X133910288Y-100898210D01*
X133779185Y-100810609D01*
X133779172Y-100810602D01*
X133633501Y-100750264D01*
X133633489Y-100750261D01*
X133478845Y-100719500D01*
X133478842Y-100719500D01*
X133321158Y-100719500D01*
X133321155Y-100719500D01*
X133166510Y-100750261D01*
X133166498Y-100750264D01*
X133020827Y-100810602D01*
X133020814Y-100810609D01*
X132889711Y-100898210D01*
X132889707Y-100898213D01*
X132778213Y-101009707D01*
X132778210Y-101009711D01*
X132690609Y-101140814D01*
X132690602Y-101140827D01*
X132630264Y-101286498D01*
X132630261Y-101286510D01*
X132599500Y-101441153D01*
X132599500Y-101598846D01*
X132630261Y-101753489D01*
X132630264Y-101753501D01*
X132690602Y-101899172D01*
X132690609Y-101899185D01*
X132778216Y-102030297D01*
X132778449Y-102030581D01*
X132778524Y-102030758D01*
X132781595Y-102035354D01*
X132780723Y-102035936D01*
X132805757Y-102094893D01*
X132793961Y-102163759D01*
X132746804Y-102215316D01*
X132730043Y-102223799D01*
X132674004Y-102247011D01*
X132673994Y-102247016D01*
X132542891Y-102334617D01*
X132542887Y-102334620D01*
X132431393Y-102446114D01*
X132431390Y-102446118D01*
X132343789Y-102577221D01*
X132343782Y-102577234D01*
X132283444Y-102722905D01*
X132283441Y-102722917D01*
X132252680Y-102877560D01*
X124517811Y-102877560D01*
X124446782Y-102823058D01*
X124446780Y-102823057D01*
X124446774Y-102823052D01*
X124253726Y-102711595D01*
X124253722Y-102711593D01*
X124047790Y-102626293D01*
X124047783Y-102626291D01*
X124047781Y-102626290D01*
X123832463Y-102568596D01*
X123832457Y-102568595D01*
X123832452Y-102568594D01*
X123611466Y-102539501D01*
X123611463Y-102539500D01*
X123611457Y-102539500D01*
X123388543Y-102539500D01*
X123388537Y-102539500D01*
X123388533Y-102539501D01*
X123167547Y-102568594D01*
X123167540Y-102568595D01*
X123167537Y-102568596D01*
X122952219Y-102626290D01*
X122952209Y-102626293D01*
X122746277Y-102711593D01*
X122746273Y-102711595D01*
X122553226Y-102823052D01*
X122553217Y-102823058D01*
X122376377Y-102958751D01*
X122376370Y-102958757D01*
X122218757Y-103116370D01*
X122218751Y-103116377D01*
X122083058Y-103293217D01*
X122083052Y-103293226D01*
X121971595Y-103486273D01*
X121971593Y-103486277D01*
X121886293Y-103692209D01*
X121886290Y-103692219D01*
X121831095Y-103898213D01*
X121828597Y-103907534D01*
X121828594Y-103907547D01*
X121799501Y-104128533D01*
X121799500Y-104128549D01*
X118100500Y-104128549D01*
X118100500Y-100168549D01*
X121799500Y-100168549D01*
X121799500Y-100391458D01*
X121828594Y-100612452D01*
X121828595Y-100612457D01*
X121828596Y-100612463D01*
X121875230Y-100786503D01*
X121886290Y-100827780D01*
X121886293Y-100827790D01*
X121971593Y-101033722D01*
X121971595Y-101033726D01*
X122083052Y-101226774D01*
X122083057Y-101226780D01*
X122083058Y-101226782D01*
X122218751Y-101403622D01*
X122218757Y-101403629D01*
X122376370Y-101561242D01*
X122376377Y-101561248D01*
X122425376Y-101598846D01*
X122553226Y-101696948D01*
X122746274Y-101808405D01*
X122841703Y-101847933D01*
X122934836Y-101886510D01*
X122952219Y-101893710D01*
X123167537Y-101951404D01*
X123388543Y-101980500D01*
X123388550Y-101980500D01*
X123611450Y-101980500D01*
X123611457Y-101980500D01*
X123832463Y-101951404D01*
X124047781Y-101893710D01*
X124253726Y-101808405D01*
X124446774Y-101696948D01*
X124623624Y-101561247D01*
X124781247Y-101403624D01*
X124916948Y-101226774D01*
X125028405Y-101033726D01*
X125113710Y-100827781D01*
X125171404Y-100612463D01*
X125200500Y-100391457D01*
X125200500Y-100168543D01*
X125171404Y-99947537D01*
X125113710Y-99732219D01*
X125028405Y-99526274D01*
X124916948Y-99333226D01*
X124916943Y-99333220D01*
X124916941Y-99333216D01*
X124822818Y-99210552D01*
X124781248Y-99156377D01*
X124781242Y-99156370D01*
X124766025Y-99141153D01*
X131699500Y-99141153D01*
X131699500Y-99298846D01*
X131730261Y-99453489D01*
X131730264Y-99453501D01*
X131790602Y-99599172D01*
X131790609Y-99599185D01*
X131878210Y-99730288D01*
X131878213Y-99730292D01*
X131989707Y-99841786D01*
X131989711Y-99841789D01*
X132120814Y-99929390D01*
X132120827Y-99929397D01*
X132209865Y-99966277D01*
X132266503Y-99989737D01*
X132421153Y-100020499D01*
X132421156Y-100020500D01*
X132421158Y-100020500D01*
X132578844Y-100020500D01*
X132578845Y-100020499D01*
X132733497Y-99989737D01*
X132879179Y-99929394D01*
X133010289Y-99841789D01*
X133121789Y-99730289D01*
X133209394Y-99599179D01*
X133269737Y-99453497D01*
X133300500Y-99298842D01*
X133300500Y-99141158D01*
X133300500Y-99141155D01*
X133300499Y-99141153D01*
X133293564Y-99106290D01*
X133269737Y-98986503D01*
X133250955Y-98941158D01*
X133209397Y-98840827D01*
X133209390Y-98840814D01*
X133121789Y-98709711D01*
X133121786Y-98709707D01*
X133010292Y-98598213D01*
X133010288Y-98598210D01*
X132879185Y-98510609D01*
X132879172Y-98510602D01*
X132733501Y-98450264D01*
X132733489Y-98450261D01*
X132578845Y-98419500D01*
X132578842Y-98419500D01*
X132421158Y-98419500D01*
X132421155Y-98419500D01*
X132266510Y-98450261D01*
X132266498Y-98450264D01*
X132120827Y-98510602D01*
X132120814Y-98510609D01*
X131989711Y-98598210D01*
X131989707Y-98598213D01*
X131878213Y-98709707D01*
X131878210Y-98709711D01*
X131790609Y-98840814D01*
X131790602Y-98840827D01*
X131730264Y-98986498D01*
X131730261Y-98986510D01*
X131699500Y-99141153D01*
X124766025Y-99141153D01*
X124623629Y-98998757D01*
X124623622Y-98998751D01*
X124446782Y-98863058D01*
X124446780Y-98863057D01*
X124446774Y-98863052D01*
X124253726Y-98751595D01*
X124253722Y-98751593D01*
X124047790Y-98666293D01*
X124047783Y-98666291D01*
X124047781Y-98666290D01*
X123832463Y-98608596D01*
X123832457Y-98608595D01*
X123832452Y-98608594D01*
X123611466Y-98579501D01*
X123611463Y-98579500D01*
X123611457Y-98579500D01*
X123388543Y-98579500D01*
X123388537Y-98579500D01*
X123388533Y-98579501D01*
X123167547Y-98608594D01*
X123167540Y-98608595D01*
X123167537Y-98608596D01*
X123047271Y-98640821D01*
X122952219Y-98666290D01*
X122952209Y-98666293D01*
X122746277Y-98751593D01*
X122746273Y-98751595D01*
X122553226Y-98863052D01*
X122553217Y-98863058D01*
X122376377Y-98998751D01*
X122376370Y-98998757D01*
X122218757Y-99156370D01*
X122218751Y-99156377D01*
X122083058Y-99333217D01*
X122083052Y-99333226D01*
X121971595Y-99526273D01*
X121971593Y-99526277D01*
X121886293Y-99732209D01*
X121886290Y-99732219D01*
X121833458Y-99929394D01*
X121828597Y-99947534D01*
X121828594Y-99947547D01*
X121799501Y-100168533D01*
X121799500Y-100168549D01*
X118100500Y-100168549D01*
X118100500Y-96208549D01*
X121799500Y-96208549D01*
X121799500Y-96431458D01*
X121828594Y-96652452D01*
X121828595Y-96652457D01*
X121828596Y-96652463D01*
X121886290Y-96867780D01*
X121886293Y-96867790D01*
X121966730Y-97061982D01*
X121971595Y-97073726D01*
X122083052Y-97266774D01*
X122083057Y-97266780D01*
X122083058Y-97266782D01*
X122218751Y-97443622D01*
X122218757Y-97443629D01*
X122376370Y-97601242D01*
X122376377Y-97601248D01*
X122451978Y-97659258D01*
X122553226Y-97736948D01*
X122746274Y-97848405D01*
X122952219Y-97933710D01*
X123167537Y-97991404D01*
X123388543Y-98020500D01*
X123388550Y-98020500D01*
X123611450Y-98020500D01*
X123611457Y-98020500D01*
X123832463Y-97991404D01*
X124047781Y-97933710D01*
X124253726Y-97848405D01*
X124446774Y-97736948D01*
X124571617Y-97641153D01*
X133499500Y-97641153D01*
X133499500Y-97798846D01*
X133530261Y-97953489D01*
X133530264Y-97953501D01*
X133590602Y-98099172D01*
X133590609Y-98099185D01*
X133678210Y-98230288D01*
X133678213Y-98230292D01*
X133789707Y-98341786D01*
X133789711Y-98341789D01*
X133920814Y-98429390D01*
X133920827Y-98429397D01*
X134066498Y-98489735D01*
X134066503Y-98489737D01*
X134221153Y-98520499D01*
X134221156Y-98520500D01*
X134221158Y-98520500D01*
X134378844Y-98520500D01*
X134378845Y-98520499D01*
X134533497Y-98489737D01*
X134674324Y-98431405D01*
X134679172Y-98429397D01*
X134679172Y-98429396D01*
X134679179Y-98429394D01*
X134810289Y-98341789D01*
X134921789Y-98230289D01*
X135009394Y-98099179D01*
X135069737Y-97953497D01*
X135100500Y-97798842D01*
X135100500Y-97741153D01*
X136699500Y-97741153D01*
X136699500Y-97898846D01*
X136730261Y-98053489D01*
X136730264Y-98053501D01*
X136790602Y-98199172D01*
X136790609Y-98199185D01*
X136878210Y-98330288D01*
X136878213Y-98330292D01*
X136989707Y-98441786D01*
X136989711Y-98441789D01*
X137120814Y-98529390D01*
X137120827Y-98529397D01*
X137242119Y-98579637D01*
X137266503Y-98589737D01*
X137421153Y-98620499D01*
X137421156Y-98620500D01*
X137421158Y-98620500D01*
X137578844Y-98620500D01*
X137578845Y-98620499D01*
X137733497Y-98589737D01*
X137879179Y-98529394D01*
X138010289Y-98441789D01*
X138121789Y-98330289D01*
X138209394Y-98199179D01*
X138269737Y-98053497D01*
X138300500Y-97898842D01*
X138300500Y-97741158D01*
X138300500Y-97741155D01*
X138299903Y-97735093D01*
X138301465Y-97734939D01*
X138307002Y-97672987D01*
X138349858Y-97617805D01*
X138398204Y-97596757D01*
X138433497Y-97589737D01*
X138579179Y-97529394D01*
X138710289Y-97441789D01*
X138821789Y-97330289D01*
X138909394Y-97199179D01*
X138914182Y-97187621D01*
X138928319Y-97153489D01*
X138969737Y-97053497D01*
X139000500Y-96898842D01*
X139000500Y-96841153D01*
X151299500Y-96841153D01*
X151299500Y-96998846D01*
X151330261Y-97153489D01*
X151330264Y-97153501D01*
X151390602Y-97299172D01*
X151390609Y-97299185D01*
X151478210Y-97430288D01*
X151478213Y-97430292D01*
X151589707Y-97541786D01*
X151589711Y-97541789D01*
X151720814Y-97629390D01*
X151720827Y-97629397D01*
X151866498Y-97689735D01*
X151866503Y-97689737D01*
X152021153Y-97720499D01*
X152021156Y-97720500D01*
X152021158Y-97720500D01*
X152178844Y-97720500D01*
X152178845Y-97720499D01*
X152333497Y-97689737D01*
X152479179Y-97629394D01*
X152610289Y-97541789D01*
X152721789Y-97430289D01*
X152809394Y-97299179D01*
X152813316Y-97289711D01*
X152833429Y-97241153D01*
X154199500Y-97241153D01*
X154199500Y-97398846D01*
X154230261Y-97553489D01*
X154230264Y-97553501D01*
X154290602Y-97699172D01*
X154290609Y-97699185D01*
X154378210Y-97830288D01*
X154378213Y-97830292D01*
X154489707Y-97941786D01*
X154489711Y-97941789D01*
X154620814Y-98029390D01*
X154620827Y-98029397D01*
X154649439Y-98041248D01*
X154766503Y-98089737D01*
X154797352Y-98095873D01*
X154859262Y-98128256D01*
X154887722Y-98170037D01*
X154920603Y-98249418D01*
X154920608Y-98249428D01*
X155008209Y-98380531D01*
X155008212Y-98380535D01*
X155119706Y-98492029D01*
X155119710Y-98492032D01*
X155250813Y-98579633D01*
X155250826Y-98579640D01*
X155396497Y-98639978D01*
X155396502Y-98639980D01*
X155551152Y-98670742D01*
X155551155Y-98670743D01*
X155551157Y-98670743D01*
X155708843Y-98670743D01*
X155708844Y-98670742D01*
X155863496Y-98639980D01*
X156009178Y-98579637D01*
X156140288Y-98492032D01*
X156251788Y-98380532D01*
X156339393Y-98249422D01*
X156399736Y-98103740D01*
X156430499Y-97949085D01*
X156430499Y-97791401D01*
X156430499Y-97791398D01*
X156420127Y-97739258D01*
X156420127Y-97739257D01*
X156416526Y-97721153D01*
X160599500Y-97721153D01*
X160599500Y-97878846D01*
X160630261Y-98033489D01*
X160630264Y-98033501D01*
X160690602Y-98179172D01*
X160690609Y-98179185D01*
X160778210Y-98310288D01*
X160778213Y-98310292D01*
X160889707Y-98421786D01*
X160889711Y-98421789D01*
X161020814Y-98509390D01*
X161020827Y-98509397D01*
X161166498Y-98569735D01*
X161166503Y-98569737D01*
X161309661Y-98598213D01*
X161321153Y-98600499D01*
X161321156Y-98600500D01*
X161321158Y-98600500D01*
X161478844Y-98600500D01*
X161478845Y-98600499D01*
X161633497Y-98569737D01*
X161778414Y-98509711D01*
X161779172Y-98509397D01*
X161779172Y-98509396D01*
X161779179Y-98509394D01*
X161910289Y-98421789D01*
X162021789Y-98310289D01*
X162109394Y-98179179D01*
X162169737Y-98033497D01*
X162200500Y-97878842D01*
X162200500Y-97721158D01*
X162200500Y-97721155D01*
X162200499Y-97721153D01*
X162194250Y-97689737D01*
X162169737Y-97566503D01*
X162169735Y-97566498D01*
X162109397Y-97420827D01*
X162109390Y-97420814D01*
X162021789Y-97289711D01*
X162021786Y-97289707D01*
X161910292Y-97178213D01*
X161910288Y-97178210D01*
X161779185Y-97090609D01*
X161779172Y-97090602D01*
X161633501Y-97030264D01*
X161633489Y-97030261D01*
X161478845Y-96999500D01*
X161478842Y-96999500D01*
X161321158Y-96999500D01*
X161321155Y-96999500D01*
X161166510Y-97030261D01*
X161166498Y-97030264D01*
X161020827Y-97090602D01*
X161020814Y-97090609D01*
X160889711Y-97178210D01*
X160889707Y-97178213D01*
X160778213Y-97289707D01*
X160778210Y-97289711D01*
X160690609Y-97420814D01*
X160690602Y-97420827D01*
X160630264Y-97566498D01*
X160630261Y-97566510D01*
X160599500Y-97721153D01*
X156416526Y-97721153D01*
X156404214Y-97659258D01*
X156399736Y-97636746D01*
X156393007Y-97620500D01*
X156339396Y-97491070D01*
X156339389Y-97491057D01*
X156251788Y-97359954D01*
X156251785Y-97359950D01*
X156140291Y-97248456D01*
X156140287Y-97248453D01*
X156009184Y-97160852D01*
X156009171Y-97160845D01*
X155863498Y-97100506D01*
X155863491Y-97100504D01*
X155832643Y-97094368D01*
X155770732Y-97061982D01*
X155742275Y-97020203D01*
X155709397Y-96940827D01*
X155709390Y-96940814D01*
X155621789Y-96809711D01*
X155621786Y-96809707D01*
X155510292Y-96698213D01*
X155510288Y-96698210D01*
X155435966Y-96648549D01*
X166999500Y-96648549D01*
X166999500Y-96871450D01*
X166999501Y-96871466D01*
X167028594Y-97092452D01*
X167028595Y-97092457D01*
X167028596Y-97092463D01*
X167083985Y-97299179D01*
X167086290Y-97307780D01*
X167086293Y-97307790D01*
X167171593Y-97513722D01*
X167171595Y-97513726D01*
X167283052Y-97706774D01*
X167283057Y-97706780D01*
X167283058Y-97706782D01*
X167418751Y-97883622D01*
X167418757Y-97883629D01*
X167576370Y-98041242D01*
X167576377Y-98041248D01*
X167689769Y-98128256D01*
X167753226Y-98176948D01*
X167946274Y-98288405D01*
X168152219Y-98373710D01*
X168367537Y-98431404D01*
X168588543Y-98460500D01*
X168588550Y-98460500D01*
X168811450Y-98460500D01*
X168811457Y-98460500D01*
X169032463Y-98431404D01*
X169247781Y-98373710D01*
X169453726Y-98288405D01*
X169646774Y-98176948D01*
X169823624Y-98041247D01*
X169981247Y-97883624D01*
X170116948Y-97706774D01*
X170228405Y-97513726D01*
X170313710Y-97307781D01*
X170371404Y-97092463D01*
X170400500Y-96871457D01*
X170400500Y-96648543D01*
X170371404Y-96427537D01*
X170313710Y-96212219D01*
X170312669Y-96209707D01*
X170246625Y-96050261D01*
X170228405Y-96006274D01*
X170116948Y-95813226D01*
X169981247Y-95636376D01*
X169981242Y-95636370D01*
X169823629Y-95478757D01*
X169823622Y-95478751D01*
X169646782Y-95343058D01*
X169646780Y-95343057D01*
X169646774Y-95343052D01*
X169453726Y-95231595D01*
X169453722Y-95231593D01*
X169247790Y-95146293D01*
X169247783Y-95146291D01*
X169247781Y-95146290D01*
X169032463Y-95088596D01*
X169032457Y-95088595D01*
X169032452Y-95088594D01*
X168811466Y-95059501D01*
X168811463Y-95059500D01*
X168811457Y-95059500D01*
X168588543Y-95059500D01*
X168588537Y-95059500D01*
X168588533Y-95059501D01*
X168367547Y-95088594D01*
X168367540Y-95088595D01*
X168367537Y-95088596D01*
X168211940Y-95130288D01*
X168152219Y-95146290D01*
X168152209Y-95146293D01*
X167946277Y-95231593D01*
X167946273Y-95231595D01*
X167753226Y-95343052D01*
X167753217Y-95343058D01*
X167576377Y-95478751D01*
X167576370Y-95478757D01*
X167418757Y-95636370D01*
X167418751Y-95636377D01*
X167283058Y-95813217D01*
X167283052Y-95813226D01*
X167171595Y-96006273D01*
X167171593Y-96006277D01*
X167086293Y-96212209D01*
X167086290Y-96212219D01*
X167033373Y-96409711D01*
X167028597Y-96427534D01*
X167028594Y-96427547D01*
X166999501Y-96648533D01*
X166999500Y-96648549D01*
X155435966Y-96648549D01*
X155379185Y-96610609D01*
X155379172Y-96610602D01*
X155233501Y-96550264D01*
X155233489Y-96550261D01*
X155078845Y-96519500D01*
X155078842Y-96519500D01*
X154921158Y-96519500D01*
X154921155Y-96519500D01*
X154766510Y-96550261D01*
X154766498Y-96550264D01*
X154620827Y-96610602D01*
X154620814Y-96610609D01*
X154489711Y-96698210D01*
X154489707Y-96698213D01*
X154378213Y-96809707D01*
X154378210Y-96809711D01*
X154290609Y-96940814D01*
X154290602Y-96940827D01*
X154230264Y-97086498D01*
X154230261Y-97086510D01*
X154199500Y-97241153D01*
X152833429Y-97241153D01*
X152855603Y-97187621D01*
X152855605Y-97187614D01*
X152859499Y-97178213D01*
X152869737Y-97153497D01*
X152900500Y-96998842D01*
X152900500Y-96841158D01*
X152900500Y-96841155D01*
X152900499Y-96841153D01*
X152894244Y-96809707D01*
X152869737Y-96686503D01*
X152854014Y-96648543D01*
X152809397Y-96540827D01*
X152809390Y-96540814D01*
X152721789Y-96409711D01*
X152721786Y-96409707D01*
X152610292Y-96298213D01*
X152610288Y-96298210D01*
X152479185Y-96210609D01*
X152479172Y-96210602D01*
X152333501Y-96150264D01*
X152333489Y-96150261D01*
X152178845Y-96119500D01*
X152178842Y-96119500D01*
X152021158Y-96119500D01*
X152021155Y-96119500D01*
X151866510Y-96150261D01*
X151866498Y-96150264D01*
X151720827Y-96210602D01*
X151720814Y-96210609D01*
X151589711Y-96298210D01*
X151589707Y-96298213D01*
X151478213Y-96409707D01*
X151478210Y-96409711D01*
X151390609Y-96540814D01*
X151390602Y-96540827D01*
X151330264Y-96686498D01*
X151330261Y-96686510D01*
X151299500Y-96841153D01*
X139000500Y-96841153D01*
X139000500Y-96741158D01*
X139000500Y-96741155D01*
X139000499Y-96741153D01*
X138982079Y-96648549D01*
X138969737Y-96586503D01*
X138969735Y-96586498D01*
X138909397Y-96440827D01*
X138909390Y-96440814D01*
X138821789Y-96309711D01*
X138821786Y-96309707D01*
X138710292Y-96198213D01*
X138710288Y-96198210D01*
X138579185Y-96110609D01*
X138579172Y-96110602D01*
X138433501Y-96050264D01*
X138433489Y-96050261D01*
X138278845Y-96019500D01*
X138278842Y-96019500D01*
X138121158Y-96019500D01*
X138121155Y-96019500D01*
X137966510Y-96050261D01*
X137966498Y-96050264D01*
X137820827Y-96110602D01*
X137820814Y-96110609D01*
X137689711Y-96198210D01*
X137689707Y-96198213D01*
X137578213Y-96309707D01*
X137578210Y-96309711D01*
X137490609Y-96440814D01*
X137490602Y-96440827D01*
X137430264Y-96586498D01*
X137430261Y-96586510D01*
X137399500Y-96741153D01*
X137399500Y-96898844D01*
X137400097Y-96904907D01*
X137398538Y-96905060D01*
X137392990Y-96967031D01*
X137350124Y-97022206D01*
X137301796Y-97043242D01*
X137266505Y-97050262D01*
X137266498Y-97050264D01*
X137120827Y-97110602D01*
X137120814Y-97110609D01*
X136989711Y-97198210D01*
X136989707Y-97198213D01*
X136878213Y-97309707D01*
X136878210Y-97309711D01*
X136790609Y-97440814D01*
X136790602Y-97440827D01*
X136730264Y-97586498D01*
X136730261Y-97586510D01*
X136699500Y-97741153D01*
X135100500Y-97741153D01*
X135100500Y-97641158D01*
X135100500Y-97641155D01*
X135100499Y-97641153D01*
X135080734Y-97541789D01*
X135069737Y-97486503D01*
X135046080Y-97429390D01*
X135009397Y-97340827D01*
X135009390Y-97340814D01*
X134921789Y-97209711D01*
X134921786Y-97209707D01*
X134810292Y-97098213D01*
X134810288Y-97098210D01*
X134679185Y-97010609D01*
X134679172Y-97010602D01*
X134533501Y-96950264D01*
X134533489Y-96950261D01*
X134378845Y-96919500D01*
X134378842Y-96919500D01*
X134221158Y-96919500D01*
X134221155Y-96919500D01*
X134066510Y-96950261D01*
X134066498Y-96950264D01*
X133920827Y-97010602D01*
X133920814Y-97010609D01*
X133789711Y-97098210D01*
X133789707Y-97098213D01*
X133678213Y-97209707D01*
X133678210Y-97209711D01*
X133590609Y-97340814D01*
X133590602Y-97340827D01*
X133530264Y-97486498D01*
X133530261Y-97486510D01*
X133499500Y-97641153D01*
X124571617Y-97641153D01*
X124623624Y-97601247D01*
X124781247Y-97443624D01*
X124916948Y-97266774D01*
X125028405Y-97073726D01*
X125113710Y-96867781D01*
X125171404Y-96652463D01*
X125172893Y-96641153D01*
X127199500Y-96641153D01*
X127199500Y-96798846D01*
X127230261Y-96953489D01*
X127230264Y-96953501D01*
X127290602Y-97099172D01*
X127290609Y-97099185D01*
X127378210Y-97230288D01*
X127378213Y-97230292D01*
X127489707Y-97341786D01*
X127489711Y-97341789D01*
X127620814Y-97429390D01*
X127620827Y-97429397D01*
X127758683Y-97486498D01*
X127766503Y-97489737D01*
X127887083Y-97513722D01*
X127921153Y-97520499D01*
X127921156Y-97520500D01*
X127921158Y-97520500D01*
X128078844Y-97520500D01*
X128078845Y-97520499D01*
X128089179Y-97518443D01*
X128114287Y-97513450D01*
X128114292Y-97513449D01*
X128199800Y-97496439D01*
X128233497Y-97489737D01*
X128351592Y-97440821D01*
X128379172Y-97429397D01*
X128379172Y-97429396D01*
X128379179Y-97429394D01*
X128510289Y-97341789D01*
X128621789Y-97230289D01*
X128709394Y-97099179D01*
X128769737Y-96953497D01*
X128800500Y-96798842D01*
X128800500Y-96641158D01*
X128800500Y-96641155D01*
X128800499Y-96641153D01*
X128780543Y-96540827D01*
X128769737Y-96486503D01*
X128746937Y-96431458D01*
X128709397Y-96340827D01*
X128709390Y-96340814D01*
X128621789Y-96209711D01*
X128621786Y-96209707D01*
X128510292Y-96098213D01*
X128510288Y-96098210D01*
X128379185Y-96010609D01*
X128379172Y-96010602D01*
X128233501Y-95950264D01*
X128233489Y-95950261D01*
X128078845Y-95919500D01*
X128078842Y-95919500D01*
X127921158Y-95919500D01*
X127921155Y-95919500D01*
X127766510Y-95950261D01*
X127766498Y-95950264D01*
X127620827Y-96010602D01*
X127620814Y-96010609D01*
X127489711Y-96098210D01*
X127489707Y-96098213D01*
X127378213Y-96209707D01*
X127378210Y-96209711D01*
X127290609Y-96340814D01*
X127290602Y-96340827D01*
X127230264Y-96486498D01*
X127230261Y-96486510D01*
X127199500Y-96641153D01*
X125172893Y-96641153D01*
X125193254Y-96486498D01*
X125200500Y-96431458D01*
X125200500Y-96208549D01*
X125200500Y-96208543D01*
X125171404Y-95987537D01*
X125113710Y-95772219D01*
X125028405Y-95566274D01*
X125028403Y-95566271D01*
X125028401Y-95566266D01*
X124988449Y-95497068D01*
X124988448Y-95497067D01*
X124977873Y-95478751D01*
X124956166Y-95441153D01*
X134199500Y-95441153D01*
X134199500Y-95598846D01*
X134230261Y-95753489D01*
X134230264Y-95753501D01*
X134290602Y-95899172D01*
X134290609Y-95899185D01*
X134378210Y-96030288D01*
X134378213Y-96030292D01*
X134489707Y-96141786D01*
X134489711Y-96141789D01*
X134620814Y-96229390D01*
X134620827Y-96229397D01*
X134766498Y-96289735D01*
X134766503Y-96289737D01*
X134921153Y-96320499D01*
X134921156Y-96320500D01*
X134921158Y-96320500D01*
X135078844Y-96320500D01*
X135078845Y-96320499D01*
X135233497Y-96289737D01*
X135379179Y-96229394D01*
X135481111Y-96161284D01*
X135547786Y-96140408D01*
X135615166Y-96158892D01*
X135618847Y-96161257D01*
X135720821Y-96229394D01*
X135720823Y-96229395D01*
X135720827Y-96229397D01*
X135866498Y-96289735D01*
X135866503Y-96289737D01*
X136021153Y-96320499D01*
X136021156Y-96320500D01*
X136021158Y-96320500D01*
X136178844Y-96320500D01*
X136178845Y-96320499D01*
X136333497Y-96289737D01*
X136479179Y-96229394D01*
X136610289Y-96141789D01*
X136721789Y-96030289D01*
X136809394Y-95899179D01*
X136869737Y-95753497D01*
X136900500Y-95598842D01*
X136900500Y-95441158D01*
X136900500Y-95441155D01*
X136900499Y-95441153D01*
X136886987Y-95373226D01*
X136869737Y-95286503D01*
X136832406Y-95196377D01*
X136809397Y-95140827D01*
X136809390Y-95140814D01*
X136721789Y-95009711D01*
X136721786Y-95009707D01*
X136610292Y-94898213D01*
X136610288Y-94898210D01*
X136479185Y-94810609D01*
X136479172Y-94810602D01*
X136333501Y-94750264D01*
X136333489Y-94750261D01*
X136178845Y-94719500D01*
X136178842Y-94719500D01*
X136021158Y-94719500D01*
X136021155Y-94719500D01*
X135866510Y-94750261D01*
X135866498Y-94750264D01*
X135720827Y-94810602D01*
X135720814Y-94810609D01*
X135618891Y-94878713D01*
X135552213Y-94899591D01*
X135484833Y-94881107D01*
X135481109Y-94878713D01*
X135379185Y-94810609D01*
X135379172Y-94810602D01*
X135233501Y-94750264D01*
X135233489Y-94750261D01*
X135078845Y-94719500D01*
X135078842Y-94719500D01*
X134921158Y-94719500D01*
X134921155Y-94719500D01*
X134766510Y-94750261D01*
X134766498Y-94750264D01*
X134620827Y-94810602D01*
X134620814Y-94810609D01*
X134489711Y-94898210D01*
X134489707Y-94898213D01*
X134378213Y-95009707D01*
X134378210Y-95009711D01*
X134290609Y-95140814D01*
X134290602Y-95140827D01*
X134230264Y-95286498D01*
X134230261Y-95286510D01*
X134199500Y-95441153D01*
X124956166Y-95441153D01*
X124916948Y-95373226D01*
X124850409Y-95286510D01*
X124781248Y-95196377D01*
X124781242Y-95196370D01*
X124623629Y-95038757D01*
X124623622Y-95038751D01*
X124446782Y-94903058D01*
X124446780Y-94903057D01*
X124446774Y-94903052D01*
X124253726Y-94791595D01*
X124253722Y-94791593D01*
X124047790Y-94706293D01*
X124047783Y-94706291D01*
X124047781Y-94706290D01*
X123832463Y-94648596D01*
X123832457Y-94648595D01*
X123832452Y-94648594D01*
X123611466Y-94619501D01*
X123611463Y-94619500D01*
X123611457Y-94619500D01*
X123388543Y-94619500D01*
X123388537Y-94619500D01*
X123388533Y-94619501D01*
X123167547Y-94648594D01*
X123167540Y-94648595D01*
X123167537Y-94648596D01*
X122980008Y-94698844D01*
X122952219Y-94706290D01*
X122952209Y-94706293D01*
X122746277Y-94791593D01*
X122746273Y-94791595D01*
X122553226Y-94903052D01*
X122553217Y-94903058D01*
X122376377Y-95038751D01*
X122376370Y-95038757D01*
X122218757Y-95196370D01*
X122218751Y-95196377D01*
X122083058Y-95373217D01*
X122083052Y-95373226D01*
X121971595Y-95566273D01*
X121971593Y-95566277D01*
X121886293Y-95772209D01*
X121886290Y-95772219D01*
X121838584Y-95950263D01*
X121828597Y-95987534D01*
X121828594Y-95987547D01*
X121799501Y-96208533D01*
X121799500Y-96208549D01*
X118100500Y-96208549D01*
X118100500Y-94541153D01*
X148999500Y-94541153D01*
X148999500Y-94698846D01*
X149030261Y-94853489D01*
X149030264Y-94853501D01*
X149090602Y-94999172D01*
X149090609Y-94999185D01*
X149178210Y-95130288D01*
X149178213Y-95130292D01*
X149289707Y-95241786D01*
X149289711Y-95241789D01*
X149420814Y-95329390D01*
X149420827Y-95329397D01*
X149566498Y-95389735D01*
X149566503Y-95389737D01*
X149721153Y-95420499D01*
X149721156Y-95420500D01*
X149721158Y-95420500D01*
X149878844Y-95420500D01*
X149878845Y-95420499D01*
X150033497Y-95389737D01*
X150179179Y-95329394D01*
X150310289Y-95241789D01*
X150421789Y-95130289D01*
X150509394Y-94999179D01*
X150569737Y-94853497D01*
X150600500Y-94698842D01*
X150600500Y-94541158D01*
X150600500Y-94541155D01*
X150600499Y-94541153D01*
X150569737Y-94386503D01*
X150509794Y-94241786D01*
X150509397Y-94240827D01*
X150509390Y-94240814D01*
X150421789Y-94109711D01*
X150421786Y-94109707D01*
X150310292Y-93998213D01*
X150310288Y-93998210D01*
X150179185Y-93910609D01*
X150179172Y-93910602D01*
X150033501Y-93850264D01*
X150033489Y-93850261D01*
X149878845Y-93819500D01*
X149878842Y-93819500D01*
X149721158Y-93819500D01*
X149721155Y-93819500D01*
X149566510Y-93850261D01*
X149566498Y-93850264D01*
X149420827Y-93910602D01*
X149420814Y-93910609D01*
X149289711Y-93998210D01*
X149289707Y-93998213D01*
X149178213Y-94109707D01*
X149178210Y-94109711D01*
X149090609Y-94240814D01*
X149090602Y-94240827D01*
X149030264Y-94386498D01*
X149030261Y-94386510D01*
X148999500Y-94541153D01*
X118100500Y-94541153D01*
X118100500Y-92248575D01*
X121800000Y-92248575D01*
X121800000Y-92471424D01*
X121829085Y-92692354D01*
X121829088Y-92692367D01*
X121886763Y-92907618D01*
X121972045Y-93113502D01*
X121972054Y-93113520D01*
X122083464Y-93306491D01*
X122083473Y-93306504D01*
X122134040Y-93372403D01*
X122134043Y-93372403D01*
X122860690Y-92645756D01*
X122879668Y-92691574D01*
X122956274Y-92806224D01*
X123053776Y-92903726D01*
X123168426Y-92980332D01*
X123214242Y-92999309D01*
X122487595Y-93725955D01*
X122487595Y-93725956D01*
X122553507Y-93776533D01*
X122746485Y-93887949D01*
X122746497Y-93887954D01*
X122952381Y-93973236D01*
X123167632Y-94030911D01*
X123167645Y-94030914D01*
X123388575Y-94060000D01*
X123611425Y-94060000D01*
X123832354Y-94030914D01*
X123832367Y-94030911D01*
X124047618Y-93973236D01*
X124253502Y-93887954D01*
X124253514Y-93887949D01*
X124446498Y-93776530D01*
X124512403Y-93725957D01*
X124512404Y-93725956D01*
X124409195Y-93622747D01*
X124327601Y-93541153D01*
X136399500Y-93541153D01*
X136399500Y-93698846D01*
X136430261Y-93853489D01*
X136430264Y-93853501D01*
X136490602Y-93999172D01*
X136490609Y-93999185D01*
X136578210Y-94130288D01*
X136578213Y-94130292D01*
X136689707Y-94241786D01*
X136689711Y-94241789D01*
X136820814Y-94329390D01*
X136820827Y-94329397D01*
X136958683Y-94386498D01*
X136966503Y-94389737D01*
X137087018Y-94413709D01*
X137121153Y-94420499D01*
X137121156Y-94420500D01*
X137121158Y-94420500D01*
X137278844Y-94420500D01*
X137278845Y-94420499D01*
X137289179Y-94418443D01*
X137314287Y-94413450D01*
X137314292Y-94413449D01*
X137399800Y-94396439D01*
X137433497Y-94389737D01*
X137579179Y-94329394D01*
X137710289Y-94241789D01*
X137821789Y-94130289D01*
X137909394Y-93999179D01*
X137969737Y-93853497D01*
X138000500Y-93698842D01*
X138000500Y-93541158D01*
X138000500Y-93541155D01*
X138000499Y-93541153D01*
X151899500Y-93541153D01*
X151899500Y-93698846D01*
X151930261Y-93853489D01*
X151930264Y-93853501D01*
X151990602Y-93999172D01*
X151990609Y-93999185D01*
X152078210Y-94130288D01*
X152078213Y-94130292D01*
X152189707Y-94241786D01*
X152189711Y-94241789D01*
X152320814Y-94329390D01*
X152320827Y-94329397D01*
X152458683Y-94386498D01*
X152466503Y-94389737D01*
X152587018Y-94413709D01*
X152621153Y-94420499D01*
X152621156Y-94420500D01*
X152621158Y-94420500D01*
X152778844Y-94420500D01*
X152778845Y-94420499D01*
X152933497Y-94389737D01*
X153079179Y-94329394D01*
X153210289Y-94241789D01*
X153321789Y-94130289D01*
X153409394Y-93999179D01*
X153469737Y-93853497D01*
X153500500Y-93698842D01*
X153500500Y-93541158D01*
X153500500Y-93541155D01*
X153500499Y-93541153D01*
X153469738Y-93386510D01*
X153469737Y-93386503D01*
X153436598Y-93306498D01*
X153409397Y-93240827D01*
X153409390Y-93240814D01*
X153321789Y-93109711D01*
X153321786Y-93109707D01*
X153210292Y-92998213D01*
X153210288Y-92998210D01*
X153079185Y-92910609D01*
X153079172Y-92910602D01*
X152933501Y-92850264D01*
X152933489Y-92850261D01*
X152778845Y-92819500D01*
X152778842Y-92819500D01*
X152621158Y-92819500D01*
X152621155Y-92819500D01*
X152466510Y-92850261D01*
X152466498Y-92850264D01*
X152320827Y-92910602D01*
X152320814Y-92910609D01*
X152189711Y-92998210D01*
X152189707Y-92998213D01*
X152078213Y-93109707D01*
X152078210Y-93109711D01*
X151990609Y-93240814D01*
X151990602Y-93240827D01*
X151930264Y-93386498D01*
X151930261Y-93386510D01*
X151899500Y-93541153D01*
X138000499Y-93541153D01*
X137969738Y-93386510D01*
X137969737Y-93386503D01*
X137936598Y-93306498D01*
X137909397Y-93240827D01*
X137909390Y-93240814D01*
X137821789Y-93109711D01*
X137821786Y-93109707D01*
X137710292Y-92998213D01*
X137710288Y-92998210D01*
X137579185Y-92910609D01*
X137579172Y-92910602D01*
X137433501Y-92850264D01*
X137433489Y-92850261D01*
X137278845Y-92819500D01*
X137278842Y-92819500D01*
X137121158Y-92819500D01*
X137121155Y-92819500D01*
X136966510Y-92850261D01*
X136966498Y-92850264D01*
X136820827Y-92910602D01*
X136820814Y-92910609D01*
X136689711Y-92998210D01*
X136689707Y-92998213D01*
X136578213Y-93109707D01*
X136578210Y-93109711D01*
X136490609Y-93240814D01*
X136490602Y-93240827D01*
X136430264Y-93386498D01*
X136430261Y-93386510D01*
X136399500Y-93541153D01*
X124327601Y-93541153D01*
X123785757Y-92999309D01*
X123831574Y-92980332D01*
X123946224Y-92903726D01*
X124043726Y-92806224D01*
X124120332Y-92691574D01*
X124139309Y-92645757D01*
X124865956Y-93372404D01*
X124865957Y-93372403D01*
X124916530Y-93306498D01*
X125027949Y-93113514D01*
X125027954Y-93113502D01*
X125113236Y-92907618D01*
X125170911Y-92692367D01*
X125170914Y-92692353D01*
X125171415Y-92688549D01*
X166999500Y-92688549D01*
X166999500Y-92911450D01*
X166999501Y-92911466D01*
X167028594Y-93132452D01*
X167028595Y-93132457D01*
X167028596Y-93132463D01*
X167075230Y-93306504D01*
X167086290Y-93347780D01*
X167086293Y-93347790D01*
X167166387Y-93541153D01*
X167171595Y-93553726D01*
X167283052Y-93746774D01*
X167283057Y-93746780D01*
X167283058Y-93746782D01*
X167418751Y-93923622D01*
X167418757Y-93923629D01*
X167576370Y-94081242D01*
X167576376Y-94081247D01*
X167753226Y-94216948D01*
X167946274Y-94328405D01*
X168152219Y-94413710D01*
X168367537Y-94471404D01*
X168588543Y-94500500D01*
X168588550Y-94500500D01*
X168811450Y-94500500D01*
X168811457Y-94500500D01*
X169032463Y-94471404D01*
X169247781Y-94413710D01*
X169453726Y-94328405D01*
X169646774Y-94216948D01*
X169823624Y-94081247D01*
X169981247Y-93923624D01*
X170116948Y-93746774D01*
X170228405Y-93553726D01*
X170313710Y-93347781D01*
X170371404Y-93132463D01*
X170400500Y-92911457D01*
X170400500Y-92688543D01*
X170371404Y-92467537D01*
X170313710Y-92252219D01*
X170228405Y-92046274D01*
X170116948Y-91853226D01*
X169981247Y-91676376D01*
X169981242Y-91676370D01*
X169823629Y-91518757D01*
X169823622Y-91518751D01*
X169646782Y-91383058D01*
X169646780Y-91383057D01*
X169646774Y-91383052D01*
X169453726Y-91271595D01*
X169453722Y-91271593D01*
X169247790Y-91186293D01*
X169247783Y-91186291D01*
X169247781Y-91186290D01*
X169032463Y-91128596D01*
X169032457Y-91128595D01*
X169032452Y-91128594D01*
X168811466Y-91099501D01*
X168811463Y-91099500D01*
X168811457Y-91099500D01*
X168588543Y-91099500D01*
X168588537Y-91099500D01*
X168588533Y-91099501D01*
X168367547Y-91128594D01*
X168367540Y-91128595D01*
X168367537Y-91128596D01*
X168152219Y-91186290D01*
X168152209Y-91186293D01*
X167946277Y-91271593D01*
X167946273Y-91271595D01*
X167753226Y-91383052D01*
X167753217Y-91383058D01*
X167576377Y-91518751D01*
X167576370Y-91518757D01*
X167418757Y-91676370D01*
X167418751Y-91676377D01*
X167283058Y-91853217D01*
X167283052Y-91853226D01*
X167171595Y-92046273D01*
X167171593Y-92046277D01*
X167086293Y-92252209D01*
X167086290Y-92252219D01*
X167041200Y-92420500D01*
X167028597Y-92467534D01*
X167028594Y-92467547D01*
X166999501Y-92688533D01*
X166999500Y-92688549D01*
X125171415Y-92688549D01*
X125174081Y-92668300D01*
X125174081Y-92668299D01*
X125200000Y-92471424D01*
X125200000Y-92248575D01*
X125170914Y-92027645D01*
X125170911Y-92027632D01*
X125113236Y-91812381D01*
X125027954Y-91606497D01*
X125027953Y-91606494D01*
X125022509Y-91597064D01*
X125022508Y-91597061D01*
X124990229Y-91541153D01*
X148799500Y-91541153D01*
X148799500Y-91698846D01*
X148830261Y-91853489D01*
X148830264Y-91853501D01*
X148890602Y-91999172D01*
X148890609Y-91999185D01*
X148978210Y-92130288D01*
X148978213Y-92130292D01*
X149089707Y-92241786D01*
X149089711Y-92241789D01*
X149220814Y-92329390D01*
X149220827Y-92329397D01*
X149294713Y-92360001D01*
X149366503Y-92389737D01*
X149521153Y-92420499D01*
X149521156Y-92420500D01*
X149521158Y-92420500D01*
X149678844Y-92420500D01*
X149678845Y-92420499D01*
X149833497Y-92389737D01*
X149979179Y-92329394D01*
X150110289Y-92241789D01*
X150221789Y-92130289D01*
X150309394Y-91999179D01*
X150369737Y-91853497D01*
X150400500Y-91698842D01*
X150400500Y-91541158D01*
X150400500Y-91541155D01*
X150400499Y-91541153D01*
X150369738Y-91386510D01*
X150369737Y-91386503D01*
X150322141Y-91271595D01*
X150309397Y-91240827D01*
X150309390Y-91240814D01*
X150221789Y-91109711D01*
X150221786Y-91109707D01*
X150110292Y-90998213D01*
X150110288Y-90998210D01*
X149979185Y-90910609D01*
X149979172Y-90910602D01*
X149833501Y-90850264D01*
X149833489Y-90850261D01*
X149678845Y-90819500D01*
X149678842Y-90819500D01*
X149521158Y-90819500D01*
X149521155Y-90819500D01*
X149366510Y-90850261D01*
X149366498Y-90850264D01*
X149220827Y-90910602D01*
X149220814Y-90910609D01*
X149089711Y-90998210D01*
X149089707Y-90998213D01*
X148978213Y-91109707D01*
X148978210Y-91109711D01*
X148890609Y-91240814D01*
X148890602Y-91240827D01*
X148830264Y-91386498D01*
X148830261Y-91386510D01*
X148799500Y-91541153D01*
X124990229Y-91541153D01*
X124916533Y-91413507D01*
X124865956Y-91347595D01*
X124865955Y-91347595D01*
X124139309Y-92074242D01*
X124120332Y-92028426D01*
X124043726Y-91913776D01*
X123946224Y-91816274D01*
X123831574Y-91739668D01*
X123785756Y-91720689D01*
X124512403Y-90994043D01*
X124512403Y-90994040D01*
X124446504Y-90943473D01*
X124446491Y-90943464D01*
X124253520Y-90832054D01*
X124253502Y-90832045D01*
X124047618Y-90746763D01*
X123832367Y-90689088D01*
X123832354Y-90689085D01*
X123611425Y-90660000D01*
X123388575Y-90660000D01*
X123167645Y-90689085D01*
X123167632Y-90689088D01*
X122952381Y-90746763D01*
X122746497Y-90832045D01*
X122746479Y-90832054D01*
X122553511Y-90943462D01*
X122487595Y-90994042D01*
X123214243Y-91720689D01*
X123168426Y-91739668D01*
X123053776Y-91816274D01*
X122956274Y-91913776D01*
X122879668Y-92028426D01*
X122860690Y-92074243D01*
X122134042Y-91347595D01*
X122083462Y-91413511D01*
X121972054Y-91606479D01*
X121972045Y-91606497D01*
X121886763Y-91812381D01*
X121829088Y-92027632D01*
X121829085Y-92027645D01*
X121800000Y-92248575D01*
X118100500Y-92248575D01*
X118100500Y-89641153D01*
X135949500Y-89641153D01*
X135949500Y-89798846D01*
X135980261Y-89953489D01*
X135980264Y-89953501D01*
X136040602Y-90099172D01*
X136040609Y-90099185D01*
X136128210Y-90230288D01*
X136128213Y-90230292D01*
X136239707Y-90341786D01*
X136239711Y-90341789D01*
X136370814Y-90429390D01*
X136370827Y-90429397D01*
X136516498Y-90489735D01*
X136516503Y-90489737D01*
X136671153Y-90520499D01*
X136671156Y-90520500D01*
X136671158Y-90520500D01*
X136828844Y-90520500D01*
X136828845Y-90520499D01*
X136983497Y-90489737D01*
X137129179Y-90429394D01*
X137260289Y-90341789D01*
X137371789Y-90230289D01*
X137459394Y-90099179D01*
X137519737Y-89953497D01*
X137550500Y-89798842D01*
X137550500Y-89641158D01*
X137550500Y-89641155D01*
X137550499Y-89641153D01*
X137519738Y-89486510D01*
X137519737Y-89486503D01*
X137519735Y-89486498D01*
X137459397Y-89340827D01*
X137459390Y-89340814D01*
X137371789Y-89209711D01*
X137371786Y-89209707D01*
X137260292Y-89098213D01*
X137260288Y-89098210D01*
X137129185Y-89010609D01*
X137129172Y-89010602D01*
X136983501Y-88950264D01*
X136983489Y-88950261D01*
X136828845Y-88919500D01*
X136828842Y-88919500D01*
X136671158Y-88919500D01*
X136671155Y-88919500D01*
X136516510Y-88950261D01*
X136516498Y-88950264D01*
X136370827Y-89010602D01*
X136370814Y-89010609D01*
X136239711Y-89098210D01*
X136239707Y-89098213D01*
X136128213Y-89209707D01*
X136128210Y-89209711D01*
X136040609Y-89340814D01*
X136040602Y-89340827D01*
X135980264Y-89486498D01*
X135980261Y-89486510D01*
X135949500Y-89641153D01*
X118100500Y-89641153D01*
X118100500Y-84421153D01*
X129399500Y-84421153D01*
X129399500Y-84578846D01*
X129430261Y-84733489D01*
X129430264Y-84733501D01*
X129490602Y-84879172D01*
X129490609Y-84879185D01*
X129578210Y-85010288D01*
X129578213Y-85010292D01*
X129689707Y-85121786D01*
X129689711Y-85121789D01*
X129820814Y-85209390D01*
X129820827Y-85209397D01*
X129966498Y-85269735D01*
X129966503Y-85269737D01*
X130121153Y-85300499D01*
X130121156Y-85300500D01*
X130121158Y-85300500D01*
X130278844Y-85300500D01*
X130278845Y-85300499D01*
X130433497Y-85269737D01*
X130502505Y-85241153D01*
X141999500Y-85241153D01*
X141999500Y-85398846D01*
X142030261Y-85553489D01*
X142030264Y-85553501D01*
X142090602Y-85699172D01*
X142090609Y-85699185D01*
X142178210Y-85830288D01*
X142178213Y-85830292D01*
X142289707Y-85941786D01*
X142289711Y-85941789D01*
X142420814Y-86029390D01*
X142420827Y-86029397D01*
X142566498Y-86089735D01*
X142566503Y-86089737D01*
X142721153Y-86120499D01*
X142721156Y-86120500D01*
X142721158Y-86120500D01*
X142878844Y-86120500D01*
X142878845Y-86120499D01*
X143033497Y-86089737D01*
X143179179Y-86029394D01*
X143310289Y-85941789D01*
X143421789Y-85830289D01*
X143509394Y-85699179D01*
X143569737Y-85553497D01*
X143600500Y-85398842D01*
X143600500Y-85241158D01*
X143600500Y-85241155D01*
X143600499Y-85241153D01*
X143578780Y-85131964D01*
X143569737Y-85086503D01*
X143538170Y-85010292D01*
X143509397Y-84940827D01*
X143509390Y-84940814D01*
X143421789Y-84809711D01*
X143421786Y-84809707D01*
X143310292Y-84698213D01*
X143310288Y-84698210D01*
X143179185Y-84610609D01*
X143179172Y-84610602D01*
X143033501Y-84550264D01*
X143033489Y-84550261D01*
X142878845Y-84519500D01*
X142878842Y-84519500D01*
X142721158Y-84519500D01*
X142721155Y-84519500D01*
X142566510Y-84550261D01*
X142566498Y-84550264D01*
X142420827Y-84610602D01*
X142420814Y-84610609D01*
X142289711Y-84698210D01*
X142289707Y-84698213D01*
X142178213Y-84809707D01*
X142178210Y-84809711D01*
X142090609Y-84940814D01*
X142090602Y-84940827D01*
X142030264Y-85086498D01*
X142030261Y-85086510D01*
X141999500Y-85241153D01*
X130502505Y-85241153D01*
X130579179Y-85209394D01*
X130579185Y-85209390D01*
X130695062Y-85131964D01*
X130695062Y-85131963D01*
X130710289Y-85121789D01*
X130821789Y-85010289D01*
X130909394Y-84879179D01*
X130969737Y-84733497D01*
X131000500Y-84578842D01*
X131000500Y-84421158D01*
X131000500Y-84421155D01*
X131000499Y-84421153D01*
X130969738Y-84266510D01*
X130969737Y-84266503D01*
X130969735Y-84266498D01*
X130909397Y-84120827D01*
X130909390Y-84120814D01*
X130821789Y-83989711D01*
X130821786Y-83989707D01*
X130710292Y-83878213D01*
X130710288Y-83878210D01*
X130579185Y-83790609D01*
X130579172Y-83790602D01*
X130433501Y-83730264D01*
X130433489Y-83730261D01*
X130278845Y-83699500D01*
X130278842Y-83699500D01*
X130121158Y-83699500D01*
X130121155Y-83699500D01*
X129966510Y-83730261D01*
X129966498Y-83730264D01*
X129820827Y-83790602D01*
X129820814Y-83790609D01*
X129689711Y-83878210D01*
X129689707Y-83878213D01*
X129578213Y-83989707D01*
X129578210Y-83989711D01*
X129490609Y-84120814D01*
X129490602Y-84120827D01*
X129430264Y-84266498D01*
X129430261Y-84266510D01*
X129399500Y-84421153D01*
X118100500Y-84421153D01*
X118100500Y-82421153D01*
X127399500Y-82421153D01*
X127399500Y-82578846D01*
X127430261Y-82733489D01*
X127430264Y-82733501D01*
X127490602Y-82879172D01*
X127490609Y-82879185D01*
X127578210Y-83010288D01*
X127578213Y-83010292D01*
X127689707Y-83121786D01*
X127689711Y-83121789D01*
X127820814Y-83209390D01*
X127820827Y-83209397D01*
X127966498Y-83269735D01*
X127966503Y-83269737D01*
X128121153Y-83300499D01*
X128121156Y-83300500D01*
X128121158Y-83300500D01*
X128278844Y-83300500D01*
X128278845Y-83300499D01*
X128433497Y-83269737D01*
X128579179Y-83209394D01*
X128710289Y-83121789D01*
X128821789Y-83010289D01*
X128909394Y-82879179D01*
X128969737Y-82733497D01*
X129000500Y-82578842D01*
X129000500Y-82421158D01*
X129000500Y-82421155D01*
X129000499Y-82421153D01*
X128969738Y-82266510D01*
X128969737Y-82266503D01*
X128969735Y-82266498D01*
X128909397Y-82120827D01*
X128909390Y-82120814D01*
X128821789Y-81989711D01*
X128821786Y-81989707D01*
X128710292Y-81878213D01*
X128710288Y-81878210D01*
X128579185Y-81790609D01*
X128579172Y-81790602D01*
X128433501Y-81730264D01*
X128433489Y-81730261D01*
X128278845Y-81699500D01*
X128278842Y-81699500D01*
X128121158Y-81699500D01*
X128121155Y-81699500D01*
X127966510Y-81730261D01*
X127966498Y-81730264D01*
X127820827Y-81790602D01*
X127820814Y-81790609D01*
X127689711Y-81878210D01*
X127689707Y-81878213D01*
X127578213Y-81989707D01*
X127578210Y-81989711D01*
X127490609Y-82120814D01*
X127490602Y-82120827D01*
X127430264Y-82266498D01*
X127430261Y-82266510D01*
X127399500Y-82421153D01*
X118100500Y-82421153D01*
X118100500Y-80621153D01*
X129899500Y-80621153D01*
X129899500Y-80778846D01*
X129930261Y-80933489D01*
X129930264Y-80933501D01*
X129990602Y-81079172D01*
X129990609Y-81079185D01*
X130078210Y-81210288D01*
X130078213Y-81210292D01*
X130189707Y-81321786D01*
X130189711Y-81321789D01*
X130320814Y-81409390D01*
X130320827Y-81409397D01*
X130466498Y-81469735D01*
X130466503Y-81469737D01*
X130621153Y-81500499D01*
X130621156Y-81500500D01*
X130621158Y-81500500D01*
X130778844Y-81500500D01*
X130778845Y-81500499D01*
X130933497Y-81469737D01*
X131079179Y-81409394D01*
X131210289Y-81321789D01*
X131321789Y-81210289D01*
X131409394Y-81079179D01*
X131469737Y-80933497D01*
X131500500Y-80778842D01*
X131500500Y-80621158D01*
X131500500Y-80621155D01*
X131500499Y-80621153D01*
X131469738Y-80466510D01*
X131469737Y-80466503D01*
X131469735Y-80466498D01*
X131409397Y-80320827D01*
X131409390Y-80320814D01*
X131321789Y-80189711D01*
X131321786Y-80189707D01*
X131210292Y-80078213D01*
X131210288Y-80078210D01*
X131079185Y-79990609D01*
X131079172Y-79990602D01*
X130933501Y-79930264D01*
X130933489Y-79930261D01*
X130778845Y-79899500D01*
X130778842Y-79899500D01*
X130621158Y-79899500D01*
X130621155Y-79899500D01*
X130466510Y-79930261D01*
X130466498Y-79930264D01*
X130320827Y-79990602D01*
X130320814Y-79990609D01*
X130189711Y-80078210D01*
X130189707Y-80078213D01*
X130078213Y-80189707D01*
X130078210Y-80189711D01*
X129990609Y-80320814D01*
X129990602Y-80320827D01*
X129930264Y-80466498D01*
X129930261Y-80466510D01*
X129899500Y-80621153D01*
X118100500Y-80621153D01*
X118100500Y-79321153D01*
X125599500Y-79321153D01*
X125599500Y-79478846D01*
X125630261Y-79633489D01*
X125630264Y-79633501D01*
X125690602Y-79779172D01*
X125690609Y-79779185D01*
X125778210Y-79910288D01*
X125778213Y-79910292D01*
X125889707Y-80021786D01*
X125889711Y-80021789D01*
X126020814Y-80109390D01*
X126020827Y-80109397D01*
X126166498Y-80169735D01*
X126166503Y-80169737D01*
X126321153Y-80200499D01*
X126321156Y-80200500D01*
X126321158Y-80200500D01*
X126478844Y-80200500D01*
X126478845Y-80200499D01*
X126633497Y-80169737D01*
X126779179Y-80109394D01*
X126910289Y-80021789D01*
X127021789Y-79910289D01*
X127109394Y-79779179D01*
X127169737Y-79633497D01*
X127200500Y-79478842D01*
X127200500Y-79321158D01*
X127200500Y-79321155D01*
X127200499Y-79321153D01*
X127169738Y-79166510D01*
X127169737Y-79166503D01*
X127169735Y-79166498D01*
X127109397Y-79020827D01*
X127109390Y-79020814D01*
X127021789Y-78889711D01*
X127021786Y-78889707D01*
X126910292Y-78778213D01*
X126910288Y-78778210D01*
X126779185Y-78690609D01*
X126779172Y-78690602D01*
X126633501Y-78630264D01*
X126633489Y-78630261D01*
X126478845Y-78599500D01*
X126478842Y-78599500D01*
X126321158Y-78599500D01*
X126321155Y-78599500D01*
X126166510Y-78630261D01*
X126166498Y-78630264D01*
X126020827Y-78690602D01*
X126020814Y-78690609D01*
X125889711Y-78778210D01*
X125889707Y-78778213D01*
X125778213Y-78889707D01*
X125778210Y-78889711D01*
X125690609Y-79020814D01*
X125690602Y-79020827D01*
X125630264Y-79166498D01*
X125630261Y-79166510D01*
X125599500Y-79321153D01*
X118100500Y-79321153D01*
X118100500Y-78021153D01*
X146499500Y-78021153D01*
X146499500Y-78178846D01*
X146530261Y-78333489D01*
X146530264Y-78333501D01*
X146590602Y-78479172D01*
X146590609Y-78479185D01*
X146678210Y-78610288D01*
X146678213Y-78610292D01*
X146789707Y-78721786D01*
X146789711Y-78721789D01*
X146920814Y-78809390D01*
X146920827Y-78809397D01*
X147066498Y-78869735D01*
X147066503Y-78869737D01*
X147221153Y-78900499D01*
X147221156Y-78900500D01*
X147221158Y-78900500D01*
X147378844Y-78900500D01*
X147378845Y-78900499D01*
X147533497Y-78869737D01*
X147679179Y-78809394D01*
X147810289Y-78721789D01*
X147921789Y-78610289D01*
X148009394Y-78479179D01*
X148069737Y-78333497D01*
X148100500Y-78178842D01*
X148100500Y-78021158D01*
X148100500Y-78021155D01*
X148100499Y-78021153D01*
X148069738Y-77866510D01*
X148069737Y-77866503D01*
X148037939Y-77789735D01*
X148009397Y-77720827D01*
X148009390Y-77720814D01*
X147921789Y-77589711D01*
X147921786Y-77589707D01*
X147810292Y-77478213D01*
X147810288Y-77478210D01*
X147679185Y-77390609D01*
X147679172Y-77390602D01*
X147533501Y-77330264D01*
X147533489Y-77330261D01*
X147378845Y-77299500D01*
X147378842Y-77299500D01*
X147221158Y-77299500D01*
X147221155Y-77299500D01*
X147066510Y-77330261D01*
X147066498Y-77330264D01*
X146920827Y-77390602D01*
X146920814Y-77390609D01*
X146789711Y-77478210D01*
X146789707Y-77478213D01*
X146678213Y-77589707D01*
X146678210Y-77589711D01*
X146590609Y-77720814D01*
X146590602Y-77720827D01*
X146530264Y-77866498D01*
X146530261Y-77866510D01*
X146499500Y-78021153D01*
X118100500Y-78021153D01*
X118100500Y-76941153D01*
X157999500Y-76941153D01*
X157999500Y-77098846D01*
X158030261Y-77253489D01*
X158030264Y-77253501D01*
X158090602Y-77399172D01*
X158090609Y-77399185D01*
X158178210Y-77530288D01*
X158178213Y-77530292D01*
X158289707Y-77641786D01*
X158289711Y-77641789D01*
X158420814Y-77729390D01*
X158420827Y-77729397D01*
X158566498Y-77789735D01*
X158566503Y-77789737D01*
X158721153Y-77820499D01*
X158721156Y-77820500D01*
X158721158Y-77820500D01*
X158878844Y-77820500D01*
X158878845Y-77820499D01*
X159033497Y-77789737D01*
X159179179Y-77729394D01*
X159310289Y-77641789D01*
X159421789Y-77530289D01*
X159509394Y-77399179D01*
X159569737Y-77253497D01*
X159600500Y-77098842D01*
X159600500Y-76941158D01*
X159600500Y-76941155D01*
X159600499Y-76941153D01*
X159569738Y-76786510D01*
X159569737Y-76786503D01*
X159569735Y-76786498D01*
X159509397Y-76640827D01*
X159509390Y-76640814D01*
X159421789Y-76509711D01*
X159421786Y-76509707D01*
X159310292Y-76398213D01*
X159310288Y-76398210D01*
X159179185Y-76310609D01*
X159179172Y-76310602D01*
X159033501Y-76250264D01*
X159033489Y-76250261D01*
X158878845Y-76219500D01*
X158878842Y-76219500D01*
X158721158Y-76219500D01*
X158721155Y-76219500D01*
X158566510Y-76250261D01*
X158566498Y-76250264D01*
X158420827Y-76310602D01*
X158420814Y-76310609D01*
X158289711Y-76398210D01*
X158289707Y-76398213D01*
X158178213Y-76509707D01*
X158178210Y-76509711D01*
X158090609Y-76640814D01*
X158090602Y-76640827D01*
X158030264Y-76786498D01*
X158030261Y-76786510D01*
X157999500Y-76941153D01*
X118100500Y-76941153D01*
X118100500Y-71521153D01*
X121599500Y-71521153D01*
X121599500Y-71678846D01*
X121630261Y-71833489D01*
X121630264Y-71833501D01*
X121690602Y-71979172D01*
X121690609Y-71979185D01*
X121778210Y-72110288D01*
X121778213Y-72110292D01*
X121780240Y-72112319D01*
X121780962Y-72113642D01*
X121782076Y-72114999D01*
X121781818Y-72115210D01*
X121813725Y-72173642D01*
X121808741Y-72243334D01*
X121782001Y-72284939D01*
X121782076Y-72285001D01*
X121781552Y-72285639D01*
X121780240Y-72287681D01*
X121778213Y-72289707D01*
X121778210Y-72289711D01*
X121690609Y-72420814D01*
X121690602Y-72420827D01*
X121630264Y-72566498D01*
X121630261Y-72566510D01*
X121599500Y-72721153D01*
X121599500Y-72878846D01*
X121630261Y-73033489D01*
X121630264Y-73033501D01*
X121690602Y-73179172D01*
X121690609Y-73179185D01*
X121778210Y-73310288D01*
X121778213Y-73310292D01*
X121830240Y-73362319D01*
X121863725Y-73423642D01*
X121858741Y-73493334D01*
X121830240Y-73537681D01*
X121778213Y-73589707D01*
X121778210Y-73589711D01*
X121690609Y-73720814D01*
X121690602Y-73720827D01*
X121630264Y-73866498D01*
X121630261Y-73866510D01*
X121599500Y-74021153D01*
X121599500Y-74178846D01*
X121630261Y-74333489D01*
X121630264Y-74333501D01*
X121690602Y-74479172D01*
X121690609Y-74479185D01*
X121758713Y-74581109D01*
X121779591Y-74647787D01*
X121761107Y-74715167D01*
X121758713Y-74718891D01*
X121690609Y-74820814D01*
X121690602Y-74820827D01*
X121630264Y-74966498D01*
X121630261Y-74966510D01*
X121599500Y-75121153D01*
X121599500Y-75278846D01*
X121630261Y-75433489D01*
X121630264Y-75433501D01*
X121690602Y-75579172D01*
X121690609Y-75579185D01*
X121778210Y-75710288D01*
X121778213Y-75710292D01*
X121889707Y-75821786D01*
X121889711Y-75821789D01*
X122020814Y-75909390D01*
X122020827Y-75909397D01*
X122166498Y-75969735D01*
X122166503Y-75969737D01*
X122321153Y-76000499D01*
X122321156Y-76000500D01*
X122321158Y-76000500D01*
X122478844Y-76000500D01*
X122478845Y-76000499D01*
X122633497Y-75969737D01*
X122779179Y-75909394D01*
X122910289Y-75821789D01*
X122912312Y-75819766D01*
X122913634Y-75819043D01*
X122914999Y-75817924D01*
X122915211Y-75818182D01*
X122973632Y-75786276D01*
X123043324Y-75791255D01*
X123084939Y-75817999D01*
X123085001Y-75817924D01*
X123085648Y-75818454D01*
X123087688Y-75819766D01*
X123089711Y-75821789D01*
X123220814Y-75909390D01*
X123220827Y-75909397D01*
X123366498Y-75969735D01*
X123366503Y-75969737D01*
X123521153Y-76000499D01*
X123521156Y-76000500D01*
X123521158Y-76000500D01*
X123678844Y-76000500D01*
X123678845Y-76000499D01*
X123833497Y-75969737D01*
X123979179Y-75909394D01*
X124110289Y-75821789D01*
X124221789Y-75710289D01*
X124309394Y-75579179D01*
X124369737Y-75433497D01*
X124400500Y-75278842D01*
X124400500Y-75121158D01*
X124400500Y-75121155D01*
X124400499Y-75121153D01*
X124369738Y-74966510D01*
X124369737Y-74966503D01*
X124369735Y-74966498D01*
X124309397Y-74820827D01*
X124309393Y-74820820D01*
X124309389Y-74820814D01*
X124241284Y-74718888D01*
X124220408Y-74652214D01*
X124238892Y-74584834D01*
X124241257Y-74581152D01*
X124309394Y-74479179D01*
X124369737Y-74333497D01*
X124400500Y-74178842D01*
X124400500Y-74021158D01*
X124400500Y-74021155D01*
X124400499Y-74021153D01*
X124376680Y-73901409D01*
X124369737Y-73866503D01*
X124354737Y-73830289D01*
X124309397Y-73720827D01*
X124309390Y-73720814D01*
X124221789Y-73589711D01*
X124221786Y-73589707D01*
X124169760Y-73537681D01*
X124136275Y-73476358D01*
X124141259Y-73406666D01*
X124169760Y-73362319D01*
X124221786Y-73310292D01*
X124221789Y-73310289D01*
X124309394Y-73179179D01*
X124369737Y-73033497D01*
X124400500Y-72878842D01*
X124400500Y-72721158D01*
X124400500Y-72721155D01*
X124400499Y-72721153D01*
X124395936Y-72698213D01*
X124369737Y-72566503D01*
X124363010Y-72550263D01*
X124309397Y-72420827D01*
X124309390Y-72420814D01*
X124221789Y-72289711D01*
X124219766Y-72287688D01*
X124219043Y-72286365D01*
X124217924Y-72285001D01*
X124218182Y-72284788D01*
X124186276Y-72226368D01*
X124191255Y-72156676D01*
X124217999Y-72115060D01*
X124217924Y-72114999D01*
X124218454Y-72114351D01*
X124219766Y-72112312D01*
X124221789Y-72110289D01*
X124309394Y-71979179D01*
X124369737Y-71833497D01*
X124400500Y-71678842D01*
X124400500Y-71521158D01*
X124400500Y-71521155D01*
X124400499Y-71521153D01*
X124386398Y-71450263D01*
X124369737Y-71366503D01*
X124369735Y-71366498D01*
X124309397Y-71220827D01*
X124309390Y-71220814D01*
X124221789Y-71089711D01*
X124221786Y-71089707D01*
X124110292Y-70978213D01*
X124110288Y-70978210D01*
X123979185Y-70890609D01*
X123979172Y-70890602D01*
X123833501Y-70830264D01*
X123833489Y-70830261D01*
X123678845Y-70799500D01*
X123678842Y-70799500D01*
X123521158Y-70799500D01*
X123521155Y-70799500D01*
X123366510Y-70830261D01*
X123366498Y-70830264D01*
X123220827Y-70890602D01*
X123220814Y-70890609D01*
X123089711Y-70978210D01*
X123089707Y-70978213D01*
X123087681Y-70980240D01*
X123086357Y-70980962D01*
X123085001Y-70982076D01*
X123084789Y-70981818D01*
X123026358Y-71013725D01*
X122956666Y-71008741D01*
X122915060Y-70982001D01*
X122914999Y-70982076D01*
X122914360Y-70981552D01*
X122912319Y-70980240D01*
X122910292Y-70978213D01*
X122910288Y-70978210D01*
X122779185Y-70890609D01*
X122779172Y-70890602D01*
X122633501Y-70830264D01*
X122633489Y-70830261D01*
X122478845Y-70799500D01*
X122478842Y-70799500D01*
X122321158Y-70799500D01*
X122321155Y-70799500D01*
X122166510Y-70830261D01*
X122166498Y-70830264D01*
X122020827Y-70890602D01*
X122020814Y-70890609D01*
X121889711Y-70978210D01*
X121889707Y-70978213D01*
X121778213Y-71089707D01*
X121778210Y-71089711D01*
X121690609Y-71220814D01*
X121690602Y-71220827D01*
X121630264Y-71366498D01*
X121630261Y-71366510D01*
X121599500Y-71521153D01*
X118100500Y-71521153D01*
X118100500Y-70087482D01*
X128199500Y-70087482D01*
X128199500Y-72687517D01*
X128210000Y-72790296D01*
X128246499Y-72900441D01*
X128265186Y-72956835D01*
X128357288Y-73106156D01*
X128481344Y-73230212D01*
X128630665Y-73322314D01*
X128797202Y-73377499D01*
X128899990Y-73388000D01*
X128899995Y-73388000D01*
X131500005Y-73388000D01*
X131500010Y-73388000D01*
X131602798Y-73377499D01*
X131769335Y-73322314D01*
X131918656Y-73230212D01*
X132042712Y-73106156D01*
X132134814Y-72956835D01*
X132189999Y-72790298D01*
X132200500Y-72687510D01*
X132200500Y-71256372D01*
X133199500Y-71256372D01*
X133199500Y-71518627D01*
X133220594Y-71678842D01*
X133233730Y-71778616D01*
X133287472Y-71979185D01*
X133301602Y-72031918D01*
X133301605Y-72031928D01*
X133401953Y-72274190D01*
X133401958Y-72274200D01*
X133533075Y-72501303D01*
X133692718Y-72709351D01*
X133692726Y-72709360D01*
X133878140Y-72894774D01*
X133878148Y-72894781D01*
X133878149Y-72894782D01*
X133923251Y-72929390D01*
X134086196Y-73054424D01*
X134313299Y-73185541D01*
X134313309Y-73185546D01*
X134447569Y-73241158D01*
X134555581Y-73285898D01*
X134808884Y-73353770D01*
X135068880Y-73388000D01*
X135068887Y-73388000D01*
X135331113Y-73388000D01*
X135331120Y-73388000D01*
X135591116Y-73353770D01*
X135844419Y-73285898D01*
X135952443Y-73241153D01*
X147199500Y-73241153D01*
X147199500Y-73398846D01*
X147230261Y-73553489D01*
X147230264Y-73553501D01*
X147290602Y-73699172D01*
X147290609Y-73699185D01*
X147378210Y-73830288D01*
X147378213Y-73830292D01*
X147489707Y-73941786D01*
X147489711Y-73941789D01*
X147620814Y-74029390D01*
X147620827Y-74029397D01*
X147743283Y-74080119D01*
X147766503Y-74089737D01*
X147921153Y-74120499D01*
X147921156Y-74120500D01*
X147921158Y-74120500D01*
X148078844Y-74120500D01*
X148078845Y-74120499D01*
X148233497Y-74089737D01*
X148379179Y-74029394D01*
X148510289Y-73941789D01*
X148621789Y-73830289D01*
X148709394Y-73699179D01*
X148769737Y-73553497D01*
X148800500Y-73398842D01*
X148800500Y-73241158D01*
X148800500Y-73241155D01*
X148800499Y-73241153D01*
X148788173Y-73179185D01*
X148769737Y-73086503D01*
X148751612Y-73042744D01*
X148709397Y-72940827D01*
X148709390Y-72940814D01*
X148621789Y-72809711D01*
X148621786Y-72809707D01*
X148510292Y-72698213D01*
X148510288Y-72698210D01*
X148379185Y-72610609D01*
X148379172Y-72610602D01*
X148233501Y-72550264D01*
X148233489Y-72550261D01*
X148078845Y-72519500D01*
X148078842Y-72519500D01*
X147921158Y-72519500D01*
X147921155Y-72519500D01*
X147766510Y-72550261D01*
X147766498Y-72550264D01*
X147620827Y-72610602D01*
X147620814Y-72610609D01*
X147489711Y-72698210D01*
X147489707Y-72698213D01*
X147378213Y-72809707D01*
X147378210Y-72809711D01*
X147290609Y-72940814D01*
X147290602Y-72940827D01*
X147230264Y-73086498D01*
X147230261Y-73086510D01*
X147199500Y-73241153D01*
X135952443Y-73241153D01*
X136086697Y-73185543D01*
X136313803Y-73054424D01*
X136521851Y-72894782D01*
X136521855Y-72894777D01*
X136521860Y-72894774D01*
X136707274Y-72709360D01*
X136707277Y-72709355D01*
X136707282Y-72709351D01*
X136866924Y-72501303D01*
X136998043Y-72274197D01*
X137010827Y-72243334D01*
X137053152Y-72141153D01*
X149999500Y-72141153D01*
X149999500Y-72298846D01*
X150030261Y-72453489D01*
X150030264Y-72453501D01*
X150090602Y-72599172D01*
X150090609Y-72599185D01*
X150178210Y-72730288D01*
X150178213Y-72730292D01*
X150289707Y-72841786D01*
X150289711Y-72841789D01*
X150420814Y-72929390D01*
X150420827Y-72929397D01*
X150506864Y-72965034D01*
X150566503Y-72989737D01*
X150721153Y-73020499D01*
X150721156Y-73020500D01*
X150721158Y-73020500D01*
X150878844Y-73020500D01*
X150878845Y-73020499D01*
X151033497Y-72989737D01*
X151151592Y-72940821D01*
X151179172Y-72929397D01*
X151179172Y-72929396D01*
X151179179Y-72929394D01*
X151200045Y-72915451D01*
X151266721Y-72894573D01*
X151334102Y-72913056D01*
X151380793Y-72965034D01*
X151391971Y-73034004D01*
X151390554Y-73042744D01*
X151359120Y-73200773D01*
X151359120Y-73358466D01*
X151389881Y-73513109D01*
X151389884Y-73513121D01*
X151450222Y-73658792D01*
X151450229Y-73658805D01*
X151537830Y-73789908D01*
X151537833Y-73789912D01*
X151649327Y-73901406D01*
X151649331Y-73901409D01*
X151780434Y-73989010D01*
X151780447Y-73989017D01*
X151926118Y-74049355D01*
X151926123Y-74049357D01*
X152080773Y-74080119D01*
X152080776Y-74080120D01*
X152080778Y-74080120D01*
X152238464Y-74080120D01*
X152238465Y-74080119D01*
X152393117Y-74049357D01*
X152538799Y-73989014D01*
X152669909Y-73901409D01*
X152781409Y-73789909D01*
X152869014Y-73658799D01*
X152929357Y-73513117D01*
X152960120Y-73358462D01*
X152960120Y-73200778D01*
X152960120Y-73200775D01*
X152960119Y-73200773D01*
X152955822Y-73179172D01*
X152929357Y-73046123D01*
X152906002Y-72989738D01*
X152869017Y-72900447D01*
X152869010Y-72900434D01*
X152781409Y-72769331D01*
X152781406Y-72769327D01*
X152669912Y-72657833D01*
X152669908Y-72657830D01*
X152538805Y-72570229D01*
X152538792Y-72570222D01*
X152393121Y-72509884D01*
X152393109Y-72509881D01*
X152238465Y-72479120D01*
X152238462Y-72479120D01*
X152080778Y-72479120D01*
X152080775Y-72479120D01*
X151926130Y-72509881D01*
X151926118Y-72509884D01*
X151780447Y-72570222D01*
X151780433Y-72570230D01*
X151759570Y-72584170D01*
X151692892Y-72605046D01*
X151625513Y-72586560D01*
X151578824Y-72534580D01*
X151567649Y-72465610D01*
X151569065Y-72456874D01*
X151569739Y-72453489D01*
X151581729Y-72393209D01*
X151600500Y-72298844D01*
X151600500Y-72141155D01*
X151600499Y-72141153D01*
X151595027Y-72113642D01*
X151569737Y-71986503D01*
X151566703Y-71979179D01*
X151509397Y-71840827D01*
X151509390Y-71840814D01*
X151421789Y-71709711D01*
X151421786Y-71709707D01*
X151310292Y-71598213D01*
X151310288Y-71598210D01*
X151179185Y-71510609D01*
X151179172Y-71510602D01*
X151033501Y-71450264D01*
X151033489Y-71450261D01*
X150878845Y-71419500D01*
X150878842Y-71419500D01*
X150721158Y-71419500D01*
X150721155Y-71419500D01*
X150566510Y-71450261D01*
X150566498Y-71450264D01*
X150420827Y-71510602D01*
X150420814Y-71510609D01*
X150289711Y-71598210D01*
X150289707Y-71598213D01*
X150178213Y-71709707D01*
X150178210Y-71709711D01*
X150090609Y-71840814D01*
X150090602Y-71840827D01*
X150030264Y-71986498D01*
X150030261Y-71986510D01*
X149999500Y-72141153D01*
X137053152Y-72141153D01*
X137075329Y-72087613D01*
X137098394Y-72031928D01*
X137098398Y-72031919D01*
X137166270Y-71778616D01*
X137200500Y-71518620D01*
X137200500Y-71256380D01*
X137166270Y-70996384D01*
X137098398Y-70743081D01*
X137098394Y-70743071D01*
X136998046Y-70500809D01*
X136998041Y-70500799D01*
X136866924Y-70273696D01*
X136707281Y-70065648D01*
X136707274Y-70065640D01*
X136521860Y-69880226D01*
X136521851Y-69880218D01*
X136313803Y-69720575D01*
X136086700Y-69589458D01*
X136086690Y-69589453D01*
X135844428Y-69489105D01*
X135844421Y-69489103D01*
X135844419Y-69489102D01*
X135591116Y-69421230D01*
X135533339Y-69413623D01*
X135331127Y-69387000D01*
X135331120Y-69387000D01*
X135068880Y-69387000D01*
X135068872Y-69387000D01*
X134837772Y-69417426D01*
X134808884Y-69421230D01*
X134555581Y-69489102D01*
X134555571Y-69489105D01*
X134313309Y-69589453D01*
X134313299Y-69589458D01*
X134086196Y-69720575D01*
X133878148Y-69880218D01*
X133692718Y-70065648D01*
X133533075Y-70273696D01*
X133401958Y-70500799D01*
X133401953Y-70500809D01*
X133301605Y-70743071D01*
X133301602Y-70743081D01*
X133237863Y-70980962D01*
X133233730Y-70996385D01*
X133199500Y-71256372D01*
X132200500Y-71256372D01*
X132200500Y-70087490D01*
X132189999Y-69984702D01*
X132134814Y-69818165D01*
X132042712Y-69668844D01*
X131918656Y-69544788D01*
X131769335Y-69452686D01*
X131602798Y-69397501D01*
X131602796Y-69397500D01*
X131500017Y-69387000D01*
X131500010Y-69387000D01*
X128899990Y-69387000D01*
X128899982Y-69387000D01*
X128797203Y-69397500D01*
X128797202Y-69397501D01*
X128725593Y-69421230D01*
X128630667Y-69452685D01*
X128630662Y-69452687D01*
X128481342Y-69544789D01*
X128357289Y-69668842D01*
X128265187Y-69818162D01*
X128265186Y-69818165D01*
X128210001Y-69984702D01*
X128210001Y-69984703D01*
X128210000Y-69984703D01*
X128199500Y-70087482D01*
X118100500Y-70087482D01*
X118100500Y-64844500D01*
X118120185Y-64777461D01*
X118172989Y-64731706D01*
X118224500Y-64720500D01*
X172975500Y-64720500D01*
X173042539Y-64740185D01*
G37*
%TD.AperFunction*%
%TD*%
M02*
