%TF.GenerationSoftware,KiCad,Pcbnew,10.0.5*%
%TF.CreationDate,2026-09-27T19:02:26+05:30*%
%TF.ProjectId,STM32 GPS Tracker,53544d33-3220-4475-9053-20547261636b,rev?*%
%TF.SameCoordinates,Original*%
%TF.FileFunction,Copper,L4,Bot*%
%TF.FilePolarity,Positive*%
%FSLAX46Y46*%
G04 Gerber Fmt 4.6, Leading zero omitted, Abs format (unit mm)*
G04 Created by KiCad (PCBNEW 10.0.5) date 2026-09-27 19:02:26*
%MOMM*%
%LPD*%
G01*
G04 APERTURE LIST*
G04 Aperture macros list*
%AMRoundRect*
0 Rectangle with rounded corners*
0 $1 Rounding radius*
0 $2 $3 $4 $5 $6 $7 $8 $9 X,Y pos of 4 corners*
0 Add a 4 corners polygon primitive as box body*
4,1,4,$2,$3,$4,$5,$6,$7,$8,$9,$2,$3,0*
0 Add four circle primitives for the rounded corners*
1,1,$1+$1,$2,$3*
1,1,$1+$1,$4,$5*
1,1,$1+$1,$6,$7*
1,1,$1+$1,$8,$9*
0 Add four rect primitives between the rounded corners*
20,1,$1+$1,$2,$3,$4,$5,0*
20,1,$1+$1,$4,$5,$6,$7,0*
20,1,$1+$1,$6,$7,$8,$9,0*
20,1,$1+$1,$8,$9,$2,$3,0*%
G04 Aperture macros list end*
%TA.AperFunction,SMDPad,CuDef*%
%ADD10R,1.600000X1.500000*%
%TD*%
%TA.AperFunction,SMDPad,CuDef*%
%ADD11R,1.500000X1.000000*%
%TD*%
%TA.AperFunction,ComponentPad*%
%ADD12RoundRect,0.249999X-1.250001X-1.250001X1.250001X-1.250001X1.250001X1.250001X-1.250001X1.250001X0*%
%TD*%
%TA.AperFunction,ComponentPad*%
%ADD13C,3.000000*%
%TD*%
%TA.AperFunction,ComponentPad*%
%ADD14RoundRect,0.250001X0.949999X-0.949999X0.949999X0.949999X-0.949999X0.949999X-0.949999X-0.949999X0*%
%TD*%
%TA.AperFunction,ComponentPad*%
%ADD15C,2.400000*%
%TD*%
%TA.AperFunction,ComponentPad*%
%ADD16C,2.000000*%
%TD*%
%TA.AperFunction,ComponentPad*%
%ADD17C,0.600000*%
%TD*%
%TA.AperFunction,SMDPad,CuDef*%
%ADD18R,2.950000X4.500000*%
%TD*%
%TA.AperFunction,SMDPad,CuDef*%
%ADD19RoundRect,0.140000X-0.170000X0.140000X-0.170000X-0.140000X0.170000X-0.140000X0.170000X0.140000X0*%
%TD*%
%TA.AperFunction,SMDPad,CuDef*%
%ADD20RoundRect,0.250000X-1.045000X0.785000X-1.045000X-0.785000X1.045000X-0.785000X1.045000X0.785000X0*%
%TD*%
%TA.AperFunction,SMDPad,CuDef*%
%ADD21RoundRect,0.135000X-0.185000X0.135000X-0.185000X-0.135000X0.185000X-0.135000X0.185000X0.135000X0*%
%TD*%
%TA.AperFunction,SMDPad,CuDef*%
%ADD22RoundRect,0.100000X0.130000X0.100000X-0.130000X0.100000X-0.130000X-0.100000X0.130000X-0.100000X0*%
%TD*%
%TA.AperFunction,SMDPad,CuDef*%
%ADD23RoundRect,0.097500X0.432500X0.097500X-0.432500X0.097500X-0.432500X-0.097500X0.432500X-0.097500X0*%
%TD*%
%TA.AperFunction,SMDPad,CuDef*%
%ADD24RoundRect,0.243750X0.243750X0.456250X-0.243750X0.456250X-0.243750X-0.456250X0.243750X-0.456250X0*%
%TD*%
%TA.AperFunction,SMDPad,CuDef*%
%ADD25O,1.600000X0.600000*%
%TD*%
%TA.AperFunction,SMDPad,CuDef*%
%ADD26O,0.600000X1.600000*%
%TD*%
%TA.AperFunction,SMDPad,CuDef*%
%ADD27RoundRect,0.140000X0.140000X0.170000X-0.140000X0.170000X-0.140000X-0.170000X0.140000X-0.170000X0*%
%TD*%
%TA.AperFunction,SMDPad,CuDef*%
%ADD28RoundRect,0.135000X0.185000X-0.135000X0.185000X0.135000X-0.185000X0.135000X-0.185000X-0.135000X0*%
%TD*%
%TA.AperFunction,SMDPad,CuDef*%
%ADD29R,1.100000X2.250000*%
%TD*%
%TA.AperFunction,SMDPad,CuDef*%
%ADD30R,1.050000X1.100000*%
%TD*%
%TA.AperFunction,SMDPad,CuDef*%
%ADD31R,2.250000X1.100000*%
%TD*%
%TA.AperFunction,SMDPad,CuDef*%
%ADD32R,1.100000X1.050000*%
%TD*%
%TA.AperFunction,ViaPad*%
%ADD33C,0.600000*%
%TD*%
%TA.AperFunction,Conductor*%
%ADD34C,0.200000*%
%TD*%
%TA.AperFunction,Conductor*%
%ADD35C,0.300000*%
%TD*%
%TA.AperFunction,Conductor*%
%ADD36C,0.500000*%
%TD*%
G04 APERTURE END LIST*
D10*
%TO.P,J2,S4*%
%TO.N,unconnected-(J2-PadS1)_1*%
X148980000Y-120820000D03*
%TO.P,J2,S3*%
%TO.N,unconnected-(J2-PadS1)*%
X146280000Y-120820000D03*
%TO.P,J2,S2*%
%TO.N,unconnected-(J2-PadS1)_2*%
X148980000Y-105920000D03*
%TO.P,J2,S1*%
%TO.N,unconnected-(J2-PadS1)_3*%
X146280000Y-105920000D03*
D11*
%TO.P,J2,7,I/O_7*%
%TO.N,Net-(J2-I{slash}O)*%
X140730000Y-112190000D03*
%TO.P,J2,6,VPP_6*%
%TO.N,SIM_DET*%
X140730000Y-114730000D03*
%TO.P,J2,5,GND_5*%
%TO.N,GND*%
X140730000Y-117270000D03*
%TO.P,J2,3,CLK_3*%
%TO.N,Net-(J2-CLK)*%
X153330000Y-112190000D03*
%TO.P,J2,2,RET_2*%
%TO.N,Net-(J2-RET)*%
X153330000Y-114730000D03*
%TO.P,J2,1,VCC_1*%
%TO.N,SIM_VDD*%
X153330000Y-117270000D03*
%TD*%
D12*
%TO.P,J1,1,Pin_1_1*%
%TO.N,GND*%
X130200000Y-71387500D03*
D13*
%TO.P,J1,2,Pin_2_2*%
%TO.N,+12V*%
X135200000Y-71387500D03*
%TD*%
D14*
%TO.P,J4,1,Pin_1_1*%
%TO.N,GND*%
X123500000Y-120080000D03*
D15*
%TO.P,J4,2,Pin_2_2*%
%TO.N,PA7{slash}SPI1_MOS1*%
X123500000Y-116120000D03*
%TO.P,J4,3,Pin_3_3*%
%TO.N,PA6{slash}SPI_MIS0*%
X123500000Y-112160000D03*
%TO.P,J4,4,Pin_4_4*%
%TO.N,PA5{slash}SPI1_CLK*%
X123500000Y-108200000D03*
%TO.P,J4,5,Pin_5_5*%
%TO.N,PA4*%
X123500000Y-104240000D03*
%TO.P,J4,6,Pin_6_6*%
%TO.N,USART2_RX*%
X123500000Y-100280000D03*
%TO.P,J4,7,Pin_7_7*%
%TO.N,USART2_TX*%
X123500000Y-96320000D03*
%TO.P,J4,8,Pin_8_8*%
%TO.N,+3.3V*%
X123500000Y-92360000D03*
%TD*%
D16*
%TO.P,SW2,1,1_1*%
%TO.N,Net-(C11-Pad2)*%
X158450000Y-119170000D03*
X158450000Y-112670000D03*
%TO.P,SW2,2,2_2*%
%TO.N,+3.3V*%
X162950000Y-119170000D03*
X162950000Y-112670000D03*
%TD*%
%TO.P,SW1,1,1_1*%
%TO.N,NRST*%
X130150000Y-112970000D03*
X136650000Y-112970000D03*
%TO.P,SW1,2,2_2*%
%TO.N,GND*%
X130150000Y-117470000D03*
X136650000Y-117470000D03*
%TD*%
D17*
%TO.P,U1,9,GNDPAD_9*%
%TO.N,GND*%
X122400000Y-71600000D03*
X122400000Y-72800000D03*
X122400000Y-74100000D03*
X122400000Y-75200000D03*
D18*
X123000000Y-73400000D03*
D17*
X123600000Y-71600000D03*
X123600000Y-72800000D03*
X123600000Y-74100000D03*
X123600000Y-75200000D03*
%TD*%
D14*
%TO.P,J3,1,Pin_1_1*%
%TO.N,GND*%
X168700000Y-120520000D03*
D15*
%TO.P,J3,2,Pin_2_2*%
%TO.N,SWDI0*%
X168700000Y-116560000D03*
%TO.P,J3,3,Pin_3_3*%
%TO.N,NRST*%
X168700000Y-112600000D03*
%TO.P,J3,4,Pin_4_4*%
%TO.N,SIM_CLK*%
X168700000Y-108640000D03*
%TO.P,J3,5,Pin_5_5*%
%TO.N,SIM_RESET*%
X168700000Y-104680000D03*
%TO.P,J3,6,Pin_6_6*%
%TO.N,SIM_RX*%
X168700000Y-100720000D03*
%TO.P,J3,7,Pin_7_7*%
%TO.N,SIM_TX*%
X168700000Y-96760000D03*
%TO.P,J3,8,Pin_8_8*%
%TO.N,SIM_PWRKEY*%
X168700000Y-92800000D03*
%TD*%
D19*
%TO.P,C6,1*%
%TO.N,SIM_DATA*%
X136800000Y-103040000D03*
%TO.P,C6,2*%
%TO.N,Net-(C6-Pad2)*%
X136800000Y-104000000D03*
%TD*%
D20*
%TO.P,C9,1*%
%TO.N,GND*%
X164380000Y-71700000D03*
%TO.P,C9,2*%
%TO.N,+3.3V*%
X164380000Y-77940000D03*
%TD*%
D21*
%TO.P,R2,1*%
%TO.N,Net-(J2-I{slash}O)*%
X145100000Y-103000000D03*
%TO.P,R2,2*%
%TO.N,SIM_DATA*%
X145100000Y-104020000D03*
%TD*%
D22*
%TO.P,C5,1*%
%TO.N,GND*%
X162920000Y-96120000D03*
%TO.P,C5,2*%
%TO.N,Net-(U2-VRTC)*%
X162280000Y-96120000D03*
%TD*%
D23*
%TO.P,U3,1*%
%TO.N,Net-(J2-CLK)*%
X138635000Y-107970000D03*
%TO.P,U3,2*%
%TO.N,Net-(C6-Pad2)*%
X138635000Y-108620000D03*
%TO.P,U3,3*%
%TO.N,Net-(J2-I{slash}O)*%
X138635000Y-109270000D03*
%TO.P,U3,4*%
%TO.N,Net-(J2-RET)*%
X136765000Y-109270000D03*
%TO.P,U3,5*%
%TO.N,SIM_DET*%
X136765000Y-108620000D03*
%TO.P,U3,6*%
%TO.N,SIM_VDD*%
X136765000Y-107970000D03*
%TD*%
D24*
%TO.P,D1,1,K_1*%
%TO.N,+3.3V*%
X165017500Y-84720000D03*
%TO.P,D1,2,A_2*%
%TO.N,GND*%
X163142500Y-84720000D03*
%TD*%
D21*
%TO.P,R3,1*%
%TO.N,Net-(J2-RET)*%
X139200000Y-103000000D03*
%TO.P,R3,2*%
%TO.N,SIM_RST*%
X139200000Y-104020000D03*
%TD*%
D25*
%TO.P,U2,1,GND_1*%
%TO.N,GND*%
X157500000Y-80120000D03*
%TO.P,U2,2,GND_2*%
X157500000Y-81120000D03*
%TO.P,U2,3,GND_3*%
X157500000Y-82120000D03*
%TO.P,U2,4,VBAT_4*%
%TO.N,+3.3V*%
X157500000Y-83120000D03*
%TO.P,U2,5,VBAT_5*%
X157500000Y-84120000D03*
%TO.P,U2,6,VBAT_6*%
X157500000Y-85120000D03*
%TO.P,U2,7,VDD_EXT_7*%
%TO.N,Net-(U2-VDD_EXT)*%
X157500000Y-86120000D03*
%TO.P,U2,8,PWRKEY_8*%
%TO.N,SIM_PWRKEY*%
X157500000Y-87120000D03*
%TO.P,U2,9,DTR_9*%
%TO.N,unconnected-(U2-DTR-Pad9)*%
X157500000Y-88120000D03*
%TO.P,U2,10,RI_10*%
%TO.N,unconnected-(U2-RI-Pad10)*%
X157500000Y-89120000D03*
%TO.P,U2,11,DCD_11*%
%TO.N,unconnected-(U2-DCD-Pad11)*%
X157500000Y-90120000D03*
%TO.P,U2,12,CTS_12*%
%TO.N,unconnected-(U2-CTS-Pad12)*%
X157500000Y-91120000D03*
%TO.P,U2,13,RTS_13*%
%TO.N,unconnected-(U2-RTS-Pad13)*%
X157500000Y-92120000D03*
%TO.P,U2,14,TXD_14*%
%TO.N,SIM_TX*%
X157500000Y-93120000D03*
%TO.P,U2,15,RXD_15*%
%TO.N,SIM_RX*%
X157500000Y-94120000D03*
%TO.P,U2,16,~{RESET}_16*%
%TO.N,SIM_RESET*%
X157500000Y-95120000D03*
%TO.P,U2,17,VRTC_17*%
%TO.N,Net-(U2-VRTC)*%
X157500000Y-96120000D03*
D26*
%TO.P,U2,18,GND_18*%
%TO.N,GND*%
X153500000Y-100120000D03*
%TO.P,U2,19,MIC1P_19*%
%TO.N,unconnected-(U2-MIC1P-Pad19)*%
X152500000Y-100120000D03*
%TO.P,U2,20,MIC1N_20*%
%TO.N,unconnected-(U2-MIC1N-Pad20)*%
X151500000Y-100120000D03*
%TO.P,U2,21,SPK1P_21*%
%TO.N,unconnected-(U2-SPK1P-Pad21)*%
X150500000Y-100120000D03*
%TO.P,U2,22,SPK1N_22*%
%TO.N,unconnected-(U2-SPK1N-Pad22)*%
X149500000Y-100120000D03*
%TO.P,U2,23,ADC0_23*%
%TO.N,unconnected-(U2-ADC0-Pad23)*%
X148500000Y-100120000D03*
%TO.P,U2,24,ADC1_24*%
%TO.N,unconnected-(U2-ADC1-Pad24)*%
X147500000Y-100120000D03*
%TO.P,U2,25,VCHG_25*%
%TO.N,unconnected-(U2-VCHG-Pad25)*%
X146500000Y-100120000D03*
%TO.P,U2,26,USB_DP_26*%
%TO.N,unconnected-(U2-USB_DP-Pad26)*%
X145500000Y-100120000D03*
%TO.P,U2,27,USB_DN_27*%
%TO.N,unconnected-(U2-USB_DN-Pad27)*%
X144500000Y-100120000D03*
%TO.P,U2,28,GND_28*%
%TO.N,GND*%
X143500000Y-100120000D03*
%TO.P,U2,29,SIM_VDD_29*%
%TO.N,SIM_VDD*%
X142500000Y-100120000D03*
%TO.P,U2,30,SIM_DATA_30*%
%TO.N,SIM_DATA*%
X141500000Y-100120000D03*
%TO.P,U2,31,SIM_CLK_31*%
%TO.N,SIM_CLK*%
X140500000Y-100120000D03*
%TO.P,U2,32,SIM_RST_32*%
%TO.N,SIM_RST*%
X139500000Y-100120000D03*
%TO.P,U2,33,SIM_DET_33*%
%TO.N,SIM_DET*%
X138500000Y-100120000D03*
%TO.P,U2,34,GND_34*%
%TO.N,GND*%
X137500000Y-100120000D03*
D25*
%TO.P,U2,35,GPS_ANT_35*%
%TO.N,GPS_ANT*%
X133500000Y-96120000D03*
%TO.P,U2,36,GND_36*%
%TO.N,GND*%
X133500000Y-95120000D03*
%TO.P,U2,37,1PPS_37*%
%TO.N,unconnected-(U2-1PPS-Pad37)*%
X133500000Y-94120000D03*
%TO.P,U2,38,SDA_38*%
%TO.N,unconnected-(U2-SDA-Pad38)*%
X133500000Y-93120000D03*
%TO.P,U2,39,SCL_39*%
%TO.N,unconnected-(U2-SCL-Pad39)*%
X133500000Y-92120000D03*
%TO.P,U2,40,GND_40*%
%TO.N,GND*%
X133500000Y-91120000D03*
%TO.P,U2,41,PWM2_41*%
%TO.N,unconnected-(U2-PWM2-Pad41)*%
X133500000Y-90120000D03*
%TO.P,U2,42,PWM1_42*%
%TO.N,unconnected-(U2-PWM1-Pad42)*%
X133500000Y-89120000D03*
%TO.P,U2,43,GPIO19_43*%
%TO.N,unconnected-(U2-GPIO19-Pad43)*%
X133500000Y-88120000D03*
%TO.P,U2,44,GPIO17_44*%
%TO.N,unconnected-(U2-GPIO17-Pad44)*%
X133500000Y-87120000D03*
%TO.P,U2,45,PCM_SYNC_45*%
%TO.N,unconnected-(U2-PCM_SYNC-Pad45)*%
X133500000Y-86120000D03*
%TO.P,U2,46,PCM_CLK_46*%
%TO.N,unconnected-(U2-PCM_CLK-Pad46)*%
X133500000Y-85120000D03*
%TO.P,U2,47,PCM_IN_47*%
%TO.N,unconnected-(U2-PCM_IN-Pad47)*%
X133500000Y-84120000D03*
%TO.P,U2,48,PCM_OUT_48*%
%TO.N,unconnected-(U2-PCM_OUT-Pad48)*%
X133500000Y-83120000D03*
%TO.P,U2,49,STATUS_49*%
%TO.N,STATUS*%
X133500000Y-82120000D03*
%TO.P,U2,50,NETLIGHT_50*%
%TO.N,unconnected-(U2-NETLIGHT-Pad50)*%
X133500000Y-81120000D03*
%TO.P,U2,51,GND_51*%
%TO.N,GND*%
X133500000Y-80120000D03*
D26*
%TO.P,U2,52,GND_52*%
X137500000Y-76120000D03*
%TO.P,U2,53,BT_ANT_53*%
%TO.N,unconnected-(U2-BT_ANT-Pad53)*%
X138500000Y-76120000D03*
%TO.P,U2,54,GND_54*%
%TO.N,GND*%
X139500000Y-76120000D03*
%TO.P,U2,55,KBR3_55*%
%TO.N,unconnected-(U2-KBR3-Pad55)*%
X140500000Y-76120000D03*
%TO.P,U2,56,KBR2_56*%
%TO.N,unconnected-(U2-KBR2-Pad56)*%
X141500000Y-76120000D03*
%TO.P,U2,57,KBR1_57*%
%TO.N,unconnected-(U2-KBR1-Pad57)*%
X142500000Y-76120000D03*
%TO.P,U2,58,KBR0_58*%
%TO.N,unconnected-(U2-KBR0-Pad58)*%
X143500000Y-76120000D03*
%TO.P,U2,59,KBC3_59*%
%TO.N,unconnected-(U2-KBC3-Pad59)*%
X144500000Y-76120000D03*
%TO.P,U2,60,KBC2_60*%
%TO.N,unconnected-(U2-KBC2-Pad60)*%
X145500000Y-76120000D03*
%TO.P,U2,61,KBC1_61*%
%TO.N,unconnected-(U2-KBC1-Pad61)*%
X146500000Y-76120000D03*
%TO.P,U2,62,KBC0_62*%
%TO.N,unconnected-(U2-KBC0-Pad62)*%
X147500000Y-76120000D03*
%TO.P,U2,63,RFSYNC_63*%
%TO.N,unconnected-(U2-RFSYNC-Pad63)*%
X148500000Y-76120000D03*
%TO.P,U2,64,GND_64*%
%TO.N,GND*%
X149500000Y-76120000D03*
%TO.P,U2,65,GND_65*%
X150500000Y-76120000D03*
%TO.P,U2,66,GSM_ANT_66*%
%TO.N,CSM_ANT*%
X151500000Y-76120000D03*
%TO.P,U2,67,GND_67*%
%TO.N,GND*%
X152500000Y-76120000D03*
%TO.P,U2,68,GND_68*%
X153500000Y-76120000D03*
%TD*%
D27*
%TO.P,C3,1*%
%TO.N,+3.3V*%
X165180000Y-82420000D03*
%TO.P,C3,2*%
%TO.N,GND*%
X164220000Y-82420000D03*
%TD*%
D19*
%TO.P,C8,1*%
%TO.N,GND*%
X135100000Y-106340000D03*
%TO.P,C8,2*%
%TO.N,SIM_VDD*%
X135100000Y-107300000D03*
%TD*%
D28*
%TO.P,R1,1*%
%TO.N,Net-(U2-VDD_EXT)*%
X147900000Y-104030000D03*
%TO.P,R1,2*%
%TO.N,SIM_DET*%
X147900000Y-103010000D03*
%TD*%
D21*
%TO.P,R4,1*%
%TO.N,Net-(J2-CLK)*%
X142150000Y-103000000D03*
%TO.P,R4,2*%
%TO.N,SIM_CLK*%
X142150000Y-104020000D03*
%TD*%
D29*
%TO.P,GSM2,1,GND_1*%
%TO.N,GND*%
X154700000Y-70020000D03*
%TO.P,GSM2,2,GND_2*%
X151750000Y-70020000D03*
D30*
%TO.P,GSM2,3,SIG_3*%
%TO.N,GPS_ANT*%
X153225000Y-71570000D03*
%TD*%
D27*
%TO.P,C2,1*%
%TO.N,+3.3V*%
X165180000Y-80620000D03*
%TO.P,C2,2*%
%TO.N,GND*%
X164220000Y-80620000D03*
%TD*%
D31*
%TO.P,GSM1,1,GND_1*%
%TO.N,GND*%
X130450000Y-100445000D03*
%TO.P,GSM1,2,GND_2*%
X130450000Y-103395000D03*
D32*
%TO.P,GSM1,3,SIG_3*%
%TO.N,CSM_ANT*%
X132000000Y-101920000D03*
%TD*%
D33*
%TO.N,Net-(J2-RET)*%
X132600000Y-107200000D03*
%TO.N,SIM_DATA*%
X135400000Y-103400000D03*
%TO.N,Net-(J2-RET)*%
X138800000Y-113100000D03*
%TO.N,Net-(J2-CLK)*%
X140429046Y-103000000D03*
%TO.N,SIM_VDD*%
X156500000Y-123070000D03*
X161400000Y-97800000D03*
%TO.N,GND*%
X147300000Y-78100000D03*
X141200000Y-110900000D03*
%TO.N,+3.3V*%
X143500000Y-95600000D03*
X140572584Y-96642471D03*
X157800000Y-105220000D03*
X144395405Y-101824595D03*
X152850000Y-84770000D03*
X146500000Y-103720000D03*
%TO.N,STATUS*%
X137200000Y-93620000D03*
%TO.N,Net-(U4-PF0)*%
X142700000Y-97720000D03*
X136100000Y-95520000D03*
X138200000Y-96820000D03*
X134300000Y-97720000D03*
%TO.N,Net-(U4-PF1)*%
X137799998Y-102020000D03*
X133500000Y-103620000D03*
%TO.N,GND*%
X150800000Y-72220000D03*
X135000000Y-105020000D03*
X149800000Y-94620000D03*
X130800000Y-105320000D03*
X149600000Y-91620000D03*
X157500000Y-109920000D03*
X136750000Y-89720000D03*
X163800000Y-99020000D03*
X152159620Y-73279620D03*
X164400000Y-110120000D03*
X137500000Y-97820000D03*
X133053180Y-102956407D03*
X137714213Y-110820000D03*
X135000000Y-95520000D03*
X158800000Y-77020000D03*
X142800000Y-85320000D03*
X148000000Y-73320000D03*
X133400000Y-101520000D03*
%TO.N,USART2_TX*%
X128000000Y-96720000D03*
X132500000Y-99220000D03*
%TO.N,SIM_RX*%
X159500000Y-104520000D03*
X162000000Y-102920000D03*
%TO.N,SIM_TX*%
X155629999Y-97870243D03*
X156800000Y-101520000D03*
X149900000Y-103420000D03*
%TO.N,SWDI0*%
X157300000Y-103820000D03*
%TO.N,SIM_RESET*%
X156498788Y-103418788D03*
%TO.N,Net-(U4-BOOT0)*%
X152700000Y-93620000D03*
X152100000Y-96920000D03*
%TO.N,Net-(C11-Pad2)*%
X139300000Y-112220000D03*
X138675735Y-110820000D03*
%TO.N,Net-(D2-K)*%
X130200000Y-84500000D03*
X128200000Y-82500000D03*
%TO.N,FEEDBACK*%
X126400000Y-79400000D03*
X130700000Y-80700000D03*
%TO.N,SIM_DATA*%
X140000000Y-97820000D03*
%TO.N,Net-(J2-I{slash}O)*%
X157600000Y-108720000D03*
X160700000Y-114520000D03*
%TO.N,Net-(J2-CLK)*%
X143100000Y-102520000D03*
X138555455Y-106875455D03*
X141145887Y-104400745D03*
%TO.N,Net-(J2-RET)*%
X138200000Y-104920000D03*
%TO.N,SIM_DET*%
X147400000Y-102120000D03*
X136400000Y-105920000D03*
X138020402Y-103331069D03*
%TO.N,SIM_VDD*%
X136740380Y-106660380D03*
%TO.N,Net-(U2-VDD_EXT)*%
X155600000Y-101020000D03*
X155000000Y-97320000D03*
%TD*%
%TO.N,SIM_DATA*%
D34*
X135760000Y-103040000D02*
X135400000Y-103400000D01*
X136800000Y-103040000D02*
X135760000Y-103040000D01*
%TO.N,Net-(J2-RET)*%
D35*
X136765000Y-111065000D02*
X138800000Y-113100000D01*
X136765000Y-109270000D02*
X136765000Y-111065000D01*
%TO.N,SIM_RST*%
D34*
X139800000Y-100420000D02*
X139500000Y-100120000D01*
X139800000Y-103420000D02*
X139800000Y-100420000D01*
X139200000Y-104020000D02*
X139800000Y-103420000D01*
%TO.N,Net-(J2-CLK)*%
X140700000Y-103100000D02*
X140529046Y-103100000D01*
X140529046Y-103100000D02*
X140429046Y-103000000D01*
X140700000Y-103954858D02*
X140700000Y-103100000D01*
X141145887Y-104400745D02*
X140700000Y-103954858D01*
%TO.N,SIM_CLK*%
D35*
X140500000Y-101900000D02*
X140500000Y-100120000D01*
X141500000Y-102900000D02*
X140500000Y-101900000D01*
X141500000Y-103331352D02*
X141500000Y-102900000D01*
X141768648Y-103600000D02*
X141500000Y-103331352D01*
X142150000Y-103600000D02*
X141768648Y-103600000D01*
X142150000Y-104020000D02*
X142150000Y-103600000D01*
%TO.N,Net-(J2-CLK)*%
D34*
X140519255Y-104400745D02*
X139150000Y-105770000D01*
X141145887Y-104400745D02*
X140519255Y-104400745D01*
%TO.N,SIM_VDD*%
D35*
X155570000Y-123070000D02*
X152085000Y-119585000D01*
X156500000Y-123070000D02*
X155570000Y-123070000D01*
D34*
X152085000Y-119585000D02*
X151900000Y-119770000D01*
D35*
X160699757Y-98500243D02*
X161400000Y-97800000D01*
X143619757Y-98500243D02*
X160699757Y-98500243D01*
X142500000Y-99620000D02*
X143619757Y-98500243D01*
X142500000Y-100120000D02*
X142500000Y-99620000D01*
%TO.N,GND*%
X156200000Y-99600000D02*
X156780000Y-99020000D01*
X155420000Y-99600000D02*
X156200000Y-99600000D01*
X156780000Y-99020000D02*
X163800000Y-99020000D01*
X154900000Y-100120000D02*
X155420000Y-99600000D01*
X153500000Y-100120000D02*
X154900000Y-100120000D01*
%TO.N,SIM_TX*%
X155700000Y-97800242D02*
X155700000Y-94420000D01*
X155700000Y-94420000D02*
X157000000Y-93120000D01*
X157000000Y-93120000D02*
X157500000Y-93120000D01*
X155629999Y-97870243D02*
X155700000Y-97800242D01*
%TO.N,GND*%
X157900000Y-76120000D02*
X158800000Y-77020000D01*
X152500000Y-76120000D02*
X157900000Y-76120000D01*
X143500000Y-99500000D02*
X144010000Y-98990000D01*
X144010000Y-98990000D02*
X153270000Y-98990000D01*
X153270000Y-98990000D02*
X153500000Y-99220000D01*
X143500000Y-100120000D02*
X143500000Y-99500000D01*
X141489045Y-78500000D02*
X146900000Y-78500000D01*
X139500000Y-76510955D02*
X141489045Y-78500000D01*
X146900000Y-78500000D02*
X147300000Y-78100000D01*
X139500000Y-76120000D02*
X139500000Y-76510955D01*
%TO.N,+3.3V*%
D34*
X141615055Y-95600000D02*
X143500000Y-95600000D01*
X140572584Y-96642471D02*
X141615055Y-95600000D01*
%TO.N,Net-(U4-PF0)*%
D35*
X142380000Y-97400000D02*
X142700000Y-97720000D01*
X141490955Y-97400000D02*
X142380000Y-97400000D01*
X141460955Y-97370000D02*
X141490955Y-97400000D01*
X140470955Y-97400000D02*
X140909045Y-97400000D01*
X140939045Y-97370000D02*
X141460955Y-97370000D01*
X139739045Y-97190000D02*
X140260955Y-97190000D01*
X139529045Y-97400000D02*
X139739045Y-97190000D01*
X140909045Y-97400000D02*
X140939045Y-97370000D01*
X138200000Y-96820000D02*
X138780000Y-97400000D01*
X138780000Y-97400000D02*
X139529045Y-97400000D01*
X140260955Y-97190000D02*
X140470955Y-97400000D01*
%TO.N,+3.3V*%
X157500000Y-83120000D02*
X154500000Y-83120000D01*
X164380000Y-77940000D02*
X159200000Y-83120000D01*
X165180000Y-84557500D02*
X165017500Y-84720000D01*
X154500000Y-83120000D02*
X152850000Y-84770000D01*
X165180000Y-78740000D02*
X165180000Y-80620000D01*
D34*
X147650000Y-104870000D02*
X157450000Y-104870000D01*
D35*
X164380000Y-77940000D02*
X165180000Y-78740000D01*
X165180000Y-82420000D02*
X165180000Y-84557500D01*
X157500000Y-84120000D02*
X157500000Y-83120000D01*
X159200000Y-83120000D02*
X157500000Y-83120000D01*
D34*
X157450000Y-104870000D02*
X157800000Y-105220000D01*
D35*
X165180000Y-82420000D02*
X165180000Y-80620000D01*
D34*
X146500000Y-102920000D02*
X146500000Y-103720000D01*
X145404595Y-101824595D02*
X146500000Y-102920000D01*
X144395405Y-101824595D02*
X145404595Y-101824595D01*
D35*
X157500000Y-84120000D02*
X157500000Y-85120000D01*
X165017500Y-82582500D02*
X165180000Y-82420000D01*
D34*
X146500000Y-103720000D02*
X147650000Y-104870000D01*
%TO.N,STATUS*%
D35*
X133500000Y-82120000D02*
X134000000Y-82120000D01*
X137400000Y-93420000D02*
X137200000Y-93620000D01*
X133500000Y-82120000D02*
X133919239Y-82120000D01*
X133919239Y-82120000D02*
X137400000Y-85600761D01*
X137400000Y-85600761D02*
X137400000Y-93420000D01*
%TO.N,Net-(U4-PF0)*%
X134300000Y-97320000D02*
X136100000Y-95520000D01*
X134300000Y-97720000D02*
X134300000Y-97320000D01*
%TO.N,GND*%
X162920000Y-96120000D02*
X162920000Y-98140000D01*
X141905000Y-79025000D02*
X139500000Y-76620000D01*
D34*
X151750000Y-69303578D02*
X151750000Y-70020000D01*
D35*
X162920000Y-98140000D02*
X163800000Y-99020000D01*
X151230761Y-74970000D02*
X151850000Y-74970000D01*
D34*
X130450000Y-103395000D02*
X130450000Y-104970000D01*
X129200000Y-100975514D02*
X129730514Y-100445000D01*
X164200000Y-109920000D02*
X164400000Y-110120000D01*
X130450000Y-103395000D02*
X129733578Y-103395000D01*
X154700000Y-70020000D02*
X154700000Y-69300514D01*
D35*
X136700000Y-89720000D02*
X134650000Y-91770000D01*
D34*
X129733578Y-103395000D02*
X129200000Y-102861422D01*
D35*
X138150000Y-77270000D02*
X137500000Y-76620000D01*
X166025000Y-85258944D02*
X165513944Y-85770000D01*
X136900000Y-80120000D02*
X133500000Y-80120000D01*
D34*
X129730514Y-100445000D02*
X130450000Y-100445000D01*
X137500000Y-100120000D02*
X137500000Y-97820000D01*
X129200000Y-102861422D02*
X129200000Y-100975514D01*
D35*
X163142500Y-84720000D02*
X163142500Y-83497500D01*
X164220000Y-82420000D02*
X164220000Y-80620000D01*
X164380000Y-71700000D02*
X159060000Y-77020000D01*
X134650000Y-94470000D02*
X134000000Y-95120000D01*
X139500000Y-76120000D02*
X139500000Y-76539239D01*
X154700000Y-71870000D02*
X154700000Y-70020000D01*
D34*
X154700000Y-69300514D02*
X154169486Y-68770000D01*
D35*
X150500000Y-76120000D02*
X150500000Y-75700761D01*
X149700000Y-76020000D02*
X149700000Y-76520000D01*
X153290380Y-73279620D02*
X154700000Y-71870000D01*
X152100000Y-73220000D02*
X152159620Y-73279620D01*
X142800000Y-79920000D02*
X141905000Y-79025000D01*
X157500000Y-80120000D02*
X157500000Y-81120000D01*
X153500000Y-99220000D02*
X153500000Y-100120000D01*
X139500000Y-76539239D02*
X138769239Y-77270000D01*
X149700000Y-73320000D02*
X150800000Y-72220000D01*
D34*
X126312500Y-71387500D02*
X130200000Y-71387500D01*
D35*
X150500000Y-76120000D02*
X149500000Y-76120000D01*
D34*
X135100000Y-105120000D02*
X135000000Y-105020000D01*
D35*
X164192500Y-85770000D02*
X163142500Y-84720000D01*
X139500000Y-76120000D02*
X139500000Y-77520000D01*
X139500000Y-77520000D02*
X136900000Y-80120000D01*
D34*
X130450000Y-104970000D02*
X130800000Y-105320000D01*
D35*
X137500000Y-76620000D02*
X137500000Y-76120000D01*
X134650000Y-91770000D02*
X134650000Y-94470000D01*
D34*
X140530000Y-117470000D02*
X140730000Y-117270000D01*
D35*
X152500000Y-75620000D02*
X152500000Y-76120000D01*
X150500000Y-75700761D02*
X151230761Y-74970000D01*
X136750000Y-89720000D02*
X136700000Y-89720000D01*
X166025000Y-73345000D02*
X166025000Y-85258944D01*
X134000000Y-91120000D02*
X134650000Y-91770000D01*
D34*
X154169486Y-68770000D02*
X152283578Y-68770000D01*
D35*
X138769239Y-77270000D02*
X138150000Y-77270000D01*
X157500000Y-78320000D02*
X158800000Y-77020000D01*
X153500000Y-76120000D02*
X152500000Y-76120000D01*
X133500000Y-91120000D02*
X134000000Y-91120000D01*
X142800000Y-85320000D02*
X142800000Y-79920000D01*
X134000000Y-95120000D02*
X133500000Y-95120000D01*
D34*
X123600000Y-74100000D02*
X126312500Y-71387500D01*
X136650000Y-117470000D02*
X140530000Y-117470000D01*
D35*
X164380000Y-71700000D02*
X166025000Y-73345000D01*
X143500000Y-100539239D02*
X143500000Y-100120000D01*
X163142500Y-83497500D02*
X164220000Y-82420000D01*
X165513944Y-85770000D02*
X164192500Y-85770000D01*
D34*
X135100000Y-106340000D02*
X135100000Y-105120000D01*
D35*
X159060000Y-77020000D02*
X158800000Y-77020000D01*
X157500000Y-82120000D02*
X157500000Y-81120000D01*
D34*
X157500000Y-109920000D02*
X164200000Y-109920000D01*
D35*
X139500000Y-76620000D02*
X139500000Y-76120000D01*
X148000000Y-73320000D02*
X149700000Y-73320000D01*
X149500000Y-76120000D02*
X149500000Y-75820000D01*
X134600000Y-95120000D02*
X135000000Y-95520000D01*
X149500000Y-75820000D02*
X152100000Y-73220000D01*
X157500000Y-80120000D02*
X157500000Y-78320000D01*
X151850000Y-74970000D02*
X152500000Y-75620000D01*
X152159620Y-73279620D02*
X153290380Y-73279620D01*
X133500000Y-95120000D02*
X134600000Y-95120000D01*
D34*
X152283578Y-68770000D02*
X151750000Y-69303578D01*
%TO.N,USART2_TX*%
X128000000Y-96720000D02*
X130500000Y-99220000D01*
X130500000Y-99220000D02*
X132500000Y-99220000D01*
%TO.N,SIM_RX*%
D35*
X166392894Y-98412894D02*
X168700000Y-100720000D01*
D34*
X159500000Y-104520000D02*
X161100000Y-102920000D01*
D35*
X157500000Y-94120000D02*
X158300000Y-94120000D01*
X160200000Y-92220000D02*
X162885788Y-92220000D01*
X158300000Y-94120000D02*
X160200000Y-92220000D01*
X166392894Y-95727106D02*
X166392894Y-98412894D01*
D34*
X161100000Y-102920000D02*
X162000000Y-102920000D01*
D35*
X162885788Y-92220000D02*
X166392894Y-95727106D01*
%TO.N,SIM_TX*%
X159800000Y-91620000D02*
X162992894Y-91620000D01*
X158300000Y-93120000D02*
X159800000Y-91620000D01*
X168132894Y-96760000D02*
X168700000Y-96760000D01*
D34*
X154900000Y-103420000D02*
X156800000Y-101520000D01*
D35*
X157500000Y-93120000D02*
X158300000Y-93120000D01*
X162992894Y-91620000D02*
X168132894Y-96760000D01*
D34*
X149900000Y-103420000D02*
X154900000Y-103420000D01*
%TO.N,SWDI0*%
X168700000Y-116560000D02*
X170200000Y-115060000D01*
X170200000Y-115060000D02*
X170200000Y-108018679D01*
X159700000Y-106220000D02*
X157300000Y-103820000D01*
X170200000Y-108018679D02*
X168401321Y-106220000D01*
X168401321Y-106220000D02*
X159700000Y-106220000D01*
%TO.N,SIM_RESET*%
D35*
X157647576Y-102270000D02*
X156498788Y-103418788D01*
X158300000Y-95120000D02*
X160500000Y-92920000D01*
X166200000Y-102180000D02*
X168700000Y-104680000D01*
X166200000Y-99720000D02*
X166200000Y-102180000D01*
X160500000Y-92920000D02*
X162800000Y-92920000D01*
X166290000Y-102270000D02*
X157647576Y-102270000D01*
X165700000Y-95820000D02*
X165700000Y-99220000D01*
X157500000Y-95120000D02*
X158300000Y-95120000D01*
X162800000Y-92920000D02*
X165700000Y-95820000D01*
X165700000Y-99220000D02*
X166200000Y-99720000D01*
X168700000Y-104680000D02*
X166290000Y-102270000D01*
%TO.N,SIM_PWRKEY*%
X157500000Y-87120000D02*
X157000000Y-87120000D01*
X157500000Y-87120000D02*
X159200000Y-87120000D01*
X159200000Y-87120000D02*
X164880000Y-92800000D01*
X164880000Y-92800000D02*
X168700000Y-92800000D01*
%TO.N,Net-(C11-Pad2)*%
X138675735Y-110820000D02*
X138675735Y-110895735D01*
X138675735Y-110895735D02*
X139200000Y-111420000D01*
X139200000Y-112120000D02*
X139300000Y-112220000D01*
X139200000Y-111420000D02*
X139200000Y-112120000D01*
%TO.N,Net-(D2-K)*%
D36*
X128200000Y-82500000D02*
X130200000Y-84500000D01*
%TO.N,FEEDBACK*%
D34*
X126400000Y-79400000D02*
X129400000Y-79400000D01*
X129400000Y-79400000D02*
X130700000Y-80700000D01*
%TO.N,SIM_CLK*%
X163851471Y-110420000D02*
X157848529Y-110420000D01*
X168700000Y-108640000D02*
X166920000Y-110420000D01*
X164948529Y-110420000D02*
X164648529Y-110720000D01*
X157848529Y-110420000D02*
X157748529Y-110520000D01*
X143600000Y-109320000D02*
X143600000Y-105470000D01*
X157748529Y-110520000D02*
X157251471Y-110520000D01*
X143600000Y-105470000D02*
X142150000Y-104020000D01*
X164648529Y-110720000D02*
X164151471Y-110720000D01*
X166920000Y-110420000D02*
X164948529Y-110420000D01*
X157251471Y-110520000D02*
X157151471Y-110420000D01*
X164151471Y-110720000D02*
X163851471Y-110420000D01*
D35*
X142150000Y-104020000D02*
X142363260Y-104020000D01*
D34*
X144700000Y-110420000D02*
X143600000Y-109320000D01*
X157151471Y-110420000D02*
X144700000Y-110420000D01*
%TO.N,SIM_DATA*%
X145100000Y-104020000D02*
X143700000Y-102620000D01*
X141500000Y-99320000D02*
X140000000Y-97820000D01*
X142748528Y-101220000D02*
X142251472Y-101220000D01*
X143700000Y-102620000D02*
X143700000Y-102171472D01*
X141500000Y-100120000D02*
X141500000Y-99320000D01*
X141500000Y-100468528D02*
X141500000Y-100120000D01*
X143700000Y-102171472D02*
X142748528Y-101220000D01*
X142251472Y-101220000D02*
X141500000Y-100468528D01*
%TO.N,Net-(C6-Pad2)*%
X137805000Y-108234850D02*
X137805000Y-107705150D01*
X137955455Y-106675455D02*
X137595000Y-106315000D01*
X138035150Y-108465000D02*
X137805000Y-108234850D01*
X137955455Y-107123984D02*
X137955455Y-106675455D01*
X137595000Y-106315000D02*
X137595000Y-104795000D01*
X138000000Y-107510150D02*
X138000000Y-107168529D01*
X137595000Y-104795000D02*
X136800000Y-104000000D01*
X137805000Y-107705150D02*
X138000000Y-107510150D01*
X138000000Y-107168529D02*
X137955455Y-107123984D01*
X138635000Y-108620000D02*
X138635000Y-108465000D01*
X138635000Y-108465000D02*
X138035150Y-108465000D01*
%TO.N,Net-(J2-I{slash}O)*%
X145800000Y-104870000D02*
X145180000Y-104870000D01*
X145180000Y-104870000D02*
X145180000Y-106800000D01*
X145100000Y-103000000D02*
X145800000Y-103700000D01*
X147100000Y-108720000D02*
X157600000Y-108720000D01*
X155290000Y-115530000D02*
X144070000Y-115530000D01*
X146744314Y-113930000D02*
X154380000Y-113930000D01*
X145180000Y-106800000D02*
X147100000Y-108720000D01*
X145800000Y-103700000D02*
X145800000Y-104870000D01*
X154380000Y-113930000D02*
X155500000Y-115050000D01*
X144070000Y-115530000D02*
X140730000Y-112190000D01*
X155500000Y-115050000D02*
X155500000Y-115320000D01*
X155500000Y-115320000D02*
X155290000Y-115530000D01*
X138635000Y-109270000D02*
X142084314Y-109270000D01*
X142084314Y-109270000D02*
X146744314Y-113930000D01*
X154970000Y-114520000D02*
X160700000Y-114520000D01*
X154380000Y-113930000D02*
X154970000Y-114520000D01*
%TO.N,Net-(U2-VRTC)*%
D35*
X162280000Y-96120000D02*
X157500000Y-96120000D01*
%TO.N,Net-(J2-CLK)*%
D34*
X138635000Y-106955000D02*
X138555455Y-106875455D01*
X153330000Y-112190000D02*
X145570000Y-112190000D01*
X138555455Y-106364545D02*
X139150000Y-105770000D01*
X138555455Y-106875455D02*
X138555455Y-106364545D01*
X142150000Y-103000000D02*
X142620000Y-103000000D01*
X142620000Y-103000000D02*
X143100000Y-102520000D01*
X145570000Y-112190000D02*
X139150000Y-105770000D01*
X138635000Y-107970000D02*
X138635000Y-106955000D01*
%TO.N,Net-(J2-RET)*%
D35*
X146410000Y-114730000D02*
X153330000Y-114730000D01*
X136765000Y-109270000D02*
X137449963Y-109954963D01*
D34*
X138200000Y-104000000D02*
X138200000Y-104920000D01*
X139200000Y-103000000D02*
X138200000Y-104000000D01*
D35*
X137294999Y-109270000D02*
X136765000Y-109270000D01*
X137449963Y-109954963D02*
X141634963Y-109954963D01*
X141634963Y-109954963D02*
X146410000Y-114730000D01*
%TO.N,SIM_DET*%
D34*
X136765000Y-108620000D02*
X135483866Y-108620000D01*
X134400000Y-107536134D02*
X134400000Y-104771471D01*
X134800000Y-113920000D02*
X135610000Y-114730000D01*
X147900000Y-103010000D02*
X147900000Y-102620000D01*
X135610000Y-114730000D02*
X140730000Y-114730000D01*
X138500000Y-102851471D02*
X138020402Y-103331069D01*
X136400000Y-105571471D02*
X136400000Y-105920000D01*
X135248529Y-104420000D02*
X136400000Y-105571471D01*
X136000000Y-108620000D02*
X134800000Y-109820000D01*
X134400000Y-104771471D02*
X134751471Y-104420000D01*
X136765000Y-108620000D02*
X136000000Y-108620000D01*
X135483866Y-108620000D02*
X134400000Y-107536134D01*
X134751471Y-104420000D02*
X135248529Y-104420000D01*
X147900000Y-102620000D02*
X147400000Y-102120000D01*
X138500000Y-100120000D02*
X138500000Y-102851471D01*
X134800000Y-109820000D02*
X134800000Y-113920000D01*
%TO.N,SIM_VDD*%
X153330000Y-117270000D02*
X153330000Y-118340000D01*
X137000000Y-106400760D02*
X137000000Y-105605785D01*
X135100000Y-107300000D02*
X136095000Y-107300000D01*
X137111522Y-119770000D02*
X151900000Y-119770000D01*
X134000000Y-116658478D02*
X137111522Y-119770000D01*
X137000000Y-105605785D02*
X135414215Y-104020000D01*
X136740380Y-106660380D02*
X137000000Y-106400760D01*
X153330000Y-118340000D02*
X152085000Y-119585000D01*
X134000000Y-104605786D02*
X134000000Y-116658478D01*
X136900000Y-106820000D02*
X136740380Y-106660380D01*
X134585785Y-104020000D02*
X134000000Y-104605786D01*
X136765000Y-106955000D02*
X136900000Y-106820000D01*
X136095000Y-107300000D02*
X136765000Y-107970000D01*
D35*
X142500000Y-100620000D02*
X142500000Y-100120000D01*
D34*
X135414215Y-104020000D02*
X134585785Y-104020000D01*
X136765000Y-107970000D02*
X136765000Y-106955000D01*
%TO.N,SIM_RST*%
D35*
X139500000Y-100320000D02*
X139500000Y-100120000D01*
%TO.N,Net-(U2-VDD_EXT)*%
X157500000Y-86120000D02*
X158000000Y-86120000D01*
D34*
X147900000Y-104030000D02*
X149210000Y-102720000D01*
X153700000Y-102720000D02*
X155400000Y-101020000D01*
D35*
X157000000Y-86120000D02*
X155000000Y-88120000D01*
X157500000Y-86120000D02*
X157000000Y-86120000D01*
X155000000Y-88120000D02*
X155000000Y-97320000D01*
D34*
X149210000Y-102720000D02*
X153700000Y-102720000D01*
X155400000Y-101020000D02*
X155600000Y-101020000D01*
%TO.N,GPS_ANT*%
D35*
X152400000Y-72120000D02*
X152600000Y-72120000D01*
X132350000Y-79850761D02*
X132350000Y-95470000D01*
X132350000Y-95470000D02*
X133000000Y-96120000D01*
X152600000Y-72120000D02*
X153150000Y-71570000D01*
X149550000Y-74970000D02*
X137230761Y-74970000D01*
X137230761Y-74970000D02*
X132350000Y-79850761D01*
X149550000Y-74970000D02*
X152400000Y-72120000D01*
X133000000Y-96120000D02*
X133500000Y-96120000D01*
X153150000Y-71570000D02*
X153225000Y-71570000D01*
%TO.N,CSM_ANT*%
X151500000Y-76120000D02*
X151500000Y-82420000D01*
X151500000Y-82420000D02*
X132000000Y-101920000D01*
%TD*%
%TA.AperFunction,Conductor*%
%TO.N,GND*%
G36*
X173042539Y-64740185D02*
G01*
X173088294Y-64792989D01*
X173099500Y-64844500D01*
X173099500Y-123375500D01*
X173079815Y-123442539D01*
X173027011Y-123488294D01*
X172975500Y-123499500D01*
X157374129Y-123499500D01*
X157307090Y-123479815D01*
X157261335Y-123427011D01*
X157251391Y-123357853D01*
X157259568Y-123328048D01*
X157269735Y-123303501D01*
X157269737Y-123303497D01*
X157300500Y-123148842D01*
X157300500Y-122991158D01*
X157300500Y-122991155D01*
X157300499Y-122991153D01*
X157269738Y-122836510D01*
X157269737Y-122836503D01*
X157269735Y-122836498D01*
X157209397Y-122690827D01*
X157209390Y-122690814D01*
X157121789Y-122559711D01*
X157121786Y-122559707D01*
X157010292Y-122448213D01*
X157010288Y-122448210D01*
X156879185Y-122360609D01*
X156879172Y-122360602D01*
X156733501Y-122300264D01*
X156733489Y-122300261D01*
X156578845Y-122269500D01*
X156578842Y-122269500D01*
X156421158Y-122269500D01*
X156421155Y-122269500D01*
X156266510Y-122300261D01*
X156266498Y-122300264D01*
X156120827Y-122360602D01*
X156120820Y-122360606D01*
X156091928Y-122379911D01*
X156063955Y-122398602D01*
X155997279Y-122419480D01*
X155995065Y-122419500D01*
X155890808Y-122419500D01*
X155823769Y-122399815D01*
X155803127Y-122383181D01*
X153057271Y-119637325D01*
X153023786Y-119576002D01*
X153028770Y-119506310D01*
X153057271Y-119461963D01*
X153268358Y-119250876D01*
X153467332Y-119051902D01*
X156949500Y-119051902D01*
X156949500Y-119288097D01*
X156986446Y-119521368D01*
X157059433Y-119745996D01*
X157137734Y-119899668D01*
X157166657Y-119956433D01*
X157305483Y-120147510D01*
X157472490Y-120314517D01*
X157663567Y-120453343D01*
X157744342Y-120494500D01*
X157874003Y-120560566D01*
X157874005Y-120560566D01*
X157874008Y-120560568D01*
X157961340Y-120588944D01*
X158098631Y-120633553D01*
X158331903Y-120670500D01*
X158331908Y-120670500D01*
X158568097Y-120670500D01*
X158801368Y-120633553D01*
X158831612Y-120623726D01*
X159025992Y-120560568D01*
X159236433Y-120453343D01*
X159427510Y-120314517D01*
X159594517Y-120147510D01*
X159733343Y-119956433D01*
X159840568Y-119745992D01*
X159913553Y-119521368D01*
X159930034Y-119417310D01*
X159950500Y-119288097D01*
X159950500Y-119051902D01*
X161449500Y-119051902D01*
X161449500Y-119288097D01*
X161486446Y-119521368D01*
X161559433Y-119745996D01*
X161637734Y-119899668D01*
X161666657Y-119956433D01*
X161805483Y-120147510D01*
X161972490Y-120314517D01*
X162163567Y-120453343D01*
X162244342Y-120494500D01*
X162374003Y-120560566D01*
X162374005Y-120560566D01*
X162374008Y-120560568D01*
X162461340Y-120588944D01*
X162598631Y-120633553D01*
X162831903Y-120670500D01*
X162831908Y-120670500D01*
X163068097Y-120670500D01*
X163301368Y-120633553D01*
X163402457Y-120600707D01*
X163525992Y-120560568D01*
X163736433Y-120453343D01*
X163927510Y-120314517D01*
X164094517Y-120147510D01*
X164233343Y-119956433D01*
X164340568Y-119745992D01*
X164413553Y-119521368D01*
X164413767Y-119520014D01*
X167000000Y-119520014D01*
X167000000Y-120270000D01*
X168045879Y-120270000D01*
X168026901Y-120315818D01*
X168000000Y-120451056D01*
X168000000Y-120588944D01*
X168026901Y-120724182D01*
X168045879Y-120770000D01*
X167000000Y-120770000D01*
X167000000Y-121519985D01*
X167010493Y-121622689D01*
X167010494Y-121622696D01*
X167065641Y-121789118D01*
X167065643Y-121789123D01*
X167157684Y-121938344D01*
X167281655Y-122062315D01*
X167430876Y-122154356D01*
X167430881Y-122154358D01*
X167597303Y-122209505D01*
X167597310Y-122209506D01*
X167700014Y-122219999D01*
X167700027Y-122220000D01*
X168450000Y-122220000D01*
X168450000Y-121174120D01*
X168495818Y-121193099D01*
X168631056Y-121220000D01*
X168768944Y-121220000D01*
X168904182Y-121193099D01*
X168950000Y-121174120D01*
X168950000Y-122220000D01*
X169699973Y-122220000D01*
X169699985Y-122219999D01*
X169802689Y-122209506D01*
X169802696Y-122209505D01*
X169969118Y-122154358D01*
X169969123Y-122154356D01*
X170118344Y-122062315D01*
X170242315Y-121938344D01*
X170334356Y-121789123D01*
X170334358Y-121789118D01*
X170389505Y-121622696D01*
X170389506Y-121622689D01*
X170399999Y-121519985D01*
X170400000Y-121519972D01*
X170400000Y-120770000D01*
X169354121Y-120770000D01*
X169373099Y-120724182D01*
X169400000Y-120588944D01*
X169400000Y-120451056D01*
X169373099Y-120315818D01*
X169354121Y-120270000D01*
X170400000Y-120270000D01*
X170400000Y-119520027D01*
X170399999Y-119520014D01*
X170389506Y-119417310D01*
X170389505Y-119417303D01*
X170334358Y-119250881D01*
X170334356Y-119250876D01*
X170242315Y-119101655D01*
X170118344Y-118977684D01*
X169969123Y-118885643D01*
X169969118Y-118885641D01*
X169802696Y-118830494D01*
X169802689Y-118830493D01*
X169699985Y-118820000D01*
X168950000Y-118820000D01*
X168950000Y-119865879D01*
X168904182Y-119846901D01*
X168768944Y-119820000D01*
X168631056Y-119820000D01*
X168495818Y-119846901D01*
X168450000Y-119865879D01*
X168450000Y-118820000D01*
X167700014Y-118820000D01*
X167597310Y-118830493D01*
X167597303Y-118830494D01*
X167430881Y-118885641D01*
X167430876Y-118885643D01*
X167281655Y-118977684D01*
X167157684Y-119101655D01*
X167065643Y-119250876D01*
X167065641Y-119250881D01*
X167010494Y-119417303D01*
X167010493Y-119417310D01*
X167000000Y-119520014D01*
X164413767Y-119520014D01*
X164422962Y-119461963D01*
X164450500Y-119288097D01*
X164450500Y-119051902D01*
X164413553Y-118818631D01*
X164372621Y-118692658D01*
X164340568Y-118594008D01*
X164340566Y-118594005D01*
X164340566Y-118594003D01*
X164251426Y-118419057D01*
X164233343Y-118383567D01*
X164094517Y-118192490D01*
X163927510Y-118025483D01*
X163736433Y-117886657D01*
X163718210Y-117877372D01*
X163525996Y-117779433D01*
X163301368Y-117706446D01*
X163068097Y-117669500D01*
X163068092Y-117669500D01*
X162831908Y-117669500D01*
X162831903Y-117669500D01*
X162598631Y-117706446D01*
X162374003Y-117779433D01*
X162163566Y-117886657D01*
X162054550Y-117965862D01*
X161972490Y-118025483D01*
X161972488Y-118025485D01*
X161972487Y-118025485D01*
X161805485Y-118192487D01*
X161805485Y-118192488D01*
X161805483Y-118192490D01*
X161777210Y-118231405D01*
X161666657Y-118383566D01*
X161559433Y-118594003D01*
X161486446Y-118818631D01*
X161449500Y-119051902D01*
X159950500Y-119051902D01*
X159913553Y-118818631D01*
X159872621Y-118692658D01*
X159840568Y-118594008D01*
X159840566Y-118594005D01*
X159840566Y-118594003D01*
X159751426Y-118419057D01*
X159733343Y-118383567D01*
X159594517Y-118192490D01*
X159427510Y-118025483D01*
X159236433Y-117886657D01*
X159218210Y-117877372D01*
X159025996Y-117779433D01*
X158801368Y-117706446D01*
X158568097Y-117669500D01*
X158568092Y-117669500D01*
X158331908Y-117669500D01*
X158331903Y-117669500D01*
X158098631Y-117706446D01*
X157874003Y-117779433D01*
X157663566Y-117886657D01*
X157554550Y-117965862D01*
X157472490Y-118025483D01*
X157472488Y-118025485D01*
X157472487Y-118025485D01*
X157305485Y-118192487D01*
X157305485Y-118192488D01*
X157305483Y-118192490D01*
X157277210Y-118231405D01*
X157166657Y-118383566D01*
X157059433Y-118594003D01*
X156986446Y-118818631D01*
X156949500Y-119051902D01*
X153467332Y-119051902D01*
X153688506Y-118830728D01*
X153688511Y-118830724D01*
X153698714Y-118820520D01*
X153698716Y-118820520D01*
X153810520Y-118708716D01*
X153876746Y-118594008D01*
X153889577Y-118571785D01*
X153930501Y-118419057D01*
X153930501Y-118394499D01*
X153950186Y-118327460D01*
X154002990Y-118281705D01*
X154054501Y-118270499D01*
X154127871Y-118270499D01*
X154127872Y-118270499D01*
X154187483Y-118264091D01*
X154322331Y-118213796D01*
X154437546Y-118127546D01*
X154523796Y-118012331D01*
X154574091Y-117877483D01*
X154580500Y-117817873D01*
X154580499Y-116722128D01*
X154574091Y-116662517D01*
X154543098Y-116579421D01*
X154523797Y-116527671D01*
X154523793Y-116527664D01*
X154437547Y-116412455D01*
X154437544Y-116412452D01*
X154359150Y-116353766D01*
X154317279Y-116297832D01*
X154312295Y-116228141D01*
X154345781Y-116166818D01*
X154407104Y-116133334D01*
X154433461Y-116130500D01*
X155203331Y-116130500D01*
X155203347Y-116130501D01*
X155210943Y-116130501D01*
X155369054Y-116130501D01*
X155369057Y-116130501D01*
X155521785Y-116089577D01*
X155576517Y-116057977D01*
X155658716Y-116010520D01*
X155770520Y-115898716D01*
X155770520Y-115898714D01*
X155780724Y-115888511D01*
X155780728Y-115888506D01*
X155858506Y-115810728D01*
X155858511Y-115810724D01*
X155868714Y-115800520D01*
X155868716Y-115800520D01*
X155980520Y-115688716D01*
X156024109Y-115613217D01*
X156047778Y-115572222D01*
X156047779Y-115572220D01*
X156052566Y-115563927D01*
X156059577Y-115551785D01*
X156100501Y-115399057D01*
X156100501Y-115244500D01*
X156120186Y-115177461D01*
X156172990Y-115131706D01*
X156224501Y-115120500D01*
X160120234Y-115120500D01*
X160187273Y-115140185D01*
X160189125Y-115141398D01*
X160320814Y-115229390D01*
X160320827Y-115229397D01*
X160466109Y-115289574D01*
X160466503Y-115289737D01*
X160621153Y-115320499D01*
X160621156Y-115320500D01*
X160621158Y-115320500D01*
X160778844Y-115320500D01*
X160778845Y-115320499D01*
X160933497Y-115289737D01*
X161079179Y-115229394D01*
X161210289Y-115141789D01*
X161321789Y-115030289D01*
X161409394Y-114899179D01*
X161411879Y-114893181D01*
X161445809Y-114811265D01*
X161469737Y-114753497D01*
X161500500Y-114598842D01*
X161500500Y-114441158D01*
X161500500Y-114441155D01*
X161500499Y-114441153D01*
X161496192Y-114419500D01*
X161469737Y-114286503D01*
X161456002Y-114253343D01*
X161409397Y-114140827D01*
X161409390Y-114140814D01*
X161321789Y-114009711D01*
X161321786Y-114009707D01*
X161210292Y-113898213D01*
X161210288Y-113898210D01*
X161079185Y-113810609D01*
X161079172Y-113810602D01*
X160933501Y-113750264D01*
X160933489Y-113750261D01*
X160778845Y-113719500D01*
X160778842Y-113719500D01*
X160621158Y-113719500D01*
X160621155Y-113719500D01*
X160466510Y-113750261D01*
X160466498Y-113750264D01*
X160320827Y-113810602D01*
X160320814Y-113810609D01*
X160189125Y-113898602D01*
X160122447Y-113919480D01*
X160120234Y-113919500D01*
X159621889Y-113919500D01*
X159554850Y-113899815D01*
X159509095Y-113847011D01*
X159499151Y-113777853D01*
X159528176Y-113714297D01*
X159534208Y-113707819D01*
X159553623Y-113688404D01*
X159594517Y-113647510D01*
X159733343Y-113456433D01*
X159840568Y-113245992D01*
X159913553Y-113021368D01*
X159916592Y-113002181D01*
X159950500Y-112788097D01*
X159950500Y-112551902D01*
X159913553Y-112318631D01*
X159879689Y-112214412D01*
X159840568Y-112094008D01*
X159840566Y-112094005D01*
X159840566Y-112094003D01*
X159784002Y-111982991D01*
X159733343Y-111883567D01*
X159594517Y-111692490D01*
X159427510Y-111525483D01*
X159236433Y-111386657D01*
X159025996Y-111279433D01*
X159005845Y-111272886D01*
X158973665Y-111262430D01*
X158915992Y-111222993D01*
X158888794Y-111158634D01*
X158900709Y-111089788D01*
X158947953Y-111038312D01*
X159011986Y-111020500D01*
X162388014Y-111020500D01*
X162455053Y-111040185D01*
X162500808Y-111092989D01*
X162510752Y-111162147D01*
X162481727Y-111225703D01*
X162426334Y-111262430D01*
X162403631Y-111269806D01*
X162374003Y-111279433D01*
X162163566Y-111386657D01*
X162063674Y-111459234D01*
X161972490Y-111525483D01*
X161972488Y-111525485D01*
X161972487Y-111525485D01*
X161805485Y-111692487D01*
X161805485Y-111692488D01*
X161805483Y-111692490D01*
X161745862Y-111774550D01*
X161666657Y-111883566D01*
X161559433Y-112094003D01*
X161486446Y-112318631D01*
X161449500Y-112551902D01*
X161449500Y-112788097D01*
X161486446Y-113021368D01*
X161559433Y-113245996D01*
X161658718Y-113440851D01*
X161666657Y-113456433D01*
X161805483Y-113647510D01*
X161972490Y-113814517D01*
X162163567Y-113953343D01*
X162230926Y-113987664D01*
X162374003Y-114060566D01*
X162374005Y-114060566D01*
X162374008Y-114060568D01*
X162494412Y-114099689D01*
X162598631Y-114133553D01*
X162831903Y-114170500D01*
X162831908Y-114170500D01*
X163068097Y-114170500D01*
X163301368Y-114133553D01*
X163335333Y-114122517D01*
X163525992Y-114060568D01*
X163736433Y-113953343D01*
X163927510Y-113814517D01*
X164094517Y-113647510D01*
X164233343Y-113456433D01*
X164340568Y-113245992D01*
X164413553Y-113021368D01*
X164416592Y-113002181D01*
X164450500Y-112788097D01*
X164450500Y-112551902D01*
X164413553Y-112318631D01*
X164379689Y-112214412D01*
X164340568Y-112094008D01*
X164340566Y-112094005D01*
X164340566Y-112094003D01*
X164284002Y-111982991D01*
X164233343Y-111883567D01*
X164094517Y-111692490D01*
X163927510Y-111525483D01*
X163924065Y-111522038D01*
X163924985Y-111521117D01*
X163890055Y-111467608D01*
X163889555Y-111397740D01*
X163926908Y-111338693D01*
X163990255Y-111309214D01*
X164040870Y-111312047D01*
X164072414Y-111320500D01*
X164230528Y-111320500D01*
X164561860Y-111320500D01*
X164561876Y-111320501D01*
X164569472Y-111320501D01*
X164727583Y-111320501D01*
X164727586Y-111320501D01*
X164880314Y-111279577D01*
X164941398Y-111244310D01*
X165017245Y-111200520D01*
X165129049Y-111088716D01*
X165129049Y-111088715D01*
X165139258Y-111078507D01*
X165139261Y-111078502D01*
X165160947Y-111056817D01*
X165222271Y-111023333D01*
X165248626Y-111020500D01*
X166833331Y-111020500D01*
X166833347Y-111020501D01*
X166840943Y-111020501D01*
X166999054Y-111020501D01*
X166999057Y-111020501D01*
X167151785Y-110979577D01*
X167240086Y-110928596D01*
X167288716Y-110900520D01*
X167400520Y-110788716D01*
X167400520Y-110788714D01*
X167410724Y-110778511D01*
X167410728Y-110778506D01*
X167940407Y-110248826D01*
X168001728Y-110215343D01*
X168071420Y-110220327D01*
X168075539Y-110221948D01*
X168104588Y-110233980D01*
X168152219Y-110253710D01*
X168367537Y-110311404D01*
X168588543Y-110340500D01*
X168588550Y-110340500D01*
X168811450Y-110340500D01*
X168811457Y-110340500D01*
X169032463Y-110311404D01*
X169247781Y-110253710D01*
X169428048Y-110179040D01*
X169497516Y-110171572D01*
X169559996Y-110202847D01*
X169595648Y-110262936D01*
X169599500Y-110293602D01*
X169599500Y-110946397D01*
X169579815Y-111013436D01*
X169527011Y-111059191D01*
X169457853Y-111069135D01*
X169428047Y-111060958D01*
X169247790Y-110986293D01*
X169247783Y-110986291D01*
X169247781Y-110986290D01*
X169032463Y-110928596D01*
X169032457Y-110928595D01*
X169032452Y-110928594D01*
X168811466Y-110899501D01*
X168811463Y-110899500D01*
X168811457Y-110899500D01*
X168588543Y-110899500D01*
X168588537Y-110899500D01*
X168588533Y-110899501D01*
X168367547Y-110928594D01*
X168367540Y-110928595D01*
X168367537Y-110928596D01*
X168177280Y-110979575D01*
X168152219Y-110986290D01*
X168152209Y-110986293D01*
X167946277Y-111071593D01*
X167946273Y-111071595D01*
X167753226Y-111183052D01*
X167753217Y-111183058D01*
X167576377Y-111318751D01*
X167576370Y-111318757D01*
X167418757Y-111476370D01*
X167418751Y-111476377D01*
X167283058Y-111653217D01*
X167283052Y-111653226D01*
X167171595Y-111846273D01*
X167171593Y-111846277D01*
X167086293Y-112052209D01*
X167086290Y-112052219D01*
X167028597Y-112267534D01*
X167028594Y-112267547D01*
X166999501Y-112488533D01*
X166999500Y-112488549D01*
X166999500Y-112711450D01*
X166999501Y-112711466D01*
X167028594Y-112932452D01*
X167028595Y-112932457D01*
X167028596Y-112932463D01*
X167084259Y-113140200D01*
X167086290Y-113147780D01*
X167086293Y-113147790D01*
X167171593Y-113353722D01*
X167171595Y-113353726D01*
X167283052Y-113546774D01*
X167283057Y-113546780D01*
X167283058Y-113546782D01*
X167418751Y-113723622D01*
X167418757Y-113723629D01*
X167576370Y-113881242D01*
X167576377Y-113881248D01*
X167670334Y-113953343D01*
X167753226Y-114016948D01*
X167946274Y-114128405D01*
X168152219Y-114213710D01*
X168367537Y-114271404D01*
X168588543Y-114300500D01*
X168588550Y-114300500D01*
X168811450Y-114300500D01*
X168811457Y-114300500D01*
X169032463Y-114271404D01*
X169247781Y-114213710D01*
X169428048Y-114139040D01*
X169497516Y-114131572D01*
X169559996Y-114162847D01*
X169595648Y-114222936D01*
X169599500Y-114253602D01*
X169599500Y-114759902D01*
X169579815Y-114826941D01*
X169563181Y-114847584D01*
X169459592Y-114951172D01*
X169398269Y-114984656D01*
X169328577Y-114979672D01*
X169324459Y-114978051D01*
X169247781Y-114946290D01*
X169032463Y-114888596D01*
X169032457Y-114888595D01*
X169032452Y-114888594D01*
X168811466Y-114859501D01*
X168811463Y-114859500D01*
X168811457Y-114859500D01*
X168588543Y-114859500D01*
X168588537Y-114859500D01*
X168588533Y-114859501D01*
X168367547Y-114888594D01*
X168367540Y-114888595D01*
X168367537Y-114888596D01*
X168152219Y-114946290D01*
X168152209Y-114946293D01*
X167946277Y-115031593D01*
X167946273Y-115031595D01*
X167753226Y-115143052D01*
X167753217Y-115143058D01*
X167576377Y-115278751D01*
X167576370Y-115278757D01*
X167418757Y-115436370D01*
X167418751Y-115436377D01*
X167283058Y-115613217D01*
X167283052Y-115613226D01*
X167171595Y-115806273D01*
X167171593Y-115806277D01*
X167086293Y-116012209D01*
X167086290Y-116012219D01*
X167039435Y-116187087D01*
X167028597Y-116227534D01*
X167028594Y-116227547D01*
X166999501Y-116448533D01*
X166999500Y-116448549D01*
X166999500Y-116671450D01*
X166999501Y-116671466D01*
X167028594Y-116892452D01*
X167028595Y-116892457D01*
X167028596Y-116892463D01*
X167086290Y-117107780D01*
X167086293Y-117107790D01*
X167149090Y-117259394D01*
X167171595Y-117313726D01*
X167283052Y-117506774D01*
X167283057Y-117506780D01*
X167283058Y-117506782D01*
X167418751Y-117683622D01*
X167418757Y-117683629D01*
X167576370Y-117841242D01*
X167576377Y-117841248D01*
X167702294Y-117937867D01*
X167753226Y-117976948D01*
X167946274Y-118088405D01*
X168152219Y-118173710D01*
X168367537Y-118231404D01*
X168588543Y-118260500D01*
X168588550Y-118260500D01*
X168811450Y-118260500D01*
X168811457Y-118260500D01*
X169032463Y-118231404D01*
X169247781Y-118173710D01*
X169453726Y-118088405D01*
X169646774Y-117976948D01*
X169823624Y-117841247D01*
X169981247Y-117683624D01*
X170116948Y-117506774D01*
X170228405Y-117313726D01*
X170313710Y-117107781D01*
X170371404Y-116892463D01*
X170400500Y-116671457D01*
X170400500Y-116448543D01*
X170371404Y-116227537D01*
X170313710Y-116012219D01*
X170281948Y-115935539D01*
X170274479Y-115866069D01*
X170305754Y-115803590D01*
X170308800Y-115800433D01*
X170558506Y-115550728D01*
X170558511Y-115550724D01*
X170568714Y-115540520D01*
X170568716Y-115540520D01*
X170680520Y-115428716D01*
X170759577Y-115291784D01*
X170789534Y-115179981D01*
X170800500Y-115139058D01*
X170800500Y-114980943D01*
X170800500Y-107939622D01*
X170795109Y-107919500D01*
X170759577Y-107786894D01*
X170715349Y-107710289D01*
X170680520Y-107649963D01*
X170568716Y-107538159D01*
X170568715Y-107538158D01*
X170564385Y-107533828D01*
X170564374Y-107533818D01*
X169431839Y-106401283D01*
X169398354Y-106339960D01*
X169403338Y-106270268D01*
X169445210Y-106214335D01*
X169457520Y-106206215D01*
X169548829Y-106153497D01*
X169646774Y-106096948D01*
X169823624Y-105961247D01*
X169981247Y-105803624D01*
X170116948Y-105626774D01*
X170228405Y-105433726D01*
X170313710Y-105227781D01*
X170371404Y-105012463D01*
X170400500Y-104791457D01*
X170400500Y-104568543D01*
X170371404Y-104347537D01*
X170313710Y-104132219D01*
X170228405Y-103926274D01*
X170116948Y-103733226D01*
X170014755Y-103600045D01*
X169981248Y-103556377D01*
X169981242Y-103556370D01*
X169823629Y-103398757D01*
X169823622Y-103398751D01*
X169646782Y-103263058D01*
X169646780Y-103263057D01*
X169646774Y-103263052D01*
X169453726Y-103151595D01*
X169453722Y-103151593D01*
X169247790Y-103066293D01*
X169247783Y-103066291D01*
X169247781Y-103066290D01*
X169032463Y-103008596D01*
X169032457Y-103008595D01*
X169032452Y-103008594D01*
X168811466Y-102979501D01*
X168811463Y-102979500D01*
X168811457Y-102979500D01*
X168588543Y-102979500D01*
X168588537Y-102979500D01*
X168588533Y-102979501D01*
X168367547Y-103008594D01*
X168367540Y-103008595D01*
X168367537Y-103008596D01*
X168306171Y-103025039D01*
X168152219Y-103066290D01*
X168152210Y-103066293D01*
X168125538Y-103077341D01*
X168056069Y-103084808D01*
X167993590Y-103053533D01*
X167990406Y-103050460D01*
X166886819Y-101946873D01*
X166853334Y-101885550D01*
X166850500Y-101859192D01*
X166850500Y-101321924D01*
X166870185Y-101254885D01*
X166922989Y-101209130D01*
X166992147Y-101199186D01*
X167055703Y-101228211D01*
X167089061Y-101274471D01*
X167164202Y-101455879D01*
X167171595Y-101473726D01*
X167283052Y-101666774D01*
X167283057Y-101666780D01*
X167283058Y-101666782D01*
X167418751Y-101843622D01*
X167418757Y-101843629D01*
X167576370Y-102001242D01*
X167576377Y-102001248D01*
X167592202Y-102013391D01*
X167753226Y-102136948D01*
X167946274Y-102248405D01*
X168152219Y-102333710D01*
X168367537Y-102391404D01*
X168588543Y-102420500D01*
X168588550Y-102420500D01*
X168811450Y-102420500D01*
X168811457Y-102420500D01*
X169032463Y-102391404D01*
X169247781Y-102333710D01*
X169453726Y-102248405D01*
X169646774Y-102136948D01*
X169823624Y-102001247D01*
X169981247Y-101843624D01*
X170116948Y-101666774D01*
X170228405Y-101473726D01*
X170313710Y-101267781D01*
X170371404Y-101052463D01*
X170400500Y-100831457D01*
X170400500Y-100608543D01*
X170371404Y-100387537D01*
X170313710Y-100172219D01*
X170228405Y-99966274D01*
X170116948Y-99773226D01*
X169981247Y-99596376D01*
X169981242Y-99596370D01*
X169823629Y-99438757D01*
X169823622Y-99438751D01*
X169646782Y-99303058D01*
X169646780Y-99303057D01*
X169646774Y-99303052D01*
X169453726Y-99191595D01*
X169453722Y-99191593D01*
X169247790Y-99106293D01*
X169247783Y-99106291D01*
X169247781Y-99106290D01*
X169032463Y-99048596D01*
X169032457Y-99048595D01*
X169032452Y-99048594D01*
X168811466Y-99019501D01*
X168811463Y-99019500D01*
X168811457Y-99019500D01*
X168588543Y-99019500D01*
X168588537Y-99019500D01*
X168588533Y-99019501D01*
X168367547Y-99048594D01*
X168367540Y-99048595D01*
X168367537Y-99048596D01*
X168262621Y-99076708D01*
X168152219Y-99106290D01*
X168152210Y-99106293D01*
X168125538Y-99117341D01*
X168056069Y-99124808D01*
X167993590Y-99093533D01*
X167990406Y-99090460D01*
X167079713Y-98179767D01*
X167046228Y-98118444D01*
X167043394Y-98092086D01*
X167043394Y-97754448D01*
X167063079Y-97687409D01*
X167115883Y-97641654D01*
X167185041Y-97631710D01*
X167248597Y-97660735D01*
X167274780Y-97692447D01*
X167283052Y-97706774D01*
X167283057Y-97706780D01*
X167283058Y-97706782D01*
X167418751Y-97883622D01*
X167418757Y-97883629D01*
X167576370Y-98041242D01*
X167576377Y-98041248D01*
X167609155Y-98066399D01*
X167753226Y-98176948D01*
X167946274Y-98288405D01*
X168152219Y-98373710D01*
X168367537Y-98431404D01*
X168588543Y-98460500D01*
X168588550Y-98460500D01*
X168811450Y-98460500D01*
X168811457Y-98460500D01*
X169032463Y-98431404D01*
X169247781Y-98373710D01*
X169453726Y-98288405D01*
X169646774Y-98176948D01*
X169823624Y-98041247D01*
X169981247Y-97883624D01*
X170116948Y-97706774D01*
X170228405Y-97513726D01*
X170313710Y-97307781D01*
X170371404Y-97092463D01*
X170400500Y-96871457D01*
X170400500Y-96648543D01*
X170371404Y-96427537D01*
X170313710Y-96212219D01*
X170312669Y-96209707D01*
X170234373Y-96020682D01*
X170228405Y-96006274D01*
X170116948Y-95813226D01*
X170013832Y-95678842D01*
X169981248Y-95636377D01*
X169981242Y-95636370D01*
X169823629Y-95478757D01*
X169823622Y-95478751D01*
X169646782Y-95343058D01*
X169646780Y-95343057D01*
X169646774Y-95343052D01*
X169453726Y-95231595D01*
X169453722Y-95231593D01*
X169247790Y-95146293D01*
X169247783Y-95146291D01*
X169247781Y-95146290D01*
X169032463Y-95088596D01*
X169032457Y-95088595D01*
X169032452Y-95088594D01*
X168811466Y-95059501D01*
X168811463Y-95059500D01*
X168811457Y-95059500D01*
X168588543Y-95059500D01*
X168588537Y-95059500D01*
X168588533Y-95059501D01*
X168367547Y-95088594D01*
X168367540Y-95088595D01*
X168367537Y-95088596D01*
X168252276Y-95119480D01*
X168152219Y-95146290D01*
X168152209Y-95146293D01*
X167946277Y-95231593D01*
X167946273Y-95231595D01*
X167851180Y-95286498D01*
X167761239Y-95338425D01*
X167693340Y-95354898D01*
X167627313Y-95332046D01*
X167611559Y-95318719D01*
X165955021Y-93662181D01*
X165921536Y-93600858D01*
X165926520Y-93531166D01*
X165968392Y-93475233D01*
X166033856Y-93450816D01*
X166042702Y-93450500D01*
X167045984Y-93450500D01*
X167113023Y-93470185D01*
X167158778Y-93522989D01*
X167160534Y-93527024D01*
X167171595Y-93553726D01*
X167283052Y-93746774D01*
X167283057Y-93746780D01*
X167283058Y-93746782D01*
X167418751Y-93923622D01*
X167418757Y-93923629D01*
X167576370Y-94081242D01*
X167576376Y-94081247D01*
X167753226Y-94216948D01*
X167946274Y-94328405D01*
X168152219Y-94413710D01*
X168367537Y-94471404D01*
X168588543Y-94500500D01*
X168588550Y-94500500D01*
X168811450Y-94500500D01*
X168811457Y-94500500D01*
X169032463Y-94471404D01*
X169247781Y-94413710D01*
X169453726Y-94328405D01*
X169646774Y-94216948D01*
X169823624Y-94081247D01*
X169981247Y-93923624D01*
X170116948Y-93746774D01*
X170228405Y-93553726D01*
X170313710Y-93347781D01*
X170371404Y-93132463D01*
X170400500Y-92911457D01*
X170400500Y-92688543D01*
X170371404Y-92467537D01*
X170313710Y-92252219D01*
X170228405Y-92046274D01*
X170116948Y-91853226D01*
X169981247Y-91676376D01*
X169981242Y-91676370D01*
X169823629Y-91518757D01*
X169823622Y-91518751D01*
X169646782Y-91383058D01*
X169646780Y-91383057D01*
X169646774Y-91383052D01*
X169453726Y-91271595D01*
X169453722Y-91271593D01*
X169247790Y-91186293D01*
X169247783Y-91186291D01*
X169247781Y-91186290D01*
X169032463Y-91128596D01*
X169032457Y-91128595D01*
X169032452Y-91128594D01*
X168811466Y-91099501D01*
X168811463Y-91099500D01*
X168811457Y-91099500D01*
X168588543Y-91099500D01*
X168588537Y-91099500D01*
X168588533Y-91099501D01*
X168367547Y-91128594D01*
X168367540Y-91128595D01*
X168367537Y-91128596D01*
X168152219Y-91186290D01*
X168152209Y-91186293D01*
X167946277Y-91271593D01*
X167946273Y-91271595D01*
X167753226Y-91383052D01*
X167753217Y-91383058D01*
X167576377Y-91518751D01*
X167576370Y-91518757D01*
X167418757Y-91676370D01*
X167418751Y-91676377D01*
X167283058Y-91853217D01*
X167283052Y-91853226D01*
X167171596Y-92046272D01*
X167160545Y-92072952D01*
X167116704Y-92127356D01*
X167050410Y-92149421D01*
X167045984Y-92149500D01*
X165200808Y-92149500D01*
X165133769Y-92129815D01*
X165113127Y-92113181D01*
X159614674Y-86614727D01*
X159614673Y-86614726D01*
X159614669Y-86614723D01*
X159508127Y-86543535D01*
X159401042Y-86499179D01*
X159389744Y-86494499D01*
X159389738Y-86494497D01*
X159264071Y-86469500D01*
X159264069Y-86469500D01*
X158897757Y-86469500D01*
X158830718Y-86449815D01*
X158784963Y-86397011D01*
X158775019Y-86327853D01*
X158776140Y-86321308D01*
X158800500Y-86198844D01*
X158800500Y-86041155D01*
X158800499Y-86041153D01*
X158774428Y-85910086D01*
X158769737Y-85886503D01*
X158719006Y-85764026D01*
X158709396Y-85740825D01*
X158709394Y-85740822D01*
X158709394Y-85740821D01*
X158674694Y-85688889D01*
X158653816Y-85622215D01*
X158672300Y-85554835D01*
X158674676Y-85551136D01*
X158709394Y-85499179D01*
X158769737Y-85353497D01*
X158795135Y-85225815D01*
X162155000Y-85225815D01*
X162165407Y-85327673D01*
X162220094Y-85492709D01*
X162220096Y-85492714D01*
X162311370Y-85640691D01*
X162434308Y-85763629D01*
X162582285Y-85854903D01*
X162582290Y-85854905D01*
X162747326Y-85909592D01*
X162849184Y-85919999D01*
X162849197Y-85920000D01*
X162892500Y-85920000D01*
X162892500Y-84970000D01*
X162155000Y-84970000D01*
X162155000Y-85225815D01*
X158795135Y-85225815D01*
X158800500Y-85198842D01*
X158800500Y-85041158D01*
X158800500Y-85041155D01*
X158800499Y-85041153D01*
X158780942Y-84942829D01*
X158769738Y-84886508D01*
X158769737Y-84886507D01*
X158769737Y-84886503D01*
X158766703Y-84879178D01*
X158709396Y-84740825D01*
X158709394Y-84740822D01*
X158709394Y-84740821D01*
X158674694Y-84688889D01*
X158653816Y-84622215D01*
X158672300Y-84554835D01*
X158674676Y-84551136D01*
X158709394Y-84499179D01*
X158769737Y-84353497D01*
X158797448Y-84214184D01*
X162155000Y-84214184D01*
X162155000Y-84470000D01*
X162892500Y-84470000D01*
X162892500Y-83520000D01*
X162849184Y-83520000D01*
X162747326Y-83530407D01*
X162582290Y-83585094D01*
X162582285Y-83585096D01*
X162434308Y-83676370D01*
X162311370Y-83799308D01*
X162220096Y-83947285D01*
X162220094Y-83947290D01*
X162165407Y-84112326D01*
X162155000Y-84214184D01*
X158797448Y-84214184D01*
X158800500Y-84198842D01*
X158800500Y-84041158D01*
X158800500Y-84041155D01*
X158776140Y-83918692D01*
X158782367Y-83849100D01*
X158825230Y-83793923D01*
X158891120Y-83770678D01*
X158897757Y-83770500D01*
X159264071Y-83770500D01*
X159348615Y-83753682D01*
X159389744Y-83745501D01*
X159508127Y-83696465D01*
X159528525Y-83682834D01*
X159538793Y-83675975D01*
X159538794Y-83675975D01*
X159595571Y-83638037D01*
X159614669Y-83625277D01*
X160569946Y-82670000D01*
X163441210Y-82670000D01*
X163442854Y-82690910D01*
X163487968Y-82846195D01*
X163570278Y-82985374D01*
X163570285Y-82985383D01*
X163684616Y-83099714D01*
X163684625Y-83099721D01*
X163823804Y-83182031D01*
X163970000Y-83224504D01*
X163970000Y-82670000D01*
X163441210Y-82670000D01*
X160569946Y-82670000D01*
X161069947Y-82169999D01*
X163441209Y-82169999D01*
X163441210Y-82170000D01*
X163970000Y-82170000D01*
X163970000Y-81643999D01*
X163871883Y-81643999D01*
X163823808Y-81657966D01*
X163823806Y-81657967D01*
X163684625Y-81740278D01*
X163684616Y-81740285D01*
X163570285Y-81854616D01*
X163570278Y-81854625D01*
X163487968Y-81993804D01*
X163487966Y-81993809D01*
X163442855Y-82149081D01*
X163442854Y-82149087D01*
X163441209Y-82169999D01*
X161069947Y-82169999D01*
X161693415Y-81546531D01*
X162369945Y-80870000D01*
X163441210Y-80870000D01*
X163442854Y-80890910D01*
X163487968Y-81046195D01*
X163570278Y-81185374D01*
X163570285Y-81185383D01*
X163684616Y-81299714D01*
X163684625Y-81299721D01*
X163823804Y-81382031D01*
X163871883Y-81395999D01*
X163970000Y-81395999D01*
X163970000Y-80870000D01*
X163441210Y-80870000D01*
X162369945Y-80870000D01*
X162869946Y-80369999D01*
X163441209Y-80369999D01*
X163441210Y-80370000D01*
X163970000Y-80370000D01*
X163970000Y-79815494D01*
X163969998Y-79815493D01*
X163823809Y-79857965D01*
X163823806Y-79857967D01*
X163684625Y-79940278D01*
X163684616Y-79940285D01*
X163570285Y-80054616D01*
X163570278Y-80054625D01*
X163487968Y-80193804D01*
X163487966Y-80193809D01*
X163442855Y-80349081D01*
X163442854Y-80349087D01*
X163441209Y-80369999D01*
X162869946Y-80369999D01*
X162913284Y-80326661D01*
X163728127Y-79511818D01*
X163789450Y-79478333D01*
X163815808Y-79475499D01*
X164405500Y-79475499D01*
X164472539Y-79495184D01*
X164518294Y-79547988D01*
X164529500Y-79599499D01*
X164529500Y-79708860D01*
X164509815Y-79775899D01*
X164479953Y-79808020D01*
X164470000Y-79815493D01*
X164470000Y-80121645D01*
X164452734Y-80184763D01*
X164447507Y-80193600D01*
X164447504Y-80193608D01*
X164402357Y-80349002D01*
X164402356Y-80349008D01*
X164399500Y-80385302D01*
X164399500Y-80854697D01*
X164402356Y-80890991D01*
X164402357Y-80890997D01*
X164447503Y-81046389D01*
X164447505Y-81046393D01*
X164447506Y-81046395D01*
X164452732Y-81055233D01*
X164470000Y-81118352D01*
X164470000Y-81427380D01*
X164506908Y-81476832D01*
X164511792Y-81546531D01*
X164478220Y-81607806D01*
X164470000Y-81614928D01*
X164470000Y-81921645D01*
X164452734Y-81984763D01*
X164447507Y-81993600D01*
X164447504Y-81993608D01*
X164402357Y-82149002D01*
X164402356Y-82149008D01*
X164399500Y-82185302D01*
X164399500Y-82349982D01*
X164392244Y-82386463D01*
X164393768Y-82386926D01*
X164391997Y-82392762D01*
X164386579Y-82420002D01*
X164367001Y-82518426D01*
X164367001Y-82646573D01*
X164391997Y-82772236D01*
X164391999Y-82772244D01*
X164441033Y-82890624D01*
X164441037Y-82890631D01*
X164449100Y-82902697D01*
X164469980Y-82969374D01*
X164470000Y-82971591D01*
X164470000Y-83224504D01*
X164479952Y-83231977D01*
X164521744Y-83287971D01*
X164529500Y-83331138D01*
X164529500Y-83471868D01*
X164509815Y-83538907D01*
X164462724Y-83580041D01*
X164463221Y-83580846D01*
X164458400Y-83583819D01*
X164457911Y-83584247D01*
X164457075Y-83584636D01*
X164309000Y-83675971D01*
X164308996Y-83675974D01*
X164185974Y-83798996D01*
X164185967Y-83799005D01*
X164185234Y-83800194D01*
X164184519Y-83800836D01*
X164181493Y-83804664D01*
X164180838Y-83804146D01*
X164133280Y-83846911D01*
X164064316Y-83858123D01*
X164000238Y-83830271D01*
X163978238Y-83804877D01*
X163978112Y-83804977D01*
X163975885Y-83802161D01*
X163974163Y-83800173D01*
X163973630Y-83799309D01*
X163850691Y-83676370D01*
X163702714Y-83585096D01*
X163702709Y-83585094D01*
X163537673Y-83530407D01*
X163435815Y-83520000D01*
X163392500Y-83520000D01*
X163392500Y-85920000D01*
X163435803Y-85920000D01*
X163435815Y-85919999D01*
X163537673Y-85909592D01*
X163702709Y-85854905D01*
X163702714Y-85854903D01*
X163850691Y-85763629D01*
X163973628Y-85640692D01*
X163974159Y-85639832D01*
X163974680Y-85639363D01*
X163978112Y-85635023D01*
X163978853Y-85635608D01*
X164026101Y-85593102D01*
X164095063Y-85581872D01*
X164159148Y-85609708D01*
X164181413Y-85635398D01*
X164181493Y-85635336D01*
X164182890Y-85637103D01*
X164185238Y-85639812D01*
X164185968Y-85640995D01*
X164185974Y-85641003D01*
X164308996Y-85764025D01*
X164309000Y-85764028D01*
X164457066Y-85855357D01*
X164457069Y-85855358D01*
X164457075Y-85855362D01*
X164622225Y-85910087D01*
X164724152Y-85920500D01*
X164724157Y-85920500D01*
X165310843Y-85920500D01*
X165310848Y-85920500D01*
X165412775Y-85910087D01*
X165577925Y-85855362D01*
X165726003Y-85764026D01*
X165849026Y-85641003D01*
X165940362Y-85492925D01*
X165995087Y-85327775D01*
X166005500Y-85225848D01*
X166005500Y-84214152D01*
X165995087Y-84112225D01*
X165940362Y-83947075D01*
X165849026Y-83798997D01*
X165849025Y-83798996D01*
X165848961Y-83798892D01*
X165830500Y-83733795D01*
X165830500Y-83018961D01*
X165847768Y-82955840D01*
X165912494Y-82846395D01*
X165957643Y-82690993D01*
X165960500Y-82654690D01*
X165960500Y-82185310D01*
X165957643Y-82149007D01*
X165949454Y-82120822D01*
X165912495Y-81993609D01*
X165912495Y-81993608D01*
X165912494Y-81993605D01*
X165900869Y-81973948D01*
X165847768Y-81884157D01*
X165830500Y-81821037D01*
X165830500Y-81218961D01*
X165847768Y-81155840D01*
X165912494Y-81046395D01*
X165957643Y-80890993D01*
X165960500Y-80854690D01*
X165960500Y-80385310D01*
X165957643Y-80349007D01*
X165949070Y-80319500D01*
X165914497Y-80200499D01*
X165912494Y-80193605D01*
X165898377Y-80169735D01*
X165847768Y-80084157D01*
X165830500Y-80021037D01*
X165830500Y-79425873D01*
X165850185Y-79358834D01*
X165889410Y-79320330D01*
X165893656Y-79317712D01*
X166017712Y-79193656D01*
X166109814Y-79044334D01*
X166164999Y-78877797D01*
X166175500Y-78775009D01*
X166175499Y-77104992D01*
X166164999Y-77002203D01*
X166109814Y-76835666D01*
X166017712Y-76686344D01*
X165893656Y-76562288D01*
X165744334Y-76470186D01*
X165577797Y-76415001D01*
X165577795Y-76415000D01*
X165475010Y-76404500D01*
X163284998Y-76404500D01*
X163284981Y-76404501D01*
X163182203Y-76415000D01*
X163182200Y-76415001D01*
X163015668Y-76470185D01*
X163015663Y-76470187D01*
X162866342Y-76562289D01*
X162742289Y-76686342D01*
X162650187Y-76835663D01*
X162650185Y-76835668D01*
X162644280Y-76853489D01*
X162595001Y-77002203D01*
X162595001Y-77002204D01*
X162595000Y-77002204D01*
X162584500Y-77104983D01*
X162584500Y-78764190D01*
X162564815Y-78831229D01*
X162548181Y-78851871D01*
X158976423Y-82423630D01*
X158915100Y-82457115D01*
X158845408Y-82452131D01*
X158789475Y-82410259D01*
X158785639Y-82404839D01*
X158762361Y-82370000D01*
X158305811Y-82370000D01*
X158258363Y-82360562D01*
X158233497Y-82350263D01*
X158233490Y-82350261D01*
X158233489Y-82350261D01*
X158233488Y-82350260D01*
X158078845Y-82319500D01*
X158078842Y-82319500D01*
X156921158Y-82319500D01*
X156921155Y-82319500D01*
X156766511Y-82350260D01*
X156766510Y-82350261D01*
X156766507Y-82350262D01*
X156766503Y-82350263D01*
X156741636Y-82360562D01*
X156694189Y-82370000D01*
X156237639Y-82370000D01*
X156207979Y-82414390D01*
X156154367Y-82459196D01*
X156104876Y-82469500D01*
X154435929Y-82469500D01*
X154310261Y-82494497D01*
X154310255Y-82494499D01*
X154191870Y-82543535D01*
X154085331Y-82614722D01*
X154085324Y-82614728D01*
X152747068Y-83952984D01*
X152685745Y-83986469D01*
X152683579Y-83986920D01*
X152616508Y-84000261D01*
X152616498Y-84000264D01*
X152470827Y-84060602D01*
X152470814Y-84060609D01*
X152339711Y-84148210D01*
X152339707Y-84148213D01*
X152228213Y-84259707D01*
X152228210Y-84259711D01*
X152140609Y-84390814D01*
X152140602Y-84390827D01*
X152080264Y-84536498D01*
X152080261Y-84536510D01*
X152049500Y-84691153D01*
X152049500Y-84848846D01*
X152080261Y-85003489D01*
X152080264Y-85003501D01*
X152140602Y-85149172D01*
X152140609Y-85149185D01*
X152228210Y-85280288D01*
X152228213Y-85280292D01*
X152339707Y-85391786D01*
X152339711Y-85391789D01*
X152470814Y-85479390D01*
X152470827Y-85479397D01*
X152616498Y-85539735D01*
X152616503Y-85539737D01*
X152771153Y-85570499D01*
X152771156Y-85570500D01*
X152771158Y-85570500D01*
X152928844Y-85570500D01*
X152928845Y-85570499D01*
X153083497Y-85539737D01*
X153229179Y-85479394D01*
X153360289Y-85391789D01*
X153471789Y-85280289D01*
X153559394Y-85149179D01*
X153619737Y-85003497D01*
X153633079Y-84936416D01*
X153665463Y-84874509D01*
X153666958Y-84872986D01*
X154733127Y-83806819D01*
X154794450Y-83773334D01*
X154820808Y-83770500D01*
X156102243Y-83770500D01*
X156169282Y-83790185D01*
X156215037Y-83842989D01*
X156224981Y-83912147D01*
X156223860Y-83918692D01*
X156199500Y-84041155D01*
X156199500Y-84198846D01*
X156230261Y-84353489D01*
X156230264Y-84353501D01*
X156290602Y-84499172D01*
X156290609Y-84499185D01*
X156325304Y-84551109D01*
X156346182Y-84617786D01*
X156327698Y-84685167D01*
X156325304Y-84688891D01*
X156290609Y-84740814D01*
X156290602Y-84740827D01*
X156230264Y-84886498D01*
X156230261Y-84886510D01*
X156199500Y-85041153D01*
X156199500Y-85198846D01*
X156230261Y-85353489D01*
X156230264Y-85353501D01*
X156290602Y-85499172D01*
X156290609Y-85499185D01*
X156325304Y-85551109D01*
X156346182Y-85617786D01*
X156327698Y-85685167D01*
X156325304Y-85688891D01*
X156290609Y-85740814D01*
X156290602Y-85740827D01*
X156230263Y-85886500D01*
X156230261Y-85886506D01*
X156216919Y-85953581D01*
X156184533Y-86015491D01*
X156182983Y-86017069D01*
X154494726Y-87705326D01*
X154423534Y-87811874D01*
X154374499Y-87930255D01*
X154374497Y-87930261D01*
X154349500Y-88055928D01*
X154349500Y-96815064D01*
X154329815Y-96882103D01*
X154328603Y-96883954D01*
X154290608Y-96940817D01*
X154290602Y-96940828D01*
X154230264Y-97086498D01*
X154230261Y-97086510D01*
X154199500Y-97241153D01*
X154199500Y-97398846D01*
X154230261Y-97553489D01*
X154230264Y-97553501D01*
X154281953Y-97678291D01*
X154289422Y-97747761D01*
X154258146Y-97810240D01*
X154198057Y-97845891D01*
X154167392Y-97849743D01*
X152558178Y-97849743D01*
X152491139Y-97830058D01*
X152445384Y-97777254D01*
X152435440Y-97708096D01*
X152464465Y-97644540D01*
X152489287Y-97622641D01*
X152573309Y-97566498D01*
X152610289Y-97541789D01*
X152721789Y-97430289D01*
X152809394Y-97299179D01*
X152869737Y-97153497D01*
X152900500Y-96998842D01*
X152900500Y-96841158D01*
X152900500Y-96841155D01*
X152900499Y-96841153D01*
X152898159Y-96829390D01*
X152869737Y-96686503D01*
X152854014Y-96648543D01*
X152809397Y-96540827D01*
X152809390Y-96540814D01*
X152721789Y-96409711D01*
X152721786Y-96409707D01*
X152610292Y-96298213D01*
X152610288Y-96298210D01*
X152479185Y-96210609D01*
X152479172Y-96210602D01*
X152333501Y-96150264D01*
X152333489Y-96150261D01*
X152178845Y-96119500D01*
X152178842Y-96119500D01*
X152021158Y-96119500D01*
X152021155Y-96119500D01*
X151866510Y-96150261D01*
X151866498Y-96150264D01*
X151720827Y-96210602D01*
X151720814Y-96210609D01*
X151589711Y-96298210D01*
X151589707Y-96298213D01*
X151478213Y-96409707D01*
X151478210Y-96409711D01*
X151390609Y-96540814D01*
X151390602Y-96540827D01*
X151330264Y-96686498D01*
X151330261Y-96686510D01*
X151299500Y-96841153D01*
X151299500Y-96998846D01*
X151330261Y-97153489D01*
X151330264Y-97153501D01*
X151390602Y-97299172D01*
X151390609Y-97299185D01*
X151478210Y-97430288D01*
X151478213Y-97430292D01*
X151589707Y-97541786D01*
X151589711Y-97541789D01*
X151710713Y-97622641D01*
X151755518Y-97676253D01*
X151764225Y-97745578D01*
X151734070Y-97808606D01*
X151674627Y-97845325D01*
X151641822Y-97849743D01*
X143624500Y-97849743D01*
X143557461Y-97830058D01*
X143511706Y-97777254D01*
X143500500Y-97725743D01*
X143500500Y-97641155D01*
X143500499Y-97641153D01*
X143480734Y-97541789D01*
X143469737Y-97486503D01*
X143469735Y-97486498D01*
X143409397Y-97340827D01*
X143409390Y-97340814D01*
X143321789Y-97209711D01*
X143321786Y-97209707D01*
X143210292Y-97098213D01*
X143210288Y-97098210D01*
X143079185Y-97010609D01*
X143079172Y-97010602D01*
X142933501Y-96950264D01*
X142933489Y-96950261D01*
X142866420Y-96936920D01*
X142804509Y-96904535D01*
X142802980Y-96903034D01*
X142794669Y-96894723D01*
X142688127Y-96823535D01*
X142680797Y-96820499D01*
X142569744Y-96774499D01*
X142569738Y-96774497D01*
X142444071Y-96749500D01*
X142444069Y-96749500D01*
X141685579Y-96749500D01*
X141656768Y-96745226D01*
X141656677Y-96745688D01*
X141648693Y-96744100D01*
X141637076Y-96741789D01*
X141637072Y-96741787D01*
X141637072Y-96741788D01*
X141613957Y-96737190D01*
X141602218Y-96734855D01*
X141540308Y-96702468D01*
X141505736Y-96641751D01*
X141509478Y-96571981D01*
X141538728Y-96525562D01*
X141827474Y-96236816D01*
X141888795Y-96203334D01*
X141915153Y-96200500D01*
X142920234Y-96200500D01*
X142987273Y-96220185D01*
X142989125Y-96221398D01*
X143120814Y-96309390D01*
X143120827Y-96309397D01*
X143266498Y-96369735D01*
X143266503Y-96369737D01*
X143421153Y-96400499D01*
X143421156Y-96400500D01*
X143421158Y-96400500D01*
X143578844Y-96400500D01*
X143578845Y-96400499D01*
X143733497Y-96369737D01*
X143878414Y-96309711D01*
X143879172Y-96309397D01*
X143879172Y-96309396D01*
X143879179Y-96309394D01*
X144010289Y-96221789D01*
X144121789Y-96110289D01*
X144209394Y-95979179D01*
X144269737Y-95833497D01*
X144300500Y-95678842D01*
X144300500Y-95521158D01*
X144300500Y-95521155D01*
X144300499Y-95521153D01*
X144269737Y-95366503D01*
X144263010Y-95350263D01*
X144209397Y-95220827D01*
X144209390Y-95220814D01*
X144121789Y-95089711D01*
X144121786Y-95089707D01*
X144010292Y-94978213D01*
X144010288Y-94978210D01*
X143879185Y-94890609D01*
X143879172Y-94890602D01*
X143733501Y-94830264D01*
X143733489Y-94830261D01*
X143578845Y-94799500D01*
X143578842Y-94799500D01*
X143421158Y-94799500D01*
X143421155Y-94799500D01*
X143266510Y-94830261D01*
X143266498Y-94830264D01*
X143120827Y-94890602D01*
X143120814Y-94890609D01*
X142989125Y-94978602D01*
X142922447Y-94999480D01*
X142920234Y-94999500D01*
X141701725Y-94999500D01*
X141701709Y-94999499D01*
X141694113Y-94999499D01*
X141535998Y-94999499D01*
X141459634Y-95019961D01*
X141383269Y-95040423D01*
X141383264Y-95040426D01*
X141246345Y-95119475D01*
X141246337Y-95119481D01*
X140557923Y-95807896D01*
X140496600Y-95841381D01*
X140494434Y-95841832D01*
X140339092Y-95872732D01*
X140339082Y-95872735D01*
X140193411Y-95933073D01*
X140193398Y-95933080D01*
X140062295Y-96020681D01*
X140062291Y-96020684D01*
X139950797Y-96132178D01*
X139950794Y-96132182D01*
X139863193Y-96263285D01*
X139863186Y-96263298D01*
X139802847Y-96408972D01*
X139802847Y-96408973D01*
X139802847Y-96408974D01*
X139796736Y-96439692D01*
X139764353Y-96501601D01*
X139703638Y-96536176D01*
X139681026Y-96538811D01*
X139681036Y-96538903D01*
X139675917Y-96539407D01*
X139675120Y-96539500D01*
X139674974Y-96539500D01*
X139554758Y-96563413D01*
X139554757Y-96563412D01*
X139549311Y-96564496D01*
X139549297Y-96564500D01*
X139430921Y-96613532D01*
X139324371Y-96684726D01*
X139324370Y-96684727D01*
X139295917Y-96713181D01*
X139234594Y-96746666D01*
X139208236Y-96749500D01*
X139103923Y-96749500D01*
X139036884Y-96729815D01*
X138991129Y-96677011D01*
X138982306Y-96649691D01*
X138970197Y-96588816D01*
X138969737Y-96586503D01*
X138933569Y-96499185D01*
X138909397Y-96440827D01*
X138909390Y-96440814D01*
X138821789Y-96309711D01*
X138821786Y-96309707D01*
X138763693Y-96251614D01*
X138730208Y-96190291D01*
X138735192Y-96120599D01*
X138763693Y-96076252D01*
X141298792Y-93541153D01*
X151899500Y-93541153D01*
X151899500Y-93698846D01*
X151930261Y-93853489D01*
X151930264Y-93853501D01*
X151990602Y-93999172D01*
X151990609Y-93999185D01*
X152078210Y-94130288D01*
X152078213Y-94130292D01*
X152189707Y-94241786D01*
X152189711Y-94241789D01*
X152320814Y-94329390D01*
X152320827Y-94329397D01*
X152466498Y-94389735D01*
X152466503Y-94389737D01*
X152587018Y-94413709D01*
X152621153Y-94420499D01*
X152621156Y-94420500D01*
X152621158Y-94420500D01*
X152778844Y-94420500D01*
X152778845Y-94420499D01*
X152933497Y-94389737D01*
X153079179Y-94329394D01*
X153210289Y-94241789D01*
X153321789Y-94130289D01*
X153409394Y-93999179D01*
X153469737Y-93853497D01*
X153500500Y-93698842D01*
X153500500Y-93541158D01*
X153500500Y-93541155D01*
X153500499Y-93541153D01*
X153492149Y-93499174D01*
X153469737Y-93386503D01*
X153436716Y-93306782D01*
X153409397Y-93240827D01*
X153409390Y-93240814D01*
X153321789Y-93109711D01*
X153321786Y-93109707D01*
X153210292Y-92998213D01*
X153210288Y-92998210D01*
X153079185Y-92910609D01*
X153079172Y-92910602D01*
X152933501Y-92850264D01*
X152933489Y-92850261D01*
X152778845Y-92819500D01*
X152778842Y-92819500D01*
X152621158Y-92819500D01*
X152621155Y-92819500D01*
X152466510Y-92850261D01*
X152466498Y-92850264D01*
X152320827Y-92910602D01*
X152320814Y-92910609D01*
X152189711Y-92998210D01*
X152189707Y-92998213D01*
X152078213Y-93109707D01*
X152078210Y-93109711D01*
X151990609Y-93240814D01*
X151990602Y-93240827D01*
X151930264Y-93386498D01*
X151930261Y-93386510D01*
X151899500Y-93541153D01*
X141298792Y-93541153D01*
X141392560Y-93447385D01*
X145340761Y-89499185D01*
X152005276Y-82834670D01*
X152072877Y-82733497D01*
X152076464Y-82728129D01*
X152076465Y-82728127D01*
X152125501Y-82609744D01*
X152131648Y-82578842D01*
X152143666Y-82518426D01*
X152150500Y-82484071D01*
X152150500Y-81869999D01*
X156237639Y-81869999D01*
X156237639Y-81870000D01*
X157250000Y-81870000D01*
X157750000Y-81870000D01*
X158762361Y-81870000D01*
X158762360Y-81869999D01*
X158708953Y-81741062D01*
X158674093Y-81688892D01*
X158653215Y-81622214D01*
X158671699Y-81554834D01*
X158674093Y-81551108D01*
X158708953Y-81498937D01*
X158762361Y-81370000D01*
X157750000Y-81370000D01*
X157750000Y-81870000D01*
X157250000Y-81870000D01*
X157250000Y-81370000D01*
X156237639Y-81370000D01*
X156291047Y-81498938D01*
X156291055Y-81498953D01*
X156325905Y-81551110D01*
X156346783Y-81617787D01*
X156328298Y-81685167D01*
X156325905Y-81688890D01*
X156291055Y-81741046D01*
X156291047Y-81741061D01*
X156237639Y-81869999D01*
X152150500Y-81869999D01*
X152150500Y-80869999D01*
X156237639Y-80869999D01*
X156237639Y-80870000D01*
X157250000Y-80870000D01*
X157750000Y-80870000D01*
X158762361Y-80870000D01*
X158762360Y-80869999D01*
X158708953Y-80741062D01*
X158674093Y-80688892D01*
X158653215Y-80622214D01*
X158671699Y-80554834D01*
X158674093Y-80551108D01*
X158708953Y-80498937D01*
X158762361Y-80370000D01*
X157750000Y-80370000D01*
X157750000Y-80870000D01*
X157250000Y-80870000D01*
X157250000Y-80370000D01*
X156237639Y-80370000D01*
X156291047Y-80498938D01*
X156291055Y-80498953D01*
X156325905Y-80551110D01*
X156346783Y-80617787D01*
X156328298Y-80685167D01*
X156325905Y-80688890D01*
X156291055Y-80741046D01*
X156291047Y-80741061D01*
X156237639Y-80869999D01*
X152150500Y-80869999D01*
X152150500Y-79869999D01*
X156237639Y-79869999D01*
X156237639Y-79870000D01*
X157250000Y-79870000D01*
X157750000Y-79870000D01*
X158762361Y-79870000D01*
X158762360Y-79869999D01*
X158708952Y-79741061D01*
X158708947Y-79741051D01*
X158621401Y-79610030D01*
X158621398Y-79610026D01*
X158509973Y-79498601D01*
X158509969Y-79498598D01*
X158378948Y-79411052D01*
X158378939Y-79411047D01*
X158233351Y-79350743D01*
X158233343Y-79350741D01*
X158078797Y-79320000D01*
X157750000Y-79320000D01*
X157750000Y-79870000D01*
X157250000Y-79870000D01*
X157250000Y-79320000D01*
X156921202Y-79320000D01*
X156766656Y-79350741D01*
X156766648Y-79350743D01*
X156621060Y-79411047D01*
X156621051Y-79411052D01*
X156490030Y-79498598D01*
X156490026Y-79498601D01*
X156378601Y-79610026D01*
X156378598Y-79610030D01*
X156291052Y-79741051D01*
X156291047Y-79741061D01*
X156237639Y-79869999D01*
X152150500Y-79869999D01*
X152150500Y-77515123D01*
X152170185Y-77448084D01*
X152205609Y-77412021D01*
X152249999Y-77382360D01*
X152750000Y-77382360D01*
X152878935Y-77328954D01*
X152878942Y-77328950D01*
X152931108Y-77294094D01*
X152997786Y-77273216D01*
X153065166Y-77291700D01*
X153068892Y-77294094D01*
X153121057Y-77328950D01*
X153121064Y-77328954D01*
X153250000Y-77382360D01*
X153750000Y-77382360D01*
X153878934Y-77328954D01*
X153878952Y-77328944D01*
X154009965Y-77241404D01*
X154009973Y-77241398D01*
X154121398Y-77129973D01*
X154121401Y-77129969D01*
X154208947Y-76998948D01*
X154208952Y-76998939D01*
X154269256Y-76853351D01*
X154269258Y-76853343D01*
X154299999Y-76698797D01*
X154300000Y-76698794D01*
X154300000Y-76370000D01*
X153750000Y-76370000D01*
X153750000Y-77382360D01*
X153250000Y-77382360D01*
X153250000Y-76370000D01*
X152750000Y-76370000D01*
X152750000Y-77382360D01*
X152249999Y-77382360D01*
X152250000Y-77382359D01*
X152250000Y-76925811D01*
X152259439Y-76878358D01*
X152269737Y-76853497D01*
X152300500Y-76698842D01*
X152300500Y-75541158D01*
X152300500Y-75541155D01*
X152300499Y-75541153D01*
X152269739Y-75386511D01*
X152269738Y-75386510D01*
X152269737Y-75386503D01*
X152259437Y-75361636D01*
X152250000Y-75314189D01*
X152250000Y-74857639D01*
X152750000Y-74857639D01*
X152750000Y-75870000D01*
X153250000Y-75870000D01*
X153750000Y-75870000D01*
X154300000Y-75870000D01*
X154300000Y-75541206D01*
X154299999Y-75541202D01*
X154269258Y-75386656D01*
X154269256Y-75386648D01*
X154208952Y-75241060D01*
X154208947Y-75241051D01*
X154121401Y-75110030D01*
X154121398Y-75110026D01*
X154009973Y-74998601D01*
X154009969Y-74998598D01*
X153878948Y-74911052D01*
X153878938Y-74911047D01*
X153750000Y-74857639D01*
X153750000Y-75870000D01*
X153250000Y-75870000D01*
X153250000Y-74857639D01*
X153249999Y-74857639D01*
X153121061Y-74911047D01*
X153121046Y-74911055D01*
X153068890Y-74945905D01*
X153002213Y-74966783D01*
X152934833Y-74948298D01*
X152931110Y-74945905D01*
X152878953Y-74911055D01*
X152878938Y-74911047D01*
X152750000Y-74857639D01*
X152250000Y-74857639D01*
X152249999Y-74857639D01*
X152121058Y-74911048D01*
X152069337Y-74945606D01*
X152002659Y-74966482D01*
X151935280Y-74947996D01*
X151931558Y-74945604D01*
X151879185Y-74910609D01*
X151879172Y-74910602D01*
X151733501Y-74850264D01*
X151733489Y-74850261D01*
X151578845Y-74819500D01*
X151578842Y-74819500D01*
X151421158Y-74819500D01*
X151421155Y-74819500D01*
X151266510Y-74850261D01*
X151266498Y-74850264D01*
X151120828Y-74910602D01*
X151120814Y-74910610D01*
X151068437Y-74945606D01*
X151001760Y-74966482D01*
X150934380Y-74947996D01*
X150930659Y-74945605D01*
X150878940Y-74911047D01*
X150802874Y-74879540D01*
X150748471Y-74835699D01*
X150726406Y-74769404D01*
X150743686Y-74701705D01*
X150762640Y-74677305D01*
X152644185Y-72795759D01*
X152705506Y-72762276D01*
X152707528Y-72761854D01*
X152789744Y-72745501D01*
X152908127Y-72696465D01*
X152990545Y-72641395D01*
X153057221Y-72620519D01*
X153059434Y-72620499D01*
X153797871Y-72620499D01*
X153797872Y-72620499D01*
X153857483Y-72614091D01*
X153992331Y-72563796D01*
X154030816Y-72534986D01*
X162585001Y-72534986D01*
X162595494Y-72637697D01*
X162650641Y-72804119D01*
X162650643Y-72804124D01*
X162742684Y-72953345D01*
X162866654Y-73077315D01*
X163015875Y-73169356D01*
X163015880Y-73169358D01*
X163182302Y-73224505D01*
X163182309Y-73224506D01*
X163285019Y-73234999D01*
X164129999Y-73234999D01*
X164630000Y-73234999D01*
X165474972Y-73234999D01*
X165474986Y-73234998D01*
X165577697Y-73224505D01*
X165744119Y-73169358D01*
X165744124Y-73169356D01*
X165893345Y-73077315D01*
X166017315Y-72953345D01*
X166109356Y-72804124D01*
X166109358Y-72804119D01*
X166164505Y-72637697D01*
X166164506Y-72637690D01*
X166174999Y-72534986D01*
X166175000Y-72534973D01*
X166175000Y-71950000D01*
X164630000Y-71950000D01*
X164630000Y-73234999D01*
X164129999Y-73234999D01*
X164130000Y-73234998D01*
X164130000Y-71950000D01*
X162585001Y-71950000D01*
X162585001Y-72534986D01*
X154030816Y-72534986D01*
X154107546Y-72477546D01*
X154193796Y-72362331D01*
X154244091Y-72227483D01*
X154250500Y-72167873D01*
X154250500Y-71769000D01*
X154270185Y-71701961D01*
X154322989Y-71656206D01*
X154374500Y-71645000D01*
X154450000Y-71645000D01*
X154950000Y-71645000D01*
X155297828Y-71645000D01*
X155297844Y-71644999D01*
X155357372Y-71638598D01*
X155357379Y-71638596D01*
X155492086Y-71588354D01*
X155492093Y-71588350D01*
X155607187Y-71502190D01*
X155607190Y-71502187D01*
X155693350Y-71387093D01*
X155693354Y-71387086D01*
X155743596Y-71252379D01*
X155743598Y-71252372D01*
X155749999Y-71192844D01*
X155750000Y-71192827D01*
X155750000Y-70865013D01*
X162585000Y-70865013D01*
X162585000Y-71450000D01*
X164130000Y-71450000D01*
X164630000Y-71450000D01*
X166174999Y-71450000D01*
X166174999Y-70865028D01*
X166174998Y-70865013D01*
X166164505Y-70762302D01*
X166109358Y-70595880D01*
X166109356Y-70595875D01*
X166017315Y-70446654D01*
X165893345Y-70322684D01*
X165744124Y-70230643D01*
X165744119Y-70230641D01*
X165577697Y-70175494D01*
X165577690Y-70175493D01*
X165474986Y-70165000D01*
X164630000Y-70165000D01*
X164630000Y-71450000D01*
X164130000Y-71450000D01*
X164130000Y-70165000D01*
X163285028Y-70165000D01*
X163285012Y-70165001D01*
X163182302Y-70175494D01*
X163015880Y-70230641D01*
X163015875Y-70230643D01*
X162866654Y-70322684D01*
X162742684Y-70446654D01*
X162650643Y-70595875D01*
X162650641Y-70595880D01*
X162595494Y-70762302D01*
X162595493Y-70762309D01*
X162585000Y-70865013D01*
X155750000Y-70865013D01*
X155750000Y-70270000D01*
X154950000Y-70270000D01*
X154950000Y-71645000D01*
X154450000Y-71645000D01*
X154450000Y-69770000D01*
X154950000Y-69770000D01*
X155750000Y-69770000D01*
X155750000Y-68847172D01*
X155749999Y-68847155D01*
X155743598Y-68787627D01*
X155743596Y-68787620D01*
X155693354Y-68652913D01*
X155693350Y-68652906D01*
X155607190Y-68537812D01*
X155607187Y-68537809D01*
X155492093Y-68451649D01*
X155492086Y-68451645D01*
X155357379Y-68401403D01*
X155357372Y-68401401D01*
X155297844Y-68395000D01*
X154950000Y-68395000D01*
X154950000Y-69770000D01*
X154450000Y-69770000D01*
X154450000Y-68395000D01*
X154102155Y-68395000D01*
X154042627Y-68401401D01*
X154042620Y-68401403D01*
X153907913Y-68451645D01*
X153907906Y-68451649D01*
X153792812Y-68537809D01*
X153792809Y-68537812D01*
X153706649Y-68652906D01*
X153706645Y-68652913D01*
X153655764Y-68789333D01*
X153613893Y-68845267D01*
X153548428Y-68869684D01*
X153539582Y-68870000D01*
X152910418Y-68870000D01*
X152843379Y-68850315D01*
X152797624Y-68797511D01*
X152794236Y-68789333D01*
X152743354Y-68652913D01*
X152743350Y-68652906D01*
X152657190Y-68537812D01*
X152657187Y-68537809D01*
X152542093Y-68451649D01*
X152542086Y-68451645D01*
X152407379Y-68401403D01*
X152407372Y-68401401D01*
X152347844Y-68395000D01*
X152000000Y-68395000D01*
X152000000Y-71548692D01*
X151980315Y-71615731D01*
X151963681Y-71636373D01*
X149316873Y-74283181D01*
X149255550Y-74316666D01*
X149229192Y-74319500D01*
X137166690Y-74319500D01*
X137041022Y-74344497D01*
X137041016Y-74344499D01*
X136922631Y-74393535D01*
X136816092Y-74464722D01*
X136816085Y-74464728D01*
X131844726Y-79436087D01*
X131773534Y-79542635D01*
X131724499Y-79661016D01*
X131724497Y-79661022D01*
X131699500Y-79786689D01*
X131699500Y-80397809D01*
X131679815Y-80464848D01*
X131627011Y-80510603D01*
X131557853Y-80520547D01*
X131494297Y-80491522D01*
X131460939Y-80445261D01*
X131409397Y-80320827D01*
X131409390Y-80320814D01*
X131321789Y-80189711D01*
X131321786Y-80189707D01*
X131210292Y-80078213D01*
X131210288Y-80078210D01*
X131079185Y-79990609D01*
X131079172Y-79990602D01*
X130933501Y-79930264D01*
X130933491Y-79930261D01*
X130778151Y-79899362D01*
X130716241Y-79866977D01*
X130714662Y-79865426D01*
X129887590Y-79038355D01*
X129887588Y-79038352D01*
X129768717Y-78919481D01*
X129768716Y-78919480D01*
X129681904Y-78869360D01*
X129681904Y-78869359D01*
X129681900Y-78869358D01*
X129631785Y-78840423D01*
X129479057Y-78799499D01*
X129320943Y-78799499D01*
X129313347Y-78799499D01*
X129313331Y-78799500D01*
X126979766Y-78799500D01*
X126912727Y-78779815D01*
X126910875Y-78778602D01*
X126779185Y-78690609D01*
X126779172Y-78690602D01*
X126633501Y-78630264D01*
X126633489Y-78630261D01*
X126478845Y-78599500D01*
X126478842Y-78599500D01*
X126321158Y-78599500D01*
X126321155Y-78599500D01*
X126166510Y-78630261D01*
X126166498Y-78630264D01*
X126020827Y-78690602D01*
X126020814Y-78690609D01*
X125889711Y-78778210D01*
X125889707Y-78778213D01*
X125778213Y-78889707D01*
X125778210Y-78889711D01*
X125690609Y-79020814D01*
X125690602Y-79020827D01*
X125630264Y-79166498D01*
X125630261Y-79166510D01*
X125599500Y-79321153D01*
X125599500Y-79478846D01*
X125630261Y-79633489D01*
X125630264Y-79633501D01*
X125690602Y-79779172D01*
X125690609Y-79779185D01*
X125778210Y-79910288D01*
X125778213Y-79910292D01*
X125889707Y-80021786D01*
X125889711Y-80021789D01*
X126020814Y-80109390D01*
X126020827Y-80109397D01*
X126166498Y-80169735D01*
X126166503Y-80169737D01*
X126321153Y-80200499D01*
X126321156Y-80200500D01*
X126321158Y-80200500D01*
X126478844Y-80200500D01*
X126478845Y-80200499D01*
X126633497Y-80169737D01*
X126779179Y-80109394D01*
X126825849Y-80078210D01*
X126910875Y-80021398D01*
X126977553Y-80000520D01*
X126979766Y-80000500D01*
X129099903Y-80000500D01*
X129166942Y-80020185D01*
X129187584Y-80036819D01*
X129865425Y-80714660D01*
X129898910Y-80775983D01*
X129899361Y-80778149D01*
X129930261Y-80933491D01*
X129930264Y-80933501D01*
X129990602Y-81079172D01*
X129990609Y-81079185D01*
X130078210Y-81210288D01*
X130078213Y-81210292D01*
X130189707Y-81321786D01*
X130189711Y-81321789D01*
X130320814Y-81409390D01*
X130320827Y-81409397D01*
X130466498Y-81469735D01*
X130466503Y-81469737D01*
X130613300Y-81498937D01*
X130621153Y-81500499D01*
X130621156Y-81500500D01*
X130621158Y-81500500D01*
X130778844Y-81500500D01*
X130778845Y-81500499D01*
X130933497Y-81469737D01*
X131079179Y-81409394D01*
X131210289Y-81321789D01*
X131321789Y-81210289D01*
X131409394Y-81079179D01*
X131419314Y-81055230D01*
X131460939Y-80954738D01*
X131504779Y-80900334D01*
X131571074Y-80878269D01*
X131638773Y-80895548D01*
X131686384Y-80946685D01*
X131699500Y-81002190D01*
X131699500Y-95534069D01*
X131718640Y-95630289D01*
X131719850Y-95636370D01*
X131724499Y-95659744D01*
X131771364Y-95772887D01*
X131773535Y-95778127D01*
X131836749Y-95872735D01*
X131844726Y-95884673D01*
X131844727Y-95884674D01*
X132182984Y-96222930D01*
X132216469Y-96284253D01*
X132216920Y-96286420D01*
X132230261Y-96353489D01*
X132230264Y-96353501D01*
X132290602Y-96499172D01*
X132290609Y-96499185D01*
X132378210Y-96630288D01*
X132378213Y-96630292D01*
X132489707Y-96741786D01*
X132489711Y-96741789D01*
X132620814Y-96829390D01*
X132620827Y-96829397D01*
X132752541Y-96883954D01*
X132766503Y-96889737D01*
X132879165Y-96912147D01*
X132921153Y-96920499D01*
X132921156Y-96920500D01*
X132921158Y-96920500D01*
X133575804Y-96920500D01*
X133642843Y-96940185D01*
X133688598Y-96992989D01*
X133698542Y-97062147D01*
X133690365Y-97091950D01*
X133687372Y-97099179D01*
X133674498Y-97130257D01*
X133674498Y-97130258D01*
X133655231Y-97227112D01*
X133636718Y-97271806D01*
X133590610Y-97340814D01*
X133590602Y-97340828D01*
X133530264Y-97486498D01*
X133530261Y-97486510D01*
X133499500Y-97641153D01*
X133499500Y-97798846D01*
X133530261Y-97953489D01*
X133530264Y-97953501D01*
X133590602Y-98099172D01*
X133590609Y-98099185D01*
X133678210Y-98230288D01*
X133678213Y-98230292D01*
X133789707Y-98341786D01*
X133789711Y-98341789D01*
X133920814Y-98429390D01*
X133920827Y-98429397D01*
X134066498Y-98489735D01*
X134066503Y-98489737D01*
X134165305Y-98509390D01*
X134209152Y-98518112D01*
X134271063Y-98550497D01*
X134305637Y-98611212D01*
X134301898Y-98680982D01*
X134272642Y-98727410D01*
X133490048Y-99510004D01*
X133428725Y-99543489D01*
X133359033Y-99538505D01*
X133303100Y-99496633D01*
X133278683Y-99431169D01*
X133280750Y-99398131D01*
X133300500Y-99298844D01*
X133300500Y-99141155D01*
X133300499Y-99141153D01*
X133282088Y-99048594D01*
X133269737Y-98986503D01*
X133261320Y-98966182D01*
X133209397Y-98840827D01*
X133209390Y-98840814D01*
X133121789Y-98709711D01*
X133121786Y-98709707D01*
X133010292Y-98598213D01*
X133010288Y-98598210D01*
X132879185Y-98510609D01*
X132879172Y-98510602D01*
X132733501Y-98450264D01*
X132733489Y-98450261D01*
X132578845Y-98419500D01*
X132578842Y-98419500D01*
X132421158Y-98419500D01*
X132421155Y-98419500D01*
X132266510Y-98450261D01*
X132266498Y-98450264D01*
X132120827Y-98510602D01*
X132120814Y-98510609D01*
X131989125Y-98598602D01*
X131922447Y-98619480D01*
X131920234Y-98619500D01*
X130800097Y-98619500D01*
X130733058Y-98599815D01*
X130712416Y-98583181D01*
X128834574Y-96705339D01*
X128801089Y-96644016D01*
X128800638Y-96641849D01*
X128772740Y-96501601D01*
X128769737Y-96486503D01*
X128769735Y-96486498D01*
X128709397Y-96340827D01*
X128709390Y-96340814D01*
X128621789Y-96209711D01*
X128621786Y-96209707D01*
X128510292Y-96098213D01*
X128510288Y-96098210D01*
X128379185Y-96010609D01*
X128379172Y-96010602D01*
X128233501Y-95950264D01*
X128233489Y-95950261D01*
X128078845Y-95919500D01*
X128078842Y-95919500D01*
X127921158Y-95919500D01*
X127921155Y-95919500D01*
X127766510Y-95950261D01*
X127766498Y-95950264D01*
X127620827Y-96010602D01*
X127620814Y-96010609D01*
X127489711Y-96098210D01*
X127489707Y-96098213D01*
X127378213Y-96209707D01*
X127378210Y-96209711D01*
X127290609Y-96340814D01*
X127290602Y-96340827D01*
X127230264Y-96486498D01*
X127230261Y-96486510D01*
X127199500Y-96641153D01*
X127199500Y-96798846D01*
X127230261Y-96953489D01*
X127230264Y-96953501D01*
X127290602Y-97099172D01*
X127290609Y-97099185D01*
X127378210Y-97230288D01*
X127378213Y-97230292D01*
X127489707Y-97341786D01*
X127489711Y-97341789D01*
X127620814Y-97429390D01*
X127620827Y-97429397D01*
X127758683Y-97486498D01*
X127766503Y-97489737D01*
X127831147Y-97502595D01*
X127921849Y-97520638D01*
X127983760Y-97553023D01*
X127985339Y-97554574D01*
X129614084Y-99183319D01*
X129647569Y-99244642D01*
X129642585Y-99314334D01*
X129600713Y-99370267D01*
X129535249Y-99394684D01*
X129526403Y-99395000D01*
X129277155Y-99395000D01*
X129217627Y-99401401D01*
X129217620Y-99401403D01*
X129082913Y-99451645D01*
X129082906Y-99451649D01*
X128967812Y-99537809D01*
X128967809Y-99537812D01*
X128881649Y-99652906D01*
X128881645Y-99652913D01*
X128831403Y-99787620D01*
X128831401Y-99787627D01*
X128825000Y-99847155D01*
X128825000Y-100195000D01*
X132075000Y-100195000D01*
X132075000Y-100095992D01*
X132094685Y-100028953D01*
X132147489Y-99983198D01*
X132216647Y-99973254D01*
X132246446Y-99981429D01*
X132266503Y-99989737D01*
X132390743Y-100014450D01*
X132421153Y-100020499D01*
X132421156Y-100020500D01*
X132421158Y-100020500D01*
X132578844Y-100020500D01*
X132678131Y-100000750D01*
X132747723Y-100006977D01*
X132802900Y-100049840D01*
X132826145Y-100115729D01*
X132810078Y-100183726D01*
X132790004Y-100210048D01*
X132277707Y-100722345D01*
X132216384Y-100755830D01*
X132146692Y-100750846D01*
X132102345Y-100722345D01*
X132075000Y-100695000D01*
X128825000Y-100695000D01*
X128825000Y-101042844D01*
X128831401Y-101102372D01*
X128831403Y-101102379D01*
X128881645Y-101237086D01*
X128881649Y-101237093D01*
X128967809Y-101352187D01*
X128967812Y-101352190D01*
X129082906Y-101438350D01*
X129082913Y-101438354D01*
X129219333Y-101489235D01*
X129275267Y-101531106D01*
X129299684Y-101596570D01*
X129300000Y-101605417D01*
X129300000Y-102234582D01*
X129280315Y-102301621D01*
X129227511Y-102347376D01*
X129219333Y-102350764D01*
X129082913Y-102401645D01*
X129082906Y-102401649D01*
X128967812Y-102487809D01*
X128967809Y-102487812D01*
X128881649Y-102602906D01*
X128881645Y-102602913D01*
X128831403Y-102737620D01*
X128831401Y-102737627D01*
X128825000Y-102797155D01*
X128825000Y-103145000D01*
X132075000Y-103145000D01*
X132075000Y-103069499D01*
X132094685Y-103002460D01*
X132147489Y-102956705D01*
X132198998Y-102945499D01*
X132597872Y-102945499D01*
X132657483Y-102939091D01*
X132747542Y-102905500D01*
X132817233Y-102900517D01*
X132878556Y-102934002D01*
X132912041Y-102995325D01*
X132907057Y-103065017D01*
X132881609Y-103104618D01*
X132882076Y-103105001D01*
X132878793Y-103109000D01*
X132878566Y-103109355D01*
X132878213Y-103109707D01*
X132878210Y-103109711D01*
X132790609Y-103240814D01*
X132790602Y-103240827D01*
X132730264Y-103386498D01*
X132730261Y-103386510D01*
X132699500Y-103541153D01*
X132699500Y-103698846D01*
X132730261Y-103853489D01*
X132730264Y-103853501D01*
X132790602Y-103999172D01*
X132790609Y-103999185D01*
X132878210Y-104130288D01*
X132878213Y-104130292D01*
X132989707Y-104241786D01*
X132989711Y-104241789D01*
X133120814Y-104329390D01*
X133120827Y-104329397D01*
X133247887Y-104382026D01*
X133266503Y-104389737D01*
X133284337Y-104393284D01*
X133299772Y-104396355D01*
X133361683Y-104428739D01*
X133396257Y-104489455D01*
X133397754Y-104518601D01*
X133399499Y-104518601D01*
X133399499Y-104526728D01*
X133399499Y-104526729D01*
X133399500Y-104572452D01*
X133399500Y-104611873D01*
X133399500Y-106568059D01*
X133379815Y-106635098D01*
X133327011Y-106680853D01*
X133257853Y-106690797D01*
X133194297Y-106661772D01*
X133187819Y-106655740D01*
X133110292Y-106578213D01*
X133110288Y-106578210D01*
X132979185Y-106490609D01*
X132979172Y-106490602D01*
X132833501Y-106430264D01*
X132833489Y-106430261D01*
X132678845Y-106399500D01*
X132678842Y-106399500D01*
X132521158Y-106399500D01*
X132521155Y-106399500D01*
X132366510Y-106430261D01*
X132366498Y-106430264D01*
X132220827Y-106490602D01*
X132220814Y-106490609D01*
X132089711Y-106578210D01*
X132089707Y-106578213D01*
X131978213Y-106689707D01*
X131978210Y-106689711D01*
X131890609Y-106820814D01*
X131890602Y-106820827D01*
X131830264Y-106966498D01*
X131830261Y-106966510D01*
X131799500Y-107121153D01*
X131799500Y-107278846D01*
X131830261Y-107433489D01*
X131830264Y-107433501D01*
X131890602Y-107579172D01*
X131890609Y-107579185D01*
X131978210Y-107710288D01*
X131978213Y-107710292D01*
X132089707Y-107821786D01*
X132089711Y-107821789D01*
X132220814Y-107909390D01*
X132220827Y-107909397D01*
X132366498Y-107969735D01*
X132366503Y-107969737D01*
X132521153Y-108000499D01*
X132521156Y-108000500D01*
X132521158Y-108000500D01*
X132678844Y-108000500D01*
X132678845Y-108000499D01*
X132833497Y-107969737D01*
X132979179Y-107909394D01*
X133110289Y-107821789D01*
X133145186Y-107786892D01*
X133187819Y-107744260D01*
X133249142Y-107710775D01*
X133318834Y-107715759D01*
X133374767Y-107757631D01*
X133399184Y-107823095D01*
X133399500Y-107831941D01*
X133399500Y-116571808D01*
X133399499Y-116571826D01*
X133399499Y-116737532D01*
X133399498Y-116737532D01*
X133399499Y-116737535D01*
X133440423Y-116890263D01*
X133446786Y-116901284D01*
X133519477Y-117027190D01*
X133519481Y-117027195D01*
X133638349Y-117146063D01*
X133638354Y-117146067D01*
X136742806Y-120250520D01*
X136742808Y-120250521D01*
X136742812Y-120250524D01*
X136853648Y-120314514D01*
X136879738Y-120329577D01*
X137032465Y-120370501D01*
X137032467Y-120370501D01*
X137198176Y-120370501D01*
X137198192Y-120370500D01*
X144855500Y-120370500D01*
X144922539Y-120390185D01*
X144968294Y-120442989D01*
X144979500Y-120494500D01*
X144979500Y-121617870D01*
X144979501Y-121617876D01*
X144985908Y-121677483D01*
X145036202Y-121812328D01*
X145036206Y-121812335D01*
X145122452Y-121927544D01*
X145122455Y-121927547D01*
X145237664Y-122013793D01*
X145237671Y-122013797D01*
X145372517Y-122064091D01*
X145372516Y-122064091D01*
X145379444Y-122064835D01*
X145432127Y-122070500D01*
X147127872Y-122070499D01*
X147187483Y-122064091D01*
X147322331Y-122013796D01*
X147437546Y-121927546D01*
X147469293Y-121885136D01*
X147529112Y-121805231D01*
X147531382Y-121806930D01*
X147570565Y-121767743D01*
X147638837Y-121752886D01*
X147704303Y-121777298D01*
X147729443Y-121806311D01*
X147730888Y-121805231D01*
X147822452Y-121927544D01*
X147822455Y-121927547D01*
X147937664Y-122013793D01*
X147937671Y-122013797D01*
X148072517Y-122064091D01*
X148072516Y-122064091D01*
X148079444Y-122064835D01*
X148132127Y-122070500D01*
X149827872Y-122070499D01*
X149887483Y-122064091D01*
X150022331Y-122013796D01*
X150137546Y-121927546D01*
X150223796Y-121812331D01*
X150274091Y-121677483D01*
X150280500Y-121617873D01*
X150280499Y-120494499D01*
X150300184Y-120427461D01*
X150352987Y-120381706D01*
X150404499Y-120370500D01*
X151813331Y-120370500D01*
X151813347Y-120370501D01*
X151820943Y-120370501D01*
X151899193Y-120370501D01*
X151966232Y-120390186D01*
X151986874Y-120406820D01*
X154867873Y-123287819D01*
X154901358Y-123349142D01*
X154896374Y-123418834D01*
X154854502Y-123474767D01*
X154789038Y-123499184D01*
X154780192Y-123499500D01*
X118224500Y-123499500D01*
X118157461Y-123479815D01*
X118111706Y-123427011D01*
X118100500Y-123375500D01*
X118100500Y-119080014D01*
X121800000Y-119080014D01*
X121800000Y-119830000D01*
X122845879Y-119830000D01*
X122826901Y-119875818D01*
X122800000Y-120011056D01*
X122800000Y-120148944D01*
X122826901Y-120284182D01*
X122845879Y-120330000D01*
X121800000Y-120330000D01*
X121800000Y-121079985D01*
X121810493Y-121182689D01*
X121810494Y-121182696D01*
X121865641Y-121349118D01*
X121865643Y-121349123D01*
X121957684Y-121498344D01*
X122081655Y-121622315D01*
X122230876Y-121714356D01*
X122230881Y-121714358D01*
X122397303Y-121769505D01*
X122397310Y-121769506D01*
X122500014Y-121779999D01*
X122500027Y-121780000D01*
X123250000Y-121780000D01*
X123250000Y-120734120D01*
X123295818Y-120753099D01*
X123431056Y-120780000D01*
X123568944Y-120780000D01*
X123704182Y-120753099D01*
X123750000Y-120734120D01*
X123750000Y-121780000D01*
X124499973Y-121780000D01*
X124499985Y-121779999D01*
X124602689Y-121769506D01*
X124602696Y-121769505D01*
X124769118Y-121714358D01*
X124769123Y-121714356D01*
X124918344Y-121622315D01*
X125042315Y-121498344D01*
X125134356Y-121349123D01*
X125134358Y-121349118D01*
X125189505Y-121182696D01*
X125189506Y-121182689D01*
X125199999Y-121079985D01*
X125200000Y-121079972D01*
X125200000Y-120330000D01*
X124154121Y-120330000D01*
X124173099Y-120284182D01*
X124200000Y-120148944D01*
X124200000Y-120011056D01*
X124173099Y-119875818D01*
X124154121Y-119830000D01*
X125200000Y-119830000D01*
X125200000Y-119080027D01*
X125199999Y-119080014D01*
X125189506Y-118977310D01*
X125189505Y-118977303D01*
X125134358Y-118810881D01*
X125134356Y-118810876D01*
X125072441Y-118710496D01*
X125072440Y-118710493D01*
X125042319Y-118661660D01*
X125042316Y-118661656D01*
X124918344Y-118537684D01*
X124769123Y-118445643D01*
X124769118Y-118445641D01*
X124602696Y-118390494D01*
X124602689Y-118390493D01*
X124499985Y-118380000D01*
X123750000Y-118380000D01*
X123750000Y-119425879D01*
X123704182Y-119406901D01*
X123568944Y-119380000D01*
X123431056Y-119380000D01*
X123295818Y-119406901D01*
X123250000Y-119425879D01*
X123250000Y-118380000D01*
X122500014Y-118380000D01*
X122397310Y-118390493D01*
X122397303Y-118390494D01*
X122230881Y-118445641D01*
X122230876Y-118445643D01*
X122081655Y-118537684D01*
X121957684Y-118661655D01*
X121865643Y-118810876D01*
X121865641Y-118810881D01*
X121810494Y-118977303D01*
X121810493Y-118977310D01*
X121800000Y-119080014D01*
X118100500Y-119080014D01*
X118100500Y-116008549D01*
X121799500Y-116008549D01*
X121799500Y-116231458D01*
X121828594Y-116452452D01*
X121828595Y-116452457D01*
X121828596Y-116452463D01*
X121884880Y-116662517D01*
X121886290Y-116667780D01*
X121886293Y-116667790D01*
X121965089Y-116858020D01*
X121971595Y-116873726D01*
X122083052Y-117066774D01*
X122083057Y-117066780D01*
X122083058Y-117066782D01*
X122218751Y-117243622D01*
X122218757Y-117243629D01*
X122376370Y-117401242D01*
X122376376Y-117401247D01*
X122553226Y-117536948D01*
X122746274Y-117648405D01*
X122952219Y-117733710D01*
X123167537Y-117791404D01*
X123388543Y-117820500D01*
X123388550Y-117820500D01*
X123611450Y-117820500D01*
X123611457Y-117820500D01*
X123832463Y-117791404D01*
X124047781Y-117733710D01*
X124253726Y-117648405D01*
X124446774Y-117536948D01*
X124623624Y-117401247D01*
X124672924Y-117351947D01*
X128650000Y-117351947D01*
X128650000Y-117588052D01*
X128686934Y-117821247D01*
X128759897Y-118045802D01*
X128867087Y-118256174D01*
X128927338Y-118339104D01*
X128927340Y-118339105D01*
X129626212Y-117640233D01*
X129637482Y-117682292D01*
X129709890Y-117807708D01*
X129812292Y-117910110D01*
X129937708Y-117982518D01*
X129979765Y-117993787D01*
X129280893Y-118692658D01*
X129363828Y-118752914D01*
X129574197Y-118860102D01*
X129798752Y-118933065D01*
X129798751Y-118933065D01*
X130031948Y-118970000D01*
X130268052Y-118970000D01*
X130501247Y-118933065D01*
X130725802Y-118860102D01*
X130936163Y-118752918D01*
X130936169Y-118752914D01*
X131019104Y-118692658D01*
X131019105Y-118692658D01*
X130320233Y-117993787D01*
X130362292Y-117982518D01*
X130487708Y-117910110D01*
X130590110Y-117807708D01*
X130662518Y-117682292D01*
X130673787Y-117640234D01*
X131372658Y-118339105D01*
X131372658Y-118339104D01*
X131432914Y-118256169D01*
X131432918Y-118256163D01*
X131540102Y-118045802D01*
X131613065Y-117821247D01*
X131650000Y-117588052D01*
X131650000Y-117351947D01*
X131613065Y-117118752D01*
X131540102Y-116894197D01*
X131432914Y-116683828D01*
X131372658Y-116600894D01*
X131372658Y-116600893D01*
X130673787Y-117299765D01*
X130662518Y-117257708D01*
X130590110Y-117132292D01*
X130487708Y-117029890D01*
X130362292Y-116957482D01*
X130320234Y-116946212D01*
X131019105Y-116247340D01*
X131019104Y-116247338D01*
X130936174Y-116187087D01*
X130725802Y-116079897D01*
X130501247Y-116006934D01*
X130501248Y-116006934D01*
X130268052Y-115970000D01*
X130031948Y-115970000D01*
X129798752Y-116006934D01*
X129574197Y-116079897D01*
X129363830Y-116187084D01*
X129280894Y-116247340D01*
X129979766Y-116946212D01*
X129937708Y-116957482D01*
X129812292Y-117029890D01*
X129709890Y-117132292D01*
X129637482Y-117257708D01*
X129626212Y-117299766D01*
X128927340Y-116600894D01*
X128867084Y-116683830D01*
X128759897Y-116894197D01*
X128686934Y-117118752D01*
X128650000Y-117351947D01*
X124672924Y-117351947D01*
X124765478Y-117259394D01*
X124781242Y-117243629D01*
X124781247Y-117243624D01*
X124916948Y-117066774D01*
X125028405Y-116873726D01*
X125113710Y-116667781D01*
X125171404Y-116452463D01*
X125200500Y-116231457D01*
X125200500Y-116008543D01*
X125171404Y-115787537D01*
X125113710Y-115572219D01*
X125028405Y-115366274D01*
X124916948Y-115173226D01*
X124859775Y-115098716D01*
X124781248Y-114996377D01*
X124781242Y-114996370D01*
X124623629Y-114838757D01*
X124623622Y-114838751D01*
X124446782Y-114703058D01*
X124446780Y-114703057D01*
X124446774Y-114703052D01*
X124253726Y-114591595D01*
X124253722Y-114591593D01*
X124047790Y-114506293D01*
X124047783Y-114506291D01*
X124047781Y-114506290D01*
X123832463Y-114448596D01*
X123832457Y-114448595D01*
X123832452Y-114448594D01*
X123611466Y-114419501D01*
X123611463Y-114419500D01*
X123611457Y-114419500D01*
X123388543Y-114419500D01*
X123388537Y-114419500D01*
X123388533Y-114419501D01*
X123167547Y-114448594D01*
X123167540Y-114448595D01*
X123167537Y-114448596D01*
X122992925Y-114495383D01*
X122952219Y-114506290D01*
X122952209Y-114506293D01*
X122746277Y-114591593D01*
X122746273Y-114591595D01*
X122553226Y-114703052D01*
X122553217Y-114703058D01*
X122376377Y-114838751D01*
X122376370Y-114838757D01*
X122218757Y-114996370D01*
X122218751Y-114996377D01*
X122083058Y-115173217D01*
X122083052Y-115173226D01*
X121971595Y-115366273D01*
X121971593Y-115366277D01*
X121886293Y-115572209D01*
X121886290Y-115572219D01*
X121843880Y-115730498D01*
X121828597Y-115787534D01*
X121828594Y-115787547D01*
X121799501Y-116008533D01*
X121799500Y-116008549D01*
X118100500Y-116008549D01*
X118100500Y-112048549D01*
X121799500Y-112048549D01*
X121799500Y-112271458D01*
X121828594Y-112492452D01*
X121828595Y-112492457D01*
X121828596Y-112492463D01*
X121862403Y-112618632D01*
X121886290Y-112707780D01*
X121886293Y-112707790D01*
X121971593Y-112913722D01*
X121971595Y-112913726D01*
X122083052Y-113106774D01*
X122083057Y-113106780D01*
X122083058Y-113106782D01*
X122218751Y-113283622D01*
X122218757Y-113283629D01*
X122376370Y-113441242D01*
X122376377Y-113441248D01*
X122387107Y-113449481D01*
X122553226Y-113576948D01*
X122746274Y-113688405D01*
X122845486Y-113729500D01*
X122910508Y-113756433D01*
X122952219Y-113773710D01*
X123167537Y-113831404D01*
X123388543Y-113860500D01*
X123388550Y-113860500D01*
X123611450Y-113860500D01*
X123611457Y-113860500D01*
X123832463Y-113831404D01*
X124047781Y-113773710D01*
X124253726Y-113688405D01*
X124446774Y-113576948D01*
X124623624Y-113441247D01*
X124781247Y-113283624D01*
X124916948Y-113106774D01*
X125028405Y-112913726D01*
X125054013Y-112851902D01*
X128649500Y-112851902D01*
X128649500Y-113088097D01*
X128686446Y-113321368D01*
X128759433Y-113545996D01*
X128863512Y-113750261D01*
X128866657Y-113756433D01*
X129005483Y-113947510D01*
X129172490Y-114114517D01*
X129363567Y-114253343D01*
X129456114Y-114300498D01*
X129574003Y-114360566D01*
X129574005Y-114360566D01*
X129574008Y-114360568D01*
X129694412Y-114399689D01*
X129798631Y-114433553D01*
X130031903Y-114470500D01*
X130031908Y-114470500D01*
X130268097Y-114470500D01*
X130501368Y-114433553D01*
X130544615Y-114419501D01*
X130725992Y-114360568D01*
X130936433Y-114253343D01*
X131127510Y-114114517D01*
X131294517Y-113947510D01*
X131433343Y-113756433D01*
X131536630Y-113553719D01*
X131540566Y-113545996D01*
X131540566Y-113545995D01*
X131540568Y-113545992D01*
X131613553Y-113321368D01*
X131625491Y-113245996D01*
X131650500Y-113088097D01*
X131650500Y-112851902D01*
X131613553Y-112618631D01*
X131540566Y-112394003D01*
X131433342Y-112183566D01*
X131294517Y-111992490D01*
X131127510Y-111825483D01*
X130936433Y-111686657D01*
X130725996Y-111579433D01*
X130501368Y-111506446D01*
X130268097Y-111469500D01*
X130268092Y-111469500D01*
X130031908Y-111469500D01*
X130031903Y-111469500D01*
X129798631Y-111506446D01*
X129574003Y-111579433D01*
X129363566Y-111686657D01*
X129254550Y-111765862D01*
X129172490Y-111825483D01*
X129172488Y-111825485D01*
X129172487Y-111825485D01*
X129005485Y-111992487D01*
X129005485Y-111992488D01*
X129005483Y-111992490D01*
X128962087Y-112052219D01*
X128866657Y-112183566D01*
X128759433Y-112394003D01*
X128686446Y-112618631D01*
X128649500Y-112851902D01*
X125054013Y-112851902D01*
X125071293Y-112810185D01*
X125075685Y-112799583D01*
X125075685Y-112799581D01*
X125076555Y-112797482D01*
X125112184Y-112711466D01*
X125113704Y-112707796D01*
X125113706Y-112707790D01*
X125113710Y-112707781D01*
X125171404Y-112492463D01*
X125200500Y-112271457D01*
X125200500Y-112048543D01*
X125171404Y-111827537D01*
X125113710Y-111612219D01*
X125028405Y-111406274D01*
X124916948Y-111213226D01*
X124830962Y-111101166D01*
X124781248Y-111036377D01*
X124781242Y-111036370D01*
X124623629Y-110878757D01*
X124623622Y-110878751D01*
X124446782Y-110743058D01*
X124446780Y-110743057D01*
X124446774Y-110743052D01*
X124253726Y-110631595D01*
X124253722Y-110631593D01*
X124047790Y-110546293D01*
X124047783Y-110546291D01*
X124047781Y-110546290D01*
X123832463Y-110488596D01*
X123832457Y-110488595D01*
X123832452Y-110488594D01*
X123611466Y-110459501D01*
X123611463Y-110459500D01*
X123611457Y-110459500D01*
X123388543Y-110459500D01*
X123388537Y-110459500D01*
X123388533Y-110459501D01*
X123167547Y-110488594D01*
X123167540Y-110488595D01*
X123167537Y-110488596D01*
X122952219Y-110546290D01*
X122952209Y-110546293D01*
X122746277Y-110631593D01*
X122746273Y-110631595D01*
X122553226Y-110743052D01*
X122553217Y-110743058D01*
X122376377Y-110878751D01*
X122376370Y-110878757D01*
X122218757Y-111036370D01*
X122218751Y-111036377D01*
X122083058Y-111213217D01*
X122083052Y-111213226D01*
X121971595Y-111406273D01*
X121971593Y-111406277D01*
X121886293Y-111612209D01*
X121886290Y-111612219D01*
X121829147Y-111825483D01*
X121828597Y-111827534D01*
X121828594Y-111827547D01*
X121799501Y-112048533D01*
X121799500Y-112048549D01*
X118100500Y-112048549D01*
X118100500Y-108088549D01*
X121799500Y-108088549D01*
X121799500Y-108311458D01*
X121828594Y-108532452D01*
X121828595Y-108532457D01*
X121828596Y-108532463D01*
X121865230Y-108669184D01*
X121886290Y-108747780D01*
X121886293Y-108747790D01*
X121971593Y-108953722D01*
X121971595Y-108953726D01*
X122083052Y-109146774D01*
X122083057Y-109146780D01*
X122083058Y-109146782D01*
X122218751Y-109323622D01*
X122218757Y-109323629D01*
X122376370Y-109481242D01*
X122376377Y-109481248D01*
X122427530Y-109520499D01*
X122553226Y-109616948D01*
X122746274Y-109728405D01*
X122952219Y-109813710D01*
X123167537Y-109871404D01*
X123388543Y-109900500D01*
X123388550Y-109900500D01*
X123611450Y-109900500D01*
X123611457Y-109900500D01*
X123832463Y-109871404D01*
X124047781Y-109813710D01*
X124253726Y-109728405D01*
X124446774Y-109616948D01*
X124623624Y-109481247D01*
X124781247Y-109323624D01*
X124916948Y-109146774D01*
X125028405Y-108953726D01*
X125113710Y-108747781D01*
X125171404Y-108532463D01*
X125200500Y-108311457D01*
X125200500Y-108088543D01*
X125171404Y-107867537D01*
X125113710Y-107652219D01*
X125112776Y-107649965D01*
X125064667Y-107533818D01*
X125028405Y-107446274D01*
X124916948Y-107253226D01*
X124853712Y-107170815D01*
X124781248Y-107076377D01*
X124781242Y-107076370D01*
X124623629Y-106918757D01*
X124623622Y-106918751D01*
X124446782Y-106783058D01*
X124446780Y-106783057D01*
X124446774Y-106783052D01*
X124253726Y-106671595D01*
X124253722Y-106671593D01*
X124047790Y-106586293D01*
X124047783Y-106586291D01*
X124047781Y-106586290D01*
X123832463Y-106528596D01*
X123832457Y-106528595D01*
X123832452Y-106528594D01*
X123611466Y-106499501D01*
X123611463Y-106499500D01*
X123611457Y-106499500D01*
X123388543Y-106499500D01*
X123388537Y-106499500D01*
X123388533Y-106499501D01*
X123167547Y-106528594D01*
X123167540Y-106528595D01*
X123167537Y-106528596D01*
X122990469Y-106576041D01*
X122952219Y-106586290D01*
X122952209Y-106586293D01*
X122746277Y-106671593D01*
X122746273Y-106671595D01*
X122553226Y-106783052D01*
X122553217Y-106783058D01*
X122376377Y-106918751D01*
X122376370Y-106918757D01*
X122218757Y-107076370D01*
X122218751Y-107076377D01*
X122083058Y-107253217D01*
X122083052Y-107253226D01*
X121971595Y-107446273D01*
X121971593Y-107446277D01*
X121886293Y-107652209D01*
X121886290Y-107652219D01*
X121870730Y-107710292D01*
X121828597Y-107867534D01*
X121828594Y-107867547D01*
X121799501Y-108088533D01*
X121799500Y-108088549D01*
X118100500Y-108088549D01*
X118100500Y-104128549D01*
X121799500Y-104128549D01*
X121799500Y-104351458D01*
X121828594Y-104572452D01*
X121828595Y-104572457D01*
X121828596Y-104572463D01*
X121886259Y-104787665D01*
X121886290Y-104787780D01*
X121886293Y-104787790D01*
X121937344Y-104911037D01*
X121971595Y-104993726D01*
X122083052Y-105186774D01*
X122083057Y-105186780D01*
X122083058Y-105186782D01*
X122218751Y-105363622D01*
X122218757Y-105363629D01*
X122376370Y-105521242D01*
X122376377Y-105521248D01*
X122477943Y-105599182D01*
X122553226Y-105656948D01*
X122746274Y-105768405D01*
X122853050Y-105812633D01*
X122919018Y-105839958D01*
X122952219Y-105853710D01*
X123167537Y-105911404D01*
X123388543Y-105940500D01*
X123388550Y-105940500D01*
X123611450Y-105940500D01*
X123611457Y-105940500D01*
X123832463Y-105911404D01*
X124047781Y-105853710D01*
X124253726Y-105768405D01*
X124446774Y-105656948D01*
X124623624Y-105521247D01*
X124781247Y-105363624D01*
X124916948Y-105186774D01*
X125028405Y-104993726D01*
X125113710Y-104787781D01*
X125171404Y-104572463D01*
X125200500Y-104351457D01*
X125200500Y-104128543D01*
X125182635Y-103992844D01*
X128825000Y-103992844D01*
X128831401Y-104052372D01*
X128831403Y-104052379D01*
X128881645Y-104187086D01*
X128881649Y-104187093D01*
X128967809Y-104302187D01*
X128967812Y-104302190D01*
X129082906Y-104388350D01*
X129082913Y-104388354D01*
X129217620Y-104438596D01*
X129217627Y-104438598D01*
X129277155Y-104444999D01*
X129277172Y-104445000D01*
X130200000Y-104445000D01*
X130700000Y-104445000D01*
X131622828Y-104445000D01*
X131622844Y-104444999D01*
X131682372Y-104438598D01*
X131682379Y-104438596D01*
X131817086Y-104388354D01*
X131817093Y-104388350D01*
X131932187Y-104302190D01*
X131932190Y-104302187D01*
X132018350Y-104187093D01*
X132018354Y-104187086D01*
X132068596Y-104052379D01*
X132068598Y-104052372D01*
X132074999Y-103992844D01*
X132075000Y-103992827D01*
X132075000Y-103645000D01*
X130700000Y-103645000D01*
X130700000Y-104445000D01*
X130200000Y-104445000D01*
X130200000Y-103645000D01*
X128825000Y-103645000D01*
X128825000Y-103992844D01*
X125182635Y-103992844D01*
X125171404Y-103907537D01*
X125113710Y-103692219D01*
X125069919Y-103586498D01*
X125028409Y-103486282D01*
X125028404Y-103486273D01*
X125028256Y-103486016D01*
X124916948Y-103293226D01*
X124844041Y-103198211D01*
X124781248Y-103116377D01*
X124781242Y-103116370D01*
X124623629Y-102958757D01*
X124623622Y-102958751D01*
X124446782Y-102823058D01*
X124446780Y-102823057D01*
X124446774Y-102823052D01*
X124253726Y-102711595D01*
X124253722Y-102711593D01*
X124047790Y-102626293D01*
X124047783Y-102626291D01*
X124047781Y-102626290D01*
X123832463Y-102568596D01*
X123832457Y-102568595D01*
X123832452Y-102568594D01*
X123611466Y-102539501D01*
X123611463Y-102539500D01*
X123611457Y-102539500D01*
X123388543Y-102539500D01*
X123388537Y-102539500D01*
X123388533Y-102539501D01*
X123167547Y-102568594D01*
X123167540Y-102568595D01*
X123167537Y-102568596D01*
X123052201Y-102599500D01*
X122952219Y-102626290D01*
X122952209Y-102626293D01*
X122746277Y-102711593D01*
X122746273Y-102711595D01*
X122553226Y-102823052D01*
X122553217Y-102823058D01*
X122376377Y-102958751D01*
X122376370Y-102958757D01*
X122218757Y-103116370D01*
X122218751Y-103116377D01*
X122083058Y-103293217D01*
X122083052Y-103293226D01*
X121971593Y-103486275D01*
X121886293Y-103692209D01*
X121886290Y-103692219D01*
X121831095Y-103898213D01*
X121828597Y-103907534D01*
X121828594Y-103907547D01*
X121799501Y-104128533D01*
X121799500Y-104128549D01*
X118100500Y-104128549D01*
X118100500Y-100168549D01*
X121799500Y-100168549D01*
X121799500Y-100391458D01*
X121828594Y-100612452D01*
X121828595Y-100612457D01*
X121828596Y-100612463D01*
X121866488Y-100753877D01*
X121886290Y-100827780D01*
X121886293Y-100827790D01*
X121964640Y-101016936D01*
X121971595Y-101033726D01*
X122083052Y-101226774D01*
X122083057Y-101226780D01*
X122083058Y-101226782D01*
X122218751Y-101403622D01*
X122218757Y-101403629D01*
X122376370Y-101561242D01*
X122376377Y-101561248D01*
X122433940Y-101605417D01*
X122553226Y-101696948D01*
X122746274Y-101808405D01*
X122868885Y-101859192D01*
X122934836Y-101886510D01*
X122952219Y-101893710D01*
X123167537Y-101951404D01*
X123388543Y-101980500D01*
X123388550Y-101980500D01*
X123611450Y-101980500D01*
X123611457Y-101980500D01*
X123832463Y-101951404D01*
X124047781Y-101893710D01*
X124253726Y-101808405D01*
X124446774Y-101696948D01*
X124623624Y-101561247D01*
X124781247Y-101403624D01*
X124916948Y-101226774D01*
X125028405Y-101033726D01*
X125113710Y-100827781D01*
X125171404Y-100612463D01*
X125200500Y-100391457D01*
X125200500Y-100168543D01*
X125171404Y-99947537D01*
X125113710Y-99732219D01*
X125028405Y-99526274D01*
X124916948Y-99333226D01*
X124855179Y-99252726D01*
X124781248Y-99156377D01*
X124781242Y-99156370D01*
X124623629Y-98998757D01*
X124623622Y-98998751D01*
X124446782Y-98863058D01*
X124446780Y-98863057D01*
X124446774Y-98863052D01*
X124253726Y-98751595D01*
X124253722Y-98751593D01*
X124047790Y-98666293D01*
X124047783Y-98666291D01*
X124047781Y-98666290D01*
X123832463Y-98608596D01*
X123832457Y-98608595D01*
X123832452Y-98608594D01*
X123611466Y-98579501D01*
X123611463Y-98579500D01*
X123611457Y-98579500D01*
X123388543Y-98579500D01*
X123388537Y-98579500D01*
X123388533Y-98579501D01*
X123167547Y-98608594D01*
X123167540Y-98608595D01*
X123167537Y-98608596D01*
X122995944Y-98654574D01*
X122952219Y-98666290D01*
X122952209Y-98666293D01*
X122746277Y-98751593D01*
X122746273Y-98751595D01*
X122553226Y-98863052D01*
X122553217Y-98863058D01*
X122376377Y-98998751D01*
X122376370Y-98998757D01*
X122218757Y-99156370D01*
X122218751Y-99156377D01*
X122083058Y-99333217D01*
X122083052Y-99333226D01*
X121971595Y-99526273D01*
X121971593Y-99526277D01*
X121886293Y-99732209D01*
X121886290Y-99732219D01*
X121833458Y-99929394D01*
X121828597Y-99947534D01*
X121828594Y-99947547D01*
X121799501Y-100168533D01*
X121799500Y-100168549D01*
X118100500Y-100168549D01*
X118100500Y-96208549D01*
X121799500Y-96208549D01*
X121799500Y-96431458D01*
X121828594Y-96652452D01*
X121828595Y-96652457D01*
X121828596Y-96652463D01*
X121882396Y-96853247D01*
X121886290Y-96867780D01*
X121886293Y-96867790D01*
X121971593Y-97073722D01*
X121971595Y-97073726D01*
X122083052Y-97266774D01*
X122083057Y-97266780D01*
X122083058Y-97266782D01*
X122218751Y-97443622D01*
X122218757Y-97443629D01*
X122376370Y-97601242D01*
X122376377Y-97601248D01*
X122422989Y-97637014D01*
X122553226Y-97736948D01*
X122746274Y-97848405D01*
X122952219Y-97933710D01*
X123167537Y-97991404D01*
X123388543Y-98020500D01*
X123388550Y-98020500D01*
X123611450Y-98020500D01*
X123611457Y-98020500D01*
X123832463Y-97991404D01*
X124047781Y-97933710D01*
X124253726Y-97848405D01*
X124446774Y-97736948D01*
X124623624Y-97601247D01*
X124781247Y-97443624D01*
X124916948Y-97266774D01*
X125028405Y-97073726D01*
X125113710Y-96867781D01*
X125171404Y-96652463D01*
X125196204Y-96464088D01*
X125200500Y-96431458D01*
X125200500Y-96208549D01*
X125200500Y-96208543D01*
X125171404Y-95987537D01*
X125113710Y-95772219D01*
X125105953Y-95753493D01*
X125063575Y-95651183D01*
X125028405Y-95566274D01*
X124916948Y-95373226D01*
X124850407Y-95286508D01*
X124781248Y-95196377D01*
X124781242Y-95196370D01*
X124623629Y-95038757D01*
X124623622Y-95038751D01*
X124446782Y-94903058D01*
X124446780Y-94903057D01*
X124446774Y-94903052D01*
X124253726Y-94791595D01*
X124253722Y-94791593D01*
X124047790Y-94706293D01*
X124047783Y-94706291D01*
X124047781Y-94706290D01*
X123832463Y-94648596D01*
X123832457Y-94648595D01*
X123832452Y-94648594D01*
X123611466Y-94619501D01*
X123611463Y-94619500D01*
X123611457Y-94619500D01*
X123388543Y-94619500D01*
X123388537Y-94619500D01*
X123388533Y-94619501D01*
X123167547Y-94648594D01*
X123167540Y-94648595D01*
X123167537Y-94648596D01*
X123015474Y-94689341D01*
X122952219Y-94706290D01*
X122952209Y-94706293D01*
X122746277Y-94791593D01*
X122746273Y-94791595D01*
X122553226Y-94903052D01*
X122553217Y-94903058D01*
X122376377Y-95038751D01*
X122376370Y-95038757D01*
X122218757Y-95196370D01*
X122218751Y-95196377D01*
X122083058Y-95373217D01*
X122083052Y-95373226D01*
X121971595Y-95566273D01*
X121971593Y-95566277D01*
X121886293Y-95772209D01*
X121886290Y-95772219D01*
X121830838Y-95979172D01*
X121828597Y-95987534D01*
X121828594Y-95987547D01*
X121799501Y-96208533D01*
X121799500Y-96208549D01*
X118100500Y-96208549D01*
X118100500Y-92248549D01*
X121799500Y-92248549D01*
X121799500Y-92471458D01*
X121828594Y-92692452D01*
X121828595Y-92692457D01*
X121828596Y-92692463D01*
X121886290Y-92907780D01*
X121886293Y-92907790D01*
X121923747Y-92998211D01*
X121971595Y-93113726D01*
X122083052Y-93306774D01*
X122083057Y-93306780D01*
X122083058Y-93306782D01*
X122218751Y-93483622D01*
X122218757Y-93483629D01*
X122376370Y-93641242D01*
X122376377Y-93641248D01*
X122446122Y-93694765D01*
X122553226Y-93776948D01*
X122746274Y-93888405D01*
X122952219Y-93973710D01*
X123167537Y-94031404D01*
X123388543Y-94060500D01*
X123388550Y-94060500D01*
X123611450Y-94060500D01*
X123611457Y-94060500D01*
X123832463Y-94031404D01*
X124047781Y-93973710D01*
X124253726Y-93888405D01*
X124446774Y-93776948D01*
X124623624Y-93641247D01*
X124781247Y-93483624D01*
X124916948Y-93306774D01*
X125028405Y-93113726D01*
X125113710Y-92907781D01*
X125171404Y-92692463D01*
X125200500Y-92471457D01*
X125200500Y-92248543D01*
X125171404Y-92027537D01*
X125113710Y-91812219D01*
X125028405Y-91606274D01*
X124916948Y-91413226D01*
X124829925Y-91299815D01*
X124781248Y-91236377D01*
X124781242Y-91236370D01*
X124623629Y-91078757D01*
X124623622Y-91078751D01*
X124446782Y-90943058D01*
X124446780Y-90943057D01*
X124446774Y-90943052D01*
X124253726Y-90831595D01*
X124253722Y-90831593D01*
X124047790Y-90746293D01*
X124047783Y-90746291D01*
X124047781Y-90746290D01*
X123832463Y-90688596D01*
X123832457Y-90688595D01*
X123832452Y-90688594D01*
X123611466Y-90659501D01*
X123611463Y-90659500D01*
X123611457Y-90659500D01*
X123388543Y-90659500D01*
X123388537Y-90659500D01*
X123388533Y-90659501D01*
X123167547Y-90688594D01*
X123167540Y-90688595D01*
X123167537Y-90688596D01*
X123164757Y-90689341D01*
X122952219Y-90746290D01*
X122952209Y-90746293D01*
X122746277Y-90831593D01*
X122746273Y-90831595D01*
X122553226Y-90943052D01*
X122553217Y-90943058D01*
X122376377Y-91078751D01*
X122376370Y-91078757D01*
X122218757Y-91236370D01*
X122218751Y-91236377D01*
X122083058Y-91413217D01*
X122083052Y-91413226D01*
X121971595Y-91606273D01*
X121971593Y-91606277D01*
X121886293Y-91812209D01*
X121886290Y-91812219D01*
X121828597Y-92027534D01*
X121828594Y-92027547D01*
X121799501Y-92248533D01*
X121799500Y-92248549D01*
X118100500Y-92248549D01*
X118100500Y-82421153D01*
X127399500Y-82421153D01*
X127399500Y-82578844D01*
X127430261Y-82733489D01*
X127430263Y-82733497D01*
X127490602Y-82879172D01*
X127490609Y-82879185D01*
X127578210Y-83010288D01*
X127578213Y-83010292D01*
X127689710Y-83121789D01*
X127779869Y-83182031D01*
X127820821Y-83209394D01*
X127844475Y-83219191D01*
X127884703Y-83246071D01*
X129453926Y-84815293D01*
X129480805Y-84855519D01*
X129490603Y-84879172D01*
X129490606Y-84879178D01*
X129490609Y-84879185D01*
X129578210Y-85010288D01*
X129578213Y-85010292D01*
X129689707Y-85121786D01*
X129689711Y-85121789D01*
X129820814Y-85209390D01*
X129820827Y-85209397D01*
X129966498Y-85269735D01*
X129966503Y-85269737D01*
X130121153Y-85300499D01*
X130121156Y-85300500D01*
X130121158Y-85300500D01*
X130278844Y-85300500D01*
X130278845Y-85300499D01*
X130433497Y-85269737D01*
X130579179Y-85209394D01*
X130710289Y-85121789D01*
X130821789Y-85010289D01*
X130909394Y-84879179D01*
X130969737Y-84733497D01*
X131000500Y-84578842D01*
X131000500Y-84421158D01*
X131000500Y-84421155D01*
X131000499Y-84421153D01*
X130994467Y-84390827D01*
X130969737Y-84266503D01*
X130948053Y-84214152D01*
X130909397Y-84120827D01*
X130909390Y-84120814D01*
X130821789Y-83989711D01*
X130821786Y-83989707D01*
X130710292Y-83878213D01*
X130710288Y-83878210D01*
X130579185Y-83790609D01*
X130579180Y-83790607D01*
X130579179Y-83790606D01*
X130555519Y-83780805D01*
X130515293Y-83753926D01*
X128946071Y-82184703D01*
X128919191Y-82144475D01*
X128909394Y-82120821D01*
X128882997Y-82081315D01*
X128821789Y-81989710D01*
X128710292Y-81878213D01*
X128710288Y-81878210D01*
X128579185Y-81790609D01*
X128579172Y-81790602D01*
X128433501Y-81730264D01*
X128433489Y-81730261D01*
X128278845Y-81699500D01*
X128278842Y-81699500D01*
X128121158Y-81699500D01*
X128121155Y-81699500D01*
X127966510Y-81730261D01*
X127966498Y-81730264D01*
X127820827Y-81790602D01*
X127820814Y-81790609D01*
X127689711Y-81878210D01*
X127689707Y-81878213D01*
X127578213Y-81989707D01*
X127578210Y-81989711D01*
X127490609Y-82120814D01*
X127490602Y-82120827D01*
X127430264Y-82266498D01*
X127430261Y-82266510D01*
X127399500Y-82421153D01*
X118100500Y-82421153D01*
X118100500Y-75697844D01*
X121025000Y-75697844D01*
X121031401Y-75757372D01*
X121031403Y-75757379D01*
X121081645Y-75892086D01*
X121081649Y-75892093D01*
X121167809Y-76007187D01*
X121167812Y-76007190D01*
X121282906Y-76093350D01*
X121282913Y-76093354D01*
X121417620Y-76143596D01*
X121417627Y-76143598D01*
X121477155Y-76149999D01*
X121477172Y-76150000D01*
X122750000Y-76150000D01*
X122750000Y-75903553D01*
X122749999Y-75903552D01*
X123250000Y-75903552D01*
X123250000Y-76150000D01*
X124522828Y-76150000D01*
X124522844Y-76149999D01*
X124582372Y-76143598D01*
X124582379Y-76143596D01*
X124717086Y-76093354D01*
X124717093Y-76093350D01*
X124832187Y-76007190D01*
X124832190Y-76007187D01*
X124918350Y-75892093D01*
X124918354Y-75892086D01*
X124968596Y-75757379D01*
X124968598Y-75757372D01*
X124974999Y-75697844D01*
X124975000Y-75697827D01*
X124975000Y-73650000D01*
X124403552Y-73650000D01*
X123953553Y-74100000D01*
X124346704Y-74493151D01*
X124380189Y-74554474D01*
X124375205Y-74624166D01*
X124365218Y-74639705D01*
X124365218Y-74665391D01*
X124380188Y-74692806D01*
X124375206Y-74762497D01*
X124346704Y-74806848D01*
X123776777Y-75376777D01*
X123250000Y-75903552D01*
X122749999Y-75903552D01*
X122223223Y-75376777D01*
X122016609Y-75170163D01*
X122250000Y-75170163D01*
X122250000Y-75229837D01*
X122272836Y-75284968D01*
X122315032Y-75327164D01*
X122370163Y-75350000D01*
X122429837Y-75350000D01*
X122484968Y-75327164D01*
X122527164Y-75284968D01*
X122550000Y-75229837D01*
X122550000Y-75170163D01*
X123450000Y-75170163D01*
X123450000Y-75229837D01*
X123472836Y-75284968D01*
X123515032Y-75327164D01*
X123570163Y-75350000D01*
X123629837Y-75350000D01*
X123684968Y-75327164D01*
X123727164Y-75284968D01*
X123750000Y-75229837D01*
X123750000Y-75170163D01*
X123727164Y-75115032D01*
X123684968Y-75072836D01*
X123629837Y-75050000D01*
X123570163Y-75050000D01*
X123515032Y-75072836D01*
X123472836Y-75115032D01*
X123450000Y-75170163D01*
X122550000Y-75170163D01*
X122527164Y-75115032D01*
X122484968Y-75072836D01*
X122429837Y-75050000D01*
X122370163Y-75050000D01*
X122315032Y-75072836D01*
X122272836Y-75115032D01*
X122250000Y-75170163D01*
X122016609Y-75170163D01*
X121653294Y-74806848D01*
X121619809Y-74745525D01*
X121618306Y-74701045D01*
X121625847Y-74649999D01*
X122203553Y-74649999D01*
X122400000Y-74846446D01*
X122596446Y-74650001D01*
X122596446Y-74650000D01*
X122596445Y-74649999D01*
X123403553Y-74649999D01*
X123600000Y-74846446D01*
X123796446Y-74650001D01*
X123796446Y-74650000D01*
X123600000Y-74453553D01*
X123403553Y-74649999D01*
X122596445Y-74649999D01*
X122400000Y-74453553D01*
X122203553Y-74649999D01*
X121625847Y-74649999D01*
X121629539Y-74625008D01*
X121619810Y-74607191D01*
X121624794Y-74537499D01*
X121653295Y-74493152D01*
X122046446Y-74100001D01*
X122046446Y-74099999D01*
X122016610Y-74070163D01*
X122250000Y-74070163D01*
X122250000Y-74129837D01*
X122272836Y-74184968D01*
X122315032Y-74227164D01*
X122370163Y-74250000D01*
X122429837Y-74250000D01*
X122484968Y-74227164D01*
X122527164Y-74184968D01*
X122550000Y-74129837D01*
X122550000Y-74070163D01*
X123450000Y-74070163D01*
X123450000Y-74129837D01*
X123472836Y-74184968D01*
X123515032Y-74227164D01*
X123570163Y-74250000D01*
X123629837Y-74250000D01*
X123684968Y-74227164D01*
X123727164Y-74184968D01*
X123750000Y-74129837D01*
X123750000Y-74070163D01*
X123727164Y-74015032D01*
X123684968Y-73972836D01*
X123629837Y-73950000D01*
X123570163Y-73950000D01*
X123515032Y-73972836D01*
X123472836Y-74015032D01*
X123450000Y-74070163D01*
X122550000Y-74070163D01*
X122527164Y-74015032D01*
X122484968Y-73972836D01*
X122429837Y-73950000D01*
X122370163Y-73950000D01*
X122315032Y-73972836D01*
X122272836Y-74015032D01*
X122250000Y-74070163D01*
X122016610Y-74070163D01*
X121596447Y-73650000D01*
X122303553Y-73650000D01*
X122400000Y-73746446D01*
X122496446Y-73650000D01*
X123503553Y-73650000D01*
X123600000Y-73746446D01*
X123696446Y-73650000D01*
X123503553Y-73650000D01*
X122496446Y-73650000D01*
X122303553Y-73650000D01*
X121596447Y-73650000D01*
X121025000Y-73650000D01*
X121025000Y-75697844D01*
X118100500Y-75697844D01*
X118100500Y-71102155D01*
X121025000Y-71102155D01*
X121025000Y-73150000D01*
X121696447Y-73150000D01*
X121696447Y-73149999D01*
X122046446Y-72800000D01*
X122016609Y-72770163D01*
X122250000Y-72770163D01*
X122250000Y-72829837D01*
X122272836Y-72884968D01*
X122315032Y-72927164D01*
X122370163Y-72950000D01*
X122429837Y-72950000D01*
X122484968Y-72927164D01*
X122527164Y-72884968D01*
X122550000Y-72829837D01*
X122550000Y-72770163D01*
X123450000Y-72770163D01*
X123450000Y-72829837D01*
X123472836Y-72884968D01*
X123515032Y-72927164D01*
X123570163Y-72950000D01*
X123629837Y-72950000D01*
X123684968Y-72927164D01*
X123727164Y-72884968D01*
X123750000Y-72829837D01*
X123750000Y-72770163D01*
X123727164Y-72715032D01*
X123684968Y-72672836D01*
X123629837Y-72650000D01*
X123570163Y-72650000D01*
X123515032Y-72672836D01*
X123472836Y-72715032D01*
X123450000Y-72770163D01*
X122550000Y-72770163D01*
X122527164Y-72715032D01*
X122484968Y-72672836D01*
X122429837Y-72650000D01*
X122370163Y-72650000D01*
X122315032Y-72672836D01*
X122272836Y-72715032D01*
X122250000Y-72770163D01*
X122016609Y-72770163D01*
X121653294Y-72406848D01*
X121619809Y-72345525D01*
X121624793Y-72275833D01*
X121625750Y-72273351D01*
X121654916Y-72199999D01*
X122153553Y-72199999D01*
X122400000Y-72446446D01*
X122646446Y-72200001D01*
X122646446Y-72200000D01*
X122646445Y-72199999D01*
X123353553Y-72199999D01*
X123600000Y-72446446D01*
X123846446Y-72200001D01*
X123846446Y-72200000D01*
X123600000Y-71953553D01*
X123353553Y-72199999D01*
X122646445Y-72199999D01*
X122400000Y-71953553D01*
X122153553Y-72199999D01*
X121654916Y-72199999D01*
X121663412Y-72178631D01*
X121653294Y-72168513D01*
X121619809Y-72107190D01*
X121624793Y-72037498D01*
X121653294Y-71993151D01*
X122076283Y-71570163D01*
X122250000Y-71570163D01*
X122250000Y-71629837D01*
X122272836Y-71684968D01*
X122315032Y-71727164D01*
X122370163Y-71750000D01*
X122429837Y-71750000D01*
X122484968Y-71727164D01*
X122527164Y-71684968D01*
X122550000Y-71629837D01*
X122550000Y-71570163D01*
X123450000Y-71570163D01*
X123450000Y-71629837D01*
X123472836Y-71684968D01*
X123515032Y-71727164D01*
X123570163Y-71750000D01*
X123629837Y-71750000D01*
X123684968Y-71727164D01*
X123727164Y-71684968D01*
X123750000Y-71629837D01*
X123750000Y-71570163D01*
X123727164Y-71515032D01*
X123684968Y-71472836D01*
X123629837Y-71450000D01*
X123570163Y-71450000D01*
X123515032Y-71472836D01*
X123472836Y-71515032D01*
X123450000Y-71570163D01*
X122550000Y-71570163D01*
X122527164Y-71515032D01*
X122484968Y-71472836D01*
X122429837Y-71450000D01*
X122370163Y-71450000D01*
X122315032Y-71472836D01*
X122272836Y-71515032D01*
X122250000Y-71570163D01*
X122076283Y-71570163D01*
X122223223Y-71423223D01*
X122749999Y-70896446D01*
X123250000Y-70896446D01*
X123776777Y-71423223D01*
X124346704Y-71993151D01*
X124380189Y-72054474D01*
X124383023Y-72080832D01*
X124383023Y-72319167D01*
X124376784Y-72340412D01*
X124375205Y-72362500D01*
X124366171Y-72376556D01*
X124363338Y-72386206D01*
X124355737Y-72392792D01*
X124346704Y-72406848D01*
X123953553Y-72799999D01*
X123953553Y-72800000D01*
X124303553Y-73150000D01*
X124975000Y-73150000D01*
X124975000Y-71102172D01*
X124974999Y-71102155D01*
X124968598Y-71042627D01*
X124968596Y-71042620D01*
X124918354Y-70907913D01*
X124918350Y-70907906D01*
X124832190Y-70792812D01*
X124832187Y-70792809D01*
X124717093Y-70706649D01*
X124717086Y-70706645D01*
X124582379Y-70656403D01*
X124582372Y-70656401D01*
X124522844Y-70650000D01*
X123250000Y-70650000D01*
X123250000Y-70896446D01*
X122749999Y-70896446D01*
X122750000Y-70896445D01*
X122750000Y-70650000D01*
X121477155Y-70650000D01*
X121417627Y-70656401D01*
X121417620Y-70656403D01*
X121282913Y-70706645D01*
X121282906Y-70706649D01*
X121167812Y-70792809D01*
X121167809Y-70792812D01*
X121081649Y-70907906D01*
X121081645Y-70907913D01*
X121031403Y-71042620D01*
X121031401Y-71042627D01*
X121025000Y-71102155D01*
X118100500Y-71102155D01*
X118100500Y-70087513D01*
X128200000Y-70087513D01*
X128200000Y-71137500D01*
X129599999Y-71137500D01*
X129574979Y-71197902D01*
X129550000Y-71323481D01*
X129550000Y-71451519D01*
X129574979Y-71577098D01*
X129599999Y-71637500D01*
X128200001Y-71637500D01*
X128200001Y-72687486D01*
X128210494Y-72790196D01*
X128210494Y-72790198D01*
X128265640Y-72956619D01*
X128265645Y-72956630D01*
X128357680Y-73105840D01*
X128357683Y-73105844D01*
X128481655Y-73229816D01*
X128481659Y-73229819D01*
X128630869Y-73321854D01*
X128630880Y-73321859D01*
X128797302Y-73377005D01*
X128900020Y-73387499D01*
X129949999Y-73387499D01*
X129950000Y-73387498D01*
X129950000Y-71987501D01*
X130010402Y-72012521D01*
X130135981Y-72037500D01*
X130264019Y-72037500D01*
X130389598Y-72012521D01*
X130450000Y-71987501D01*
X130450000Y-73387499D01*
X131499972Y-73387499D01*
X131499986Y-73387498D01*
X131602696Y-73377005D01*
X131602698Y-73377005D01*
X131769119Y-73321859D01*
X131769130Y-73321854D01*
X131918340Y-73229819D01*
X131918344Y-73229816D01*
X132042316Y-73105844D01*
X132042319Y-73105840D01*
X132134354Y-72956630D01*
X132134359Y-72956619D01*
X132189505Y-72790197D01*
X132199999Y-72687486D01*
X132200000Y-72687473D01*
X132200000Y-71637500D01*
X130800001Y-71637500D01*
X130825021Y-71577098D01*
X130850000Y-71451519D01*
X130850000Y-71323481D01*
X130836651Y-71256372D01*
X133199500Y-71256372D01*
X133199500Y-71518627D01*
X133217614Y-71656206D01*
X133233730Y-71778616D01*
X133301602Y-72031918D01*
X133301605Y-72031928D01*
X133401953Y-72274190D01*
X133401958Y-72274200D01*
X133533075Y-72501303D01*
X133692718Y-72709351D01*
X133692726Y-72709360D01*
X133878140Y-72894774D01*
X133878148Y-72894781D01*
X134086196Y-73054424D01*
X134313299Y-73185541D01*
X134313309Y-73185546D01*
X134555571Y-73285894D01*
X134555581Y-73285898D01*
X134808884Y-73353770D01*
X135057188Y-73386460D01*
X135065074Y-73387499D01*
X135068880Y-73388000D01*
X135068887Y-73388000D01*
X135331113Y-73388000D01*
X135331120Y-73388000D01*
X135591116Y-73353770D01*
X135844419Y-73285898D01*
X136086697Y-73185543D01*
X136313803Y-73054424D01*
X136521851Y-72894782D01*
X136521855Y-72894777D01*
X136521860Y-72894774D01*
X136707274Y-72709360D01*
X136707277Y-72709355D01*
X136707282Y-72709351D01*
X136866924Y-72501303D01*
X136998043Y-72274197D01*
X136998394Y-72273351D01*
X137067220Y-72107190D01*
X137098398Y-72031919D01*
X137166270Y-71778616D01*
X137200500Y-71518620D01*
X137200500Y-71256380D01*
X137192135Y-71192844D01*
X150700000Y-71192844D01*
X150706401Y-71252372D01*
X150706403Y-71252379D01*
X150756645Y-71387086D01*
X150756649Y-71387093D01*
X150842809Y-71502187D01*
X150842812Y-71502190D01*
X150957906Y-71588350D01*
X150957913Y-71588354D01*
X151092620Y-71638596D01*
X151092627Y-71638598D01*
X151152155Y-71644999D01*
X151152172Y-71645000D01*
X151500000Y-71645000D01*
X151500000Y-70270000D01*
X150700000Y-70270000D01*
X150700000Y-71192844D01*
X137192135Y-71192844D01*
X137166270Y-70996384D01*
X137098398Y-70743081D01*
X137096086Y-70737500D01*
X136998046Y-70500809D01*
X136998041Y-70500799D01*
X136870932Y-70280638D01*
X136866923Y-70273696D01*
X136833886Y-70230641D01*
X136707282Y-70065649D01*
X136707281Y-70065648D01*
X136707274Y-70065640D01*
X136521860Y-69880226D01*
X136521851Y-69880218D01*
X136313803Y-69720575D01*
X136086700Y-69589458D01*
X136086690Y-69589453D01*
X135844428Y-69489105D01*
X135844421Y-69489103D01*
X135844419Y-69489102D01*
X135591116Y-69421230D01*
X135533339Y-69413623D01*
X135331127Y-69387000D01*
X135331120Y-69387000D01*
X135068880Y-69387000D01*
X135068872Y-69387000D01*
X134837772Y-69417426D01*
X134808884Y-69421230D01*
X134555581Y-69489102D01*
X134555571Y-69489105D01*
X134313309Y-69589453D01*
X134313299Y-69589458D01*
X134086196Y-69720575D01*
X133878148Y-69880218D01*
X133692718Y-70065648D01*
X133533075Y-70273696D01*
X133401958Y-70500799D01*
X133401953Y-70500809D01*
X133301605Y-70743071D01*
X133301602Y-70743081D01*
X133240230Y-70972128D01*
X133233730Y-70996385D01*
X133199500Y-71256372D01*
X130836651Y-71256372D01*
X130825021Y-71197902D01*
X130800001Y-71137500D01*
X132199999Y-71137500D01*
X132199999Y-70087528D01*
X132199998Y-70087513D01*
X132189505Y-69984803D01*
X132189505Y-69984801D01*
X132134359Y-69818380D01*
X132134354Y-69818369D01*
X132042319Y-69669159D01*
X132042316Y-69669155D01*
X131918344Y-69545183D01*
X131918340Y-69545180D01*
X131769130Y-69453145D01*
X131769119Y-69453140D01*
X131602697Y-69397994D01*
X131499986Y-69387500D01*
X130450000Y-69387500D01*
X130450000Y-70787498D01*
X130389598Y-70762479D01*
X130264019Y-70737500D01*
X130135981Y-70737500D01*
X130010402Y-70762479D01*
X129950000Y-70787498D01*
X129950000Y-69387500D01*
X128900028Y-69387500D01*
X128900012Y-69387501D01*
X128797303Y-69397994D01*
X128797301Y-69397994D01*
X128630880Y-69453140D01*
X128630869Y-69453145D01*
X128481659Y-69545180D01*
X128481655Y-69545183D01*
X128357683Y-69669155D01*
X128357680Y-69669159D01*
X128265645Y-69818369D01*
X128265640Y-69818380D01*
X128210494Y-69984802D01*
X128200000Y-70087513D01*
X118100500Y-70087513D01*
X118100500Y-68847155D01*
X150700000Y-68847155D01*
X150700000Y-69770000D01*
X151500000Y-69770000D01*
X151500000Y-68395000D01*
X151152155Y-68395000D01*
X151092627Y-68401401D01*
X151092620Y-68401403D01*
X150957913Y-68451645D01*
X150957906Y-68451649D01*
X150842812Y-68537809D01*
X150842809Y-68537812D01*
X150756649Y-68652906D01*
X150756645Y-68652913D01*
X150706403Y-68787620D01*
X150706401Y-68787627D01*
X150700000Y-68847155D01*
X118100500Y-68847155D01*
X118100500Y-64844500D01*
X118120185Y-64777461D01*
X118172989Y-64731706D01*
X118224500Y-64720500D01*
X172975500Y-64720500D01*
X173042539Y-64740185D01*
G37*
%TD.AperFunction*%
%TA.AperFunction,Conductor*%
G36*
X142185702Y-114495383D02*
G01*
X142192180Y-114501415D01*
X143585139Y-115894374D01*
X143585149Y-115894385D01*
X143589479Y-115898715D01*
X143589480Y-115898716D01*
X143701284Y-116010520D01*
X143783483Y-116057977D01*
X143838215Y-116089577D01*
X143990942Y-116130500D01*
X143990943Y-116130500D01*
X152226539Y-116130500D01*
X152293578Y-116150185D01*
X152339333Y-116202989D01*
X152349277Y-116272147D01*
X152320252Y-116335703D01*
X152300850Y-116353766D01*
X152222455Y-116412452D01*
X152222452Y-116412455D01*
X152136206Y-116527664D01*
X152136202Y-116527671D01*
X152085908Y-116662517D01*
X152079501Y-116722116D01*
X152079501Y-116722123D01*
X152079500Y-116722135D01*
X152079500Y-117817870D01*
X152079501Y-117817876D01*
X152085908Y-117877483D01*
X152136202Y-118012328D01*
X152136206Y-118012335D01*
X152222452Y-118127544D01*
X152222455Y-118127547D01*
X152337664Y-118213793D01*
X152337666Y-118213794D01*
X152337669Y-118213796D01*
X152353026Y-118219524D01*
X152408959Y-118261392D01*
X152433379Y-118326855D01*
X152418530Y-118395129D01*
X152397376Y-118423387D01*
X151854671Y-118966092D01*
X151814446Y-118992971D01*
X151776872Y-119008535D01*
X151670326Y-119079726D01*
X151670325Y-119079727D01*
X151616874Y-119133180D01*
X151555551Y-119166666D01*
X151529192Y-119169500D01*
X137411620Y-119169500D01*
X137344581Y-119149815D01*
X137323939Y-119133181D01*
X137230593Y-119039835D01*
X137197108Y-118978512D01*
X137202092Y-118908820D01*
X137243964Y-118852887D01*
X137261980Y-118841669D01*
X137436159Y-118752921D01*
X137436169Y-118752914D01*
X137519104Y-118692658D01*
X137519105Y-118692658D01*
X136820233Y-117993787D01*
X136862292Y-117982518D01*
X136987708Y-117910110D01*
X137090110Y-117807708D01*
X137162518Y-117682292D01*
X137173787Y-117640234D01*
X137872658Y-118339105D01*
X137872658Y-118339104D01*
X137932914Y-118256169D01*
X137932918Y-118256163D01*
X138040102Y-118045802D01*
X138113065Y-117821247D01*
X138113604Y-117817844D01*
X139480000Y-117817844D01*
X139486401Y-117877372D01*
X139486403Y-117877379D01*
X139536645Y-118012086D01*
X139536649Y-118012093D01*
X139622809Y-118127187D01*
X139622812Y-118127190D01*
X139737906Y-118213350D01*
X139737913Y-118213354D01*
X139872620Y-118263596D01*
X139872627Y-118263598D01*
X139932155Y-118269999D01*
X139932172Y-118270000D01*
X140480000Y-118270000D01*
X140980000Y-118270000D01*
X141527828Y-118270000D01*
X141527844Y-118269999D01*
X141587372Y-118263598D01*
X141587379Y-118263596D01*
X141722086Y-118213354D01*
X141722093Y-118213350D01*
X141837187Y-118127190D01*
X141837190Y-118127187D01*
X141923350Y-118012093D01*
X141923354Y-118012086D01*
X141973596Y-117877379D01*
X141973598Y-117877372D01*
X141979999Y-117817844D01*
X141980000Y-117817827D01*
X141980000Y-117520000D01*
X140980000Y-117520000D01*
X140980000Y-118270000D01*
X140480000Y-118270000D01*
X140480000Y-117520000D01*
X139480000Y-117520000D01*
X139480000Y-117817844D01*
X138113604Y-117817844D01*
X138150000Y-117588052D01*
X138150000Y-117351947D01*
X138113065Y-117118752D01*
X138040102Y-116894197D01*
X137979443Y-116775146D01*
X137952443Y-116722155D01*
X139480000Y-116722155D01*
X139480000Y-117020000D01*
X140480000Y-117020000D01*
X140980000Y-117020000D01*
X141980000Y-117020000D01*
X141980000Y-116722172D01*
X141979999Y-116722155D01*
X141973598Y-116662627D01*
X141973596Y-116662620D01*
X141923354Y-116527913D01*
X141923350Y-116527906D01*
X141837190Y-116412812D01*
X141837187Y-116412809D01*
X141722093Y-116326649D01*
X141722086Y-116326645D01*
X141587379Y-116276403D01*
X141587372Y-116276401D01*
X141527844Y-116270000D01*
X140980000Y-116270000D01*
X140980000Y-117020000D01*
X140480000Y-117020000D01*
X140480000Y-116270000D01*
X139932155Y-116270000D01*
X139872627Y-116276401D01*
X139872620Y-116276403D01*
X139737913Y-116326645D01*
X139737906Y-116326649D01*
X139622812Y-116412809D01*
X139622809Y-116412812D01*
X139536649Y-116527906D01*
X139536645Y-116527913D01*
X139486403Y-116662620D01*
X139486401Y-116662627D01*
X139480000Y-116722155D01*
X137952443Y-116722155D01*
X137932914Y-116683828D01*
X137872658Y-116600894D01*
X137872658Y-116600893D01*
X137173787Y-117299765D01*
X137162518Y-117257708D01*
X137090110Y-117132292D01*
X136987708Y-117029890D01*
X136862292Y-116957482D01*
X136820234Y-116946212D01*
X137519105Y-116247340D01*
X137519104Y-116247338D01*
X137436174Y-116187087D01*
X137225802Y-116079897D01*
X137001247Y-116006934D01*
X137001248Y-116006934D01*
X136768052Y-115970000D01*
X136531948Y-115970000D01*
X136298752Y-116006934D01*
X136074197Y-116079897D01*
X135863830Y-116187084D01*
X135780894Y-116247340D01*
X136479766Y-116946212D01*
X136437708Y-116957482D01*
X136312292Y-117029890D01*
X136209890Y-117132292D01*
X136137482Y-117257708D01*
X136126212Y-117299766D01*
X135427340Y-116600894D01*
X135367084Y-116683830D01*
X135278330Y-116858020D01*
X135230355Y-116908816D01*
X135162534Y-116925611D01*
X135096399Y-116903073D01*
X135080164Y-116889406D01*
X134636819Y-116446061D01*
X134622115Y-116419133D01*
X134605523Y-116393315D01*
X134604631Y-116387114D01*
X134603334Y-116384738D01*
X134600500Y-116358380D01*
X134600500Y-114869097D01*
X134620185Y-114802058D01*
X134672989Y-114756303D01*
X134742147Y-114746359D01*
X134805703Y-114775384D01*
X134812181Y-114781416D01*
X135125139Y-115094374D01*
X135125149Y-115094385D01*
X135129479Y-115098715D01*
X135129480Y-115098716D01*
X135241284Y-115210520D01*
X135241286Y-115210521D01*
X135241290Y-115210524D01*
X135293976Y-115240942D01*
X135293981Y-115240944D01*
X135378209Y-115289574D01*
X135378210Y-115289575D01*
X135378212Y-115289575D01*
X135378215Y-115289577D01*
X135530943Y-115330501D01*
X135530946Y-115330501D01*
X135696653Y-115330501D01*
X135696669Y-115330500D01*
X139397209Y-115330500D01*
X139464248Y-115350185D01*
X139510003Y-115402989D01*
X139513391Y-115411167D01*
X139536202Y-115472328D01*
X139536206Y-115472335D01*
X139622452Y-115587544D01*
X139622455Y-115587547D01*
X139737664Y-115673793D01*
X139737671Y-115673797D01*
X139872517Y-115724091D01*
X139872516Y-115724091D01*
X139879444Y-115724835D01*
X139932127Y-115730500D01*
X141527872Y-115730499D01*
X141587483Y-115724091D01*
X141722331Y-115673796D01*
X141837546Y-115587546D01*
X141923796Y-115472331D01*
X141974091Y-115337483D01*
X141980500Y-115277873D01*
X141980499Y-114589094D01*
X142000183Y-114522057D01*
X142052987Y-114476302D01*
X142122146Y-114466358D01*
X142185702Y-114495383D01*
G37*
%TD.AperFunction*%
%TA.AperFunction,Conductor*%
G36*
X141381194Y-110625148D02*
G01*
X141401836Y-110641782D01*
X141772087Y-111012033D01*
X141805572Y-111073356D01*
X141800588Y-111143048D01*
X141758716Y-111198981D01*
X141693252Y-111223398D01*
X141641074Y-111215896D01*
X141587485Y-111195909D01*
X141587483Y-111195908D01*
X141527883Y-111189501D01*
X141527881Y-111189500D01*
X141527873Y-111189500D01*
X141527864Y-111189500D01*
X139932129Y-111189500D01*
X139932118Y-111189501D01*
X139906174Y-111192290D01*
X139837415Y-111179882D01*
X139786279Y-111132270D01*
X139778364Y-111116459D01*
X139776465Y-111111873D01*
X139769311Y-111101166D01*
X139747952Y-111069199D01*
X139705275Y-111005328D01*
X139705272Y-111005325D01*
X139517090Y-110817144D01*
X139483605Y-110755821D01*
X139488589Y-110686130D01*
X139530460Y-110630196D01*
X139595925Y-110605779D01*
X139604771Y-110605463D01*
X141314155Y-110605463D01*
X141381194Y-110625148D01*
G37*
%TD.AperFunction*%
%TA.AperFunction,Conductor*%
G36*
X143521130Y-103290477D02*
G01*
X143524316Y-103293551D01*
X144243181Y-104012416D01*
X144276666Y-104073739D01*
X144279500Y-104100096D01*
X144279500Y-104219168D01*
X144279501Y-104219192D01*
X144282335Y-104255205D01*
X144327129Y-104409388D01*
X144327131Y-104409393D01*
X144408863Y-104547595D01*
X144408869Y-104547603D01*
X144522396Y-104661130D01*
X144528565Y-104665915D01*
X144527451Y-104667350D01*
X144568403Y-104711211D01*
X144580906Y-104779952D01*
X144580538Y-104783049D01*
X144579500Y-104790937D01*
X144579500Y-106713330D01*
X144579499Y-106713348D01*
X144579499Y-106879054D01*
X144579498Y-106879054D01*
X144619286Y-107027544D01*
X144620423Y-107031785D01*
X144636140Y-107059007D01*
X144667772Y-107113796D01*
X144699479Y-107168714D01*
X144699481Y-107168717D01*
X144818349Y-107287585D01*
X144818355Y-107287590D01*
X146615139Y-109084374D01*
X146615149Y-109084385D01*
X146619479Y-109088715D01*
X146619480Y-109088716D01*
X146731284Y-109200520D01*
X146782845Y-109230288D01*
X146818095Y-109250639D01*
X146818097Y-109250641D01*
X146856151Y-109272611D01*
X146868215Y-109279577D01*
X147020943Y-109320501D01*
X147020946Y-109320501D01*
X147186653Y-109320501D01*
X147186669Y-109320500D01*
X157020234Y-109320500D01*
X157087273Y-109340185D01*
X157089125Y-109341398D01*
X157220814Y-109429390D01*
X157220827Y-109429397D01*
X157366498Y-109489735D01*
X157366503Y-109489737D01*
X157521153Y-109520499D01*
X157521156Y-109520500D01*
X157521158Y-109520500D01*
X157678844Y-109520500D01*
X157678845Y-109520499D01*
X157833497Y-109489737D01*
X157979179Y-109429394D01*
X158110289Y-109341789D01*
X158221789Y-109230289D01*
X158309394Y-109099179D01*
X158369737Y-108953497D01*
X158400500Y-108798842D01*
X158400500Y-108641158D01*
X158400500Y-108641155D01*
X158400499Y-108641153D01*
X158369737Y-108486503D01*
X158357856Y-108457819D01*
X158309397Y-108340827D01*
X158309390Y-108340814D01*
X158221789Y-108209711D01*
X158221786Y-108209707D01*
X158110292Y-108098213D01*
X158110288Y-108098210D01*
X157979185Y-108010609D01*
X157979172Y-108010602D01*
X157833501Y-107950264D01*
X157833489Y-107950261D01*
X157678845Y-107919500D01*
X157678842Y-107919500D01*
X157521158Y-107919500D01*
X157521155Y-107919500D01*
X157366510Y-107950261D01*
X157366498Y-107950264D01*
X157220827Y-108010602D01*
X157220814Y-108010609D01*
X157089125Y-108098602D01*
X157022447Y-108119480D01*
X157020234Y-108119500D01*
X147400097Y-108119500D01*
X147333058Y-108099815D01*
X147312416Y-108083181D01*
X146611415Y-107382180D01*
X146577930Y-107320857D01*
X146582914Y-107251165D01*
X146624786Y-107195232D01*
X146690250Y-107170815D01*
X146699096Y-107170499D01*
X147127871Y-107170499D01*
X147127872Y-107170499D01*
X147187483Y-107164091D01*
X147322331Y-107113796D01*
X147437546Y-107027546D01*
X147472095Y-106981394D01*
X147529112Y-106905231D01*
X147531382Y-106906930D01*
X147570565Y-106867743D01*
X147638837Y-106852886D01*
X147704303Y-106877298D01*
X147729443Y-106906311D01*
X147730888Y-106905231D01*
X147822452Y-107027544D01*
X147822455Y-107027547D01*
X147937664Y-107113793D01*
X147937671Y-107113797D01*
X148072517Y-107164091D01*
X148072516Y-107164091D01*
X148079444Y-107164835D01*
X148132127Y-107170500D01*
X149827872Y-107170499D01*
X149887483Y-107164091D01*
X150022331Y-107113796D01*
X150137546Y-107027546D01*
X150223796Y-106912331D01*
X150274091Y-106777483D01*
X150280500Y-106717873D01*
X150280499Y-105594499D01*
X150300184Y-105527461D01*
X150352987Y-105481706D01*
X150404499Y-105470500D01*
X156954452Y-105470500D01*
X157021491Y-105490185D01*
X157067246Y-105542989D01*
X157069010Y-105547041D01*
X157088668Y-105594500D01*
X157090606Y-105599179D01*
X157090607Y-105599182D01*
X157178210Y-105730288D01*
X157178213Y-105730292D01*
X157289707Y-105841786D01*
X157289711Y-105841789D01*
X157420814Y-105929390D01*
X157420827Y-105929397D01*
X157566498Y-105989735D01*
X157566503Y-105989737D01*
X157721153Y-106020499D01*
X157721156Y-106020500D01*
X157721158Y-106020500D01*
X157878844Y-106020500D01*
X157878845Y-106020499D01*
X158033497Y-105989737D01*
X158179179Y-105929394D01*
X158310289Y-105841789D01*
X158310307Y-105841770D01*
X158312517Y-105839958D01*
X158313925Y-105839359D01*
X158315354Y-105838405D01*
X158315534Y-105838675D01*
X158376822Y-105812633D01*
X158445692Y-105824412D01*
X158478880Y-105848115D01*
X159331284Y-106700520D01*
X159331286Y-106700521D01*
X159331290Y-106700524D01*
X159464587Y-106777482D01*
X159468216Y-106779577D01*
X159620943Y-106820501D01*
X159620945Y-106820501D01*
X159786654Y-106820501D01*
X159786670Y-106820500D01*
X168025649Y-106820500D01*
X168092688Y-106840185D01*
X168138443Y-106892989D01*
X168148387Y-106962147D01*
X168119362Y-107025703D01*
X168073102Y-107059061D01*
X167946277Y-107111593D01*
X167946273Y-107111595D01*
X167753226Y-107223052D01*
X167753217Y-107223058D01*
X167576377Y-107358751D01*
X167576370Y-107358757D01*
X167418757Y-107516370D01*
X167418751Y-107516377D01*
X167283058Y-107693217D01*
X167283052Y-107693226D01*
X167171595Y-107886273D01*
X167171593Y-107886277D01*
X167086293Y-108092209D01*
X167086290Y-108092219D01*
X167028597Y-108307534D01*
X167028594Y-108307547D01*
X166999501Y-108528533D01*
X166999500Y-108528549D01*
X166999500Y-108751450D01*
X166999501Y-108751466D01*
X167028594Y-108972452D01*
X167028595Y-108972457D01*
X167028596Y-108972463D01*
X167075302Y-109146773D01*
X167086290Y-109187781D01*
X167118051Y-109264459D01*
X167125520Y-109333928D01*
X167094245Y-109396407D01*
X167091171Y-109399592D01*
X166707584Y-109783181D01*
X166646261Y-109816666D01*
X166619903Y-109819500D01*
X164869472Y-109819500D01*
X164716743Y-109860423D01*
X164701746Y-109869082D01*
X164697729Y-109871402D01*
X164697727Y-109871403D01*
X164697724Y-109871404D01*
X164579819Y-109939475D01*
X164579811Y-109939481D01*
X164487681Y-110031612D01*
X164426358Y-110065097D01*
X164356666Y-110060113D01*
X164312319Y-110031612D01*
X164220188Y-109939481D01*
X164220180Y-109939475D01*
X164102276Y-109871404D01*
X164102273Y-109871403D01*
X164102271Y-109871402D01*
X164083256Y-109860423D01*
X163930528Y-109819499D01*
X163772414Y-109819499D01*
X163764818Y-109819499D01*
X163764802Y-109819500D01*
X157769470Y-109819500D01*
X157731863Y-109829576D01*
X157731864Y-109829577D01*
X157616744Y-109860423D01*
X157561999Y-109892030D01*
X157494098Y-109908501D01*
X157438002Y-109892030D01*
X157402277Y-109871405D01*
X157402273Y-109871403D01*
X157402271Y-109871402D01*
X157383256Y-109860423D01*
X157230528Y-109819499D01*
X157072414Y-109819499D01*
X157064818Y-109819499D01*
X157064802Y-109819500D01*
X145000097Y-109819500D01*
X144933058Y-109799815D01*
X144912416Y-109783181D01*
X144236819Y-109107584D01*
X144203334Y-109046261D01*
X144200500Y-109019903D01*
X144200500Y-105559060D01*
X144200501Y-105559047D01*
X144200501Y-105390944D01*
X144193182Y-105363629D01*
X144159577Y-105238216D01*
X144153018Y-105226855D01*
X144080524Y-105101290D01*
X144080518Y-105101282D01*
X143050079Y-104070843D01*
X143016594Y-104009520D01*
X143013760Y-103983162D01*
X143013760Y-103955928D01*
X142988762Y-103830260D01*
X142988759Y-103830249D01*
X142964954Y-103772781D01*
X142960438Y-103759922D01*
X142929167Y-103652285D01*
X142922869Y-103630607D01*
X142922868Y-103630606D01*
X142922112Y-103628002D01*
X142922311Y-103558132D01*
X142960253Y-103499462D01*
X142979188Y-103486020D01*
X142988716Y-103480520D01*
X143100520Y-103368716D01*
X143100521Y-103368714D01*
X143114662Y-103354572D01*
X143175983Y-103321089D01*
X143178150Y-103320638D01*
X143236085Y-103309113D01*
X143333497Y-103289737D01*
X143389182Y-103266670D01*
X143458651Y-103259202D01*
X143521130Y-103290477D01*
G37*
%TD.AperFunction*%
%TA.AperFunction,Conductor*%
G36*
X135205703Y-105226855D02*
G01*
X135212181Y-105232887D01*
X135357800Y-105378506D01*
X135391285Y-105439829D01*
X135386301Y-105509521D01*
X135354290Y-105557243D01*
X135350000Y-105561208D01*
X135350000Y-106216000D01*
X135330315Y-106283039D01*
X135277511Y-106328794D01*
X135226000Y-106340000D01*
X135124500Y-106340000D01*
X135057461Y-106320315D01*
X135011706Y-106267511D01*
X135000500Y-106216000D01*
X135000500Y-105320568D01*
X135020185Y-105253529D01*
X135072989Y-105207774D01*
X135142147Y-105197830D01*
X135205703Y-105226855D01*
G37*
%TD.AperFunction*%
%TA.AperFunction,Conductor*%
G36*
X137587267Y-97355192D02*
G01*
X137631614Y-97383693D01*
X137689707Y-97441786D01*
X137689711Y-97441789D01*
X137820814Y-97529390D01*
X137820827Y-97529397D01*
X137881611Y-97554574D01*
X137966503Y-97589737D01*
X138033580Y-97603079D01*
X138095488Y-97635461D01*
X138097068Y-97637014D01*
X138365325Y-97905272D01*
X138365328Y-97905275D01*
X138462942Y-97970498D01*
X138467494Y-97973539D01*
X138471873Y-97976465D01*
X138590256Y-98025501D01*
X138590260Y-98025501D01*
X138590261Y-98025502D01*
X138715928Y-98050500D01*
X138715931Y-98050500D01*
X139146167Y-98050500D01*
X139213206Y-98070185D01*
X139258961Y-98122989D01*
X139260728Y-98127048D01*
X139290602Y-98199172D01*
X139290609Y-98199185D01*
X139378210Y-98330288D01*
X139378213Y-98330292D01*
X139489707Y-98441786D01*
X139489711Y-98441789D01*
X139620814Y-98529390D01*
X139620827Y-98529397D01*
X139750675Y-98583181D01*
X139766503Y-98589737D01*
X139831147Y-98602595D01*
X139921849Y-98620638D01*
X139983760Y-98653023D01*
X139985339Y-98654574D01*
X140080463Y-98749698D01*
X140113948Y-98811021D01*
X140108964Y-98880713D01*
X140067092Y-98936646D01*
X140001628Y-98961063D01*
X139933355Y-98946211D01*
X139923891Y-98940481D01*
X139879185Y-98910609D01*
X139879172Y-98910602D01*
X139733501Y-98850264D01*
X139733489Y-98850261D01*
X139578845Y-98819500D01*
X139578842Y-98819500D01*
X139421158Y-98819500D01*
X139421155Y-98819500D01*
X139266510Y-98850261D01*
X139266498Y-98850264D01*
X139120827Y-98910602D01*
X139120814Y-98910609D01*
X139068891Y-98945304D01*
X139002214Y-98966182D01*
X138934833Y-98947698D01*
X138931109Y-98945304D01*
X138879185Y-98910609D01*
X138879172Y-98910602D01*
X138733501Y-98850264D01*
X138733489Y-98850261D01*
X138578845Y-98819500D01*
X138578842Y-98819500D01*
X138421158Y-98819500D01*
X138421155Y-98819500D01*
X138266510Y-98850261D01*
X138266498Y-98850264D01*
X138120828Y-98910602D01*
X138120814Y-98910610D01*
X138068437Y-98945606D01*
X138001760Y-98966482D01*
X137934380Y-98947996D01*
X137930659Y-98945605D01*
X137878940Y-98911048D01*
X137750000Y-98857639D01*
X137750000Y-99314189D01*
X137740562Y-99361636D01*
X137730263Y-99386503D01*
X137730263Y-99386505D01*
X137730260Y-99386511D01*
X137699500Y-99541153D01*
X137699500Y-99996000D01*
X137679815Y-100063039D01*
X137627011Y-100108794D01*
X137575500Y-100120000D01*
X137500000Y-100120000D01*
X137500000Y-100246000D01*
X137480315Y-100313039D01*
X137427511Y-100358794D01*
X137376000Y-100370000D01*
X136700000Y-100370000D01*
X136700000Y-100698797D01*
X136730741Y-100853343D01*
X136730743Y-100853351D01*
X136791047Y-100998939D01*
X136791052Y-100998948D01*
X136878598Y-101129969D01*
X136878601Y-101129973D01*
X136990026Y-101241398D01*
X136990030Y-101241401D01*
X137121051Y-101328947D01*
X137126428Y-101331821D01*
X137125847Y-101332906D01*
X137175221Y-101372684D01*
X137197293Y-101438976D01*
X137180021Y-101506677D01*
X137176474Y-101512306D01*
X137090607Y-101640814D01*
X137090600Y-101640827D01*
X137030262Y-101786498D01*
X137030259Y-101786510D01*
X136999498Y-101941153D01*
X136999498Y-102098841D01*
X137001978Y-102111310D01*
X136995749Y-102180901D01*
X136952886Y-102236078D01*
X136886996Y-102259322D01*
X136880360Y-102259500D01*
X136565302Y-102259500D01*
X136529008Y-102262356D01*
X136529002Y-102262357D01*
X136373609Y-102307504D01*
X136373606Y-102307505D01*
X136234315Y-102389881D01*
X136234307Y-102389887D01*
X136221014Y-102403181D01*
X136159691Y-102436666D01*
X136133333Y-102439500D01*
X135846669Y-102439500D01*
X135846653Y-102439499D01*
X135839057Y-102439499D01*
X135680943Y-102439499D01*
X135601010Y-102460917D01*
X135528216Y-102480422D01*
X135500428Y-102496466D01*
X135500427Y-102496465D01*
X135391287Y-102559477D01*
X135391280Y-102559482D01*
X135385333Y-102565430D01*
X135324009Y-102598912D01*
X135321848Y-102599362D01*
X135166508Y-102630261D01*
X135166498Y-102630264D01*
X135020827Y-102690602D01*
X135020814Y-102690609D01*
X134889711Y-102778210D01*
X134889707Y-102778213D01*
X134778213Y-102889707D01*
X134778210Y-102889711D01*
X134690609Y-103020814D01*
X134690602Y-103020827D01*
X134630264Y-103166498D01*
X134630261Y-103166508D01*
X134599102Y-103323151D01*
X134566717Y-103385062D01*
X134509580Y-103418734D01*
X134410755Y-103445215D01*
X134340905Y-103443552D01*
X134283042Y-103404390D01*
X134264099Y-103372892D01*
X134262368Y-103368714D01*
X134243496Y-103323151D01*
X134209397Y-103240827D01*
X134209390Y-103240814D01*
X134121789Y-103109711D01*
X134121786Y-103109707D01*
X134010292Y-102998213D01*
X134010288Y-102998210D01*
X133879185Y-102910609D01*
X133879172Y-102910602D01*
X133733501Y-102850264D01*
X133733489Y-102850261D01*
X133578845Y-102819500D01*
X133578842Y-102819500D01*
X133421158Y-102819500D01*
X133421155Y-102819500D01*
X133266510Y-102850261D01*
X133266498Y-102850264D01*
X133115192Y-102912937D01*
X133114533Y-102911346D01*
X133054157Y-102923915D01*
X132988914Y-102898912D01*
X132947546Y-102842605D01*
X132943187Y-102772871D01*
X132964846Y-102726004D01*
X132993793Y-102687335D01*
X132993792Y-102687335D01*
X132993796Y-102687331D01*
X133044091Y-102552483D01*
X133050500Y-102492873D01*
X133050499Y-101840806D01*
X133070183Y-101773768D01*
X133086813Y-101753131D01*
X135298743Y-99541202D01*
X136700000Y-99541202D01*
X136700000Y-99870000D01*
X137250000Y-99870000D01*
X137250000Y-98857639D01*
X137249999Y-98857639D01*
X137121061Y-98911047D01*
X137121051Y-98911052D01*
X136990030Y-98998598D01*
X136990026Y-98998601D01*
X136878601Y-99110026D01*
X136878598Y-99110030D01*
X136791052Y-99241051D01*
X136791047Y-99241060D01*
X136730743Y-99386648D01*
X136730741Y-99386656D01*
X136700000Y-99541202D01*
X135298743Y-99541202D01*
X137456252Y-97383693D01*
X137517575Y-97350208D01*
X137587267Y-97355192D01*
G37*
%TD.AperFunction*%
%TA.AperFunction,Conductor*%
G36*
X162546231Y-93590185D02*
G01*
X162566873Y-93606819D01*
X165013181Y-96053127D01*
X165046666Y-96114450D01*
X165049500Y-96140808D01*
X165049500Y-99284071D01*
X165052439Y-99298844D01*
X165069876Y-99386503D01*
X165074499Y-99409744D01*
X165123535Y-99528127D01*
X165171010Y-99599179D01*
X165194726Y-99634673D01*
X165194727Y-99634674D01*
X165513181Y-99953127D01*
X165546666Y-100014450D01*
X165549500Y-100040808D01*
X165549500Y-101495500D01*
X165529815Y-101562539D01*
X165477011Y-101608294D01*
X165425500Y-101619500D01*
X157724500Y-101619500D01*
X157657461Y-101599815D01*
X157611706Y-101547011D01*
X157600500Y-101495500D01*
X157600500Y-101441155D01*
X157600499Y-101441153D01*
X157593034Y-101403624D01*
X157569737Y-101286503D01*
X157569735Y-101286498D01*
X157509397Y-101140827D01*
X157509390Y-101140814D01*
X157421789Y-101009711D01*
X157421786Y-101009707D01*
X157310292Y-100898213D01*
X157310288Y-100898210D01*
X157179185Y-100810609D01*
X157179172Y-100810602D01*
X157033501Y-100750264D01*
X157033489Y-100750261D01*
X156878845Y-100719500D01*
X156878842Y-100719500D01*
X156721158Y-100719500D01*
X156721155Y-100719500D01*
X156566510Y-100750261D01*
X156566503Y-100750263D01*
X156500299Y-100777685D01*
X156430830Y-100785153D01*
X156368351Y-100753877D01*
X156338287Y-100710575D01*
X156309397Y-100640827D01*
X156309390Y-100640814D01*
X156221789Y-100509711D01*
X156221786Y-100509707D01*
X156110292Y-100398213D01*
X156110288Y-100398210D01*
X155979185Y-100310609D01*
X155979172Y-100310602D01*
X155833501Y-100250264D01*
X155833489Y-100250261D01*
X155678845Y-100219500D01*
X155678842Y-100219500D01*
X155521158Y-100219500D01*
X155521155Y-100219500D01*
X155366510Y-100250261D01*
X155366498Y-100250264D01*
X155220827Y-100310602D01*
X155220814Y-100310609D01*
X155089711Y-100398210D01*
X155089707Y-100398213D01*
X154978213Y-100509707D01*
X154978210Y-100509711D01*
X154890609Y-100640814D01*
X154890601Y-100640829D01*
X154872227Y-100685188D01*
X154845348Y-100725415D01*
X154368490Y-101202273D01*
X154307167Y-101235758D01*
X154237475Y-101230774D01*
X154181542Y-101188902D01*
X154157125Y-101123438D01*
X154171977Y-101055165D01*
X154177708Y-101045699D01*
X154208949Y-100998944D01*
X154208952Y-100998939D01*
X154269256Y-100853351D01*
X154269258Y-100853343D01*
X154299999Y-100698797D01*
X154300000Y-100698794D01*
X154300000Y-100370000D01*
X153750000Y-100370000D01*
X153750000Y-101382360D01*
X153878934Y-101328954D01*
X153878947Y-101328947D01*
X153925703Y-101297706D01*
X153992380Y-101276828D01*
X154059760Y-101295312D01*
X154106451Y-101347291D01*
X154117627Y-101416261D01*
X154089742Y-101480325D01*
X154082275Y-101488489D01*
X153487584Y-102083181D01*
X153426261Y-102116666D01*
X153399903Y-102119500D01*
X149296670Y-102119500D01*
X149296654Y-102119499D01*
X149289058Y-102119499D01*
X149130943Y-102119499D01*
X149065850Y-102136941D01*
X148978214Y-102160423D01*
X148978209Y-102160426D01*
X148841290Y-102239475D01*
X148841286Y-102239478D01*
X148682429Y-102398334D01*
X148621105Y-102431818D01*
X148551414Y-102426834D01*
X148507067Y-102398333D01*
X148477603Y-102368869D01*
X148477595Y-102368863D01*
X148461269Y-102359208D01*
X148417002Y-102314474D01*
X148380522Y-102251287D01*
X148380518Y-102251282D01*
X148234573Y-102105337D01*
X148201088Y-102044014D01*
X148200637Y-102041847D01*
X148189290Y-101984804D01*
X148169737Y-101886503D01*
X148169342Y-101885550D01*
X148109397Y-101740827D01*
X148109390Y-101740814D01*
X148021789Y-101609711D01*
X148021786Y-101609707D01*
X147905982Y-101493903D01*
X147907292Y-101492592D01*
X147872842Y-101441999D01*
X147870984Y-101372154D01*
X147907181Y-101312392D01*
X147921950Y-101300814D01*
X147931113Y-101294692D01*
X147997788Y-101273816D01*
X148065168Y-101292301D01*
X148068863Y-101294676D01*
X148120821Y-101329394D01*
X148120823Y-101329395D01*
X148120825Y-101329396D01*
X148225333Y-101372684D01*
X148266503Y-101389737D01*
X148401225Y-101416535D01*
X148421153Y-101420499D01*
X148421156Y-101420500D01*
X148421158Y-101420500D01*
X148578844Y-101420500D01*
X148578845Y-101420499D01*
X148733497Y-101389737D01*
X148879179Y-101329394D01*
X148931110Y-101294694D01*
X148997785Y-101273816D01*
X149065165Y-101292300D01*
X149068863Y-101294676D01*
X149120821Y-101329394D01*
X149120823Y-101329395D01*
X149120825Y-101329396D01*
X149225333Y-101372684D01*
X149266503Y-101389737D01*
X149401225Y-101416535D01*
X149421153Y-101420499D01*
X149421156Y-101420500D01*
X149421158Y-101420500D01*
X149578844Y-101420500D01*
X149578845Y-101420499D01*
X149733497Y-101389737D01*
X149879179Y-101329394D01*
X149931110Y-101294694D01*
X149997785Y-101273816D01*
X150065165Y-101292300D01*
X150068863Y-101294676D01*
X150120821Y-101329394D01*
X150120823Y-101329395D01*
X150120825Y-101329396D01*
X150225333Y-101372684D01*
X150266503Y-101389737D01*
X150401225Y-101416535D01*
X150421153Y-101420499D01*
X150421156Y-101420500D01*
X150421158Y-101420500D01*
X150578844Y-101420500D01*
X150578845Y-101420499D01*
X150733497Y-101389737D01*
X150879179Y-101329394D01*
X150931110Y-101294694D01*
X150997785Y-101273816D01*
X151065165Y-101292300D01*
X151068863Y-101294676D01*
X151120821Y-101329394D01*
X151120823Y-101329395D01*
X151120825Y-101329396D01*
X151225333Y-101372684D01*
X151266503Y-101389737D01*
X151401225Y-101416535D01*
X151421153Y-101420499D01*
X151421156Y-101420500D01*
X151421158Y-101420500D01*
X151578844Y-101420500D01*
X151578845Y-101420499D01*
X151733497Y-101389737D01*
X151879179Y-101329394D01*
X151931110Y-101294694D01*
X151997785Y-101273816D01*
X152065165Y-101292300D01*
X152068863Y-101294676D01*
X152120821Y-101329394D01*
X152120823Y-101329395D01*
X152120825Y-101329396D01*
X152225333Y-101372684D01*
X152266503Y-101389737D01*
X152401225Y-101416535D01*
X152421153Y-101420499D01*
X152421156Y-101420500D01*
X152421158Y-101420500D01*
X152578844Y-101420500D01*
X152578845Y-101420499D01*
X152733497Y-101389737D01*
X152879179Y-101329394D01*
X152931560Y-101294394D01*
X152998234Y-101273516D01*
X153065614Y-101292000D01*
X153069340Y-101294394D01*
X153121052Y-101328947D01*
X153121065Y-101328954D01*
X153249999Y-101382360D01*
X153250000Y-101382360D01*
X153250000Y-100925811D01*
X153259439Y-100878358D01*
X153269737Y-100853497D01*
X153300500Y-100698842D01*
X153300500Y-100244000D01*
X153320185Y-100176961D01*
X153372989Y-100131206D01*
X153424500Y-100120000D01*
X153500000Y-100120000D01*
X153500000Y-99994000D01*
X153519685Y-99926961D01*
X153572489Y-99881206D01*
X153624000Y-99870000D01*
X154300000Y-99870000D01*
X154300000Y-99541206D01*
X154299999Y-99541202D01*
X154269258Y-99386656D01*
X154269255Y-99386644D01*
X154242560Y-99322195D01*
X154235091Y-99252726D01*
X154266367Y-99190247D01*
X154326456Y-99154595D01*
X154357121Y-99150743D01*
X160763828Y-99150743D01*
X160848372Y-99133925D01*
X160889501Y-99125744D01*
X161007884Y-99076708D01*
X161049957Y-99048596D01*
X161114426Y-99005520D01*
X161502931Y-98617012D01*
X161564250Y-98583530D01*
X161566329Y-98583096D01*
X161633497Y-98569737D01*
X161779179Y-98509394D01*
X161910289Y-98421789D01*
X162021789Y-98310289D01*
X162109394Y-98179179D01*
X162169737Y-98033497D01*
X162200500Y-97878842D01*
X162200500Y-97721158D01*
X162200500Y-97721155D01*
X162200499Y-97721153D01*
X162188481Y-97660735D01*
X162169737Y-97566503D01*
X162164796Y-97554574D01*
X162109397Y-97420827D01*
X162109390Y-97420814D01*
X162021789Y-97289711D01*
X162021786Y-97289707D01*
X161910292Y-97178213D01*
X161910288Y-97178210D01*
X161779185Y-97090609D01*
X161779172Y-97090602D01*
X161633501Y-97030264D01*
X161633491Y-97030261D01*
X161562383Y-97016117D01*
X161500472Y-96983732D01*
X161465898Y-96923016D01*
X161469638Y-96853247D01*
X161510505Y-96796575D01*
X161575523Y-96770994D01*
X161586575Y-96770500D01*
X161885177Y-96770500D01*
X161932629Y-96779938D01*
X161993238Y-96805044D01*
X162110639Y-96820500D01*
X162449360Y-96820499D01*
X162449361Y-96820499D01*
X162483832Y-96815961D01*
X162566762Y-96805044D01*
X162566771Y-96805040D01*
X162568879Y-96804476D01*
X162571076Y-96804476D01*
X162574821Y-96803983D01*
X162574886Y-96804476D01*
X162625183Y-96804476D01*
X162625312Y-96803495D01*
X162632763Y-96804476D01*
X162633072Y-96804476D01*
X162633370Y-96804555D01*
X162720000Y-96815961D01*
X162720000Y-96800192D01*
X162739685Y-96733153D01*
X162768511Y-96701818D01*
X162838282Y-96648282D01*
X162897625Y-96570943D01*
X162954052Y-96529742D01*
X163023798Y-96525587D01*
X163084718Y-96559799D01*
X163117471Y-96621516D01*
X163120000Y-96646431D01*
X163120000Y-96815959D01*
X163120001Y-96815960D01*
X163206627Y-96804557D01*
X163206633Y-96804555D01*
X163352585Y-96744100D01*
X163477924Y-96647924D01*
X163574100Y-96522586D01*
X163634555Y-96376631D01*
X163642012Y-96320000D01*
X163134500Y-96320000D01*
X163067461Y-96300315D01*
X163021706Y-96247511D01*
X163010500Y-96196001D01*
X163010499Y-96044001D01*
X163030183Y-95976961D01*
X163082987Y-95931206D01*
X163134499Y-95920000D01*
X163642010Y-95920000D01*
X163642011Y-95919998D01*
X163634557Y-95863372D01*
X163634555Y-95863366D01*
X163574100Y-95717414D01*
X163477924Y-95592075D01*
X163352586Y-95495899D01*
X163206631Y-95435444D01*
X163120000Y-95424038D01*
X163120000Y-95593568D01*
X163100315Y-95660607D01*
X163047511Y-95706362D01*
X162978353Y-95716306D01*
X162914797Y-95687281D01*
X162897627Y-95669058D01*
X162838282Y-95591718D01*
X162768512Y-95538181D01*
X162727311Y-95481755D01*
X162720000Y-95439807D01*
X162720000Y-95424038D01*
X162633365Y-95435444D01*
X162633055Y-95435528D01*
X162632733Y-95435527D01*
X162625313Y-95436505D01*
X162625184Y-95435527D01*
X162574884Y-95435526D01*
X162574820Y-95436017D01*
X162571091Y-95435526D01*
X162568891Y-95435526D01*
X162566765Y-95434956D01*
X162449361Y-95419500D01*
X162110636Y-95419500D01*
X161993246Y-95434953D01*
X161993237Y-95434956D01*
X161932630Y-95460061D01*
X161885177Y-95469500D01*
X159169808Y-95469500D01*
X159102769Y-95449815D01*
X159057014Y-95397011D01*
X159047070Y-95327853D01*
X159076095Y-95264297D01*
X159082127Y-95257819D01*
X160733127Y-93606819D01*
X160794450Y-93573334D01*
X160820808Y-93570500D01*
X162479192Y-93570500D01*
X162546231Y-93590185D01*
G37*
%TD.AperFunction*%
%TA.AperFunction,Conductor*%
G36*
X150443039Y-75889685D02*
G01*
X150488794Y-75942489D01*
X150500000Y-75994000D01*
X150500000Y-76120000D01*
X150575500Y-76120000D01*
X150642539Y-76139685D01*
X150688294Y-76192489D01*
X150699500Y-76244000D01*
X150699500Y-76698846D01*
X150730261Y-76853489D01*
X150730263Y-76853497D01*
X150740561Y-76878358D01*
X150750000Y-76925811D01*
X150750000Y-77382359D01*
X150794391Y-77412021D01*
X150839196Y-77465633D01*
X150849500Y-77515123D01*
X150849500Y-82099191D01*
X150829815Y-82166230D01*
X150813181Y-82186872D01*
X137044088Y-95955964D01*
X136982765Y-95989449D01*
X136913073Y-95984465D01*
X136857140Y-95942593D01*
X136832723Y-95877129D01*
X136841845Y-95820834D01*
X136869737Y-95753497D01*
X136900500Y-95598842D01*
X136900500Y-95441158D01*
X136900500Y-95441155D01*
X136900499Y-95441153D01*
X136894423Y-95410606D01*
X136869737Y-95286503D01*
X136846993Y-95231593D01*
X136809397Y-95140827D01*
X136809390Y-95140814D01*
X136721789Y-95009711D01*
X136721786Y-95009707D01*
X136610292Y-94898213D01*
X136610288Y-94898210D01*
X136479185Y-94810609D01*
X136479172Y-94810602D01*
X136333501Y-94750264D01*
X136333489Y-94750261D01*
X136178845Y-94719500D01*
X136178842Y-94719500D01*
X136021158Y-94719500D01*
X136021155Y-94719500D01*
X135866510Y-94750261D01*
X135866498Y-94750264D01*
X135720827Y-94810602D01*
X135720814Y-94810609D01*
X135589711Y-94898210D01*
X135589707Y-94898213D01*
X135478213Y-95009707D01*
X135478210Y-95009711D01*
X135390609Y-95140814D01*
X135390602Y-95140827D01*
X135330264Y-95286498D01*
X135330261Y-95286508D01*
X135316920Y-95353579D01*
X135284535Y-95415490D01*
X135282984Y-95417068D01*
X134913794Y-95786258D01*
X134852471Y-95819743D01*
X134782779Y-95814759D01*
X134726846Y-95772887D01*
X134711553Y-95746031D01*
X134709398Y-95740829D01*
X134709393Y-95740820D01*
X134674393Y-95688438D01*
X134653516Y-95621763D01*
X134672000Y-95554383D01*
X134674395Y-95550657D01*
X134708951Y-95498940D01*
X134762361Y-95370000D01*
X134305811Y-95370000D01*
X134258363Y-95360562D01*
X134233497Y-95350263D01*
X134233490Y-95350261D01*
X134233489Y-95350261D01*
X134233488Y-95350260D01*
X134078845Y-95319500D01*
X134078842Y-95319500D01*
X133624000Y-95319500D01*
X133556961Y-95299815D01*
X133511206Y-95247011D01*
X133500000Y-95195500D01*
X133500000Y-95044500D01*
X133519685Y-94977461D01*
X133572489Y-94931706D01*
X133624000Y-94920500D01*
X134078844Y-94920500D01*
X134078845Y-94920499D01*
X134166528Y-94903058D01*
X134233488Y-94889739D01*
X134233488Y-94889738D01*
X134233497Y-94889737D01*
X134258363Y-94879437D01*
X134305811Y-94870000D01*
X134762361Y-94870000D01*
X134762360Y-94869999D01*
X134708952Y-94741061D01*
X134708950Y-94741057D01*
X134674394Y-94689341D01*
X134653516Y-94622664D01*
X134672000Y-94555283D01*
X134674367Y-94551600D01*
X134709394Y-94499179D01*
X134769737Y-94353497D01*
X134800500Y-94198842D01*
X134800500Y-94041158D01*
X134800500Y-94041155D01*
X134800499Y-94041153D01*
X134792148Y-93999172D01*
X134769737Y-93886503D01*
X134724358Y-93776947D01*
X134709396Y-93740825D01*
X134709394Y-93740822D01*
X134709394Y-93740821D01*
X134674694Y-93688889D01*
X134653816Y-93622215D01*
X134672300Y-93554835D01*
X134674676Y-93551136D01*
X134709394Y-93499179D01*
X134769737Y-93353497D01*
X134800500Y-93198842D01*
X134800500Y-93041158D01*
X134800500Y-93041155D01*
X134800499Y-93041153D01*
X134790418Y-92990471D01*
X134769737Y-92886503D01*
X134769735Y-92886498D01*
X134709396Y-92740825D01*
X134709394Y-92740822D01*
X134709394Y-92740821D01*
X134674694Y-92688889D01*
X134653816Y-92622215D01*
X134672300Y-92554835D01*
X134674676Y-92551136D01*
X134709394Y-92499179D01*
X134769737Y-92353497D01*
X134800500Y-92198842D01*
X134800500Y-92041158D01*
X134800500Y-92041155D01*
X134800499Y-92041153D01*
X134769738Y-91886510D01*
X134769737Y-91886503D01*
X134738964Y-91812209D01*
X134709397Y-91740827D01*
X134709393Y-91740820D01*
X134674695Y-91688891D01*
X134674393Y-91688438D01*
X134653516Y-91621763D01*
X134672000Y-91554383D01*
X134674395Y-91550657D01*
X134708951Y-91498940D01*
X134762361Y-91370000D01*
X134305811Y-91370000D01*
X134258363Y-91360562D01*
X134233497Y-91350263D01*
X134233490Y-91350261D01*
X134233489Y-91350261D01*
X134233488Y-91350260D01*
X134078845Y-91319500D01*
X134078842Y-91319500D01*
X133624000Y-91319500D01*
X133556961Y-91299815D01*
X133511206Y-91247011D01*
X133500000Y-91195500D01*
X133500000Y-91044500D01*
X133519685Y-90977461D01*
X133572489Y-90931706D01*
X133624000Y-90920500D01*
X134078844Y-90920500D01*
X134078845Y-90920499D01*
X134155152Y-90905320D01*
X134233488Y-90889739D01*
X134233488Y-90889738D01*
X134233497Y-90889737D01*
X134258363Y-90879437D01*
X134305811Y-90870000D01*
X134762361Y-90870000D01*
X134762360Y-90869999D01*
X134708952Y-90741061D01*
X134708950Y-90741057D01*
X134674394Y-90689341D01*
X134653516Y-90622664D01*
X134672000Y-90555283D01*
X134674367Y-90551600D01*
X134709394Y-90499179D01*
X134769737Y-90353497D01*
X134800500Y-90198842D01*
X134800500Y-90041158D01*
X134800500Y-90041155D01*
X134800499Y-90041153D01*
X134769738Y-89886510D01*
X134769737Y-89886503D01*
X134769735Y-89886498D01*
X134709396Y-89740825D01*
X134709394Y-89740822D01*
X134709394Y-89740821D01*
X134674694Y-89688889D01*
X134653816Y-89622215D01*
X134672300Y-89554835D01*
X134674676Y-89551136D01*
X134709394Y-89499179D01*
X134769737Y-89353497D01*
X134800500Y-89198842D01*
X134800500Y-89041158D01*
X134800500Y-89041155D01*
X134800499Y-89041153D01*
X134769738Y-88886510D01*
X134769737Y-88886503D01*
X134769735Y-88886498D01*
X134709396Y-88740825D01*
X134709394Y-88740822D01*
X134709394Y-88740821D01*
X134674694Y-88688889D01*
X134653816Y-88622215D01*
X134672300Y-88554835D01*
X134674676Y-88551136D01*
X134709394Y-88499179D01*
X134769737Y-88353497D01*
X134800500Y-88198842D01*
X134800500Y-88041158D01*
X134800500Y-88041155D01*
X134800499Y-88041153D01*
X134796021Y-88018641D01*
X134769737Y-87886503D01*
X134763844Y-87872275D01*
X134709396Y-87740825D01*
X134709394Y-87740822D01*
X134709394Y-87740821D01*
X134674694Y-87688889D01*
X134653816Y-87622215D01*
X134672300Y-87554835D01*
X134674676Y-87551136D01*
X134709394Y-87499179D01*
X134769737Y-87353497D01*
X134800500Y-87198842D01*
X134800500Y-87041158D01*
X134800500Y-87041155D01*
X134800499Y-87041153D01*
X134769738Y-86886510D01*
X134769737Y-86886503D01*
X134709394Y-86740821D01*
X134674694Y-86688889D01*
X134653816Y-86622215D01*
X134672300Y-86554835D01*
X134674676Y-86551136D01*
X134709394Y-86499179D01*
X134769737Y-86353497D01*
X134800500Y-86198842D01*
X134800500Y-86041158D01*
X134800500Y-86041155D01*
X134800499Y-86041153D01*
X134774428Y-85910086D01*
X134769737Y-85886503D01*
X134719006Y-85764026D01*
X134709396Y-85740825D01*
X134709394Y-85740822D01*
X134709394Y-85740821D01*
X134674694Y-85688889D01*
X134653816Y-85622215D01*
X134672300Y-85554835D01*
X134674676Y-85551136D01*
X134709394Y-85499179D01*
X134769737Y-85353497D01*
X134800500Y-85198842D01*
X134800500Y-85041158D01*
X134800500Y-85041155D01*
X134800499Y-85041153D01*
X134794360Y-85010289D01*
X134769737Y-84886503D01*
X134766703Y-84879178D01*
X134709396Y-84740825D01*
X134709394Y-84740822D01*
X134709394Y-84740821D01*
X134674694Y-84688889D01*
X134653816Y-84622215D01*
X134672300Y-84554835D01*
X134674676Y-84551136D01*
X134709394Y-84499179D01*
X134769737Y-84353497D01*
X134800500Y-84198842D01*
X134800500Y-84198840D01*
X134801304Y-84194799D01*
X134833688Y-84132888D01*
X134894404Y-84098314D01*
X134964174Y-84102053D01*
X135010602Y-84131309D01*
X136713181Y-85833888D01*
X136746666Y-85895211D01*
X136749500Y-85921569D01*
X136749500Y-92891981D01*
X136729815Y-92959020D01*
X136694395Y-92995080D01*
X136689715Y-92998207D01*
X136689707Y-92998213D01*
X136578213Y-93109707D01*
X136578210Y-93109711D01*
X136490609Y-93240814D01*
X136490602Y-93240827D01*
X136430264Y-93386498D01*
X136430261Y-93386510D01*
X136399500Y-93541153D01*
X136399500Y-93698846D01*
X136430261Y-93853489D01*
X136430264Y-93853501D01*
X136490602Y-93999172D01*
X136490609Y-93999185D01*
X136578210Y-94130288D01*
X136578213Y-94130292D01*
X136689707Y-94241786D01*
X136689711Y-94241789D01*
X136820814Y-94329390D01*
X136820827Y-94329397D01*
X136966498Y-94389735D01*
X136966503Y-94389737D01*
X137087018Y-94413709D01*
X137121153Y-94420499D01*
X137121156Y-94420500D01*
X137121158Y-94420500D01*
X137278844Y-94420500D01*
X137278845Y-94420499D01*
X137433497Y-94389737D01*
X137579179Y-94329394D01*
X137710289Y-94241789D01*
X137821789Y-94130289D01*
X137909394Y-93999179D01*
X137969737Y-93853497D01*
X138000500Y-93698842D01*
X138000500Y-93694765D01*
X138009939Y-93647312D01*
X138012451Y-93641248D01*
X138025501Y-93609743D01*
X138025508Y-93609711D01*
X138042758Y-93522989D01*
X138050500Y-93484071D01*
X138050500Y-85536689D01*
X138025502Y-85411022D01*
X138025501Y-85411021D01*
X138025501Y-85411017D01*
X137976465Y-85292634D01*
X137976462Y-85292629D01*
X137968216Y-85280288D01*
X137968215Y-85280286D01*
X137905277Y-85186092D01*
X137905271Y-85186085D01*
X134836260Y-82117075D01*
X134802775Y-82055752D01*
X134800537Y-82041537D01*
X134800500Y-82041167D01*
X134800500Y-82041158D01*
X134769737Y-81886503D01*
X134730017Y-81790609D01*
X134709396Y-81740825D01*
X134709394Y-81740822D01*
X134709394Y-81740821D01*
X134674694Y-81688889D01*
X134653816Y-81622215D01*
X134672300Y-81554835D01*
X134674694Y-81551110D01*
X134709394Y-81499179D01*
X134769737Y-81353497D01*
X134800500Y-81198842D01*
X134800500Y-81041158D01*
X134800500Y-81041155D01*
X134800499Y-81041153D01*
X134781708Y-80946685D01*
X134769737Y-80886503D01*
X134756560Y-80854690D01*
X134709397Y-80740827D01*
X134709393Y-80740820D01*
X134674393Y-80688438D01*
X134653516Y-80621763D01*
X134672000Y-80554383D01*
X134674395Y-80550657D01*
X134708951Y-80498940D01*
X134762361Y-80370000D01*
X134305811Y-80370000D01*
X134258363Y-80360562D01*
X134233497Y-80350263D01*
X134233490Y-80350261D01*
X134233489Y-80350261D01*
X134233488Y-80350260D01*
X134078845Y-80319500D01*
X134078842Y-80319500D01*
X133624000Y-80319500D01*
X133556961Y-80299815D01*
X133511206Y-80247011D01*
X133500000Y-80195500D01*
X133500000Y-79994000D01*
X133519685Y-79926961D01*
X133572489Y-79881206D01*
X133624000Y-79870000D01*
X134762361Y-79870000D01*
X134762360Y-79869999D01*
X134708952Y-79741061D01*
X134708947Y-79741051D01*
X134621401Y-79610030D01*
X134621398Y-79610026D01*
X134509973Y-79498601D01*
X134509969Y-79498598D01*
X134378948Y-79411052D01*
X134378939Y-79411047D01*
X134233351Y-79350743D01*
X134233343Y-79350741D01*
X134074374Y-79319120D01*
X134012463Y-79286735D01*
X133977889Y-79226020D01*
X133981628Y-79156250D01*
X134010882Y-79109824D01*
X136489824Y-76630882D01*
X136551145Y-76597399D01*
X136620837Y-76602383D01*
X136676770Y-76644255D01*
X136699120Y-76694374D01*
X136730741Y-76853343D01*
X136730743Y-76853351D01*
X136791047Y-76998939D01*
X136791052Y-76998948D01*
X136878598Y-77129969D01*
X136878601Y-77129973D01*
X136990026Y-77241398D01*
X136990034Y-77241404D01*
X137121047Y-77328944D01*
X137121065Y-77328954D01*
X137249999Y-77382360D01*
X137250000Y-77382360D01*
X137250000Y-76244000D01*
X137269685Y-76176961D01*
X137322489Y-76131206D01*
X137374000Y-76120000D01*
X137575500Y-76120000D01*
X137642539Y-76139685D01*
X137688294Y-76192489D01*
X137699500Y-76244000D01*
X137699500Y-76698846D01*
X137730261Y-76853489D01*
X137730263Y-76853497D01*
X137740561Y-76878358D01*
X137750000Y-76925811D01*
X137750000Y-77382360D01*
X137878935Y-77328954D01*
X137878947Y-77328947D01*
X137930659Y-77294395D01*
X137997336Y-77273517D01*
X138064716Y-77292001D01*
X138068441Y-77294395D01*
X138120162Y-77328954D01*
X138120821Y-77329394D01*
X138120823Y-77329395D01*
X138120827Y-77329397D01*
X138248693Y-77382360D01*
X138266503Y-77389737D01*
X138421153Y-77420499D01*
X138421156Y-77420500D01*
X138421158Y-77420500D01*
X138578844Y-77420500D01*
X138578845Y-77420499D01*
X138733497Y-77389737D01*
X138879179Y-77329394D01*
X138931560Y-77294394D01*
X138998234Y-77273516D01*
X139065614Y-77292000D01*
X139069340Y-77294394D01*
X139121052Y-77328947D01*
X139121065Y-77328954D01*
X139250000Y-77382360D01*
X139250000Y-76925811D01*
X139259439Y-76878358D01*
X139269737Y-76853497D01*
X139300500Y-76698842D01*
X139300500Y-76244000D01*
X139320185Y-76176961D01*
X139372989Y-76131206D01*
X139424500Y-76120000D01*
X139575500Y-76120000D01*
X139642539Y-76139685D01*
X139688294Y-76192489D01*
X139699500Y-76244000D01*
X139699500Y-76698846D01*
X139730261Y-76853489D01*
X139730263Y-76853497D01*
X139740561Y-76878358D01*
X139750000Y-76925811D01*
X139750000Y-77382360D01*
X139878935Y-77328954D01*
X139878947Y-77328947D01*
X139930659Y-77294395D01*
X139997336Y-77273517D01*
X140064716Y-77292001D01*
X140068441Y-77294395D01*
X140120162Y-77328954D01*
X140120821Y-77329394D01*
X140120823Y-77329395D01*
X140120827Y-77329397D01*
X140248693Y-77382360D01*
X140266503Y-77389737D01*
X140421153Y-77420499D01*
X140421156Y-77420500D01*
X140421158Y-77420500D01*
X140578844Y-77420500D01*
X140578845Y-77420499D01*
X140733497Y-77389737D01*
X140879179Y-77329394D01*
X140931110Y-77294694D01*
X140997785Y-77273816D01*
X141065165Y-77292300D01*
X141068863Y-77294676D01*
X141120821Y-77329394D01*
X141120823Y-77329395D01*
X141120825Y-77329396D01*
X141248691Y-77382359D01*
X141266503Y-77389737D01*
X141421153Y-77420499D01*
X141421156Y-77420500D01*
X141421158Y-77420500D01*
X141578844Y-77420500D01*
X141578845Y-77420499D01*
X141733497Y-77389737D01*
X141879179Y-77329394D01*
X141931110Y-77294694D01*
X141997785Y-77273816D01*
X142065165Y-77292300D01*
X142068863Y-77294676D01*
X142120821Y-77329394D01*
X142120823Y-77329395D01*
X142120825Y-77329396D01*
X142248691Y-77382359D01*
X142266503Y-77389737D01*
X142421153Y-77420499D01*
X142421156Y-77420500D01*
X142421158Y-77420500D01*
X142578844Y-77420500D01*
X142578845Y-77420499D01*
X142733497Y-77389737D01*
X142879179Y-77329394D01*
X142931110Y-77294694D01*
X142997785Y-77273816D01*
X143065165Y-77292300D01*
X143068863Y-77294676D01*
X143120821Y-77329394D01*
X143120823Y-77329395D01*
X143120825Y-77329396D01*
X143248691Y-77382359D01*
X143266503Y-77389737D01*
X143421153Y-77420499D01*
X143421156Y-77420500D01*
X143421158Y-77420500D01*
X143578844Y-77420500D01*
X143578845Y-77420499D01*
X143733497Y-77389737D01*
X143879179Y-77329394D01*
X143931110Y-77294694D01*
X143997785Y-77273816D01*
X144065165Y-77292300D01*
X144068863Y-77294676D01*
X144120821Y-77329394D01*
X144120823Y-77329395D01*
X144120825Y-77329396D01*
X144248691Y-77382359D01*
X144266503Y-77389737D01*
X144421153Y-77420499D01*
X144421156Y-77420500D01*
X144421158Y-77420500D01*
X144578844Y-77420500D01*
X144578845Y-77420499D01*
X144733497Y-77389737D01*
X144879179Y-77329394D01*
X144931110Y-77294694D01*
X144997785Y-77273816D01*
X145065165Y-77292300D01*
X145068863Y-77294676D01*
X145120821Y-77329394D01*
X145120823Y-77329395D01*
X145120825Y-77329396D01*
X145248691Y-77382359D01*
X145266503Y-77389737D01*
X145421153Y-77420499D01*
X145421156Y-77420500D01*
X145421158Y-77420500D01*
X145578844Y-77420500D01*
X145578845Y-77420499D01*
X145733497Y-77389737D01*
X145879179Y-77329394D01*
X145931110Y-77294694D01*
X145997785Y-77273816D01*
X146065165Y-77292300D01*
X146068863Y-77294676D01*
X146120821Y-77329394D01*
X146120823Y-77329395D01*
X146120825Y-77329396D01*
X146248691Y-77382359D01*
X146266503Y-77389737D01*
X146421153Y-77420499D01*
X146421156Y-77420500D01*
X146421158Y-77420500D01*
X146578844Y-77420500D01*
X146578845Y-77420499D01*
X146733497Y-77389737D01*
X146879179Y-77329394D01*
X146931110Y-77294694D01*
X146997785Y-77273816D01*
X147065165Y-77292300D01*
X147068863Y-77294676D01*
X147120821Y-77329394D01*
X147120823Y-77329395D01*
X147120825Y-77329396D01*
X147248691Y-77382359D01*
X147266503Y-77389737D01*
X147421153Y-77420499D01*
X147421156Y-77420500D01*
X147421158Y-77420500D01*
X147578844Y-77420500D01*
X147578845Y-77420499D01*
X147733497Y-77389737D01*
X147879179Y-77329394D01*
X147931110Y-77294694D01*
X147997785Y-77273816D01*
X148065165Y-77292300D01*
X148068863Y-77294676D01*
X148120821Y-77329394D01*
X148120823Y-77329395D01*
X148120825Y-77329396D01*
X148248691Y-77382359D01*
X148266503Y-77389737D01*
X148421153Y-77420499D01*
X148421156Y-77420500D01*
X148421158Y-77420500D01*
X148578844Y-77420500D01*
X148578845Y-77420499D01*
X148733497Y-77389737D01*
X148879179Y-77329394D01*
X148931560Y-77294394D01*
X148998234Y-77273516D01*
X149065614Y-77292000D01*
X149069340Y-77294394D01*
X149121052Y-77328947D01*
X149121065Y-77328954D01*
X149249999Y-77382360D01*
X149250000Y-77382360D01*
X149750000Y-77382360D01*
X149878935Y-77328954D01*
X149878942Y-77328950D01*
X149931108Y-77294094D01*
X149997786Y-77273216D01*
X150065166Y-77291700D01*
X150068892Y-77294094D01*
X150121057Y-77328950D01*
X150121064Y-77328954D01*
X150249999Y-77382360D01*
X150250000Y-77382360D01*
X150250000Y-76370000D01*
X149750000Y-76370000D01*
X149750000Y-77382360D01*
X149250000Y-77382360D01*
X149250000Y-76925811D01*
X149259439Y-76878358D01*
X149269737Y-76853497D01*
X149300500Y-76698842D01*
X149300500Y-76244000D01*
X149320185Y-76176961D01*
X149372989Y-76131206D01*
X149424500Y-76120000D01*
X149500000Y-76120000D01*
X149500000Y-75994000D01*
X149519685Y-75926961D01*
X149572489Y-75881206D01*
X149624000Y-75870000D01*
X150376000Y-75870000D01*
X150443039Y-75889685D01*
G37*
%TD.AperFunction*%
%TD*%
M02*
