%TF.GenerationSoftware,KiCad,Pcbnew,10.0.5*%
%TF.CreationDate,2026-09-27T19:02:26+05:30*%
%TF.ProjectId,STM32 GPS Tracker,53544d33-3220-4475-9053-20547261636b,rev?*%
%TF.SameCoordinates,Original*%
%TF.FileFunction,Paste,Top*%
%TF.FilePolarity,Positive*%
%FSLAX46Y46*%
G04 Gerber Fmt 4.6, Leading zero omitted, Abs format (unit mm)*
G04 Created by KiCad (PCBNEW 10.0.5) date 2026-09-27 19:02:26*
%MOMM*%
%LPD*%
G01*
G04 APERTURE LIST*
G04 Aperture macros list*
%AMRoundRect*
0 Rectangle with rounded corners*
0 $1 Rounding radius*
0 $2 $3 $4 $5 $6 $7 $8 $9 X,Y pos of 4 corners*
0 Add a 4 corners polygon primitive as box body*
4,1,4,$2,$3,$4,$5,$6,$7,$8,$9,$2,$3,0*
0 Add four circle primitives for the rounded corners*
1,1,$1+$1,$2,$3*
1,1,$1+$1,$4,$5*
1,1,$1+$1,$6,$7*
1,1,$1+$1,$8,$9*
0 Add four rect primitives between the rounded corners*
20,1,$1+$1,$2,$3,$4,$5,0*
20,1,$1+$1,$4,$5,$6,$7,0*
20,1,$1+$1,$6,$7,$8,$9,0*
20,1,$1+$1,$8,$9,$2,$3,0*%
G04 Aperture macros list end*
%ADD10RoundRect,0.075000X-0.521491X0.415425X0.415425X-0.521491X0.521491X-0.415425X-0.415425X0.521491X0*%
%ADD11RoundRect,0.075000X-0.521491X-0.415425X-0.415425X-0.521491X0.521491X0.415425X0.415425X0.521491X0*%
%ADD12RoundRect,0.140000X-0.170000X0.140000X-0.170000X-0.140000X0.170000X-0.140000X0.170000X0.140000X0*%
%ADD13RoundRect,0.079500X0.100500X-0.079500X0.100500X0.079500X-0.100500X0.079500X-0.100500X-0.079500X0*%
%ADD14RoundRect,0.250000X0.450000X-0.262500X0.450000X0.262500X-0.450000X0.262500X-0.450000X-0.262500X0*%
%ADD15RoundRect,0.140000X0.170000X-0.140000X0.170000X0.140000X-0.170000X0.140000X-0.170000X-0.140000X0*%
%ADD16RoundRect,0.250000X-0.475000X0.250000X-0.475000X-0.250000X0.475000X-0.250000X0.475000X0.250000X0*%
%ADD17R,2.700000X3.600000*%
%ADD18RoundRect,0.250000X0.262500X0.450000X-0.262500X0.450000X-0.262500X-0.450000X0.262500X-0.450000X0*%
%ADD19RoundRect,0.135000X0.185000X-0.135000X0.185000X0.135000X-0.185000X0.135000X-0.185000X-0.135000X0*%
%ADD20RoundRect,0.150000X0.150000X-0.587500X0.150000X0.587500X-0.150000X0.587500X-0.150000X-0.587500X0*%
%ADD21RoundRect,0.147500X-0.172500X0.147500X-0.172500X-0.147500X0.172500X-0.147500X0.172500X0.147500X0*%
%ADD22R,1.200000X1.400000*%
%ADD23RoundRect,0.250000X-0.650000X0.325000X-0.650000X-0.325000X0.650000X-0.325000X0.650000X0.325000X0*%
%ADD24RoundRect,0.200000X0.275000X-0.200000X0.275000X0.200000X-0.275000X0.200000X-0.275000X-0.200000X0*%
%ADD25RoundRect,0.140000X-0.140000X-0.170000X0.140000X-0.170000X0.140000X0.170000X-0.140000X0.170000X0*%
%ADD26RoundRect,0.250000X-0.450000X0.262500X-0.450000X-0.262500X0.450000X-0.262500X0.450000X0.262500X0*%
%ADD27RoundRect,0.250000X-1.400000X-1.000000X1.400000X-1.000000X1.400000X1.000000X-1.400000X1.000000X0*%
%ADD28R,1.550000X0.600000*%
%ADD29R,2.600000X3.100000*%
%ADD30RoundRect,0.079500X0.079500X0.100500X-0.079500X0.100500X-0.079500X-0.100500X0.079500X-0.100500X0*%
G04 APERTURE END LIST*
D10*
%TO.C,U4*%
X145901212Y-97532124D03*
X145547658Y-97885678D03*
X145194105Y-98239231D03*
X144840551Y-98592785D03*
X144486997Y-98946338D03*
X144133445Y-99299891D03*
X143779891Y-99653445D03*
X143426338Y-100006998D03*
X143072785Y-100360551D03*
X142719231Y-100714105D03*
X142365678Y-101067658D03*
X142012124Y-101421212D03*
D11*
X142012124Y-103418788D03*
X142365678Y-103772342D03*
X142719231Y-104125895D03*
X143072785Y-104479449D03*
X143426338Y-104833003D03*
X143779891Y-105186555D03*
X144133445Y-105540109D03*
X144486998Y-105893662D03*
X144840551Y-106247215D03*
X145194105Y-106600769D03*
X145547658Y-106954322D03*
X145901212Y-107307876D03*
D10*
X147898788Y-107307876D03*
X148252342Y-106954322D03*
X148605895Y-106600769D03*
X148959449Y-106247215D03*
X149313003Y-105893662D03*
X149666555Y-105540109D03*
X150020109Y-105186555D03*
X150373662Y-104833002D03*
X150727215Y-104479449D03*
X151080769Y-104125895D03*
X151434322Y-103772342D03*
X151787876Y-103418788D03*
D11*
X151787876Y-101421212D03*
X151434322Y-101067658D03*
X151080769Y-100714105D03*
X150727215Y-100360551D03*
X150373662Y-100006997D03*
X150020109Y-99653445D03*
X149666555Y-99299891D03*
X149313002Y-98946338D03*
X148959449Y-98592785D03*
X148605895Y-98239231D03*
X148252342Y-97885678D03*
X147898788Y-97532124D03*
%TD*%
D12*
%TO.C,C16*%
X142300000Y-93020000D03*
X142300000Y-93980000D03*
%TD*%
%TO.C,C15*%
X139300000Y-93020000D03*
X139300000Y-93980000D03*
%TD*%
D13*
%TO.C,C7*%
X139200000Y-79465000D03*
X139200000Y-78775000D03*
%TD*%
D14*
%TO.C,R13*%
X153100000Y-111732500D03*
X153100000Y-109907500D03*
%TD*%
D13*
%TO.C,R9*%
X139000000Y-110165000D03*
X139000000Y-109475000D03*
%TD*%
D14*
%TO.C,R5*%
X153000000Y-89407500D03*
X153000000Y-87582500D03*
%TD*%
D15*
%TO.C,C13*%
X132980000Y-105600000D03*
X132980000Y-104640000D03*
%TD*%
%TO.C,C14*%
X145600000Y-110800000D03*
X145600000Y-109840000D03*
%TD*%
D16*
%TO.C,C4*%
X141200000Y-74070000D03*
X141200000Y-75970000D03*
%TD*%
D12*
%TO.C,C19*%
X151100000Y-92820000D03*
X151100000Y-93780000D03*
%TD*%
D17*
%TO.C,L1*%
X125550000Y-83020000D03*
X133850000Y-83020000D03*
%TD*%
D18*
%TO.C,R8*%
X152612500Y-81220000D03*
X150787500Y-81220000D03*
%TD*%
D19*
%TO.C,R10*%
X154300000Y-93830000D03*
X154300000Y-92810000D03*
%TD*%
D12*
%TO.C,C17*%
X145300000Y-93020000D03*
X145300000Y-93980000D03*
%TD*%
D13*
%TO.C,D5*%
X151000000Y-111165000D03*
X151000000Y-110475000D03*
%TD*%
D20*
%TO.C,Q1*%
X145350000Y-71857500D03*
X147250000Y-71857500D03*
X146300000Y-69982500D03*
%TD*%
D21*
%TO.C,F1*%
X141500000Y-70050000D03*
X141500000Y-71020000D03*
%TD*%
D22*
%TO.C,Y1*%
X134450000Y-99420000D03*
X134450000Y-101620000D03*
X136150000Y-101620000D03*
X136150000Y-99420000D03*
%TD*%
D23*
%TO.C,C1*%
X139800000Y-85945000D03*
X139800000Y-88895000D03*
%TD*%
D24*
%TO.C,R11*%
X142500000Y-110845000D03*
X142500000Y-109195000D03*
%TD*%
D25*
%TO.C,C10*%
X135600000Y-96820000D03*
X136560000Y-96820000D03*
%TD*%
D15*
%TO.C,C11*%
X144200000Y-110800000D03*
X144200000Y-109840000D03*
%TD*%
D12*
%TO.C,C18*%
X148300000Y-93020000D03*
X148300000Y-93980000D03*
%TD*%
D14*
%TO.C,R6*%
X148900000Y-89307500D03*
X148900000Y-87482500D03*
%TD*%
D26*
%TO.C,R7*%
X145000000Y-87395000D03*
X145000000Y-89220000D03*
%TD*%
D27*
%TO.C,D2*%
X152600000Y-68920000D03*
X152600000Y-75720000D03*
%TD*%
D28*
%TO.C,U1*%
X120300000Y-71495000D03*
X120300000Y-72765000D03*
X120300000Y-74035000D03*
X120300000Y-75305000D03*
X125700000Y-75305000D03*
X125700000Y-74035000D03*
X125700000Y-72765000D03*
X125700000Y-71495000D03*
D29*
X123000000Y-73400000D03*
%TD*%
D13*
%TO.C,D4*%
X146900000Y-110920000D03*
X146900000Y-110230000D03*
%TD*%
D30*
%TO.C,D3*%
X155990000Y-81120000D03*
X155300000Y-81120000D03*
%TD*%
D15*
%TO.C,C12*%
X140600000Y-110280000D03*
X140600000Y-109320000D03*
%TD*%
D14*
%TO.C,R12*%
X148900000Y-111432500D03*
X148900000Y-109607500D03*
%TD*%
M02*
