%TF.GenerationSoftware,KiCad,Pcbnew,10.0.5*%
%TF.CreationDate,2026-09-27T19:02:26+05:30*%
%TF.ProjectId,STM32 GPS Tracker,53544d33-3220-4475-9053-20547261636b,rev?*%
%TF.SameCoordinates,Original*%
%TF.FileFunction,Soldermask,Bot*%
%TF.FilePolarity,Negative*%
%FSLAX46Y46*%
G04 Gerber Fmt 4.6, Leading zero omitted, Abs format (unit mm)*
G04 Created by KiCad (PCBNEW 10.0.5) date 2026-09-27 19:02:26*
%MOMM*%
%LPD*%
G01*
G04 APERTURE LIST*
G04 Aperture macros list*
%AMRoundRect*
0 Rectangle with rounded corners*
0 $1 Rounding radius*
0 $2 $3 $4 $5 $6 $7 $8 $9 X,Y pos of 4 corners*
0 Add a 4 corners polygon primitive as box body*
4,1,4,$2,$3,$4,$5,$6,$7,$8,$9,$2,$3,0*
0 Add four circle primitives for the rounded corners*
1,1,$1+$1,$2,$3*
1,1,$1+$1,$4,$5*
1,1,$1+$1,$6,$7*
1,1,$1+$1,$8,$9*
0 Add four rect primitives between the rounded corners*
20,1,$1+$1,$2,$3,$4,$5,0*
20,1,$1+$1,$4,$5,$6,$7,0*
20,1,$1+$1,$6,$7,$8,$9,0*
20,1,$1+$1,$8,$9,$2,$3,0*%
G04 Aperture macros list end*
%ADD10RoundRect,0.102000X0.800000X-0.750000X0.800000X0.750000X-0.800000X0.750000X-0.800000X-0.750000X0*%
%ADD11RoundRect,0.102000X0.750000X-0.500000X0.750000X0.500000X-0.750000X0.500000X-0.750000X-0.500000X0*%
%ADD12RoundRect,0.249999X-1.250001X-1.250001X1.250001X-1.250001X1.250001X1.250001X-1.250001X1.250001X0*%
%ADD13C,3.000000*%
%ADD14RoundRect,0.250001X0.949999X-0.949999X0.949999X0.949999X-0.949999X0.949999X-0.949999X-0.949999X0*%
%ADD15C,2.400000*%
%ADD16C,2.000000*%
%ADD17RoundRect,0.140000X-0.170000X0.140000X-0.170000X-0.140000X0.170000X-0.140000X0.170000X0.140000X0*%
%ADD18RoundRect,0.250000X-1.045000X0.785000X-1.045000X-0.785000X1.045000X-0.785000X1.045000X0.785000X0*%
%ADD19RoundRect,0.135000X-0.185000X0.135000X-0.185000X-0.135000X0.185000X-0.135000X0.185000X0.135000X0*%
%ADD20RoundRect,0.100000X0.130000X0.100000X-0.130000X0.100000X-0.130000X-0.100000X0.130000X-0.100000X0*%
%ADD21RoundRect,0.199500X0.432500X0.097500X-0.432500X0.097500X-0.432500X-0.097500X0.432500X-0.097500X0*%
%ADD22RoundRect,0.243750X0.243750X0.456250X-0.243750X0.456250X-0.243750X-0.456250X0.243750X-0.456250X0*%
%ADD23O,1.804000X0.804000*%
%ADD24O,0.804000X1.804000*%
%ADD25RoundRect,0.140000X0.140000X0.170000X-0.140000X0.170000X-0.140000X-0.170000X0.140000X-0.170000X0*%
%ADD26RoundRect,0.135000X0.185000X-0.135000X0.185000X0.135000X-0.185000X0.135000X-0.185000X-0.135000X0*%
%ADD27RoundRect,0.102000X0.550000X1.125000X-0.550000X1.125000X-0.550000X-1.125000X0.550000X-1.125000X0*%
%ADD28RoundRect,0.102000X0.525000X0.550000X-0.525000X0.550000X-0.525000X-0.550000X0.525000X-0.550000X0*%
%ADD29RoundRect,0.102000X-1.125000X0.550000X-1.125000X-0.550000X1.125000X-0.550000X1.125000X0.550000X0*%
%ADD30RoundRect,0.102000X-0.550000X0.525000X-0.550000X-0.525000X0.550000X-0.525000X0.550000X0.525000X0*%
G04 APERTURE END LIST*
D10*
%TO.C,J2*%
X148980000Y-120820000D03*
X146280000Y-120820000D03*
X148980000Y-105920000D03*
X146280000Y-105920000D03*
D11*
X140730000Y-112190000D03*
X140730000Y-114730000D03*
X140730000Y-117270000D03*
X153330000Y-112190000D03*
X153330000Y-114730000D03*
X153330000Y-117270000D03*
%TD*%
D12*
%TO.C,J1*%
X130200000Y-71387500D03*
D13*
X135200000Y-71387500D03*
%TD*%
D14*
%TO.C,J4*%
X123500000Y-120080000D03*
D15*
X123500000Y-116120000D03*
X123500000Y-112160000D03*
X123500000Y-108200000D03*
X123500000Y-104240000D03*
X123500000Y-100280000D03*
X123500000Y-96320000D03*
X123500000Y-92360000D03*
%TD*%
D16*
%TO.C,SW2*%
X158450000Y-119170000D03*
X158450000Y-112670000D03*
X162950000Y-119170000D03*
X162950000Y-112670000D03*
%TD*%
%TO.C,SW1*%
X130150000Y-112970000D03*
X136650000Y-112970000D03*
X130150000Y-117470000D03*
X136650000Y-117470000D03*
%TD*%
D14*
%TO.C,J3*%
X168700000Y-120520000D03*
D15*
X168700000Y-116560000D03*
X168700000Y-112600000D03*
X168700000Y-108640000D03*
X168700000Y-104680000D03*
X168700000Y-100720000D03*
X168700000Y-96760000D03*
X168700000Y-92800000D03*
%TD*%
D17*
%TO.C,C6*%
X136800000Y-103040000D03*
X136800000Y-104000000D03*
%TD*%
D18*
%TO.C,C9*%
X164380000Y-71700000D03*
X164380000Y-77940000D03*
%TD*%
D19*
%TO.C,R2*%
X145100000Y-103000000D03*
X145100000Y-104020000D03*
%TD*%
D20*
%TO.C,C5*%
X162920000Y-96120000D03*
X162280000Y-96120000D03*
%TD*%
D21*
%TO.C,U3*%
X138635000Y-107970000D03*
X138635000Y-108620000D03*
X138635000Y-109270000D03*
X136765000Y-109270000D03*
X136765000Y-108620000D03*
X136765000Y-107970000D03*
%TD*%
D22*
%TO.C,D1*%
X165017500Y-84720000D03*
X163142500Y-84720000D03*
%TD*%
D19*
%TO.C,R3*%
X139200000Y-103000000D03*
X139200000Y-104020000D03*
%TD*%
D23*
%TO.C,U2*%
X157500000Y-80120000D03*
X157500000Y-81120000D03*
X157500000Y-82120000D03*
X157500000Y-83120000D03*
X157500000Y-84120000D03*
X157500000Y-85120000D03*
X157500000Y-86120000D03*
X157500000Y-87120000D03*
X157500000Y-88120000D03*
X157500000Y-89120000D03*
X157500000Y-90120000D03*
X157500000Y-91120000D03*
X157500000Y-92120000D03*
X157500000Y-93120000D03*
X157500000Y-94120000D03*
X157500000Y-95120000D03*
X157500000Y-96120000D03*
D24*
X153500000Y-100120000D03*
X152500000Y-100120000D03*
X151500000Y-100120000D03*
X150500000Y-100120000D03*
X149500000Y-100120000D03*
X148500000Y-100120000D03*
X147500000Y-100120000D03*
X146500000Y-100120000D03*
X145500000Y-100120000D03*
X144500000Y-100120000D03*
X143500000Y-100120000D03*
X142500000Y-100120000D03*
X141500000Y-100120000D03*
X140500000Y-100120000D03*
X139500000Y-100120000D03*
X138500000Y-100120000D03*
X137500000Y-100120000D03*
D23*
X133500000Y-96120000D03*
X133500000Y-95120000D03*
X133500000Y-94120000D03*
X133500000Y-93120000D03*
X133500000Y-92120000D03*
X133500000Y-91120000D03*
X133500000Y-90120000D03*
X133500000Y-89120000D03*
X133500000Y-88120000D03*
X133500000Y-87120000D03*
X133500000Y-86120000D03*
X133500000Y-85120000D03*
X133500000Y-84120000D03*
X133500000Y-83120000D03*
X133500000Y-82120000D03*
X133500000Y-81120000D03*
X133500000Y-80120000D03*
D24*
X137500000Y-76120000D03*
X138500000Y-76120000D03*
X139500000Y-76120000D03*
X140500000Y-76120000D03*
X141500000Y-76120000D03*
X142500000Y-76120000D03*
X143500000Y-76120000D03*
X144500000Y-76120000D03*
X145500000Y-76120000D03*
X146500000Y-76120000D03*
X147500000Y-76120000D03*
X148500000Y-76120000D03*
X149500000Y-76120000D03*
X150500000Y-76120000D03*
X151500000Y-76120000D03*
X152500000Y-76120000D03*
X153500000Y-76120000D03*
%TD*%
D25*
%TO.C,C3*%
X165180000Y-82420000D03*
X164220000Y-82420000D03*
%TD*%
D17*
%TO.C,C8*%
X135100000Y-106340000D03*
X135100000Y-107300000D03*
%TD*%
D26*
%TO.C,R1*%
X147900000Y-104030000D03*
X147900000Y-103010000D03*
%TD*%
D19*
%TO.C,R4*%
X142150000Y-103000000D03*
X142150000Y-104020000D03*
%TD*%
D27*
%TO.C,GSM2*%
X154700000Y-70020000D03*
X151750000Y-70020000D03*
D28*
X153225000Y-71570000D03*
%TD*%
D25*
%TO.C,C2*%
X165180000Y-80620000D03*
X164220000Y-80620000D03*
%TD*%
D29*
%TO.C,GSM1*%
X130450000Y-100445000D03*
X130450000Y-103395000D03*
D30*
X132000000Y-101920000D03*
%TD*%
M02*
